<?xml version="1.0" standalone="no"?>
<!DOCTYPE svg PUBLIC "-//W3C//DTD SVG 1.1//EN" "http://www.w3.org/Graphics/SVG/1.1/DTD/svg11.dtd" >
<svg xmlns="http://www.w3.org/2000/svg" xmlns:xlink="http://www.w3.org/1999/xlink" version="1.1">
<metadata>
Created by FontForge 20170731 at Wed Dec  8 21:05:24 2021
 By Aleksey,,,
Copyright 2015 The Alumni Sans Project Authors (https://github.com/googlefonts/alumni)
</metadata>
<defs>
<font id="AlumniSans-Bold" horiz-adv-x="0" >
  <font-face 
    font-family="Alumni Sans"
    font-weight="700"
    font-stretch="normal"
    units-per-em="1000"
    panose-1="0 0 0 0 0 0 0 0 0 0"
    ascent="800"
    descent="-200"
    x-height="495"
    cap-height="591"
    bbox="-109 -298 974 867"
    underline-thickness="50"
    underline-position="-175"
    unicode-range="U+000D-FB02"
  />
<missing-glyph horiz-adv-x="437" 
d="M58 0l-8 9v611l8 10h320l9 -9v-613l-9 -8h-320zM50 9l307 612h30l-307 -612h-30zM357 9l-307 612h30l307 -612h-30zM107 66h223v497h-223v-497z" />
    <glyph glyph-name="fi" unicode="fi" horiz-adv-x="396" 
d="M45 0v411h-32v65h32v47q0 60 36.5 84.5t112.5 24.5q47 0 82 -6t60 -14l-7 -55q-23 9 -49 13.5t-56 4.5q-32 0 -49 -12.5t-17 -39.5v-47h204v-476h-114v411h-90v-411h-113z" />
    <glyph glyph-name="fl" unicode="fl" horiz-adv-x="418" 
d="M45 0v411h-32v65h32v47q0 58 31.5 83.5t115.5 25.5q30 0 64.5 -3t67 -7.5t56.5 -10.5v-611h-113v594l30 -30q-22 6 -44 9t-36 3q-36 0 -47.5 -13t-11.5 -40v-47h74v-65h-74v-411h-113z" />
    <glyph glyph-name="f_f" unicode="ff" horiz-adv-x="445" 
d="M45 0v411h-32v65h32v47q0 54 32 81.5t93 27.5q42 0 70 -5t43 -10l-19 -48q-10 4 -30 5.5t-36 1.5q-21 0 -30.5 -12.5t-9.5 -38.5v-49h84v47q0 52 29 80.5t86 28.5q34 0 59 -1.5t34 -3.5v-55q-5 2 -21 3t-34 1q-22 0 -31 -13t-9 -36v-51h95v-65h-95v-411h-113v411h-84
v-411h-113z" />
    <glyph glyph-name="f_f_i" unicode="ffi" horiz-adv-x="593" 
d="M45 0v411h-32v65h32v47q0 49 29 79t95 30q32 0 62.5 -4t51.5 -11l-19 -47q-11 3 -27 4.5t-36 1.5q-23 0 -33 -12.5t-10 -41.5v-46h84v47q0 44 18.5 67.5t50.5 32.5t73 9q45 0 77.5 -6t57.5 -15v-55q-24 9 -50.5 14t-54.5 5q-26 0 -38.5 -7.5t-16.5 -20t-4 -24.5v-47h204
v-476h-114v411h-90v-411h-113v411h-84v-411h-113z" />
    <glyph glyph-name="f_f_l" unicode="ffl" horiz-adv-x="615" 
d="M45 -1v412h-32v65h32v47q0 54 32.5 81.5t86.5 27.5q39 0 69.5 -5.5t49.5 -9.5l-19 -49q-11 2 -29.5 5t-33.5 3q-24 0 -33.5 -13t-9.5 -40v-47h84v47q0 49 30 79t108 30q35 0 72 -3t70 -7.5t55 -10.5v-612h-114v595l31 -30q-19 6 -43 9t-37 3q-36 0 -47.5 -13t-11.5 -40
v-48h76v-66h-76v-410h-113v412h-84v-412h-113z" />
    <glyph glyph-name=".notdef" horiz-adv-x="437" 
d="M58 0l-8 9v611l8 10h320l9 -9v-613l-9 -8h-320zM50 9l307 612h30l-307 -612h-30zM357 9l-307 612h30l307 -612h-30zM107 66h223v497h-223v-497z" />
    <glyph glyph-name=".null" 
 />
    <glyph glyph-name="nonmarkingreturn" horiz-adv-x="333" 
 />
    <glyph glyph-name="CR" unicode="&#xd;" horiz-adv-x="409" 
 />
    <glyph glyph-name="space" unicode=" " horiz-adv-x="166" 
 />
    <glyph glyph-name="exclam" unicode="!" horiz-adv-x="219" 
d="M72 190l-20 181l-6 259h124l-6 -257l-20 -183h-72zM112 -7q-27 0 -45.5 17t-18.5 42q0 24 18.5 41.5t45.5 17.5t45.5 -17.5t18.5 -41.5q0 -25 -18.5 -42t-45.5 -17z" />
    <glyph glyph-name="quotedbl" unicode="&#x22;" horiz-adv-x="347" 
d="M210 421l-16 209h96l-17 -209h-63zM74 421l-17 209h96l-17 -209h-62z" />
    <glyph glyph-name="numbersign" unicode="#" horiz-adv-x="719" 
d="M126 0l55 174h-148l22 70h148l40 125l-151 1l23 70h150l42 134h73l-43 -134h133l42 134h74l-43 -134h143l-22 -71h-144l-39 -125h145l-22 -71h-145l-54 -173h-73l54 173l-132 1l-55 -174h-73zM276 244h133l38 125h-132z" />
    <glyph glyph-name="dollar" unicode="$" horiz-adv-x="359" 
d="M148 49q-70 0 -95 39t-25 110v36h109v-60q0 -18 1.5 -33t10.5 -23t30 -8q19 0 27.5 7.5t10.5 19.5t2 23v38q0 25 -9.5 39.5t-27.5 25t-44 21.5q-26 10 -49 24.5t-36.5 38t-13.5 60.5v29q0 55 25.5 87.5t88.5 38.5l69 2q64 -6 88.5 -40.5t24.5 -101.5v-37h-104v57
q0 33 -9.5 46.5t-31.5 13.5q-25 0 -33 -13t-8 -32v-38q0 -26 13 -40.5t34 -23.5t46 -19t46 -23.5t34 -36t13 -60.5v-30q0 -28 -5 -52.5t-18 -43.5t-36 -29.5t-59 -10.5zM195 673h67l-80 -739h-67z" />
    <glyph glyph-name="percent" unicode="%" horiz-adv-x="577" 
d="M83 0l323 591h84l-324 -591h-83zM218 203q-33 0 -53.5 8.5t-30 29t-9.5 57.5v122q0 18 4.5 36t23.5 30.5t61 12.5q43 0 64.5 -9.5t28 -28t6.5 -45.5v-116q0 -40 -10 -61t-31 -28.5t-54 -7.5zM218 240q17 0 22.5 10t5.5 28v147q0 17 -5.5 27t-22.5 10q-12 0 -17.5 -5.5
t-7 -13.5t-1.5 -18v-148q0 -9 1.5 -17.5t7 -14t17.5 -5.5zM357 88q-33 0 -53.5 8t-30 29t-9.5 58v122q0 18 4.5 36t24 30.5t60.5 12.5q43 0 64.5 -9.5t28 -28t6.5 -45.5v-116q0 -40 -10 -61t-31 -28.5t-54 -7.5zM357 125q17 0 22.5 9.5t5.5 27.5v147q0 18 -5.5 28t-22.5 10
q-12 0 -17.5 -5.5t-7 -14t-1.5 -18.5v-147q0 -9 1.5 -18t7 -14t17.5 -5z" />
    <glyph glyph-name="ampersand" unicode="&#x26;" horiz-adv-x="463" 
d="M187 -4q-53 0 -88 20.5t-52.5 57t-17.5 87.5q0 48 20.5 84.5t61.5 45.5q-11 19 -18 44t-6 57q3 56 33.5 86t94.5 30q31 0 61.5 -4.5t53 -9.5t31.5 -9v-83q-3 1 -21 5.5t-43.5 8.5t-51.5 4q-23 0 -36 -10.5t-17.5 -26t-0.5 -33.5t14 -35q4 -6 11.5 -16.5t16.5 -21.5
l18 -22t17 -20t13 -15l1 90h152v-72h-78q0 -18 -0.5 -31.5t-1.5 -25t-2 -23.5q20 -17 43.5 -33.5t38.5 -23.5v-103q-21 1 -55 20.5t-65 45.5q-13 -26 -32.5 -41t-43.5 -21t-51 -6zM192 74q24 0 39 11.5t21 30.5q-29 29 -56.5 59.5t-45.5 55.5q-14 -6 -22.5 -20t-8.5 -39
q-2 -47 18.5 -72.5t54.5 -25.5z" />
    <glyph glyph-name="quotesingle" unicode="'" horiz-adv-x="210" 
d="M74 421l-17 209h96l-17 -209h-62z" />
    <glyph glyph-name="parenleft" unicode="(" horiz-adv-x="336" 
d="M286 -119q-55 1 -101.5 32.5t-80.5 83.5t-52.5 117.5t-18.5 135.5q0 76 21 149t57.5 132t84.5 95.5t101 38.5v-65q-38 -10 -67.5 -42.5t-49.5 -80t-30.5 -104t-10.5 -116.5q0 -58 9.5 -112.5t28 -98.5t46 -71t63.5 -30v-64z" />
    <glyph glyph-name="parenright" unicode=")" horiz-adv-x="333" 
d="M36 -119v64q38 11 67.5 43t49.5 79.5t30.5 104.5t10.5 117q0 58 -9.5 112.5t-28 98t-46 71t-63.5 30.5v64q56 -2 102 -33t80 -83t52.5 -117.5t18.5 -136.5q0 -75 -20.5 -148t-57.5 -132t-85 -95.5t-101 -38.5z" />
    <glyph glyph-name="asterisk" unicode="*" horiz-adv-x="578" 
d="M187 85l-87 65l145 144l-205 22l38 117l180 -104l-38 203h112l-35 -202l181 100l35 -108l-203 -28l148 -143l-90 -63l-89 182z" />
    <glyph glyph-name="plus" unicode="+" horiz-adv-x="492" 
d="M186 71v140h-136v119h136v139h119v-139h137v-119h-137v-140h-119z" />
    <glyph glyph-name="comma" unicode="," horiz-adv-x="223" 
d="M51 -147q15 33 26.5 60.5t11.5 49.5q0 19 -8.5 30t-17.5 21t-9 29q0 22 17 38.5t44 16.5q26 0 42 -17t16 -44t-11 -60t-27 -66t-34 -58h-50z" />
    <glyph glyph-name="hyphen" unicode="-" horiz-adv-x="280" 
d="M36 240v77h208v-77h-208z" />
    <glyph glyph-name="period" unicode="." horiz-adv-x="220" 
d="M109 -9q-24 0 -41.5 16.5t-17.5 40.5t17.5 40.5t41.5 16.5q25 0 43 -16.5t18 -40.5t-18 -40.5t-43 -16.5z" />
    <glyph glyph-name="slash" unicode="/" horiz-adv-x="493" 
d="M36 -45l342 675h81l-342 -675h-81z" />
    <glyph glyph-name="zero" unicode="0" horiz-adv-x="393" 
d="M197 -13q-49 1 -86.5 20.5t-58.5 63t-21 115.5v240q0 88 46.5 130t121.5 42q72 0 117.5 -42t45.5 -130v-239q0 -74 -20.5 -118t-58 -63t-86.5 -19zM197 56q22 0 36 17.5t14 52.5v332q0 35 -14.5 52.5t-35.5 17.5t-35.5 -17.5t-14.5 -52.5v-332q0 -35 14.5 -52.5
t35.5 -17.5z" />
    <glyph glyph-name="one" unicode="1" horiz-adv-x="272" 
d="M114 0v448h-101v66l28 1q35 3 54.5 20.5t33.5 55.5h101v-591h-116z" />
    <glyph glyph-name="two" unicode="2" horiz-adv-x="388" 
d="M25 0v60v60q0 54 13.5 85.5t41 52t70.5 41.5q35 17 55 34t29.5 40.5t9.5 60.5q1 37 -10 57t-39 20q-27 0 -38.5 -23.5t-11.5 -69.5v-41h-116v74q0 72 42.5 107.5t125.5 35.5q63 0 100 -17t52.5 -53t15.5 -95q0 -70 -23 -113t-78 -73q-24 -12 -45 -24t-36.5 -26t-22.5 -36
q-6 -13 -10 -28.5t-4 -33.5h221v-95h-342z" />
    <glyph glyph-name="three" unicode="3" horiz-adv-x="387" 
d="M191 -7q-58 0 -96 17.5t-56 50t-18 78.5v68h116v-37q0 -45 12 -69t40 -25q26 0 38.5 21t12.5 54v57q0 33 -22 47t-65 15h-47v64h48q20 0 36 5t27 14q12 10 17 21.5t5 24.5v41q0 29 -11 50t-39 21q-29 0 -39.5 -24t-10.5 -66v-24h-117v55q0 70 41.5 106t127.5 36
q90 0 129.5 -33t39.5 -99v-45q0 -51 -25.5 -82t-74.5 -37q49 -3 75 -34t26 -82v-43q0 -50 -17 -82.5t-54.5 -48t-98.5 -15.5z" />
    <glyph glyph-name="four" unicode="4" horiz-adv-x="387" 
d="M199 0v116h-191v92l194 383h114v-397h60v-78h-60v-116h-117zM101 194h98v199z" />
    <glyph glyph-name="five" unicode="5" horiz-adv-x="392" 
d="M196 -8q-62 0 -99.5 12.5t-54 46.5t-16.5 98v51h116v-41q0 -48 13 -65.5t41 -17.5q27 0 38.5 19.5t11.5 65.5v97q0 19 -4 35t-15 25.5t-32 9.5q-22 0 -35.5 -13t-17.5 -36h-115v312h326v-83h-211v-146q9 17 32 30.5t67 13.5q66 0 95.5 -27t29.5 -93v-140
q0 -60 -19.5 -93.5t-57 -47t-93.5 -13.5z" />
    <glyph glyph-name="six" unicode="6" horiz-adv-x="395" 
d="M196 -11q-53 0 -90.5 18.5t-56 55t-18.5 88.5v302q0 72 45.5 107.5t120.5 35.5q79 0 121.5 -34t42.5 -107v-40h-116v53q0 31 -12 44t-35 13q-24 0 -37.5 -15.5t-13.5 -42.5v-135q16 23 43.5 33.5t56.5 10.5q51 0 85.5 -27t34.5 -79v-133q0 -45 -20.5 -78.5t-58 -51.5
t-92.5 -18zM199 58q22 0 37 14.5t15 46.5v132q0 29 -17.5 40.5t-36.5 11.5q-20 0 -34.5 -11.5t-15.5 -30.5v-142q0 -31 14.5 -45.5t37.5 -15.5z" />
    <glyph glyph-name="seven" unicode="7" horiz-adv-x="327" 
d="M34 0l161 509h-187v82h302v-84l-160 -507h-116z" />
    <glyph glyph-name="eight" unicode="8" horiz-adv-x="387" 
d="M195 -8q-57 0 -95 17.5t-56 51t-18 79.5v36q0 30 5 55t20 42q11 13 32.5 23.5t56.5 13.5q-34 1 -50.5 8t-31.5 20q-17 17 -22 45.5t-5 58.5v23q0 44 15.5 72.5t51 42.5t97.5 14t97.5 -14t51 -42.5t15.5 -72.5v-23q0 -35 -8.5 -62.5t-30 -45t-59.5 -24.5q35 -3 55.5 -16
t30 -32.5t12 -42t2.5 -44.5v-36q0 -40 -16.5 -73.5t-53 -53.5t-96.5 -20zM193 59q26 0 39 15.5t13 41.5v85q0 26 -12 42t-40 17q-27 0 -39 -18.5t-12 -41.5v-84q0 -25 12 -41t39 -16zM193 348q20 0 35 16t15 49v48q0 29 -11 49.5t-39 20.5q-29 0 -39 -21t-10 -48v-48
q0 -22 6.5 -37t18 -22t24.5 -7z" />
    <glyph glyph-name="nine" unicode="9" horiz-adv-x="393" 
d="M195 -11q-79 0 -121 34t-42 107v50h115v-63q0 -30 12.5 -43.5t35.5 -13.5q24 0 37 15.5t13 42.5v142q-15 -23 -42.5 -33.5t-56.5 -10.5q-34 0 -61.5 13.5t-43 44t-15.5 80.5v94q0 46 20 79t58.5 51t91.5 18q55 0 91.5 -18.5t55.5 -54.5t19 -89v-302q0 -72 -45.5 -107.5
t-121.5 -35.5zM196 289q20 0 34 11.5t15 30.5v135q0 31 -14 45.5t-37 15.5q-22 0 -37 -14.5t-15 -46.5v-125q0 -29 17 -40.5t37 -11.5z" />
    <glyph glyph-name="colon" unicode=":" horiz-adv-x="220" 
d="M109 266q-24 0 -41.5 16.5t-17.5 40.5t17.5 40.5t41.5 16.5q25 0 43 -16.5t18 -40.5t-18 -40.5t-43 -16.5zM109 -9q-24 0 -41.5 16.5t-17.5 40.5t17.5 40.5t41.5 16.5q25 0 43 -16.5t18 -40.5t-18 -40.5t-43 -16.5z" />
    <glyph glyph-name="semicolon" unicode=";" horiz-adv-x="236" 
d="M64 -147q15 33 26.5 60.5t11.5 49.5q0 19 -8.5 30t-17.5 21t-9 29q0 22 17 38.5t44 16.5q26 0 42 -17t16 -44t-11 -60t-27 -66t-34 -58h-50zM112 266q-24 0 -41.5 16.5t-17.5 40.5t17.5 40.5t41.5 16.5q25 0 43 -16.5t18 -40.5t-18 -40.5t-43 -16.5z" />
    <glyph glyph-name="less" unicode="&#x3c;" horiz-adv-x="322" 
d="M282 131l-243 165v64l243 166v-104l-148 -95l148 -95v-101z" />
    <glyph glyph-name="equal" unicode="=" horiz-adv-x="442" 
d="M50 340v77h342v-77h-342zM50 136v78h342v-78h-342z" />
    <glyph glyph-name="greater" unicode="&#x3e;" horiz-adv-x="322" 
d="M39 131v104l149 95l-149 95v101l243 -165v-64z" />
    <glyph glyph-name="question" unicode="?" horiz-adv-x="399" 
d="M118 160v123q16 1 31.5 4t29.5 8q17 5 32.5 16.5t25 30t9.5 44.5v48q0 33 -11 54.5t-39 21.5q-27 0 -37 -20t-10 -52v-55h-116v68q0 143 164 143q63 0 100 -16t53 -50.5t16 -92.5v-27q0 -44 -14 -78t-38 -55t-57 -27q-9 -2 -18 -2.5t-20 -0.5v-85h-101zM166 -8
q-25 0 -42 16.5t-17 39.5q0 24 17 41t42 17t43 -17t18 -41q0 -23 -18 -39.5t-43 -16.5z" />
    <glyph glyph-name="at" unicode="@" horiz-adv-x="739" 
d="M356 -67q-119 0 -186.5 37t-95 108t-27.5 173q0 162 75 251.5t240 90.5q93 1 166 -29.5t115.5 -96t42.5 -171.5q0 -77 -18.5 -128.5t-50.5 -78t-73 -26.5q-30 0 -55.5 13.5t-40.5 38.5t-18 57l26 -7q-17 -46 -46.5 -65.5t-73.5 -19.5q-48 0 -77 24t-29 84q0 27 7.5 48.5
t32.5 38.5t80 32q24 6 39.5 16.5t19.5 18.5q3 7 4.5 14t1.5 14q0 23 -10 33t-36 10q-28 0 -39.5 -12t-11.5 -39v-30h-78v34q0 34 10 55.5t37.5 31t80.5 9.5q55 0 84 -11.5t40 -34.5t11 -60v-172q0 -42 15.5 -59t39.5 -17q18 0 34 16t25.5 54.5t9.5 104.5q0 81 -28 140
t-85.5 91t-145.5 32t-146 -28t-86.5 -93t-28.5 -176q0 -83 19 -136t53 -81t81.5 -39.5t105.5 -12.5q20 -1 53 2t70 8.5t69 13.5t48 18v-46q-19 -8 -55.5 -18.5t-86 -17.5t-108.5 -7zM361 141q23 0 35.5 10t18 23t5.5 23v83q-17 -2 -34 -7.5t-30 -12.5q-16 -8 -26 -16
t-15 -19.5t-5 -29.5q0 -27 10 -40.5t41 -13.5z" />
    <glyph glyph-name="A" unicode="A" horiz-adv-x="392" 
d="M8 0l106 591h166l104 -591h-130l-18 109h-86l-17 -109h-125zM152 167h83l-41 321z" />
    <glyph glyph-name="B" unicode="B" horiz-adv-x="406" 
d="M42 0v591h210q56 0 85.5 -26.5t29.5 -73.5v-67q0 -26 -7.5 -47.5t-22.5 -36.5q-11 -11 -28 -17t-33 -7v-1q17 0 33 -4t30 -16q17 -13 27 -35.5t10 -55.5v-81q0 -48 -16.5 -75t-47 -37.5t-72.5 -10.5h-198zM159 61h54q15 0 24.5 5.5t15 20.5t5.5 44v70q0 40 -13.5 52.5
t-35.5 12.5h-50v-205zM159 339h47q23 0 36.5 16t13.5 56v59q0 31 -11.5 44.5t-29.5 13.5h-56v-189z" />
    <glyph glyph-name="C" unicode="C" horiz-adv-x="397" 
d="M202 -12q-49 0 -86.5 11.5t-59 48t-21.5 108.5v310q0 53 21.5 82t59.5 40.5t87 11.5q50 0 86.5 -12t56.5 -41t20 -81v-122h-116v127q0 24 -6 36.5t-16.5 16.5t-24.5 4t-25 -4t-17 -16.5t-6 -36.5v-358q0 -23 6 -35.5t17 -17t25 -4.5t24.5 4.5t16.5 17t6 35.5v117h116v-73
q0 -73 -20 -109.5t-56.5 -48t-87.5 -11.5z" />
    <glyph glyph-name="D" unicode="D" horiz-adv-x="408" 
d="M42 0v591h207q42 0 69.5 -12t41 -36.5t13.5 -61.5v-354q0 -49 -17 -77t-48.5 -39t-74.5 -11h-191zM163 60h51q20 0 31.5 12t11.5 45v351q0 33 -11.5 45t-31.5 12h-51v-465z" />
    <glyph glyph-name="E" unicode="E" horiz-adv-x="334" 
d="M42 0v591h272v-82h-151v-158h128v-91h-128v-180h151v-80h-272z" />
    <glyph glyph-name="F" unicode="F" horiz-adv-x="329" 
d="M42 0v591h272v-82h-151v-158h128v-91h-128v-260h-121z" />
    <glyph glyph-name="G" unicode="G" horiz-adv-x="398" 
d="M166 -11q-34 0 -63.5 11t-48.5 43.5t-19 97.5v324q0 52 20.5 81t57.5 40.5t86 11.5t86.5 -11.5t59 -40.5t21.5 -81v-83h-113v89q0 24 -6.5 36.5t-17.5 16.5t-27 4q-15 0 -26.5 -4t-18 -16.5t-6.5 -36.5v-358q0 -23 6.5 -35.5t18 -17t26.5 -4.5q23 0 37 14t14 43v118h-48
v66h161v-297h-87l-6 46l-4 -6t-3 -5q-10 -17 -33.5 -31.5t-66.5 -14.5z" />
    <glyph glyph-name="H" unicode="H" horiz-adv-x="413" 
d="M42 0v591h116v-242h97v242h116v-591h-116v263h-97v-263h-116z" />
    <glyph glyph-name="I" unicode="I" horiz-adv-x="200" 
d="M42 0v591h116v-591h-116z" />
    <glyph glyph-name="J" unicode="J" horiz-adv-x="244" 
d="M54 -1h-23.5t-24.5 1v80h31q30 -1 40.5 10t10.5 42v459h116v-445q0 -57 -14.5 -89.5t-47 -45t-88.5 -12.5z" />
    <glyph glyph-name="K" unicode="K" horiz-adv-x="410" 
d="M276 0l-113 307l111 284h124l-121 -284l125 -307h-126zM42 0v591h116v-591h-116z" />
    <glyph glyph-name="L" unicode="L" horiz-adv-x="299" 
d="M42 0v591h115v-511h134v-80h-249z" />
    <glyph glyph-name="M" unicode="M" horiz-adv-x="536" 
d="M42 0v591h145l81 -382l82 382h144v-591h-102v442l-85 -442h-79l-84 442v-442h-102z" />
    <glyph glyph-name="N" unicode="N" horiz-adv-x="409" 
d="M42 0v591h101l123 -358v358h102v-591h-101l-123 334v-334h-102z" />
    <glyph glyph-name="O" unicode="O" horiz-adv-x="401" 
d="M199 -12q-49 0 -86 11.5t-57.5 48t-20.5 108.5v310q0 53 20.5 82t58 40.5t86.5 11.5q48 0 85.5 -12t59 -41t21.5 -81v-309q0 -73 -21.5 -109.5t-59 -48t-86.5 -11.5zM199 56q15 0 26.5 5t18 17.5t6.5 34.5v358q0 22 -6.5 34.5t-18 17.5t-26.5 5t-26 -5t-17.5 -17.5
t-6.5 -34.5v-358q0 -22 6.5 -34.5t17.5 -17.5t26 -5z" />
    <glyph glyph-name="P" unicode="P" horiz-adv-x="393" 
d="M42 0v591h210q59 0 89.5 -26.5t30.5 -73.5v-102q0 -40 -10 -74.5t-36 -55.5t-75 -21h-88v-238h-121zM163 302h45q24 0 36 23t12 76v40q0 47 -10 67t-29 20h-54v-226z" />
    <glyph glyph-name="Q" unicode="Q" horiz-adv-x="406" 
d="M291 -124l-66 116q-6 -1 -12 -1h-13q-48 0 -85.5 11.5t-58.5 48t-21 108.5v307q0 53 21.5 82t60.5 40.5t89 11.5q51 0 88 -12t57 -41t20 -81v-306q0 -61 -14.5 -94.5t-41.5 -50.5l53 -93zM205 59q15 0 26.5 4t17.5 17t6 36v355q0 24 -6 36.5t-17.5 16.5t-26.5 4
q-14 0 -25.5 -4t-18 -16.5t-6.5 -36.5v-355q0 -23 6.5 -36t18 -17t25.5 -4z" />
    <glyph glyph-name="R" unicode="R" horiz-adv-x="420" 
d="M42 0v591h216q59 0 89 -26.5t30 -73.5v-92q0 -47 -25 -79t-78 -37v0q34 -5 48.5 -22.5t25.5 -56.5l56 -204h-129l-43 196q-6 24 -13.5 40.5t-21.5 16.5h-34v-253h-121zM163 334h48q28 0 40 15.5t12 49.5v71q0 32 -11 45t-34 13h-55v-194z" />
    <glyph glyph-name="S" unicode="S" horiz-adv-x="391" 
d="M192 -7q-53 0 -90.5 15t-57.5 53t-20 107v35h61h60v-45q0 -37 6 -56.5t17 -27t26 -7.5q23 0 36.5 16.5t13.5 64.5q0 37 -11.5 55.5t-36.5 30t-64 28.5q-35 15 -58 36t-34 53t-11 78q0 58 15.5 94t52 52.5t98.5 16.5q80 0 122.5 -34.5t42.5 -103.5v-71h-57.5h-58.5v36
q0 45 -10.5 63t-37.5 18q-26 0 -37 -16t-11 -52q0 -33 13.5 -51.5t34.5 -28t45 -18.5q44 -17 72 -34.5t41 -48t13 -87.5q0 -64 -21.5 -101.5t-61 -53.5t-92.5 -16z" />
    <glyph glyph-name="T" unicode="T" horiz-adv-x="318" 
d="M101 0v509h-92v82h300v-82h-92v-509h-116z" />
    <glyph glyph-name="U" unicode="U" horiz-adv-x="407" 
d="M204 -12q-36 0 -66 5t-52 21t-34 47.5t-12 85.5v444h116v-477q0 -21 6.5 -33.5t17.5 -16.5t24 -4q12 0 23 4t17.5 16.5t6.5 33.5v477h116v-444q0 -53 -12 -85t-33.5 -48t-52 -21t-65.5 -5z" />
    <glyph glyph-name="V" unicode="V" horiz-adv-x="384" 
d="M110 0l-97 591h120l60 -468v0l62 468h116l-98 -591h-163z" />
    <glyph glyph-name="W" unicode="W" horiz-adv-x="598" 
d="M103 0l-90 591h120l56 -441l62 441h96l61 -441l57 441h119l-89 -591h-135l-61 343l-60 -343h-136z" />
    <glyph glyph-name="X" unicode="X" horiz-adv-x="366" 
d="M10 0l87 304l-82 287h116l52 -197l51 197h122l-84 -287l82 -304h-116l-54 197l-51 -197h-123z" />
    <glyph glyph-name="Y" unicode="Y" horiz-adv-x="361" 
d="M120 0v251l-111 340h116l51 -177l7 -38l7 38l55 177h106l-115 -346v-245h-116z" />
    <glyph glyph-name="Z" unicode="Z" horiz-adv-x="294" 
d="M14 0v74l134 435h-124v82h257v-58l-142 -451h142v-82h-267z" />
    <glyph glyph-name="bracketleft" unicode="[" horiz-adv-x="313" 
d="M43 -57v687h226v-60h-119v-567h119v-60h-226z" />
    <glyph glyph-name="backslash" unicode="\" horiz-adv-x="559" 
d="M379 -45l-343 675h82l341 -675h-80z" />
    <glyph glyph-name="bracketright" unicode="]" horiz-adv-x="313" 
d="M43 -57v60h119v567h-119v60h226v-687h-226z" />
    <glyph glyph-name="asciicircum" unicode="^" horiz-adv-x="420" 
d="M36 495l146 206h57l145 -206h-93l-80 118l-80 -118h-95z" />
    <glyph glyph-name="underscore" unicode="_" horiz-adv-x="716" 
d="M36 -128v58h644v-58h-644z" />
    <glyph glyph-name="grave" unicode="`" horiz-adv-x="197" 
d="M102 548l-95 100h103l57 -100h-65z" />
    <glyph glyph-name="a" unicode="a" horiz-adv-x="370" 
d="M126 -8q-26 0 -48.5 7t-37 29.5t-14.5 66.5v66q0 47 27.5 76.5t86.5 50.5q31 13 49 23t26 24.5t8 39.5v27q0 16 -5 24.5t-14.5 12.5t-21.5 4q-26 0 -34 -17.5t-8 -58.5v-42h-103v53q0 37 10.5 65.5t41.5 45t93 16.5q63 0 97 -11.5t47 -36t13 -66.5v-391h-114v55
q-8 -29 -36.5 -46t-62.5 -17zM175 67q27 0 37.5 20.5t10.5 57.5v127q-6 -10 -20 -17.5t-28 -16.5q-19 -13 -29 -26.5t-10 -37.5v-51q0 -21 5 -33.5t14 -17.5t20 -5z" />
    <glyph glyph-name="b" unicode="b" horiz-adv-x="380" 
d="M219 -7q-44 0 -67.5 17.5t-30.5 33.5l-3 -44h-81v630h114v-174q10 20 30.5 34t57.5 14q31 0 56 -9.5t40 -35.5t15 -75v-239q0 -50 -9 -80t-26 -45.5t-41 -21t-55 -5.5zM194 71q17 0 26 5.5t12.5 19t3.5 34.5v246q0 32 -9.5 43.5t-32.5 11.5t-33 -13t-10 -40v-245
q0 -32 10 -47t33 -15z" />
    <glyph glyph-name="c" unicode="c" horiz-adv-x="366" 
d="M187 -8q-51 0 -86.5 11t-53.5 45.5t-18 103.5v218q0 76 39 105t118 29q78 0 117 -27.5t39 -99.5v-73h-115v79q0 29 -8.5 41.5t-32.5 12.5t-33.5 -12.5t-9.5 -41.5v-268q0 -31 9.5 -43.5t34.5 -12.5q23 0 31.5 12t8.5 44v85h115v-48q0 -68 -18 -103t-52.5 -46t-84.5 -11z
" />
    <glyph glyph-name="d" unicode="d" horiz-adv-x="380" 
d="M159 -7q-32 0 -56 6.5t-41 22.5t-25 46t-8 77v241q0 33 9 55t24 35.5t34.5 19.5t42.5 6q40 0 60 -12.5t29 -28.5v169h114v-630h-77l-12 47q-4 -10 -15 -22.5t-29.5 -22t-49.5 -9.5zM185 58q15 0 23.5 5.5t13 15t5.5 21.5t1 26v284q-1 5 -5.5 10t-13.5 9t-23 4
q-15 0 -23.5 -4.5t-13 -12.5t-5.5 -18.5t-1 -23.5v-257q0 -17 2.5 -30.5t11.5 -21t28 -7.5z" />
    <glyph glyph-name="e" unicode="e" horiz-adv-x="366" 
d="M188 -8q-52 0 -87.5 11.5t-53.5 46t-18 104.5v223q0 73 39 100t118 27q78 0 117 -27t39 -100v-135h-199v-135q0 -30 9.5 -42t34.5 -12q23 0 31.5 11.5t8.5 42.5v79h115v-31q0 -70 -18 -105t-52.5 -46.5t-83.5 -11.5zM143 294h84v89q0 29 -8.5 41t-32.5 12t-33.5 -12
t-9.5 -41v-89z" />
    <glyph glyph-name="f" unicode="f" horiz-adv-x="248" 
d="M45 0v411h-32v65h32v47q0 35 9 57t24.5 33t35 15t39.5 4t41 -1t37.5 -2.5t21.5 -1.5v-55q-10 2 -23 3t-31 1q-22 0 -31.5 -11.5t-9.5 -39.5v-49h95v-65h-95v-411h-113z" />
    <glyph glyph-name="g" unicode="g" horiz-adv-x="376" 
d="M186 -119q-14 0 -34 1t-39.5 3t-33 3.5t-16.5 2.5v61q13 -2 39 -4.5t44 -2.5q16 0 30.5 2.5t26 10t18.5 22t7 38.5v71q-5 -12 -14.5 -26.5t-27.5 -24.5t-51 -10q-24 0 -43.5 5.5t-33 21t-21.5 45t-8 77.5v202q0 63 26.5 94.5t80.5 31.5q32 0 51.5 -8t31.5 -22.5t19 -33.5
l-15 -2l17 56h102v-421q0 -36 -6.5 -70.5t-22.5 -62t-46.5 -44t-80.5 -16.5zM184 96q17 0 26.5 8.5t13 24t3.5 32.5v245q-2 5 -7 10t-13.5 9t-23.5 4q-20 0 -30 -11.5t-10 -42.5v-228q0 -17 4 -27.5t10.5 -15.5t13.5 -6.5t13 -1.5z" />
    <glyph glyph-name="h" unicode="h" horiz-adv-x="381" 
d="M37 0v630h107v-188q12 30 36 46t58 16q48 0 72 -16t32.5 -45.5t8.5 -69.5v-373h-114v366q0 11 -1 21t-5.5 18.5t-13 13.5t-24.5 5q-14 0 -23 -4t-13 -9t-6 -9v-402h-114z" />
    <glyph glyph-name="i" unicode="i" horiz-adv-x="189" 
d="M37 0v495h114v-495h-114zM94 550q-22 0 -38 15.5t-16 36.5q0 22 16 37t38 15t38.5 -15t16.5 -37q0 -21 -16.5 -36.5t-38.5 -15.5z" />
    <glyph glyph-name="j" unicode="j" horiz-adv-x="186" 
d="M-23 -112q-6 1 -19.5 1.5t-17.5 1.5v61q8 -1 20 -0.5t19 0.5q28 2 43 16t15 39v488h114v-455q0 -67 -24.5 -100.5t-64 -44t-85.5 -7.5zM93 550q-22 0 -38 15.5t-16 36.5q0 22 16 37t38 15t38.5 -15t16.5 -37q0 -21 -16.5 -36.5t-38.5 -15.5z" />
    <glyph glyph-name="k" unicode="k" horiz-adv-x="380" 
d="M248 0l-90 287l101 208h113l-105 -210l104 -285h-123zM37 0v632h114v-632h-114z" />
    <glyph glyph-name="l" unicode="l" horiz-adv-x="189" 
d="M37 0v632h114v-632h-114z" />
    <glyph glyph-name="m" unicode="m" horiz-adv-x="576" 
d="M37 0v495h97l10 -59q10 30 35.5 49t59.5 19q56 0 80 -24t27 -70h-12q6 40 34 67t68 27q64 0 86.5 -31t22.5 -94v-379h-114v371q0 29 -9 40.5t-29 11.5q-17 0 -29.5 -9t-15.5 -23v-391h-114v374q0 26 -9 37.5t-30 11.5q-17 0 -27.5 -7.5t-16.5 -18.5v-397h-114z" />
    <glyph glyph-name="n" unicode="n" horiz-adv-x="381" 
d="M37 0v495h97l10 -58q9 30 35.5 49t58.5 19q48 0 72 -16.5t32.5 -46t8.5 -69.5v-373h-114v366q0 12 -1 22.5t-5.5 18.5t-12.5 12.5t-24 4.5q-12 0 -21 -4.5t-14 -10.5t-8 -11v-398h-114z" />
    <glyph glyph-name="o" unicode="o" horiz-adv-x="371" 
d="M186 -8q-50 0 -85.5 12t-53.5 47.5t-18 104.5v210q0 77 39 107.5t118 30.5t117.5 -30.5t38.5 -107.5v-210q0 -69 -17.5 -104t-52.5 -47.5t-86 -12.5zM186 60q22 0 32 12.5t10 45.5v260q0 31 -9.5 44.5t-32.5 13.5q-22 0 -32.5 -13t-10.5 -45v-260q0 -33 10.5 -45.5
t32.5 -12.5z" />
    <glyph glyph-name="p" unicode="p" horiz-adv-x="380" 
d="M37 -116v611h113v-39q10 17 28 32t59 15q35 0 60 -11.5t39 -37t14 -69.5v-240q0 -55 -12 -88.5t-37 -48t-64 -14.5q-35 0 -55.5 12.5t-30.5 28.5v-151h-114zM194 58q15 0 23 4.5t12.5 12.5t5.5 18.5t1 23.5v256q0 13 -1 24t-5.5 19t-12.5 12t-23 4q-14 0 -22.5 -4.5
t-13 -12t-6 -16.5t-1.5 -16v-269q0 -17 3.5 -30t12.5 -19.5t27 -6.5z" />
    <glyph glyph-name="q" unicode="q" horiz-adv-x="380" 
d="M228 -116v163q-8 -22 -28.5 -38.5t-59.5 -16.5q-25 0 -45.5 6.5t-35 23t-22.5 46t-8 76.5v241q0 33 9 55t24 35.5t34.5 19.5t42.5 6q43 0 62 -14t27 -30l2 38h112v-611h-114zM186 57q13 0 21.5 6t13 15.5t6 20t1.5 19.5v265q0 7 -1.5 16t-5.5 16.5t-12.5 12t-22.5 4.5
q-15 0 -23.5 -4t-13 -12t-5.5 -19t-1 -24v-257q0 -13 1 -23.5t5.5 -18.5t13 -12.5t23.5 -4.5z" />
    <glyph glyph-name="r" unicode="r" horiz-adv-x="281" 
d="M37 0v495h97l10 -59q9 22 27 35.5t38 18.5q33 14 69 7v-88q-2 1 -15.5 2.5t-30.5 0t-29 -8.5q-25 -9 -38.5 -31t-13.5 -53v-319h-114z" />
    <glyph glyph-name="s" unicode="s" horiz-adv-x="369" 
d="M182 -7q-62 0 -96.5 15.5t-48 48.5t-13.5 83v38h114v-64q0 -32 9 -45.5t34 -13.5q22 0 31.5 12.5t9.5 37.5v38q0 24 -9 38t-28 23.5t-48 21.5q-27 11 -50 25t-37.5 37t-14.5 59v29q0 62 34 94.5t123 32.5q59 0 92 -15t46.5 -46.5t13.5 -79.5v-37h-110v56q0 33 -9.5 46.5
t-31.5 13.5q-25 0 -33.5 -13t-8.5 -32v-37q0 -25 13.5 -39.5t35.5 -23t47 -18.5q26 -9 48 -22.5t35.5 -35.5t13.5 -59v-30q0 -45 -14.5 -76t-50 -46.5t-97.5 -15.5z" />
    <glyph glyph-name="t" unicode="t" horiz-adv-x="277" 
d="M184 -3q-23 0 -46 4t-41 15.5t-29 33t-11 57.5v321h-47v57l57 10l16 91h88v-91h94v-67h-94v-301q0 -21 8 -37.5t36 -16.5q13 0 30 1.5t20 1.5v-69q-3 0 -27.5 -5t-53.5 -5z" />
    <glyph glyph-name="u" unicode="u" horiz-adv-x="385" 
d="M147 -7q-48 0 -72 16.5t-32.5 45.5t-8.5 69v371h114v-364q0 -15 2.5 -28t11.5 -21t29 -8q13 0 21.5 4t13.5 10t7 11v396h114v-495h-97l-9 60q-8 -28 -33 -47.5t-61 -19.5z" />
    <glyph glyph-name="v" unicode="v" horiz-adv-x="365" 
d="M116 0l-107 495h118l63 -367h1l57 367h108l-104 -495h-136z" />
    <glyph glyph-name="w" unicode="w" horiz-adv-x="585" 
d="M109 0l-104 495h109l62 -358l61 358h110l69 -358l55 358h108l-102 -495h-131l-54 276l-52 -276h-131z" />
    <glyph glyph-name="x" unicode="x" horiz-adv-x="345" 
d="M1 0l99 257l-82 238h109l49 -152l58 152h105l-91 -238l91 -257h-109l-55 162l-62 -162h-112z" />
    <glyph glyph-name="y" unicode="y" horiz-adv-x="349" 
d="M100 -117q-28 0 -54 4.5t-41 8.5v60q6 -2 17.5 -4t24.5 -2t29.5 4t22.5 26q2 9 4.5 19t-0.5 24l-101 472h118l60 -386h1l60 386h108l-96 -452q-17 -85 -54 -122.5t-99 -37.5z" />
    <glyph glyph-name="z" unicode="z" horiz-adv-x="287" 
d="M10 0v44l138 377h-125v74h254v-49l-134 -368h134v-78h-267z" />
    <glyph glyph-name="braceleft" unicode="{" horiz-adv-x="333" 
d="M281 -136q-80 2 -127.5 23t-67.5 53.5t-20 67.5q0 37 11 62.5t26 44.5t26.5 37t11.5 38q0 18 -10 30.5t-27.5 20.5t-40.5 8v33q20 1 36.5 9.5t27.5 23.5t11 34q0 17 -11 34t-25 36t-25 43t-11 54q0 40 19.5 72.5t66 53t129.5 23.5v-61q-25 -4 -46.5 -10.5t-34 -24
t-12.5 -53.5q0 -29 8.5 -51t19 -40.5t19 -38t8.5 -45.5q0 -14 -7.5 -30.5t-24.5 -29t-47 -15.5q35 -4 57 -20.5t22 -50.5q0 -22 -7 -40.5t-16.5 -38t-17 -42.5t-7.5 -54q0 -36 14 -56.5t34 -29t38 -10.5v-60z" />
    <glyph glyph-name="bar" unicode="|" horiz-adv-x="287" 
d="M94 -240v870h99v-870h-99z" />
    <glyph glyph-name="braceright" unicode="}" horiz-adv-x="333" 
d="M52 -136v60q18 2 38 10.5t34 29t14 56.5q0 31 -7.5 54t-17 42.5t-17 38t-7.5 40.5q0 34 22.5 50.5t57.5 20.5q-30 3 -47.5 15.5t-24.5 29t-7 30.5q0 26 8.5 45.5t19 38t19 40.5t8.5 51q0 36 -12.5 53.5t-33.5 24t-47 10.5v61q83 -3 129.5 -23.5t66 -53t19.5 -72.5
q0 -30 -11 -54t-25 -43t-25 -36t-11 -34q0 -19 10.5 -34t28 -23.5t36.5 -9.5v-33q-22 0 -40 -8t-28 -20.5t-10 -30.5q0 -20 11.5 -38t26.5 -37t26 -44.5t11 -62.5q0 -35 -20 -67.5t-67.5 -53.5t-127.5 -23z" />
    <glyph glyph-name="asciitilde" unicode="~" horiz-adv-x="523" 
d="M359 508q-35 1 -66.5 12t-63.5 22.5t-70 13.5q-28 2 -45 -13.5t-19 -34.5h-59q1 35 17 63t44.5 44t66.5 14q34 0 64.5 -11t61.5 -21.5t64 -11.5q35 -2 49.5 12t17.5 30h66q-1 -50 -21 -76t-49 -35t-58 -8z" />
    <glyph glyph-name="uni00A0" unicode="&#xa0;" horiz-adv-x="166" 
 />
    <glyph glyph-name="exclamdown" unicode="&#xa1;" horiz-adv-x="219" 
d="M72 299h72l20 -183l6 -257h-124l6 259zM112 496q27 0 45.5 -17t18.5 -42q0 -24 -18.5 -41.5t-45.5 -17.5t-45.5 17.5t-18.5 41.5q0 25 18.5 42t45.5 17z" />
    <glyph glyph-name="cent" unicode="&#xa2;" horiz-adv-x="366" 
d="M149 -65v114q-34 3 -59.5 15.5t-39.5 41.5t-14 83v261q0 39 14 62t39.5 35t59.5 14v87h73v-90q31 -4 55.5 -16t38.5 -34t14 -58v-102h-100v107q0 21 -6.5 30.5t-17 13.5t-23.5 4q-12 0 -22.5 -4t-17 -13.5t-6.5 -30.5v-300q0 -21 6.5 -31t17 -14t22.5 -4q13 0 23.5 4
t17 14t6.5 31v97h100v-62q0 -49 -14.5 -78t-38.5 -42.5t-55 -17.5v-117h-73z" />
    <glyph glyph-name="sterling" unicode="&#xa3;" horiz-adv-x="417" 
d="M29 0v46q21 27 38.5 60.5t27.5 72t10 78.5h-73v70h65q-6 25 -15.5 50t-17 51.5t-7.5 53.5q0 52 39 83.5t122 31.5q75 0 119 -30t44 -98v-46h-101v47q0 24 -9 40.5t-24 25t-31 8.5q-24 0 -41 -14t-17 -42q0 -22 9.5 -47.5t19.5 -54t12 -59.5h72v-70h-74q-3 -39 -15 -75
t-27.5 -64t-29.5 -44q15 2 28 3t28 0t37 -2q40 -2 52 8t12 47v42h99v-53q0 -59 -16 -83.5t-43 -31.5q-30 -6 -65.5 -1.5t-73.5 11.5t-75 7q-33 0 -51.5 -7t-27.5 -14z" />
    <glyph glyph-name="currency" unicode="&#xa4;" horiz-adv-x="521" 
d="M93 81l-53 53l94 94q-11 17 -17 35t-6 38q0 40 22 73l-97 97l53 52l99 -98q33 18 71 18t71 -18l98 99l53 -53l-96 -97q22 -33 22 -73q0 -39 -21 -71l99 -98l-53 -53l-101 100q-18 -9 -36 -14t-36 -5q-39 0 -71 17zM259 236q27 0 46 19t19 45q0 28 -19 47t-46 19
q-28 0 -46.5 -18.5t-18.5 -47.5q0 -26 18.5 -45t46.5 -19z" />
    <glyph glyph-name="yen" unicode="&#xa5;" horiz-adv-x="387" 
d="M133 0v125h-89v56h89v61h-89v56h74l-96 293h116l58 -193l62 193h107l-99 -293h63v-56h-80v-61h80v-56h-80v-125h-116z" />
    <glyph glyph-name="brokenbar" unicode="&#xa6;" horiz-adv-x="230" 
d="M66 -167v344h99v-344h-99zM66 270v315h99v-315h-99z" />
    <glyph glyph-name="section" unicode="&#xa7;" horiz-adv-x="446" 
d="M197 -149q-53 0 -90 15t-56 53.5t-19 107.5v22h121v-42q0 -37 6 -57t16.5 -27.5t25.5 -7.5q23 0 36.5 17t13.5 64q0 38 -11 58t-35 33t-63 28q-37 15 -61 33t-36 44.5t-12 62.5q0 49 15.5 78t42 45t57.5 26l21 -39q-15 -13 -26 -33.5t-11 -54.5q0 -28 11 -45.5t34.5 -30
t58.5 -25.5q32 -13 56.5 -23t41 -24t25 -38.5t8.5 -67.5q0 -64 -21 -102t-59 -54t-90 -16zM292 28l-38 55q26 16 43 35.5t17 60.5q0 38 -21 58.5t-55.5 34t-74.5 29.5q-32 15 -53.5 30t-32 39.5t-10.5 63.5q0 58 15.5 94t52 52.5t99.5 16.5q80 0 122.5 -35t42.5 -103v-51
h-116v61q0 28 -10.5 43.5t-37.5 15.5t-37.5 -16.5t-10.5 -51.5q0 -40 12.5 -61t35 -31.5t51.5 -21.5q44 -16 72 -32t42 -44t14 -81q0 -48 -17 -80t-45 -51.5t-60 -29.5z" />
    <glyph glyph-name="dieresis" unicode="&#xa8;" horiz-adv-x="235" 
d="M48 549q-21 0 -34.5 13t-13.5 33q0 19 13.5 31.5t34.5 12.5q20 0 33 -12.5t13 -31.5q0 -20 -13 -33t-33 -13zM168 549q-20 0 -34 13t-14 33q0 19 14 31.5t34 12.5t33.5 -12.5t13.5 -31.5q0 -20 -13.5 -33t-33.5 -13z" />
    <glyph glyph-name="copyright" unicode="&#xa9;" horiz-adv-x="600" 
d="M313 30q-58 0 -109 21.5t-89.5 60.5t-60 90t-21.5 109t21.5 109t60 89.5t89.5 60t109 21.5t109 -21.5t89.5 -60t60 -89.5t21.5 -109t-21.5 -109t-60 -90t-89.5 -60.5t-109 -21.5zM313 74q49 0 92 18.5t75 51.5t50 76t18 91q0 65 -31.5 118.5t-84.5 85.5t-119 32
q-48 0 -90.5 -18.5t-75 -51t-51 -75t-18.5 -91.5q0 -48 18.5 -91t51 -76t75 -51.5t90.5 -18.5zM315 150q-35 0 -59.5 7.5t-36.5 30.5t-12 68v143q0 51 26.5 70t80.5 19t80.5 -18t26.5 -66v-48h-77v53q0 18 -6.5 26t-23.5 8t-23.5 -8t-6.5 -26v-178q0 -20 6.5 -27.5
t24.5 -7.5q16 0 22.5 7.5t6.5 27.5v57h77v-31q0 -46 -12 -69t-36 -30.5t-58 -7.5z" />
    <glyph glyph-name="ordfeminine" unicode="&#xaa;" horiz-adv-x="236" 
d="M86 259q-15 0 -28.5 4.5t-22.5 17.5t-9 40v40q0 28 17 45.5t52 30.5q28 12 39 20.5t11 31.5v16q0 14 -7 19.5t-18 5.5q-15 0 -20 -10.5t-5 -34.5v-26h-62v32q0 22 6.5 39t25 27t55.5 10q38 0 58.5 -7t28.5 -22t8 -39v-235h-69v32q-5 -16 -22 -26.5t-38 -10.5zM116 304
q16 0 22 12.5t6 34.5v76q-3 -6 -11.5 -10.5t-16.5 -10.5q-11 -7 -17 -15t-6 -23v-30q0 -13 3 -20.5t8 -10.5t12 -3z" />
    <glyph glyph-name="guillemotleft" unicode="&#xab;" horiz-adv-x="524" 
d="M382 103l-131 189l134 193h103l-134 -193l131 -189h-103zM167 103l-131 189l134 193h103l-133 -193l130 -189h-103z" />
    <glyph glyph-name="logicalnot" unicode="&#xac;" horiz-adv-x="558" 
d="M447 131v193h-407v83h482v-276h-75z" />
    <glyph glyph-name="uni00AD" unicode="&#xad;" horiz-adv-x="95" 
 />
    <glyph glyph-name="registered" unicode="&#xae;" horiz-adv-x="384" 
d="M192 279q-43 0 -78.5 21t-56.5 56.5t-21 78.5t21 78.5t56.5 56.5t78.5 21q44 0 79 -21t56 -56.5t21 -78.5t-21 -78.5t-56 -56.5t-79 -21zM192 305q36 0 65.5 18t46.5 47.5t17 64.5q0 36 -17 65.5t-46.5 46.5t-65.5 17q-35 0 -64 -17t-46.5 -46.5t-17.5 -65.5
q0 -35 17.5 -64.5t46.5 -47.5t64 -18zM141 357v163h61q26 0 34.5 -10t8.5 -30q0 -18 -6 -31t-26 -16q3 -1 5.5 -5t2.5 -7l33 -64h-31q-5 12 -11 25.5t-12 26t-11 21.5h-22v-73h-26zM167 446h23q17 0 24 8.5t7 23.5q0 11 -4.5 18t-19.5 7h-30v-57z" />
    <glyph glyph-name="macron" unicode="&#xaf;" horiz-adv-x="226" 
d="M10 560v58h206v-58h-206z" />
    <glyph glyph-name="degree" unicode="&#xb0;" horiz-adv-x="329" 
d="M164 341q-66 0 -97 36.5t-31 87.5q0 52 29.5 89t100.5 37q48 0 76 -17t39.5 -45t11.5 -62q0 -55 -31.5 -90.5t-97.5 -35.5zM165 392q31 0 49.5 20.5t18.5 53.5q0 30 -17.5 52.5t-51.5 22.5q-31 0 -49 -22t-18 -54t19.5 -52.5t48.5 -20.5z" />
    <glyph glyph-name="plusminus" unicode="&#xb1;" horiz-adv-x="423" 
d="M172 162v140h-136v78h136v139h79v-139h136v-78h-136v-140h-79zM36 0v74h351v-74h-351z" />
    <glyph glyph-name="uni00B2" unicode="&#xb2;" horiz-adv-x="251" 
d="M26 237v50q0 49 13 75.5t58 47.5q37 18 49.5 35t12.5 49q0 23 -6.5 36t-24.5 13q-16 0 -24.5 -11t-8.5 -37v-39h-70v28q0 61 25 85.5t80 24.5q44 0 66.5 -12t30 -33t7.5 -46q0 -38 -9.5 -61t-26.5 -37t-39 -27q-35 -20 -48 -31.5t-17 -23.5q-3 -7 -3.5 -14t-0.5 -13h143
v-59h-207z" />
    <glyph glyph-name="uni00B3" unicode="&#xb3;" horiz-adv-x="251" 
d="M123 236q-56 0 -82.5 23.5t-26.5 64.5v41h75v-21q0 -24 7 -39.5t26 -15.5q18 0 26 12.5t8 30.5v34q0 18 -13.5 26.5t-42.5 8.5h-31v40h31q30 0 43 10t13 27v25q0 16 -7.5 28.5t-25.5 12.5q-20 0 -26.5 -15.5t-6.5 -38.5v-13h-75v34q0 42 27 64t81 22q64 0 86.5 -21.5
t22.5 -57.5v-29q0 -29 -16 -48t-47 -23q31 -1 47.5 -19.5t16.5 -48.5v-26q0 -43 -23 -65.5t-87 -22.5z" />
    <glyph glyph-name="acute" unicode="&#xb4;" horiz-adv-x="186" 
d="M0 548l57 100h103l-95 -100h-65z" />
    <glyph glyph-name="uni00B5" unicode="&#xb5;" horiz-adv-x="385" 
d="M36 -129v624h114v-395q5 -13 16.5 -20t27.5 -7q13 0 22 4t14 16t5 33v369h114v-371q0 -44 -9 -73.5t-33 -43.5t-69 -14q-32 0 -58.5 18t-36.5 49l-10 -189h-97z" />
    <glyph glyph-name="paragraph" unicode="&#xb6;" horiz-adv-x="600" 
d="M189 -60v267q-46 0 -78.5 22t-50 64.5t-17.5 103.5q0 57 15.5 93.5t41.5 57t57 29t62 8.5h164v-645h-49v567h-52v-567h-93z" />
    <glyph glyph-name="periodcentered" unicode="&#xb7;" horiz-adv-x="220" 
d="M109 226q-24 0 -41.5 16.5t-17.5 40.5t17.5 40.5t41.5 16.5q25 0 43 -16.5t18 -40.5t-18 -40.5t-43 -16.5z" />
    <glyph glyph-name="cedilla" unicode="&#xb8;" horiz-adv-x="202" 
d="M59 -161q-19 0 -35.5 7t-23.5 11l14 36q7 -5 19 -9t21 -4q16 0 24 7.5t8 19.5q0 10 -6.5 15.5t-16.5 5.5q-6 0 -11 -2t-9 -5l-32 17l32 62h43l-26 -52l-7 3q7 4 16.5 6.5t21.5 2.5q27 0 42.5 -17t15.5 -37q0 -28 -23.5 -47.5t-66.5 -19.5z" />
    <glyph glyph-name="uni00B9" unicode="&#xb9;" horiz-adv-x="173" 
d="M70 236v262l-55 -10v41q31 11 50 25.5t36 36.5h39v-355h-70z" />
    <glyph glyph-name="ordmasculine" unicode="&#xba;" horiz-adv-x="227" 
d="M114 266q-30 0 -51.5 7.5t-32.5 28.5t-11 62v127q0 45 23.5 63.5t71.5 18.5q47 0 70.5 -18t23.5 -64v-126q0 -42 -11 -63t-32 -28.5t-51 -7.5zM114 307q13 0 19 7.5t6 26.5v157q0 19 -6 26.5t-19 7.5q-14 0 -20 -7.5t-6 -26.5v-157q0 -19 6 -26.5t20 -7.5z" />
    <glyph glyph-name="guillemotright" unicode="&#xbb;" horiz-adv-x="524" 
d="M255 103l130 189l-134 193h103l134 -193l-131 -189h-102zM40 103l130 189l-134 193h103l134 -193l-131 -189h-102z" />
    <glyph glyph-name="onequarter" unicode="&#xbc;" horiz-adv-x="568" 
d="M70 236v262l-55 -10v41q31 11 50 25.5t36 36.5h39v-355h-70zM64 0l321 589h82l-321 -589h-82zM442 0v70h-133v46l141 239h63v-236h39v-49h-39v-70h-71zM375 119h67v118z" />
    <glyph glyph-name="onehalf" unicode="&#xbd;" horiz-adv-x="607" 
d="M70 236v262l-55 -10v41q31 11 50 25.5t36 36.5h39v-355h-70zM64 0l321 589h82l-321 -589h-82zM369 0v50q0 49 13 75.5t58 47.5q37 18 49.5 35t12.5 49q0 23 -6.5 36t-24.5 13q-16 0 -24.5 -11t-8.5 -37v-39h-70v28q0 61 25 85.5t80 24.5q44 0 66.5 -12t30 -33t7.5 -46
q0 -38 -9.5 -61t-26.5 -37t-39 -27q-35 -20 -48 -31.5t-17 -23.5q-3 -7 -3.5 -14t-0.5 -13h143v-59h-207z" />
    <glyph glyph-name="threequarters" unicode="&#xbe;" horiz-adv-x="614" 
d="M123 236q-56 0 -82.5 23.5t-26.5 64.5v41h75v-21q0 -24 7 -39.5t26 -15.5q18 0 26 12.5t8 30.5v34q0 18 -13.5 26.5t-42.5 8.5h-31v40h31q30 0 43 10t13 27v25q0 16 -7.5 28.5t-25.5 12.5q-20 0 -26.5 -15.5t-6.5 -38.5v-13h-75v34q0 42 27 64t81 22q64 0 86.5 -21.5
t22.5 -57.5v-29q0 -29 -16 -48t-47 -23q31 -1 47.5 -19.5t16.5 -48.5v-26q0 -43 -23 -65.5t-87 -22.5zM121 0l321 589h82l-321 -589h-82zM480 2v70h-133v46l141 239h63v-236h39v-49h-39v-70h-71zM413 121h67v118z" />
    <glyph glyph-name="questiondown" unicode="&#xbf;" horiz-adv-x="399" 
d="M281 329v-123q-16 -1 -31.5 -3.5t-28.5 -8.5q-17 -5 -32.5 -16.5t-25.5 -30t-10 -44.5v-48q0 -33 11.5 -54.5t38.5 -21.5q28 0 38 20.5t10 51.5v55h116v-68q0 -143 -165 -143q-62 0 -99.5 16t-53.5 50.5t-16 92.5v27q1 45 15 78.5t38 54.5t56 27q10 2 19.5 2.5t19.5 0.5
v85h100zM233 497q25 0 42 -16.5t17 -39.5q0 -24 -17 -41t-42 -17t-43 17t-18 41q0 23 18 39.5t43 16.5z" />
    <glyph glyph-name="Agrave" unicode="&#xc0;" horiz-adv-x="392" 
d="M8 0l106 591h166l104 -591h-130l-18 109h-86l-17 -109h-125zM152 167h83l-41 321zM182 634l-111 91h107l76 -91h-72z" />
    <glyph glyph-name="Aacute" unicode="&#xc1;" horiz-adv-x="392" 
d="M8 0l106 591h166l104 -591h-130l-18 109h-86l-17 -109h-125zM152 167h83l-41 321zM137 634l78 94h105l-119 -94h-64z" />
    <glyph glyph-name="Acircumflex" unicode="&#xc2;" horiz-adv-x="392" 
d="M8 0l106 591h166l104 -591h-130l-18 109h-86l-17 -109h-125zM152 167h83l-41 321zM68 631l96 100h64l97 -100h-79l-49 43l-49 -43h-80z" />
    <glyph glyph-name="Atilde" unicode="&#xc3;" horiz-adv-x="392" 
d="M8 0l106 591h166l104 -591h-130l-18 109h-86l-17 -109h-125zM152 167h83l-41 321zM239 637q-15 0 -28 5.5t-27 13.5q-10 7 -21 12t-23 5q-13 0 -20.5 -9.5t-8.5 -25.5h-34q1 39 18.5 63.5t45.5 24.5q16 0 30 -5.5t26 -13.5q11 -6 21.5 -11t21.5 -5q14 0 21.5 9t9.5 23h37
q0 -28 -10.5 -47.5t-26.5 -29t-32 -9.5z" />
    <glyph glyph-name="Adieresis" unicode="&#xc4;" horiz-adv-x="392" 
d="M8 0l106 591h166l104 -591h-130l-18 109h-86l-17 -109h-125zM152 167h83l-41 321zM137 634q-21 0 -34.5 13t-13.5 33q0 19 13.5 31.5t34.5 12.5q20 0 33 -12.5t13 -31.5q0 -20 -13 -33t-33 -13zM257 634q-20 0 -34 13t-14 33q0 19 14 31.5t34 12.5t33.5 -12.5t13.5 -31.5
q0 -20 -13.5 -33t-33.5 -13z" />
    <glyph glyph-name="Aring" unicode="&#xc5;" horiz-adv-x="392" 
d="M8 0l106 591h166l104 -591h-130l-18 109h-86l-17 -109h-125zM152 167h83l-41 321zM196 592q-37 0 -61.5 24t-24.5 57q0 35 24.5 59t61.5 24t62 -24.5t25 -58.5q0 -33 -25.5 -57t-61.5 -24zM196 638q17 0 28 10t11 25q0 18 -11 28t-28 10q-16 0 -27 -10t-11 -28
q0 -15 11 -25t27 -10z" />
    <glyph glyph-name="AE" unicode="&#xc6;" horiz-adv-x="550" 
d="M1 0l177 591h340v-82h-171l3 -158h151v-91h-150l2 -180h177v-80h-304v109h-70l-30 -109h-125zM165 167h69l11 300l1 21l-4 -20z" />
    <glyph glyph-name="Ccedilla" unicode="&#xc7;" horiz-adv-x="397" 
d="M202 -12q-49 0 -86.5 11.5t-59 48t-21.5 108.5v310q0 53 21.5 82t59.5 40.5t87 11.5q50 0 86.5 -12t56.5 -41t20 -81v-122h-116v127q0 24 -6 36.5t-16.5 16.5t-24.5 4t-25 -4t-17 -16.5t-6 -36.5v-358q0 -23 6 -35.5t17 -17t25 -4.5t24.5 4.5t16.5 17t6 35.5v117h116v-73
q0 -73 -20 -109.5t-56.5 -48t-87.5 -11.5zM194 -161q-19 0 -35.5 7t-23.5 11l14 36q7 -5 19 -9t21 -4q16 0 24 7.5t8 19.5q0 10 -6.5 15.5t-16.5 5.5q-6 0 -11 -2t-9 -5l-32 17l32 62h43l-26 -52l-7 3q7 4 16.5 6.5t21.5 2.5q27 0 42.5 -17t15.5 -37q0 -28 -23.5 -47.5
t-66.5 -19.5z" />
    <glyph glyph-name="Egrave" unicode="&#xc8;" horiz-adv-x="334" 
d="M42 0v591h272v-82h-151v-158h128v-91h-128v-180h151v-80h-272zM163 634l-111 91h107l76 -91h-72z" />
    <glyph glyph-name="Eacute" unicode="&#xc9;" horiz-adv-x="334" 
d="M42 0v591h272v-82h-151v-158h128v-91h-128v-180h151v-80h-272zM118 634l78 94h105l-119 -94h-64z" />
    <glyph glyph-name="Ecircumflex" unicode="&#xca;" horiz-adv-x="334" 
d="M42 0v591h272v-82h-151v-158h128v-91h-128v-180h151v-80h-272zM49 631l96 100h64l97 -100h-79l-49 43l-49 -43h-80z" />
    <glyph glyph-name="Edieresis" unicode="&#xcb;" horiz-adv-x="334" 
d="M42 0v591h272v-82h-151v-158h128v-91h-128v-180h151v-80h-272zM118 634q-21 0 -34.5 13t-13.5 33q0 19 13.5 31.5t34.5 12.5q20 0 33 -12.5t13 -31.5q0 -20 -13 -33t-33 -13zM238 634q-20 0 -34 13t-14 33q0 19 14 31.5t34 12.5t33.5 -12.5t13.5 -31.5q0 -20 -13.5 -33
t-33.5 -13z" />
    <glyph glyph-name="Igrave" unicode="&#xcc;" horiz-adv-x="200" 
d="M42 0v591h116v-591h-116zM86 634l-111 91h107l76 -91h-72z" />
    <glyph glyph-name="Iacute" unicode="&#xcd;" horiz-adv-x="200" 
d="M42 0v591h116v-591h-116zM41 634l78 94h105l-119 -94h-64z" />
    <glyph glyph-name="Icircumflex" unicode="&#xce;" horiz-adv-x="200" 
d="M42 0v591h116v-591h-116zM-28 631l96 100h64l97 -100h-79l-49 43l-49 -43h-80z" />
    <glyph glyph-name="Idieresis" unicode="&#xcf;" horiz-adv-x="200" 
d="M42 0v591h116v-591h-116zM41 634q-21 0 -34.5 13t-13.5 33q0 19 13.5 31.5t34.5 12.5q20 0 33 -12.5t13 -31.5q0 -20 -13 -33t-33 -13zM161 634q-20 0 -34 13t-14 33q0 19 14 31.5t34 12.5t33.5 -12.5t13.5 -31.5q0 -20 -13.5 -33t-33.5 -13z" />
    <glyph glyph-name="Eth" unicode="&#xd0;" horiz-adv-x="441" 
d="M60 0v591h222q42 0 69 -12t41 -36.5t14 -61.5v-354q0 -49 -17 -77t-48.5 -39t-74.5 -11h-206zM12 256v68h208v-68h-208zM180 60h59q26 0 38.5 12t12.5 45v351q0 33 -12.5 45t-38.5 12h-59v-465z" />
    <glyph glyph-name="Ntilde" unicode="&#xd1;" horiz-adv-x="409" 
d="M42 0v591h101l123 -358v358h102v-591h-101l-123 334v-334h-102zM251 637q-15 0 -28 5.5t-27 13.5q-10 7 -21 12t-23 5q-13 0 -20.5 -9.5t-8.5 -25.5h-34q1 39 18.5 63.5t45.5 24.5q16 0 30 -5.5t26 -13.5q11 -6 21.5 -11t21.5 -5q14 0 21.5 9t9.5 23h37
q0 -28 -10.5 -47.5t-26.5 -29t-32 -9.5z" />
    <glyph glyph-name="Ograve" unicode="&#xd2;" horiz-adv-x="401" 
d="M199 -12q-49 0 -86 11.5t-57.5 48t-20.5 108.5v310q0 53 20.5 82t58 40.5t86.5 11.5q48 0 85.5 -12t59 -41t21.5 -81v-309q0 -73 -21.5 -109.5t-59 -48t-86.5 -11.5zM199 56q15 0 26.5 5t18 17.5t6.5 34.5v358q0 22 -6.5 34.5t-18 17.5t-26.5 5t-26 -5t-17.5 -17.5
t-6.5 -34.5v-358q0 -22 6.5 -34.5t17.5 -17.5t26 -5zM187 634l-111 91h107l76 -91h-72z" />
    <glyph glyph-name="Oacute" unicode="&#xd3;" horiz-adv-x="401" 
d="M199 -12q-49 0 -86 11.5t-57.5 48t-20.5 108.5v310q0 53 20.5 82t58 40.5t86.5 11.5q48 0 85.5 -12t59 -41t21.5 -81v-309q0 -73 -21.5 -109.5t-59 -48t-86.5 -11.5zM199 56q15 0 26.5 5t18 17.5t6.5 34.5v358q0 22 -6.5 34.5t-18 17.5t-26.5 5t-26 -5t-17.5 -17.5
t-6.5 -34.5v-358q0 -22 6.5 -34.5t17.5 -17.5t26 -5zM141 634l78 94h105l-119 -94h-64z" />
    <glyph glyph-name="Ocircumflex" unicode="&#xd4;" horiz-adv-x="401" 
d="M199 -12q-49 0 -86 11.5t-57.5 48t-20.5 108.5v310q0 53 20.5 82t58 40.5t86.5 11.5q48 0 85.5 -12t59 -41t21.5 -81v-309q0 -73 -21.5 -109.5t-59 -48t-86.5 -11.5zM199 56q15 0 26.5 5t18 17.5t6.5 34.5v358q0 22 -6.5 34.5t-18 17.5t-26.5 5t-26 -5t-17.5 -17.5
t-6.5 -34.5v-358q0 -22 6.5 -34.5t17.5 -17.5t26 -5zM73 631l96 100h64l97 -100h-79l-49 43l-49 -43h-80z" />
    <glyph glyph-name="Otilde" unicode="&#xd5;" horiz-adv-x="401" 
d="M199 -12q-49 0 -86 11.5t-57.5 48t-20.5 108.5v310q0 53 20.5 82t58 40.5t86.5 11.5q48 0 85.5 -12t59 -41t21.5 -81v-309q0 -73 -21.5 -109.5t-59 -48t-86.5 -11.5zM199 56q15 0 26.5 5t18 17.5t6.5 34.5v358q0 22 -6.5 34.5t-18 17.5t-26.5 5t-26 -5t-17.5 -17.5
t-6.5 -34.5v-358q0 -22 6.5 -34.5t17.5 -17.5t26 -5zM244 637q-15 0 -28 5.5t-27 13.5q-10 7 -21 12t-23 5q-13 0 -20.5 -9.5t-8.5 -25.5h-34q1 39 18.5 63.5t45.5 24.5q16 0 30 -5.5t26 -13.5q11 -6 21.5 -11t21.5 -5q14 0 21.5 9t9.5 23h37q0 -28 -10.5 -47.5t-26.5 -29
t-32 -9.5z" />
    <glyph glyph-name="Odieresis" unicode="&#xd6;" horiz-adv-x="401" 
d="M199 -12q-49 0 -86 11.5t-57.5 48t-20.5 108.5v310q0 53 20.5 82t58 40.5t86.5 11.5q48 0 85.5 -12t59 -41t21.5 -81v-309q0 -73 -21.5 -109.5t-59 -48t-86.5 -11.5zM199 56q15 0 26.5 5t18 17.5t6.5 34.5v358q0 22 -6.5 34.5t-18 17.5t-26.5 5t-26 -5t-17.5 -17.5
t-6.5 -34.5v-358q0 -22 6.5 -34.5t17.5 -17.5t26 -5zM141 634q-21 0 -34.5 13t-13.5 33q0 19 13.5 31.5t34.5 12.5q20 0 33 -12.5t13 -31.5q0 -20 -13 -33t-33 -13zM261 634q-20 0 -34 13t-14 33q0 19 14 31.5t34 12.5t33.5 -12.5t13.5 -31.5q0 -20 -13.5 -33t-33.5 -13z
" />
    <glyph glyph-name="multiply" unicode="&#xd7;" horiz-adv-x="389" 
d="M299 103l-104 103l-101 -100l-56 55l101 101l-103 102l56 56l103 -103l101 102l55 -56l-100 -101l102 -104z" />
    <glyph glyph-name="Oslash" unicode="&#xd8;" horiz-adv-x="416" 
d="M16 -35l334 662h53l-335 -662h-52zM206 -12q-50 0 -87.5 11.5t-59 48t-21.5 108.5v310q0 53 21.5 82t59.5 40.5t87 11.5q51 0 87 -12t56 -41t20 -81v-309q0 -73 -20 -109.5t-56.5 -48t-86.5 -11.5zM206 56q14 0 24.5 4.5t16.5 17t6 35.5v358q0 24 -6 36.5t-16.5 16.5
t-24.5 4t-24.5 -4t-16.5 -16.5t-6 -36.5v-358q0 -23 6 -35.5t16.5 -17t24.5 -4.5z" />
    <glyph glyph-name="Ugrave" unicode="&#xd9;" horiz-adv-x="407" 
d="M204 -12q-36 0 -66 5t-52 21t-34 47.5t-12 85.5v444h116v-477q0 -21 6.5 -33.5t17.5 -16.5t24 -4q12 0 23 4t17.5 16.5t6.5 33.5v477h116v-444q0 -53 -12 -85t-33.5 -48t-52 -21t-65.5 -5zM189 634l-111 91h107l76 -91h-72z" />
    <glyph glyph-name="Uacute" unicode="&#xda;" horiz-adv-x="407" 
d="M204 -12q-36 0 -66 5t-52 21t-34 47.5t-12 85.5v444h116v-477q0 -21 6.5 -33.5t17.5 -16.5t24 -4q12 0 23 4t17.5 16.5t6.5 33.5v477h116v-444q0 -53 -12 -85t-33.5 -48t-52 -21t-65.5 -5zM144 634l78 94h105l-119 -94h-64z" />
    <glyph glyph-name="Ucircumflex" unicode="&#xdb;" horiz-adv-x="407" 
d="M204 -12q-36 0 -66 5t-52 21t-34 47.5t-12 85.5v444h116v-477q0 -21 6.5 -33.5t17.5 -16.5t24 -4q12 0 23 4t17.5 16.5t6.5 33.5v477h116v-444q0 -53 -12 -85t-33.5 -48t-52 -21t-65.5 -5zM75 631l96 100h64l97 -100h-79l-49 43l-49 -43h-80z" />
    <glyph glyph-name="Udieresis" unicode="&#xdc;" horiz-adv-x="407" 
d="M204 -12q-36 0 -66 5t-52 21t-34 47.5t-12 85.5v444h116v-477q0 -21 6.5 -33.5t17.5 -16.5t24 -4q12 0 23 4t17.5 16.5t6.5 33.5v477h116v-444q0 -53 -12 -85t-33.5 -48t-52 -21t-65.5 -5zM144 634q-21 0 -34.5 13t-13.5 33q0 19 13.5 31.5t34.5 12.5q20 0 33 -12.5
t13 -31.5q0 -20 -13 -33t-33 -13zM264 634q-20 0 -34 13t-14 33q0 19 14 31.5t34 12.5t33.5 -12.5t13.5 -31.5q0 -20 -13.5 -33t-33.5 -13z" />
    <glyph glyph-name="Yacute" unicode="&#xdd;" horiz-adv-x="361" 
d="M120 0v251l-111 340h116l51 -177l7 -38l7 38l55 177h106l-115 -346v-245h-116zM126 634l78 94h105l-119 -94h-64z" />
    <glyph glyph-name="Thorn" unicode="&#xde;" horiz-adv-x="395" 
d="M33 0v591h121v-103h89q59 0 89 -26.5t30 -73.5v-103q0 -40 -9.5 -74t-36 -55.5t-74.5 -21.5h-88v-134h-121zM154 198h45q24 0 36 23t12 76v40q0 48 -9.5 68t-29.5 20h-54v-227z" />
    <glyph glyph-name="germandbls" unicode="&#xdf;" horiz-adv-x="451" 
d="M15 -147q-11 0 -30.5 1.5t-27.5 2.5v65q4 -1 7 -1t7 -1q5 -1 12.5 -1.5t17.5 -0.5q37 0 49 21t12 50v427h-40v79h40v27q0 38 12.5 62t50.5 35.5t110 11.5q85 0 130 -21.5t45 -76.5v-95q0 -42 -23 -68t-52 -28v-4q22 -2 42.5 -13t34.5 -31t14 -50v-123q0 -52 -21 -78
t-58 -34.5t-87 -8.5h-55v59h39q22 0 34 8t17 31t5 69v72q0 22 -6 36.5t-19.5 22t-38.5 7.5h-27l1 60h43q28 0 36 19.5t8 53.5v60q0 41 -11.5 59t-49.5 18q-26 0 -39 -9t-17 -24t-4 -34l1 -500q0 -48 -14.5 -78.5t-38 -47t-52 -23t-57.5 -6.5z" />
    <glyph glyph-name="agrave" unicode="&#xe0;" horiz-adv-x="370" 
d="M126 -8q-26 0 -48.5 7t-37 29.5t-14.5 66.5v66q0 47 27.5 76.5t86.5 50.5q31 13 49 23t26 24.5t8 39.5v27q0 16 -5 24.5t-14.5 12.5t-21.5 4q-26 0 -34 -17.5t-8 -58.5v-42h-103v53q0 37 10.5 65.5t41.5 45t93 16.5q63 0 97 -11.5t47 -36t13 -66.5v-391h-114v55
q-8 -29 -36.5 -46t-62.5 -17zM175 67q27 0 37.5 20.5t10.5 57.5v127q-6 -10 -20 -17.5t-28 -16.5q-19 -13 -29 -26.5t-10 -37.5v-51q0 -21 5 -33.5t14 -17.5t20 -5zM173 548l-95 100h103l57 -100h-65z" />
    <glyph glyph-name="aacute" unicode="&#xe1;" horiz-adv-x="370" 
d="M126 -8q-26 0 -48.5 7t-37 29.5t-14.5 66.5v66q0 47 27.5 76.5t86.5 50.5q31 13 49 23t26 24.5t8 39.5v27q0 16 -5 24.5t-14.5 12.5t-21.5 4q-26 0 -34 -17.5t-8 -58.5v-42h-103v53q0 37 10.5 65.5t41.5 45t93 16.5q63 0 97 -11.5t47 -36t13 -66.5v-391h-114v55
q-8 -29 -36.5 -46t-62.5 -17zM175 67q27 0 37.5 20.5t10.5 57.5v127q-6 -10 -20 -17.5t-28 -16.5q-19 -13 -29 -26.5t-10 -37.5v-51q0 -21 5 -33.5t14 -17.5t20 -5zM146 548l57 100h103l-95 -100h-65z" />
    <glyph glyph-name="acircumflex" unicode="&#xe2;" horiz-adv-x="370" 
d="M126 -8q-26 0 -48.5 7t-37 29.5t-14.5 66.5v66q0 47 27.5 76.5t86.5 50.5q31 13 49 23t26 24.5t8 39.5v27q0 16 -5 24.5t-14.5 12.5t-21.5 4q-26 0 -34 -17.5t-8 -58.5v-42h-103v53q0 37 10.5 65.5t41.5 45t93 16.5q63 0 97 -11.5t47 -36t13 -66.5v-391h-114v55
q-8 -29 -36.5 -46t-62.5 -17zM175 67q27 0 37.5 20.5t10.5 57.5v127q-6 -10 -20 -17.5t-28 -16.5q-19 -13 -29 -26.5t-10 -37.5v-51q0 -21 5 -33.5t14 -17.5t20 -5zM62 546l95 105h64l95 -105h-75l-51 49l-51 -49h-77z" />
    <glyph glyph-name="atilde" unicode="&#xe3;" horiz-adv-x="370" 
d="M126 -8q-26 0 -48.5 7t-37 29.5t-14.5 66.5v66q0 47 27.5 76.5t86.5 50.5q31 13 49 23t26 24.5t8 39.5v27q0 16 -5 24.5t-14.5 12.5t-21.5 4q-26 0 -34 -17.5t-8 -58.5v-42h-103v53q0 37 10.5 65.5t41.5 45t93 16.5q63 0 97 -11.5t47 -36t13 -66.5v-391h-114v55
q-8 -29 -36.5 -46t-62.5 -17zM175 67q27 0 37.5 20.5t10.5 57.5v127q-6 -10 -20 -17.5t-28 -16.5q-19 -13 -29 -26.5t-10 -37.5v-51q0 -21 5 -33.5t14 -17.5t20 -5zM236 551q-15 0 -28 5.5t-27 13.5q-10 7 -21 12t-23 5q-13 0 -20.5 -9.5t-8.5 -25.5h-34q1 39 18.5 63.5
t45.5 24.5q16 0 30 -5.5t26 -13.5q11 -6 21.5 -11t21.5 -5q14 0 21.5 9t9.5 23h37q0 -28 -10.5 -47.5t-26.5 -29t-32 -9.5z" />
    <glyph glyph-name="adieresis" unicode="&#xe4;" horiz-adv-x="370" 
d="M126 -8q-26 0 -48.5 7t-37 29.5t-14.5 66.5v66q0 47 27.5 76.5t86.5 50.5q31 13 49 23t26 24.5t8 39.5v27q0 16 -5 24.5t-14.5 12.5t-21.5 4q-26 0 -34 -17.5t-8 -58.5v-42h-103v53q0 37 10.5 65.5t41.5 45t93 16.5q63 0 97 -11.5t47 -36t13 -66.5v-391h-114v55
q-8 -29 -36.5 -46t-62.5 -17zM175 67q27 0 37.5 20.5t10.5 57.5v127q-6 -10 -20 -17.5t-28 -16.5q-19 -13 -29 -26.5t-10 -37.5v-51q0 -21 5 -33.5t14 -17.5t20 -5zM130 549q-21 0 -34.5 13t-13.5 33q0 19 13.5 31.5t34.5 12.5q20 0 33 -12.5t13 -31.5q0 -20 -13 -33
t-33 -13zM250 549q-20 0 -34 13t-14 33q0 19 14 31.5t34 12.5t33.5 -12.5t13.5 -31.5q0 -20 -13.5 -33t-33.5 -13z" />
    <glyph glyph-name="aring" unicode="&#xe5;" horiz-adv-x="370" 
d="M126 -8q-26 0 -48.5 7t-37 29.5t-14.5 66.5v66q0 47 27.5 76.5t86.5 50.5q31 13 49 23t26 24.5t8 39.5v27q0 16 -5 24.5t-14.5 12.5t-21.5 4q-26 0 -34 -17.5t-8 -58.5v-42h-103v53q0 37 10.5 65.5t41.5 45t93 16.5q63 0 97 -11.5t47 -36t13 -66.5v-391h-114v55
q-8 -29 -36.5 -46t-62.5 -17zM175 67q27 0 37.5 20.5t10.5 57.5v127q-6 -10 -20 -17.5t-28 -16.5q-19 -13 -29 -26.5t-10 -37.5v-51q0 -21 5 -33.5t14 -17.5t20 -5zM189 541q-37 0 -61.5 24t-24.5 57q0 35 24.5 59t61.5 24t62 -24.5t25 -58.5q0 -33 -25.5 -57t-61.5 -24z
M189 587q17 0 28 10t11 25q0 18 -11 28t-28 10q-16 0 -27 -10t-11 -28q0 -15 11 -25t27 -10z" />
    <glyph glyph-name="ae" unicode="&#xe6;" horiz-adv-x="562" 
d="M126 -6q-13 0 -30 2t-33 11t-26.5 30t-10.5 60v66q0 50 30.5 77.5t78.5 45.5q32 14 51.5 23.5t28 24t8.5 38.5v30q0 16 -5 24.5t-14.5 12.5t-21.5 4q-26 0 -34 -17.5t-8 -58.5v-42h-103v53q0 37 10.5 65.5t41.5 45t93 16.5q54 0 83.5 -14t40.5 -39t11 -61v-373l-69 63
q-16 -49 -50 -68t-72 -19zM175 69q27 0 37.5 19.5t10.5 56.5v127q-6 -10 -20.5 -17.5t-28.5 -17.5q-19 -13 -28.5 -26t-9.5 -36v-51q0 -21 5 -33.5t14 -17t20 -4.5zM381 -2q-34 0 -61 4.5t-45 19.5t-27 46t-9 84v225q0 58 35.5 92.5t106.5 34.5q79 0 118 -27.5t39 -99.5
v-135h-199v-137q0 -21 4 -32.5t13 -16t25 -4.5t25.5 5t13 17t3.5 33v76h115v-28q0 -54 -10.5 -85.5t-30 -46.5t-49 -20t-67.5 -5zM339 294h84v96q0 29 -8.5 41t-33.5 12q-23 0 -32.5 -12t-9.5 -41v-96z" />
    <glyph glyph-name="ccedilla" unicode="&#xe7;" horiz-adv-x="366" 
d="M187 -8q-51 0 -86.5 11t-53.5 45.5t-18 103.5v218q0 76 39 105t118 29q78 0 117 -27.5t39 -99.5v-73h-115v79q0 29 -8.5 41.5t-32.5 12.5t-33.5 -12.5t-9.5 -41.5v-268q0 -31 9.5 -43.5t34.5 -12.5q23 0 31.5 12t8.5 44v85h115v-48q0 -68 -18 -103t-52.5 -46t-84.5 -11z
M179 -161q-19 0 -35.5 7t-23.5 11l14 36q7 -5 19 -9t21 -4q16 0 24 7.5t8 19.5q0 10 -6.5 15.5t-16.5 5.5q-6 0 -11 -2t-9 -5l-32 17l32 62h43l-26 -52l-7 3q7 4 16.5 6.5t21.5 2.5q27 0 42.5 -17t15.5 -37q0 -28 -23.5 -47.5t-66.5 -19.5z" />
    <glyph glyph-name="egrave" unicode="&#xe8;" horiz-adv-x="366" 
d="M188 -8q-52 0 -87.5 11.5t-53.5 46t-18 104.5v223q0 73 39 100t118 27q78 0 117 -27t39 -100v-135h-199v-135q0 -30 9.5 -42t34.5 -12q23 0 31.5 11.5t8.5 42.5v79h115v-31q0 -70 -18 -105t-52.5 -46.5t-83.5 -11.5zM143 294h84v89q0 29 -8.5 41t-32.5 12t-33.5 -12
t-9.5 -41v-89zM167 548l-95 100h103l57 -100h-65z" />
    <glyph glyph-name="eacute" unicode="&#xe9;" horiz-adv-x="366" 
d="M188 -8q-52 0 -87.5 11.5t-53.5 46t-18 104.5v223q0 73 39 100t118 27q78 0 117 -27t39 -100v-135h-199v-135q0 -30 9.5 -42t34.5 -12q23 0 31.5 11.5t8.5 42.5v79h115v-31q0 -70 -18 -105t-52.5 -46.5t-83.5 -11.5zM143 294h84v89q0 29 -8.5 41t-32.5 12t-33.5 -12
t-9.5 -41v-89zM140 548l57 100h103l-95 -100h-65z" />
    <glyph glyph-name="ecircumflex" unicode="&#xea;" horiz-adv-x="366" 
d="M188 -8q-52 0 -87.5 11.5t-53.5 46t-18 104.5v223q0 73 39 100t118 27q78 0 117 -27t39 -100v-135h-199v-135q0 -30 9.5 -42t34.5 -12q23 0 31.5 11.5t8.5 42.5v79h115v-31q0 -70 -18 -105t-52.5 -46.5t-83.5 -11.5zM143 294h84v89q0 29 -8.5 41t-32.5 12t-33.5 -12
t-9.5 -41v-89zM56 546l95 105h64l95 -105h-75l-51 49l-51 -49h-77z" />
    <glyph glyph-name="edieresis" unicode="&#xeb;" horiz-adv-x="366" 
d="M188 -8q-52 0 -87.5 11.5t-53.5 46t-18 104.5v223q0 73 39 100t118 27q78 0 117 -27t39 -100v-135h-199v-135q0 -30 9.5 -42t34.5 -12q23 0 31.5 11.5t8.5 42.5v79h115v-31q0 -70 -18 -105t-52.5 -46.5t-83.5 -11.5zM143 294h84v89q0 29 -8.5 41t-32.5 12t-33.5 -12
t-9.5 -41v-89zM124 549q-21 0 -34.5 13t-13.5 33q0 19 13.5 31.5t34.5 12.5q20 0 33 -12.5t13 -31.5q0 -20 -13 -33t-33 -13zM244 549q-20 0 -34 13t-14 33q0 19 14 31.5t34 12.5t33.5 -12.5t13.5 -31.5q0 -20 -13.5 -33t-33.5 -13z" />
    <glyph glyph-name="igrave" unicode="&#xec;" horiz-adv-x="189" 
d="M37 0v495h114v-495h-114zM78 548l-95 100h103l57 -100h-65z" />
    <glyph glyph-name="iacute" unicode="&#xed;" horiz-adv-x="189" 
d="M37 0v495h114v-495h-114zM51 548l57 100h103l-95 -100h-65z" />
    <glyph glyph-name="icircumflex" unicode="&#xee;" horiz-adv-x="189" 
d="M37 0v495h114v-495h-114zM-33 546l95 105h64l95 -105h-75l-51 49l-51 -49h-77z" />
    <glyph glyph-name="idieresis" unicode="&#xef;" horiz-adv-x="189" 
d="M37 0v495h114v-495h-114zM35 549q-21 0 -34.5 13t-13.5 33q0 19 13.5 31.5t34.5 12.5q20 0 33 -12.5t13 -31.5q0 -20 -13 -33t-33 -13zM155 549q-20 0 -34 13t-14 33q0 19 14 31.5t34 12.5t33.5 -12.5t13.5 -31.5q0 -20 -13.5 -33t-33.5 -13z" />
    <glyph glyph-name="eth" unicode="&#xf0;" horiz-adv-x="373" 
d="M185 -8q-48 0 -83 11t-54 45t-19 103v206q0 71 37 99t106 28q15 0 30 -3t24 -11v17q0 35 -9.5 57.5t-27 33t-42.5 10.5q-24 0 -44.5 -3t-43.5 -8v73q18 4 43.5 8t64.5 4q57 0 91.5 -15t52.5 -49t24.5 -89t6.5 -134v-209q0 -72 -18 -109.5t-53 -51t-86 -13.5zM185 53
q22 0 32 14.5t10 50.5v265q0 10 -4 19.5t-13.5 15t-26.5 5.5q-22 0 -31 -12t-9 -42v-266q0 -27 10.5 -38.5t31.5 -11.5zM136 506l-26 32l186 153l27 -32z" />
    <glyph glyph-name="ntilde" unicode="&#xf1;" horiz-adv-x="381" 
d="M37 0v495h97l10 -58q9 30 35.5 49t58.5 19q48 0 72 -16.5t32.5 -46t8.5 -69.5v-373h-114v366q0 12 -1 22.5t-5.5 18.5t-12.5 12.5t-24 4.5q-12 0 -21 -4.5t-14 -10.5t-8 -11v-398h-114zM237 551q-15 0 -28 5.5t-27 13.5q-10 7 -21 12t-23 5q-13 0 -20.5 -9.5t-8.5 -25.5
h-34q1 39 18.5 63.5t45.5 24.5q16 0 30 -5.5t26 -13.5q11 -6 21.5 -11t21.5 -5q14 0 21.5 9t9.5 23h37q0 -28 -10.5 -47.5t-26.5 -29t-32 -9.5z" />
    <glyph glyph-name="ograve" unicode="&#xf2;" horiz-adv-x="371" 
d="M186 -8q-50 0 -85.5 12t-53.5 47.5t-18 104.5v210q0 77 39 107.5t118 30.5t117.5 -30.5t38.5 -107.5v-210q0 -69 -17.5 -104t-52.5 -47.5t-86 -12.5zM186 60q22 0 32 12.5t10 45.5v260q0 31 -9.5 44.5t-32.5 13.5q-22 0 -32.5 -13t-10.5 -45v-260q0 -33 10.5 -45.5
t32.5 -12.5zM169 548l-95 100h103l57 -100h-65z" />
    <glyph glyph-name="oacute" unicode="&#xf3;" horiz-adv-x="371" 
d="M186 -8q-50 0 -85.5 12t-53.5 47.5t-18 104.5v210q0 77 39 107.5t118 30.5t117.5 -30.5t38.5 -107.5v-210q0 -69 -17.5 -104t-52.5 -47.5t-86 -12.5zM186 60q22 0 32 12.5t10 45.5v260q0 31 -9.5 44.5t-32.5 13.5q-22 0 -32.5 -13t-10.5 -45v-260q0 -33 10.5 -45.5
t32.5 -12.5zM142 548l57 100h103l-95 -100h-65z" />
    <glyph glyph-name="ocircumflex" unicode="&#xf4;" horiz-adv-x="371" 
d="M186 -8q-50 0 -85.5 12t-53.5 47.5t-18 104.5v210q0 77 39 107.5t118 30.5t117.5 -30.5t38.5 -107.5v-210q0 -69 -17.5 -104t-52.5 -47.5t-86 -12.5zM186 60q22 0 32 12.5t10 45.5v260q0 31 -9.5 44.5t-32.5 13.5q-22 0 -32.5 -13t-10.5 -45v-260q0 -33 10.5 -45.5
t32.5 -12.5zM58 546l95 105h64l95 -105h-75l-51 49l-51 -49h-77z" />
    <glyph glyph-name="otilde" unicode="&#xf5;" horiz-adv-x="371" 
d="M186 -8q-50 0 -85.5 12t-53.5 47.5t-18 104.5v210q0 77 39 107.5t118 30.5t117.5 -30.5t38.5 -107.5v-210q0 -69 -17.5 -104t-52.5 -47.5t-86 -12.5zM186 60q22 0 32 12.5t10 45.5v260q0 31 -9.5 44.5t-32.5 13.5q-22 0 -32.5 -13t-10.5 -45v-260q0 -33 10.5 -45.5
t32.5 -12.5zM232 551q-15 0 -28 5.5t-27 13.5q-10 7 -21 12t-23 5q-13 0 -20.5 -9.5t-8.5 -25.5h-34q1 39 18.5 63.5t45.5 24.5q16 0 30 -5.5t26 -13.5q11 -6 21.5 -11t21.5 -5q14 0 21.5 9t9.5 23h37q0 -28 -10.5 -47.5t-26.5 -29t-32 -9.5z" />
    <glyph glyph-name="odieresis" unicode="&#xf6;" horiz-adv-x="371" 
d="M186 -8q-50 0 -85.5 12t-53.5 47.5t-18 104.5v210q0 77 39 107.5t118 30.5t117.5 -30.5t38.5 -107.5v-210q0 -69 -17.5 -104t-52.5 -47.5t-86 -12.5zM186 60q22 0 32 12.5t10 45.5v260q0 31 -9.5 44.5t-32.5 13.5q-22 0 -32.5 -13t-10.5 -45v-260q0 -33 10.5 -45.5
t32.5 -12.5zM126 549q-21 0 -34.5 13t-13.5 33q0 19 13.5 31.5t34.5 12.5q20 0 33 -12.5t13 -31.5q0 -20 -13 -33t-33 -13zM246 549q-20 0 -34 13t-14 33q0 19 14 31.5t34 12.5t33.5 -12.5t13.5 -31.5q0 -20 -13.5 -33t-33.5 -13z" />
    <glyph glyph-name="divide" unicode="&#xf7;" horiz-adv-x="387" 
d="M43 249v77h301v-77h-301zM193 71q-23 0 -39 14.5t-16 37.5q0 22 16 37.5t39 15.5q24 0 40 -15.5t16 -37.5q0 -23 -16 -37.5t-40 -14.5zM193 394q-23 0 -39 15.5t-16 37.5q0 23 16 38t39 15t39 -15t16 -38q0 -22 -16 -37.5t-39 -15.5z" />
    <glyph glyph-name="oslash" unicode="&#xf8;" horiz-adv-x="379" 
d="M26 -38l277 559h43l-278 -559h-42zM186 -8q-54 0 -89 14t-51.5 50t-16.5 100v210q0 47 16 77.5t50.5 45t90.5 14.5t90.5 -14.5t50 -45t15.5 -77.5v-210q0 -64 -16.5 -100t-51 -50t-88.5 -14zM186 59q18 0 27 7.5t12 21t3 30.5v260q0 17 -3 30t-12 20.5t-27 7.5
t-27.5 -7.5t-12.5 -20.5t-3 -30v-260q0 -17 3 -30.5t12.5 -21t27.5 -7.5z" />
    <glyph glyph-name="ugrave" unicode="&#xf9;" horiz-adv-x="385" 
d="M147 -7q-48 0 -72 16.5t-32.5 45.5t-8.5 69v371h114v-364q0 -15 2.5 -28t11.5 -21t29 -8q13 0 21.5 4t13.5 10t7 11v396h114v-495h-97l-9 60q-8 -28 -33 -47.5t-61 -19.5zM176 548l-95 100h103l57 -100h-65z" />
    <glyph glyph-name="uacute" unicode="&#xfa;" horiz-adv-x="385" 
d="M147 -7q-48 0 -72 16.5t-32.5 45.5t-8.5 69v371h114v-364q0 -15 2.5 -28t11.5 -21t29 -8q13 0 21.5 4t13.5 10t7 11v396h114v-495h-97l-9 60q-8 -28 -33 -47.5t-61 -19.5zM149 548l57 100h103l-95 -100h-65z" />
    <glyph glyph-name="ucircumflex" unicode="&#xfb;" horiz-adv-x="385" 
d="M147 -7q-48 0 -72 16.5t-32.5 45.5t-8.5 69v371h114v-364q0 -15 2.5 -28t11.5 -21t29 -8q13 0 21.5 4t13.5 10t7 11v396h114v-495h-97l-9 60q-8 -28 -33 -47.5t-61 -19.5zM65 546l95 105h64l95 -105h-75l-51 49l-51 -49h-77z" />
    <glyph glyph-name="udieresis" unicode="&#xfc;" horiz-adv-x="385" 
d="M147 -7q-48 0 -72 16.5t-32.5 45.5t-8.5 69v371h114v-364q0 -15 2.5 -28t11.5 -21t29 -8q13 0 21.5 4t13.5 10t7 11v396h114v-495h-97l-9 60q-8 -28 -33 -47.5t-61 -19.5zM133 549q-21 0 -34.5 13t-13.5 33q0 19 13.5 31.5t34.5 12.5q20 0 33 -12.5t13 -31.5
q0 -20 -13 -33t-33 -13zM253 549q-20 0 -34 13t-14 33q0 19 14 31.5t34 12.5t33.5 -12.5t13.5 -31.5q0 -20 -13.5 -33t-33.5 -13z" />
    <glyph glyph-name="yacute" unicode="&#xfd;" horiz-adv-x="349" 
d="M100 -117q-28 0 -54 4.5t-41 8.5v60q6 -2 17.5 -4t24.5 -2t29.5 4t22.5 26q2 9 4.5 19t-0.5 24l-101 472h118l60 -386h1l60 386h108l-96 -452q-17 -85 -54 -122.5t-99 -37.5zM131 548l57 100h103l-95 -100h-65z" />
    <glyph glyph-name="thorn" unicode="&#xfe;" horiz-adv-x="380" 
d="M37 -116v746h114v-173q14 22 32.5 34t53.5 12t60 -11t39 -36.5t14 -69.5v-241q0 -55 -12 -88.5t-37 -48t-64 -14.5q-34 0 -54.5 11.5t-32.5 33.5l1 -155h-114zM194 58q15 0 23 4t12.5 12t5.5 19t1 24v257q0 13 -1 23.5t-5.5 18t-13 11.5t-23.5 4t-24 -7t-13.5 -20
t-4.5 -28v-250q0 -14 1 -26t5.5 -21.5t13 -15t23.5 -5.5z" />
    <glyph glyph-name="ydieresis" unicode="&#xff;" horiz-adv-x="349" 
d="M100 -117q-28 0 -54 4.5t-41 8.5v60q6 -2 17.5 -4t24.5 -2t29.5 4t22.5 26q2 9 4.5 19t-0.5 24l-101 472h118l60 -386h1l60 386h108l-96 -452q-17 -85 -54 -122.5t-99 -37.5zM115 549q-21 0 -34.5 13t-13.5 33q0 19 13.5 31.5t34.5 12.5q20 0 33 -12.5t13 -31.5
q0 -20 -13 -33t-33 -13zM235 549q-20 0 -34 13t-14 33q0 19 14 31.5t34 12.5t33.5 -12.5t13.5 -31.5q0 -20 -13.5 -33t-33.5 -13z" />
    <glyph glyph-name="Amacron" unicode="&#x100;" horiz-adv-x="392" 
d="M8 0l106 591h166l104 -591h-130l-18 109h-86l-17 -109h-125zM152 167h83l-41 321zM93 646v58h206v-58h-206z" />
    <glyph glyph-name="amacron" unicode="&#x101;" horiz-adv-x="370" 
d="M126 -8q-26 0 -48.5 7t-37 29.5t-14.5 66.5v66q0 47 27.5 76.5t86.5 50.5q31 13 49 23t26 24.5t8 39.5v27q0 16 -5 24.5t-14.5 12.5t-21.5 4q-26 0 -34 -17.5t-8 -58.5v-42h-103v53q0 37 10.5 65.5t41.5 45t93 16.5q63 0 97 -11.5t47 -36t13 -66.5v-391h-114v55
q-8 -29 -36.5 -46t-62.5 -17zM175 67q27 0 37.5 20.5t10.5 57.5v127q-6 -10 -20 -17.5t-28 -16.5q-19 -13 -29 -26.5t-10 -37.5v-51q0 -21 5 -33.5t14 -17.5t20 -5zM86 560v58h206v-58h-206z" />
    <glyph glyph-name="Abreve" unicode="&#x102;" horiz-adv-x="392" 
d="M8 0l106 591h166l104 -591h-130l-18 109h-86l-17 -109h-125zM152 167h83l-41 321zM194 630q-46 0 -70 17t-32.5 40.5t-9.5 42.5h62q2 -23 17 -34t34 -11q21 0 35.5 10.5t16.5 34.5h62q0 -26 -12 -48.5t-36.5 -37t-66.5 -14.5z" />
    <glyph glyph-name="abreve" unicode="&#x103;" horiz-adv-x="370" 
d="M126 -8q-26 0 -48.5 7t-37 29.5t-14.5 66.5v66q0 47 27.5 76.5t86.5 50.5q31 13 49 23t26 24.5t8 39.5v27q0 16 -5 24.5t-14.5 12.5t-21.5 4q-26 0 -34 -17.5t-8 -58.5v-42h-103v53q0 37 10.5 65.5t41.5 45t93 16.5q63 0 97 -11.5t47 -36t13 -66.5v-391h-114v55
q-8 -29 -36.5 -46t-62.5 -17zM175 67q27 0 37.5 20.5t10.5 57.5v127q-6 -10 -20 -17.5t-28 -16.5q-19 -13 -29 -26.5t-10 -37.5v-51q0 -21 5 -33.5t14 -17.5t20 -5zM187 545q-46 0 -70 17t-32.5 40.5t-9.5 42.5h62q2 -23 17 -34t34 -11q21 0 35.5 10.5t16.5 34.5h62
q0 -26 -12 -48.5t-36.5 -37t-66.5 -14.5z" />
    <glyph glyph-name="Aogonek" unicode="&#x104;" horiz-adv-x="392" 
d="M8 0l106 591h166l104 -591h-130l-18 109h-86l-17 -109h-125zM152 167h83l-41 321zM340 -144q-36 0 -59 19.5t-23 44.5q0 28 22.5 52t56.5 29l47 -1q-27 -9 -39.5 -28t-12.5 -36q0 -19 12.5 -29t24.5 -10q8 0 13.5 2t8.5 2l13 -30q-5 -3 -19.5 -9t-44.5 -6z" />
    <glyph glyph-name="aogonek" unicode="&#x105;" horiz-adv-x="370" 
d="M126 -8q-26 0 -48.5 7t-37 29.5t-14.5 66.5v66q0 47 27.5 76.5t86.5 50.5q31 13 49 23t26 24.5t8 39.5v27q0 16 -5 24.5t-14.5 12.5t-21.5 4q-26 0 -34 -17.5t-8 -58.5v-42h-103v53q0 37 10.5 65.5t41.5 45t93 16.5q63 0 97 -11.5t47 -36t13 -66.5v-391h-114v55
q-8 -29 -36.5 -46t-62.5 -17zM175 67q27 0 37.5 20.5t10.5 57.5v127q-6 -10 -20 -17.5t-28 -16.5q-19 -13 -29 -26.5t-10 -37.5v-51q0 -21 5 -33.5t14 -17.5t20 -5zM295 -144q-36 0 -59 19.5t-23 44.5q0 28 22.5 52t56.5 29l47 -1q-27 -9 -39.5 -28t-12.5 -36
q0 -19 12.5 -29t24.5 -10q8 0 13.5 2t8.5 2l13 -30q-5 -3 -19.5 -9t-44.5 -6z" />
    <glyph glyph-name="Cacute" unicode="&#x106;" horiz-adv-x="397" 
d="M202 -12q-49 0 -86.5 11.5t-59 48t-21.5 108.5v310q0 53 21.5 82t59.5 40.5t87 11.5q50 0 86.5 -12t56.5 -41t20 -81v-122h-116v127q0 24 -6 36.5t-16.5 16.5t-24.5 4t-25 -4t-17 -16.5t-6 -36.5v-358q0 -23 6 -35.5t17 -17t25 -4.5t24.5 4.5t16.5 17t6 35.5v117h116v-73
q0 -73 -20 -109.5t-56.5 -48t-87.5 -11.5zM139 634l78 94h105l-119 -94h-64z" />
    <glyph glyph-name="cacute" unicode="&#x107;" horiz-adv-x="366" 
d="M187 -8q-51 0 -86.5 11t-53.5 45.5t-18 103.5v218q0 76 39 105t118 29q78 0 117 -27.5t39 -99.5v-73h-115v79q0 29 -8.5 41.5t-32.5 12.5t-33.5 -12.5t-9.5 -41.5v-268q0 -31 9.5 -43.5t34.5 -12.5q23 0 31.5 12t8.5 44v85h115v-48q0 -68 -18 -103t-52.5 -46t-84.5 -11z
M140 548l57 100h103l-95 -100h-65z" />
    <glyph glyph-name="Ccircumflex" unicode="&#x108;" horiz-adv-x="397" 
d="M202 -12q-49 0 -86.5 11.5t-59 48t-21.5 108.5v310q0 53 21.5 82t59.5 40.5t87 11.5q50 0 86.5 -12t56.5 -41t20 -81v-122h-116v127q0 24 -6 36.5t-16.5 16.5t-24.5 4t-25 -4t-17 -16.5t-6 -36.5v-358q0 -23 6 -35.5t17 -17t25 -4.5t24.5 4.5t16.5 17t6 35.5v117h116v-73
q0 -73 -20 -109.5t-56.5 -48t-87.5 -11.5zM71 631l96 100h64l97 -100h-79l-49 43l-49 -43h-80z" />
    <glyph glyph-name="ccircumflex" unicode="&#x109;" horiz-adv-x="366" 
d="M187 -8q-51 0 -86.5 11t-53.5 45.5t-18 103.5v218q0 76 39 105t118 29q78 0 117 -27.5t39 -99.5v-73h-115v79q0 29 -8.5 41.5t-32.5 12.5t-33.5 -12.5t-9.5 -41.5v-268q0 -31 9.5 -43.5t34.5 -12.5q23 0 31.5 12t8.5 44v85h115v-48q0 -68 -18 -103t-52.5 -46t-84.5 -11z
M56 546l95 105h64l95 -105h-75l-51 49l-51 -49h-77z" />
    <glyph glyph-name="Cdotaccent" unicode="&#x10a;" horiz-adv-x="397" 
d="M202 -12q-49 0 -86.5 11.5t-59 48t-21.5 108.5v310q0 53 21.5 82t59.5 40.5t87 11.5q50 0 86.5 -12t56.5 -41t20 -81v-122h-116v127q0 24 -6 36.5t-16.5 16.5t-24.5 4t-25 -4t-17 -16.5t-6 -36.5v-358q0 -23 6 -35.5t17 -17t25 -4.5t24.5 4.5t16.5 17t6 35.5v117h116v-73
q0 -73 -20 -109.5t-56.5 -48t-87.5 -11.5zM198 636q-22 0 -38 15.5t-16 36.5q0 22 16 37t38 15t38.5 -15t16.5 -37q0 -21 -16.5 -36.5t-38.5 -15.5z" />
    <glyph glyph-name="cdotaccent" unicode="&#x10b;" horiz-adv-x="366" 
d="M187 -8q-51 0 -86.5 11t-53.5 45.5t-18 103.5v218q0 76 39 105t118 29q78 0 117 -27.5t39 -99.5v-73h-115v79q0 29 -8.5 41.5t-32.5 12.5t-33.5 -12.5t-9.5 -41.5v-268q0 -31 9.5 -43.5t34.5 -12.5q23 0 31.5 12t8.5 44v85h115v-48q0 -68 -18 -103t-52.5 -46t-84.5 -11z
M183 550q-22 0 -38 15.5t-16 36.5q0 22 16 37t38 15t38.5 -15t16.5 -37q0 -21 -16.5 -36.5t-38.5 -15.5z" />
    <glyph glyph-name="Ccaron" unicode="&#x10c;" horiz-adv-x="397" 
d="M202 -12q-49 0 -86.5 11.5t-59 48t-21.5 108.5v310q0 53 21.5 82t59.5 40.5t87 11.5q50 0 86.5 -12t56.5 -41t20 -81v-122h-116v127q0 24 -6 36.5t-16.5 16.5t-24.5 4t-25 -4t-17 -16.5t-6 -36.5v-358q0 -23 6 -35.5t17 -17t25 -4.5t24.5 4.5t16.5 17t6 35.5v117h116v-73
q0 -73 -20 -109.5t-56.5 -48t-87.5 -11.5zM166 631l-94 97h80l47 -40l48 40h78l-95 -97h-64z" />
    <glyph glyph-name="ccaron" unicode="&#x10d;" horiz-adv-x="366" 
d="M187 -8q-51 0 -86.5 11t-53.5 45.5t-18 103.5v218q0 76 39 105t118 29q78 0 117 -27.5t39 -99.5v-73h-115v79q0 29 -8.5 41.5t-32.5 12.5t-33.5 -12.5t-9.5 -41.5v-268q0 -31 9.5 -43.5t34.5 -12.5q23 0 31.5 12t8.5 44v85h115v-48q0 -68 -18 -103t-52.5 -46t-84.5 -11z
M150 546l-94 105h76l52 -49l51 49h75l-95 -105h-65z" />
    <glyph glyph-name="Dcaron" unicode="&#x10e;" horiz-adv-x="408" 
d="M42 0v591h207q42 0 69.5 -12t41 -36.5t13.5 -61.5v-354q0 -49 -17 -77t-48.5 -39t-74.5 -11h-191zM163 60h51q20 0 31.5 12t11.5 45v351q0 33 -11.5 45t-31.5 12h-51v-465zM171 631l-94 97h80l47 -40l48 40h78l-95 -97h-64z" />
    <glyph glyph-name="dcaron" unicode="&#x10f;" horiz-adv-x="451" 
d="M159 -7q-32 0 -56 6.5t-41 22.5t-25 46t-8 77v241q0 33 9 55t24 35.5t34.5 19.5t42.5 6q40 0 60 -12.5t29 -28.5v169h114v-630h-77l-12 47q-4 -10 -15 -22.5t-29.5 -22t-49.5 -9.5zM185 58q15 0 23.5 5.5t13 15t5.5 21.5t1 26v284q-1 5 -5.5 10t-13.5 9t-23 4
q-15 0 -23.5 -4.5t-13 -12.5t-5.5 -18.5t-1 -23.5v-257q0 -17 2.5 -30.5t11.5 -21t28 -7.5zM367 487l24 146h69l-52 -146h-41z" />
    <glyph glyph-name="Dcroat" unicode="&#x110;" horiz-adv-x="441" 
d="M60 0v591h222q42 0 69 -12t41 -36.5t14 -61.5v-354q0 -49 -17 -77t-48.5 -39t-74.5 -11h-206zM12 256v68h208v-68h-208zM180 60h59q26 0 38.5 12t12.5 45v351q0 33 -12.5 45t-38.5 12h-59v-465z" />
    <glyph glyph-name="dcroat" unicode="&#x111;" horiz-adv-x="376" 
d="M139 532v44h233v-44h-233zM159 -7q-32 0 -56 6.5t-41 22.5t-25 46t-8 77v241q0 33 9 55t24 35.5t34.5 19.5t42.5 6q40 0 60 -12.5t29 -28.5v169h114v-630h-77l-12 47q-4 -10 -15 -22.5t-29.5 -22t-49.5 -9.5zM185 58q15 0 23.5 5.5t13 15t5.5 21.5t1 26v284q-1 5 -5.5 10
t-13.5 9t-23 4q-15 0 -23.5 -4.5t-13 -12.5t-5.5 -18.5t-1 -23.5v-257q0 -17 2.5 -30.5t11.5 -21t28 -7.5z" />
    <glyph glyph-name="Emacron" unicode="&#x112;" horiz-adv-x="334" 
d="M42 0v591h272v-82h-151v-158h128v-91h-128v-180h151v-80h-272zM74 646v58h206v-58h-206z" />
    <glyph glyph-name="emacron" unicode="&#x113;" horiz-adv-x="366" 
d="M188 -8q-52 0 -87.5 11.5t-53.5 46t-18 104.5v223q0 73 39 100t118 27q78 0 117 -27t39 -100v-135h-199v-135q0 -30 9.5 -42t34.5 -12q23 0 31.5 11.5t8.5 42.5v79h115v-31q0 -70 -18 -105t-52.5 -46.5t-83.5 -11.5zM143 294h84v89q0 29 -8.5 41t-32.5 12t-33.5 -12
t-9.5 -41v-89zM80 560v58h206v-58h-206z" />
    <glyph glyph-name="Ebreve" unicode="&#x114;" horiz-adv-x="334" 
d="M42 0v591h272v-82h-151v-158h128v-91h-128v-180h151v-80h-272zM175 630q-46 0 -70 17t-32.5 40.5t-9.5 42.5h62q2 -23 17 -34t34 -11q21 0 35.5 10.5t16.5 34.5h62q0 -26 -12 -48.5t-36.5 -37t-66.5 -14.5z" />
    <glyph glyph-name="ebreve" unicode="&#x115;" horiz-adv-x="366" 
d="M188 -8q-52 0 -87.5 11.5t-53.5 46t-18 104.5v223q0 73 39 100t118 27q78 0 117 -27t39 -100v-135h-199v-135q0 -30 9.5 -42t34.5 -12q23 0 31.5 11.5t8.5 42.5v79h115v-31q0 -70 -18 -105t-52.5 -46.5t-83.5 -11.5zM143 294h84v89q0 29 -8.5 41t-32.5 12t-33.5 -12
t-9.5 -41v-89zM181 545q-46 0 -70 17t-32.5 40.5t-9.5 42.5h62q2 -23 17 -34t34 -11q21 0 35.5 10.5t16.5 34.5h62q0 -26 -12 -48.5t-36.5 -37t-66.5 -14.5z" />
    <glyph glyph-name="Edotaccent" unicode="&#x116;" horiz-adv-x="334" 
d="M42 0v591h272v-82h-151v-158h128v-91h-128v-180h151v-80h-272zM177 636q-22 0 -38 15.5t-16 36.5q0 22 16 37t38 15t38.5 -15t16.5 -37q0 -21 -16.5 -36.5t-38.5 -15.5z" />
    <glyph glyph-name="edotaccent" unicode="&#x117;" horiz-adv-x="366" 
d="M188 -8q-52 0 -87.5 11.5t-53.5 46t-18 104.5v223q0 73 39 100t118 27q78 0 117 -27t39 -100v-135h-199v-135q0 -30 9.5 -42t34.5 -12q23 0 31.5 11.5t8.5 42.5v79h115v-31q0 -70 -18 -105t-52.5 -46.5t-83.5 -11.5zM143 294h84v89q0 29 -8.5 41t-32.5 12t-33.5 -12
t-9.5 -41v-89zM183 550q-22 0 -38 15.5t-16 36.5q0 22 16 37t38 15t38.5 -15t16.5 -37q0 -21 -16.5 -36.5t-38.5 -15.5z" />
    <glyph glyph-name="Eogonek" unicode="&#x118;" horiz-adv-x="334" 
d="M42 0v591h272v-82h-151v-158h128v-91h-128v-180h151v-80h-272zM236 -144q-36 0 -59 19.5t-23 44.5q0 28 22.5 52t56.5 29l47 -1q-27 -9 -39.5 -28t-12.5 -36q0 -19 12.5 -29t24.5 -10q8 0 13.5 2t8.5 2l13 -30q-5 -3 -19.5 -9t-44.5 -6z" />
    <glyph glyph-name="eogonek" unicode="&#x119;" horiz-adv-x="366" 
d="M188 -8q-52 0 -87.5 11.5t-53.5 46t-18 104.5v223q0 73 39 100t118 27q78 0 117 -27t39 -100v-135h-199v-135q0 -30 9.5 -42t34.5 -12q23 0 31.5 11.5t8.5 42.5v79h115v-31q0 -70 -18 -105t-52.5 -46.5t-83.5 -11.5zM143 294h84v89q0 29 -8.5 41t-32.5 12t-33.5 -12
t-9.5 -41v-89zM200 -144q-36 0 -59 19.5t-23 44.5q0 28 22.5 52t56.5 29l47 -1q-27 -9 -39.5 -28t-12.5 -36q0 -19 12.5 -29t24.5 -10q8 0 13.5 2t8.5 2l13 -30q-5 -3 -19.5 -9t-44.5 -6z" />
    <glyph glyph-name="Ecaron" unicode="&#x11a;" horiz-adv-x="334" 
d="M42 0v591h272v-82h-151v-158h128v-91h-128v-180h151v-80h-272zM145 631l-94 97h80l47 -40l48 40h78l-95 -97h-64z" />
    <glyph glyph-name="ecaron" unicode="&#x11b;" horiz-adv-x="366" 
d="M188 -8q-52 0 -87.5 11.5t-53.5 46t-18 104.5v223q0 73 39 100t118 27q78 0 117 -27t39 -100v-135h-199v-135q0 -30 9.5 -42t34.5 -12q23 0 31.5 11.5t8.5 42.5v79h115v-31q0 -70 -18 -105t-52.5 -46.5t-83.5 -11.5zM143 294h84v89q0 29 -8.5 41t-32.5 12t-33.5 -12
t-9.5 -41v-89zM150 546l-94 105h76l52 -49l51 49h75l-95 -105h-65z" />
    <glyph glyph-name="Gcircumflex" unicode="&#x11c;" horiz-adv-x="398" 
d="M166 -11q-34 0 -63.5 11t-48.5 43.5t-19 97.5v324q0 52 20.5 81t57.5 40.5t86 11.5t86.5 -11.5t59 -40.5t21.5 -81v-83h-113v89q0 24 -6.5 36.5t-17.5 16.5t-27 4q-15 0 -26.5 -4t-18 -16.5t-6.5 -36.5v-358q0 -23 6.5 -35.5t18 -17t26.5 -4.5q23 0 37 14t14 43v118h-48
v66h161v-297h-87l-6 46l-4 -6t-3 -5q-10 -17 -33.5 -31.5t-66.5 -14.5zM71 631l96 100h64l97 -100h-79l-49 43l-49 -43h-80z" />
    <glyph glyph-name="gcircumflex" unicode="&#x11d;" horiz-adv-x="376" 
d="M186 -119q-14 0 -34 1t-39.5 3t-33 3.5t-16.5 2.5v61q13 -2 39 -4.5t44 -2.5q16 0 30.5 2.5t26 10t18.5 22t7 38.5v71q-5 -12 -14.5 -26.5t-27.5 -24.5t-51 -10q-24 0 -43.5 5.5t-33 21t-21.5 45t-8 77.5v202q0 63 26.5 94.5t80.5 31.5q32 0 51.5 -8t31.5 -22.5t19 -33.5
l-15 -2l17 56h102v-421q0 -36 -6.5 -70.5t-22.5 -62t-46.5 -44t-80.5 -16.5zM184 96q17 0 26.5 8.5t13 24t3.5 32.5v245q-2 5 -7 10t-13.5 9t-23.5 4q-20 0 -30 -11.5t-10 -42.5v-228q0 -17 4 -27.5t10.5 -15.5t13.5 -6.5t13 -1.5zM62 546l95 105h64l95 -105h-75l-51 49
l-51 -49h-77z" />
    <glyph glyph-name="Gbreve" unicode="&#x11e;" horiz-adv-x="398" 
d="M166 -11q-34 0 -63.5 11t-48.5 43.5t-19 97.5v324q0 52 20.5 81t57.5 40.5t86 11.5t86.5 -11.5t59 -40.5t21.5 -81v-83h-113v89q0 24 -6.5 36.5t-17.5 16.5t-27 4q-15 0 -26.5 -4t-18 -16.5t-6.5 -36.5v-358q0 -23 6.5 -35.5t18 -17t26.5 -4.5q23 0 37 14t14 43v118h-48
v66h161v-297h-87l-6 46l-4 -6t-3 -5q-10 -17 -33.5 -31.5t-66.5 -14.5zM198 630q-46 0 -70 17t-32.5 40.5t-9.5 42.5h62q2 -23 17 -34t34 -11q21 0 35.5 10.5t16.5 34.5h62q0 -26 -12 -48.5t-36.5 -37t-66.5 -14.5z" />
    <glyph glyph-name="gbreve" unicode="&#x11f;" horiz-adv-x="376" 
d="M186 -119q-14 0 -34 1t-39.5 3t-33 3.5t-16.5 2.5v61q13 -2 39 -4.5t44 -2.5q16 0 30.5 2.5t26 10t18.5 22t7 38.5v71q-5 -12 -14.5 -26.5t-27.5 -24.5t-51 -10q-24 0 -43.5 5.5t-33 21t-21.5 45t-8 77.5v202q0 63 26.5 94.5t80.5 31.5q32 0 51.5 -8t31.5 -22.5t19 -33.5
l-15 -2l17 56h102v-421q0 -36 -6.5 -70.5t-22.5 -62t-46.5 -44t-80.5 -16.5zM184 96q17 0 26.5 8.5t13 24t3.5 32.5v245q-2 5 -7 10t-13.5 9t-23.5 4q-20 0 -30 -11.5t-10 -42.5v-228q0 -17 4 -27.5t10.5 -15.5t13.5 -6.5t13 -1.5zM188 545q-46 0 -70 17t-32.5 40.5
t-9.5 42.5h62q2 -23 17 -34t34 -11q21 0 35.5 10.5t16.5 34.5h62q0 -26 -12 -48.5t-36.5 -37t-66.5 -14.5z" />
    <glyph glyph-name="Gdotaccent" unicode="&#x120;" horiz-adv-x="398" 
d="M166 -11q-34 0 -63.5 11t-48.5 43.5t-19 97.5v324q0 52 20.5 81t57.5 40.5t86 11.5t86.5 -11.5t59 -40.5t21.5 -81v-83h-113v89q0 24 -6.5 36.5t-17.5 16.5t-27 4q-15 0 -26.5 -4t-18 -16.5t-6.5 -36.5v-358q0 -23 6.5 -35.5t18 -17t26.5 -4.5q23 0 37 14t14 43v118h-48
v66h161v-297h-87l-6 46l-4 -6t-3 -5q-10 -17 -33.5 -31.5t-66.5 -14.5zM199 636q-22 0 -38 15.5t-16 36.5q0 22 16 37t38 15t38.5 -15t16.5 -37q0 -21 -16.5 -36.5t-38.5 -15.5z" />
    <glyph glyph-name="gdotaccent" unicode="&#x121;" horiz-adv-x="376" 
d="M186 -119q-14 0 -34 1t-39.5 3t-33 3.5t-16.5 2.5v61q13 -2 39 -4.5t44 -2.5q16 0 30.5 2.5t26 10t18.5 22t7 38.5v71q-5 -12 -14.5 -26.5t-27.5 -24.5t-51 -10q-24 0 -43.5 5.5t-33 21t-21.5 45t-8 77.5v202q0 63 26.5 94.5t80.5 31.5q32 0 51.5 -8t31.5 -22.5t19 -33.5
l-15 -2l17 56h102v-421q0 -36 -6.5 -70.5t-22.5 -62t-46.5 -44t-80.5 -16.5zM184 96q17 0 26.5 8.5t13 24t3.5 32.5v245q-2 5 -7 10t-13.5 9t-23.5 4q-20 0 -30 -11.5t-10 -42.5v-228q0 -17 4 -27.5t10.5 -15.5t13.5 -6.5t13 -1.5zM189 550q-22 0 -38 15.5t-16 36.5
q0 22 16 37t38 15t38.5 -15t16.5 -37q0 -21 -16.5 -36.5t-38.5 -15.5z" />
    <glyph glyph-name="uni0122" unicode="&#x122;" horiz-adv-x="398" 
d="M166 -11q-34 0 -63.5 11t-48.5 43.5t-19 97.5v324q0 52 20.5 81t57.5 40.5t86 11.5t86.5 -11.5t59 -40.5t21.5 -81v-83h-113v89q0 24 -6.5 36.5t-17.5 16.5t-27 4q-15 0 -26.5 -4t-18 -16.5t-6.5 -36.5v-358q0 -23 6.5 -35.5t18 -17t26.5 -4.5q23 0 37 14t14 43v118h-48
v66h161v-297h-87l-6 46l-4 -6t-3 -5q-10 -17 -33.5 -31.5t-66.5 -14.5zM146 -189q14 21 23 39t9 30q0 7 -7 12t-14 12.5t-7 20.5q0 14 14 26t35 12q23 0 37 -13t14 -31q0 -14 -9 -34t-22 -39.5t-27 -34.5h-46z" />
    <glyph glyph-name="uni0123" unicode="&#x123;" horiz-adv-x="376" 
d="M239 695q-14 -21 -23 -39t-9 -30q0 -7 7 -12.5t13.5 -12.5t6.5 -20q0 -15 -13.5 -26.5t-34.5 -11.5q-23 0 -37.5 12.5t-14.5 31.5q0 15 9 34.5t22.5 39t26.5 34.5h47zM186 -119q-14 0 -34 1t-39.5 3t-33 3.5t-16.5 2.5v61q13 -2 39 -4.5t44 -2.5q16 0 30.5 2.5t26 10
t18.5 22t7 38.5v71q-5 -12 -14.5 -26.5t-27.5 -24.5t-51 -10q-24 0 -43.5 5.5t-33 21t-21.5 45t-8 77.5v202q0 63 26.5 94.5t80.5 31.5q32 0 51.5 -8t31.5 -22.5t19 -33.5l-15 -2l17 56h102v-421q0 -36 -6.5 -70.5t-22.5 -62t-46.5 -44t-80.5 -16.5zM184 96q17 0 26.5 8.5
t13 24t3.5 32.5v245q-2 5 -7 10t-13.5 9t-23.5 4q-20 0 -30 -11.5t-10 -42.5v-228q0 -17 4 -27.5t10.5 -15.5t13.5 -6.5t13 -1.5z" />
    <glyph glyph-name="Hcircumflex" unicode="&#x124;" horiz-adv-x="413" 
d="M42 0v591h116v-242h97v242h116v-591h-116v263h-97v-263h-116zM78 631l96 100h64l97 -100h-79l-49 43l-49 -43h-80z" />
    <glyph glyph-name="hcircumflex" unicode="&#x125;" horiz-adv-x="381" 
d="M37 0v630h107v-188q12 30 36 46t58 16q48 0 72 -16t32.5 -45.5t8.5 -69.5v-373h-114v366q0 11 -1 21t-5.5 18.5t-13 13.5t-24.5 5q-14 0 -23 -4t-13 -9t-6 -9v-402h-114zM-40 670l96 100h64l97 -100h-79l-49 43l-49 -43h-80z" />
    <glyph glyph-name="Hbar" unicode="&#x126;" horiz-adv-x="413" 
d="M42 0v591h116v-242h97v242h116v-591h-116v263h-97v-263h-116zM12 448v54h390v-54h-390z" />
    <glyph glyph-name="hbar" unicode="&#x127;" horiz-adv-x="381" 
d="M37 0v630h107v-188q12 30 36 46t58 16q48 0 72 -16t32.5 -45.5t8.5 -69.5v-373h-114v366q0 11 -1 21t-5.5 18.5t-13 13.5t-24.5 5q-14 0 -23 -4t-13 -9t-6 -9v-402h-114zM-4 529v58h206v-58h-206z" />
    <glyph glyph-name="Itilde" unicode="&#x128;" horiz-adv-x="200" 
d="M42 0v591h116v-591h-116zM143 637q-15 0 -28 5.5t-27 13.5q-10 7 -21 12t-23 5q-13 0 -20.5 -9.5t-8.5 -25.5h-34q1 39 18.5 63.5t45.5 24.5q16 0 30 -5.5t26 -13.5q11 -6 21.5 -11t21.5 -5q14 0 21.5 9t9.5 23h37q0 -28 -10.5 -47.5t-26.5 -29t-32 -9.5z" />
    <glyph glyph-name="itilde" unicode="&#x129;" horiz-adv-x="189" 
d="M37 0v495h114v-495h-114zM140 551q-15 0 -28 5.5t-27 13.5q-10 7 -21 12t-23 5q-13 0 -20.5 -9.5t-8.5 -25.5h-34q1 39 18.5 63.5t45.5 24.5q16 0 30 -5.5t26 -13.5q11 -6 21.5 -11t21.5 -5q14 0 21.5 9t9.5 23h37q0 -28 -10.5 -47.5t-26.5 -29t-32 -9.5z" />
    <glyph glyph-name="Imacron" unicode="&#x12a;" horiz-adv-x="200" 
d="M42 0v591h116v-591h-116zM-3 646v58h206v-58h-206z" />
    <glyph glyph-name="imacron" unicode="&#x12b;" horiz-adv-x="189" 
d="M37 0v495h114v-495h-114zM-9 560v58h206v-58h-206z" />
    <glyph glyph-name="Ibreve" unicode="&#x12c;" horiz-adv-x="200" 
d="M42 0v591h116v-591h-116zM98 630q-46 0 -70 17t-32.5 40.5t-9.5 42.5h62q2 -23 17 -34t34 -11q21 0 35.5 10.5t16.5 34.5h62q0 -26 -12 -48.5t-36.5 -37t-66.5 -14.5z" />
    <glyph glyph-name="ibreve" unicode="&#x12d;" horiz-adv-x="189" 
d="M37 0v495h114v-495h-114zM92 545q-46 0 -70 17t-32.5 40.5t-9.5 42.5h62q2 -23 17 -34t34 -11q21 0 35.5 10.5t16.5 34.5h62q0 -26 -12 -48.5t-36.5 -37t-66.5 -14.5z" />
    <glyph glyph-name="Iogonek" unicode="&#x12e;" horiz-adv-x="200" 
d="M42 0v591h116v-591h-116zM114 -144q-36 0 -59 19.5t-23 44.5q0 28 22.5 52t56.5 29l47 -1q-27 -9 -39.5 -28t-12.5 -36q0 -19 12.5 -29t24.5 -10q8 0 13.5 2t8.5 2l13 -30q-5 -3 -19.5 -9t-44.5 -6z" />
    <glyph glyph-name="iogonek" unicode="&#x12f;" horiz-adv-x="189" 
d="M37 0v495h114v-495h-114zM94 550q-22 0 -38 15.5t-16 36.5q0 22 16 37t38 15t38.5 -15t16.5 -37q0 -21 -16.5 -36.5t-38.5 -15.5zM108 -144q-36 0 -59 19.5t-23 44.5q0 28 22.5 52t56.5 29l47 -1q-27 -9 -39.5 -28t-12.5 -36q0 -19 12.5 -29t24.5 -10q8 0 13.5 2t8.5 2
l13 -30q-5 -3 -19.5 -9t-44.5 -6z" />
    <glyph glyph-name="Idotaccent" unicode="&#x130;" horiz-adv-x="200" 
d="M42 0v591h116v-591h-116zM100 636q-22 0 -38 15.5t-16 36.5q0 22 16 37t38 15t38.5 -15t16.5 -37q0 -21 -16.5 -36.5t-38.5 -15.5z" />
    <glyph glyph-name="dotlessi" unicode="&#x131;" horiz-adv-x="189" 
d="M37 0v495h114v-495h-114z" />
    <glyph glyph-name="Jcircumflex" unicode="&#x134;" horiz-adv-x="244" 
d="M54 -1h-23.5t-24.5 1v80h31q30 -1 40.5 10t10.5 42v459h116v-445q0 -57 -14.5 -89.5t-47 -45t-88.5 -12.5zM18 631l96 100h64l97 -100h-79l-49 43l-49 -43h-80z" />
    <glyph glyph-name="jcircumflex" unicode="&#x135;" horiz-adv-x="186" 
d="M-23 -112q-6 1 -19.5 1.5t-17.5 1.5v61q8 -1 20 -0.5t19 0.5q28 2 43 16t15 39v488h114v-455q0 -67 -24.5 -100.5t-64 -44t-85.5 -7.5zM-34 546l95 105h64l95 -105h-75l-51 49l-51 -49h-77z" />
    <glyph glyph-name="uni0136" unicode="&#x136;" horiz-adv-x="410" 
d="M276 0l-113 307l111 284h124l-121 -284l125 -307h-126zM42 0v591h116v-591h-116zM158 -189q14 21 23 39t9 30q0 7 -7 12t-14 12.5t-7 20.5q0 14 14 26t35 12q23 0 37 -13t14 -31q0 -14 -9 -34t-22 -39.5t-27 -34.5h-46z" />
    <glyph glyph-name="uni0137" unicode="&#x137;" horiz-adv-x="380" 
d="M248 0l-90 287l101 208h113l-105 -210l104 -285h-123zM37 0v632h114v-632h-114zM140 -189q14 21 23 39t9 30q0 7 -7 12t-14 12.5t-7 20.5q0 14 14 26t35 12q23 0 37 -13t14 -31q0 -14 -9 -34t-22 -39.5t-27 -34.5h-46z" />
    <glyph glyph-name="kgreenlandic" unicode="&#x138;" horiz-adv-x="380" 
d="M248 0l-90 287l101 208h113l-105 -210l104 -285h-123zM37 0v549h114v-549h-114z" />
    <glyph glyph-name="Lacute" unicode="&#x139;" horiz-adv-x="299" 
d="M42 0v591h115v-511h134v-80h-249zM72 634l78 94h105l-119 -94h-64z" />
    <glyph glyph-name="lacute" unicode="&#x13a;" horiz-adv-x="189" 
d="M37 0v632h114v-632h-114zM35 673l78 94h105l-119 -94h-64z" />
    <glyph glyph-name="uni013B" unicode="&#x13b;" horiz-adv-x="299" 
d="M42 0v591h115v-511h134v-80h-249zM110 -189q14 21 23 39t9 30q0 7 -7 12t-14 12.5t-7 20.5q0 14 14 26t35 12q23 0 37 -13t14 -31q0 -14 -9 -34t-22 -39.5t-27 -34.5h-46z" />
    <glyph glyph-name="uni013C" unicode="&#x13c;" horiz-adv-x="189" 
d="M37 0v632h114v-632h-114zM40 -189q14 21 23 39t9 30q0 7 -7 12t-14 12.5t-7 20.5q0 14 14 26t35 12q23 0 37 -13t14 -31q0 -14 -9 -34t-22 -39.5t-27 -34.5h-46z" />
    <glyph glyph-name="Lcaron" unicode="&#x13d;" horiz-adv-x="318" 
d="M42 0v591h115v-511h134v-80h-249zM219 462l24 146h69l-52 -146h-41z" />
    <glyph glyph-name="lcaron" unicode="&#x13e;" horiz-adv-x="264" 
d="M37 0v632h114v-632h-114zM180 507l24 146h69l-52 -146h-41z" />
    <glyph glyph-name="Ldot" unicode="&#x13f;" horiz-adv-x="299" 
d="M42 0v591h115v-511h134v-80h-249zM312 228q-24 0 -41.5 16.5t-17.5 40.5t17.5 40.5t41.5 16.5q25 0 43 -16.5t18 -40.5t-18 -40.5t-43 -16.5z" />
    <glyph glyph-name="ldot" unicode="&#x140;" horiz-adv-x="189" 
d="M37 0v632h114v-632h-114zM258 227q-24 0 -41.5 16.5t-17.5 40.5t17.5 40.5t41.5 16.5q25 0 43 -16.5t18 -40.5t-18 -40.5t-43 -16.5z" />
    <glyph glyph-name="Lslash" unicode="&#x141;" horiz-adv-x="329" 
d="M72 0v162l-55 -25v51l55 25v374h115v-323l77 35v-50l-77 -35v-134h134v-80h-249z" />
    <glyph glyph-name="lslash" unicode="&#x142;" horiz-adv-x="291" 
d="M88 0v165l-62 -27v50l62 28v416h113v-366l64 29v-50l-64 -28v-217h-113z" />
    <glyph glyph-name="Nacute" unicode="&#x143;" horiz-adv-x="409" 
d="M42 0v591h101l123 -358v358h102v-591h-101l-123 334v-334h-102zM149 634l78 94h105l-119 -94h-64z" />
    <glyph glyph-name="nacute" unicode="&#x144;" horiz-adv-x="381" 
d="M37 0v495h97l10 -58q9 30 35.5 49t58.5 19q48 0 72 -16.5t32.5 -46t8.5 -69.5v-373h-114v366q0 12 -1 22.5t-5.5 18.5t-12.5 12.5t-24 4.5q-12 0 -21 -4.5t-14 -10.5t-8 -11v-398h-114zM148 548l57 100h103l-95 -100h-65z" />
    <glyph glyph-name="uni0145" unicode="&#x145;" horiz-adv-x="409" 
d="M42 0v591h101l123 -358v358h102v-591h-101l-123 334v-334h-102zM150 -189q14 21 23 39t9 30q0 7 -7 12t-14 12.5t-7 20.5q0 14 14 26t35 12q23 0 37 -13t14 -31q0 -14 -9 -34t-22 -39.5t-27 -34.5h-46z" />
    <glyph glyph-name="uni0146" unicode="&#x146;" horiz-adv-x="381" 
d="M37 0v495h97l10 -58q9 30 35.5 49t58.5 19q48 0 72 -16.5t32.5 -46t8.5 -69.5v-373h-114v366q0 12 -1 22.5t-5.5 18.5t-12.5 12.5t-24 4.5q-12 0 -21 -4.5t-14 -10.5t-8 -11v-398h-114zM138 -189q14 21 23 39t9 30q0 7 -7 12t-14 12.5t-7 20.5q0 14 14 26t35 12
q23 0 37 -13t14 -31q0 -14 -9 -34t-22 -39.5t-27 -34.5h-46z" />
    <glyph glyph-name="Ncaron" unicode="&#x147;" horiz-adv-x="409" 
d="M42 0v591h101l123 -358v358h102v-591h-101l-123 334v-334h-102zM176 631l-94 97h80l47 -40l48 40h78l-95 -97h-64z" />
    <glyph glyph-name="ncaron" unicode="&#x148;" horiz-adv-x="381" 
d="M37 0v495h97l10 -58q9 30 35.5 49t58.5 19q48 0 72 -16.5t32.5 -46t8.5 -69.5v-373h-114v366q0 12 -1 22.5t-5.5 18.5t-12.5 12.5t-24 4.5q-12 0 -21 -4.5t-14 -10.5t-8 -11v-398h-114zM158 546l-94 105h76l52 -49l51 49h75l-95 -105h-65z" />
    <glyph glyph-name="Eng" unicode="&#x14a;" horiz-adv-x="410" 
d="M231 -186h-23.5t-23.5 1v80h30q30 0 41 10t11 43v54l-121 332l-1 -334h-102l1 591h101l122 -358l1 358h102l-1 -630q0 -58 -12.5 -89.5t-43 -44.5t-81.5 -13z" />
    <glyph glyph-name="eng" unicode="&#x14b;" horiz-adv-x="379" 
d="M189 -114q-12 0 -24 1.5t-23 3.5v58h8t15 -0.5t9 -0.5q29 0 43.5 12t14.5 37v367q0 16 -2.5 29t-11 21t-28.5 8q-13 0 -22 -4t-14 -10t-7 -12v-396h-114v495h96l10 -60q10 32 36.5 49.5t57.5 17.5q48 0 72.5 -16t32.5 -45.5t8 -69.5v-333q0 -61 -22 -94.5t-57.5 -46
t-77.5 -11.5z" />
    <glyph glyph-name="Omacron" unicode="&#x14c;" horiz-adv-x="401" 
d="M199 -12q-49 0 -86 11.5t-57.5 48t-20.5 108.5v310q0 53 20.5 82t58 40.5t86.5 11.5q48 0 85.5 -12t59 -41t21.5 -81v-309q0 -73 -21.5 -109.5t-59 -48t-86.5 -11.5zM199 56q15 0 26.5 5t18 17.5t6.5 34.5v358q0 22 -6.5 34.5t-18 17.5t-26.5 5t-26 -5t-17.5 -17.5
t-6.5 -34.5v-358q0 -22 6.5 -34.5t17.5 -17.5t26 -5zM98 646v58h206v-58h-206z" />
    <glyph glyph-name="omacron" unicode="&#x14d;" horiz-adv-x="371" 
d="M186 -8q-50 0 -85.5 12t-53.5 47.5t-18 104.5v210q0 77 39 107.5t118 30.5t117.5 -30.5t38.5 -107.5v-210q0 -69 -17.5 -104t-52.5 -47.5t-86 -12.5zM186 60q22 0 32 12.5t10 45.5v260q0 31 -9.5 44.5t-32.5 13.5q-22 0 -32.5 -13t-10.5 -45v-260q0 -33 10.5 -45.5
t32.5 -12.5zM83 560v58h206v-58h-206z" />
    <glyph glyph-name="Obreve" unicode="&#x14e;" horiz-adv-x="401" 
d="M199 -12q-49 0 -86 11.5t-57.5 48t-20.5 108.5v310q0 53 20.5 82t58 40.5t86.5 11.5q48 0 85.5 -12t59 -41t21.5 -81v-309q0 -73 -21.5 -109.5t-59 -48t-86.5 -11.5zM199 56q15 0 26.5 5t18 17.5t6.5 34.5v358q0 22 -6.5 34.5t-18 17.5t-26.5 5t-26 -5t-17.5 -17.5
t-6.5 -34.5v-358q0 -22 6.5 -34.5t17.5 -17.5t26 -5zM199 630q-46 0 -70 17t-32.5 40.5t-9.5 42.5h62q2 -23 17 -34t34 -11q21 0 35.5 10.5t16.5 34.5h62q0 -26 -12 -48.5t-36.5 -37t-66.5 -14.5z" />
    <glyph glyph-name="obreve" unicode="&#x14f;" horiz-adv-x="371" 
d="M186 -8q-50 0 -85.5 12t-53.5 47.5t-18 104.5v210q0 77 39 107.5t118 30.5t117.5 -30.5t38.5 -107.5v-210q0 -69 -17.5 -104t-52.5 -47.5t-86 -12.5zM186 60q22 0 32 12.5t10 45.5v260q0 31 -9.5 44.5t-32.5 13.5q-22 0 -32.5 -13t-10.5 -45v-260q0 -33 10.5 -45.5
t32.5 -12.5zM184 545q-46 0 -70 17t-32.5 40.5t-9.5 42.5h62q2 -23 17 -34t34 -11q21 0 35.5 10.5t16.5 34.5h62q0 -26 -12 -48.5t-36.5 -37t-66.5 -14.5z" />
    <glyph glyph-name="Ohungarumlaut" unicode="&#x150;" horiz-adv-x="401" 
d="M199 -12q-49 0 -86 11.5t-57.5 48t-20.5 108.5v310q0 53 20.5 82t58 40.5t86.5 11.5q48 0 85.5 -12t59 -41t21.5 -81v-309q0 -73 -21.5 -109.5t-59 -48t-86.5 -11.5zM199 56q15 0 26.5 5t18 17.5t6.5 34.5v358q0 22 -6.5 34.5t-18 17.5t-26.5 5t-26 -5t-17.5 -17.5
t-6.5 -34.5v-358q0 -22 6.5 -34.5t17.5 -17.5t26 -5zM120 630l17 100h89l-61 -100h-45zM214 630l31 100h88l-67 -100h-52z" />
    <glyph glyph-name="ohungarumlaut" unicode="&#x151;" horiz-adv-x="371" 
d="M186 -8q-50 0 -85.5 12t-53.5 47.5t-18 104.5v210q0 77 39 107.5t118 30.5t117.5 -30.5t38.5 -107.5v-210q0 -69 -17.5 -104t-52.5 -47.5t-86 -12.5zM186 60q22 0 32 12.5t10 45.5v260q0 31 -9.5 44.5t-32.5 13.5q-22 0 -32.5 -13t-10.5 -45v-260q0 -33 10.5 -45.5
t32.5 -12.5zM114 548l17 100h89l-61 -100h-45zM208 548l31 100h88l-67 -100h-52z" />
    <glyph glyph-name="OE" unicode="&#x152;" horiz-adv-x="557" 
d="M199 -12q-48 0 -85.5 11.5t-58 48t-20.5 108.5v310q0 53 21 82t58 40.5t86 11.5q45 0 79 -12t54 -41t20 -81v-309q0 -73 -20 -109.5t-54.5 -48t-79.5 -11.5zM200 56q14 0 25.5 5t18 17.5t6.5 34.5v358q0 22 -6.5 34.5t-18 17.5t-25.5 5q-15 0 -26.5 -5t-18 -17.5
t-6.5 -34.5v-358q0 -22 6.5 -34.5t18 -17.5t26.5 -5zM251 0v591h286v-82h-171v-158h148v-91h-148v-180h171v-80h-286z" />
    <glyph glyph-name="oe" unicode="&#x153;" horiz-adv-x="565" 
d="M180 -8q-51 0 -84.5 14t-50 50t-16.5 100v210q0 47 16 77.5t49.5 45t86.5 14.5q45 0 76 -17.5t47 -48.5t16 -71v-210q0 -51 -13.5 -88t-44 -56.5t-82.5 -19.5zM186 59q18 0 27 7.5t12 21t3 30.5v260q0 17 -3 30t-12 20.5t-27 7.5t-27.5 -7.5t-12.5 -20.5t-3 -30v-260
q0 -17 3 -30.5t12.5 -21t27.5 -7.5zM391 -8q-75 0 -108.5 38t-33.5 124v207q0 75 38.5 109t103.5 34q74 0 111.5 -27.5t37.5 -99.5v-135h-198v-130q0 -31 9.5 -43t32.5 -12q24 0 33 12t9 43v74h114v-31q0 -62 -16 -98t-49 -50.5t-84 -14.5zM342 294h84v89q0 29 -8.5 41.5
t-32.5 12.5t-33.5 -12.5t-9.5 -41.5v-89z" />
    <glyph glyph-name="Racute" unicode="&#x154;" horiz-adv-x="420" 
d="M42 0v591h216q59 0 89 -26.5t30 -73.5v-92q0 -47 -25 -79t-78 -37v0q34 -5 48.5 -22.5t25.5 -56.5l56 -204h-129l-43 196q-6 24 -13.5 40.5t-21.5 16.5h-34v-253h-121zM163 334h48q28 0 40 15.5t12 49.5v71q0 32 -11 45t-34 13h-55v-194zM150 634l78 94h105l-119 -94h-64
z" />
    <glyph glyph-name="racute" unicode="&#x155;" horiz-adv-x="281" 
d="M37 0v495h97l10 -59q9 22 27 35.5t38 18.5q33 14 69 7v-88q-2 1 -15.5 2.5t-30.5 0t-29 -8.5q-25 -9 -38.5 -31t-13.5 -53v-319h-114zM120 548l57 100h103l-95 -100h-65z" />
    <glyph glyph-name="uni0156" unicode="&#x156;" horiz-adv-x="420" 
d="M42 0v591h216q59 0 89 -26.5t30 -73.5v-92q0 -47 -25 -79t-78 -37v0q34 -5 48.5 -22.5t25.5 -56.5l56 -204h-129l-43 196q-6 24 -13.5 40.5t-21.5 16.5h-34v-253h-121zM163 334h48q28 0 40 15.5t12 49.5v71q0 32 -11 45t-34 13h-55v-194zM159 -189q14 21 23 39t9 30
q0 7 -7 12t-14 12.5t-7 20.5q0 14 14 26t35 12q23 0 37 -13t14 -31q0 -14 -9 -34t-22 -39.5t-27 -34.5h-46z" />
    <glyph glyph-name="uni0157" unicode="&#x157;" horiz-adv-x="281" 
d="M37 0v495h97l10 -59q9 22 27 35.5t38 18.5q33 14 69 7v-88q-2 1 -15.5 2.5t-30.5 0t-29 -8.5q-25 -9 -38.5 -31t-13.5 -53v-319h-114zM40 -189q14 21 23 39t9 30q0 7 -7 12t-14 12.5t-7 20.5q0 14 14 26t35 12q23 0 37 -13t14 -31q0 -14 -9 -34t-22 -39.5t-27 -34.5h-46z
" />
    <glyph glyph-name="Rcaron" unicode="&#x158;" horiz-adv-x="420" 
d="M42 0v591h216q59 0 89 -26.5t30 -73.5v-92q0 -47 -25 -79t-78 -37v0q34 -5 48.5 -22.5t25.5 -56.5l56 -204h-129l-43 196q-6 24 -13.5 40.5t-21.5 16.5h-34v-253h-121zM163 334h48q28 0 40 15.5t12 49.5v71q0 32 -11 45t-34 13h-55v-194zM177 631l-94 97h80l47 -40l48 40
h78l-95 -97h-64z" />
    <glyph glyph-name="rcaron" unicode="&#x159;" horiz-adv-x="281" 
d="M37 0v495h97l10 -59q9 22 27 35.5t38 18.5q33 14 69 7v-88q-2 1 -15.5 2.5t-30.5 0t-29 -8.5q-25 -9 -38.5 -31t-13.5 -53v-319h-114zM130 546l-94 105h76l52 -49l51 49h75l-95 -105h-65z" />
    <glyph glyph-name="Sacute" unicode="&#x15a;" horiz-adv-x="391" 
d="M192 -7q-53 0 -90.5 15t-57.5 53t-20 107v35h61h60v-45q0 -37 6 -56.5t17 -27t26 -7.5q23 0 36.5 16.5t13.5 64.5q0 37 -11.5 55.5t-36.5 30t-64 28.5q-35 15 -58 36t-34 53t-11 78q0 58 15.5 94t52 52.5t98.5 16.5q80 0 122.5 -34.5t42.5 -103.5v-71h-57.5h-58.5v36
q0 45 -10.5 63t-37.5 18q-26 0 -37 -16t-11 -52q0 -33 13.5 -51.5t34.5 -28t45 -18.5q44 -17 72 -34.5t41 -48t13 -87.5q0 -64 -21.5 -101.5t-61 -53.5t-92.5 -16zM136 634l78 94h105l-119 -94h-64z" />
    <glyph glyph-name="sacute" unicode="&#x15b;" horiz-adv-x="369" 
d="M182 -7q-62 0 -96.5 15.5t-48 48.5t-13.5 83v38h114v-64q0 -32 9 -45.5t34 -13.5q22 0 31.5 12.5t9.5 37.5v38q0 24 -9 38t-28 23.5t-48 21.5q-27 11 -50 25t-37.5 37t-14.5 59v29q0 62 34 94.5t123 32.5q59 0 92 -15t46.5 -46.5t13.5 -79.5v-37h-110v56q0 33 -9.5 46.5
t-31.5 13.5q-25 0 -33.5 -13t-8.5 -32v-37q0 -25 13.5 -39.5t35.5 -23t47 -18.5q26 -9 48 -22.5t35.5 -35.5t13.5 -59v-30q0 -45 -14.5 -76t-50 -46.5t-97.5 -15.5zM141 548l57 100h103l-95 -100h-65z" />
    <glyph glyph-name="Scircumflex" unicode="&#x15c;" horiz-adv-x="391" 
d="M192 -7q-53 0 -90.5 15t-57.5 53t-20 107v35h61h60v-45q0 -37 6 -56.5t17 -27t26 -7.5q23 0 36.5 16.5t13.5 64.5q0 37 -11.5 55.5t-36.5 30t-64 28.5q-35 15 -58 36t-34 53t-11 78q0 58 15.5 94t52 52.5t98.5 16.5q80 0 122.5 -34.5t42.5 -103.5v-71h-57.5h-58.5v36
q0 45 -10.5 63t-37.5 18q-26 0 -37 -16t-11 -52q0 -33 13.5 -51.5t34.5 -28t45 -18.5q44 -17 72 -34.5t41 -48t13 -87.5q0 -64 -21.5 -101.5t-61 -53.5t-92.5 -16zM68 631l96 100h64l97 -100h-79l-49 43l-49 -43h-80z" />
    <glyph glyph-name="scircumflex" unicode="&#x15d;" horiz-adv-x="369" 
d="M182 -7q-62 0 -96.5 15.5t-48 48.5t-13.5 83v38h114v-64q0 -32 9 -45.5t34 -13.5q22 0 31.5 12.5t9.5 37.5v38q0 24 -9 38t-28 23.5t-48 21.5q-27 11 -50 25t-37.5 37t-14.5 59v29q0 62 34 94.5t123 32.5q59 0 92 -15t46.5 -46.5t13.5 -79.5v-37h-110v56q0 33 -9.5 46.5
t-31.5 13.5q-25 0 -33.5 -13t-8.5 -32v-37q0 -25 13.5 -39.5t35.5 -23t47 -18.5q26 -9 48 -22.5t35.5 -35.5t13.5 -59v-30q0 -45 -14.5 -76t-50 -46.5t-97.5 -15.5zM57 546l95 105h64l95 -105h-75l-51 49l-51 -49h-77z" />
    <glyph glyph-name="Scedilla" unicode="&#x15e;" horiz-adv-x="391" 
d="M192 -7q-53 0 -90.5 15t-57.5 53t-20 107v35h61h60v-45q0 -37 6 -56.5t17 -27t26 -7.5q23 0 36.5 16.5t13.5 64.5q0 37 -11.5 55.5t-36.5 30t-64 28.5q-35 15 -58 36t-34 53t-11 78q0 58 15.5 94t52 52.5t98.5 16.5q80 0 122.5 -34.5t42.5 -103.5v-71h-57.5h-58.5v36
q0 45 -10.5 63t-37.5 18q-26 0 -37 -16t-11 -52q0 -33 13.5 -51.5t34.5 -28t45 -18.5q44 -17 72 -34.5t41 -48t13 -87.5q0 -64 -21.5 -101.5t-61 -53.5t-92.5 -16zM191 -161q-19 0 -35.5 7t-23.5 11l14 36q7 -5 19 -9t21 -4q16 0 24 7.5t8 19.5q0 10 -6.5 15.5t-16.5 5.5
q-6 0 -11 -2t-9 -5l-32 17l32 62h43l-26 -52l-7 3q7 4 16.5 6.5t21.5 2.5q27 0 42.5 -17t15.5 -37q0 -28 -23.5 -47.5t-66.5 -19.5z" />
    <glyph glyph-name="scedilla" unicode="&#x15f;" horiz-adv-x="369" 
d="M182 -7q-62 0 -96.5 15.5t-48 48.5t-13.5 83v38h114v-64q0 -32 9 -45.5t34 -13.5q22 0 31.5 12.5t9.5 37.5v38q0 24 -9 38t-28 23.5t-48 21.5q-27 11 -50 25t-37.5 37t-14.5 59v29q0 62 34 94.5t123 32.5q59 0 92 -15t46.5 -46.5t13.5 -79.5v-37h-110v56q0 33 -9.5 46.5
t-31.5 13.5q-25 0 -33.5 -13t-8.5 -32v-37q0 -25 13.5 -39.5t35.5 -23t47 -18.5q26 -9 48 -22.5t35.5 -35.5t13.5 -59v-30q0 -45 -14.5 -76t-50 -46.5t-97.5 -15.5zM180 -161q-19 0 -35.5 7t-23.5 11l14 36q7 -5 19 -9t21 -4q16 0 24 7.5t8 19.5q0 10 -6.5 15.5t-16.5 5.5
q-6 0 -11 -2t-9 -5l-32 17l32 62h43l-26 -52l-7 3q7 4 16.5 6.5t21.5 2.5q27 0 42.5 -17t15.5 -37q0 -28 -23.5 -47.5t-66.5 -19.5z" />
    <glyph glyph-name="Scaron" unicode="&#x160;" horiz-adv-x="391" 
d="M192 -7q-53 0 -90.5 15t-57.5 53t-20 107v35h61h60v-45q0 -37 6 -56.5t17 -27t26 -7.5q23 0 36.5 16.5t13.5 64.5q0 37 -11.5 55.5t-36.5 30t-64 28.5q-35 15 -58 36t-34 53t-11 78q0 58 15.5 94t52 52.5t98.5 16.5q80 0 122.5 -34.5t42.5 -103.5v-71h-57.5h-58.5v36
q0 45 -10.5 63t-37.5 18q-26 0 -37 -16t-11 -52q0 -33 13.5 -51.5t34.5 -28t45 -18.5q44 -17 72 -34.5t41 -48t13 -87.5q0 -64 -21.5 -101.5t-61 -53.5t-92.5 -16zM163 631l-94 97h80l47 -40l48 40h78l-95 -97h-64z" />
    <glyph glyph-name="scaron" unicode="&#x161;" horiz-adv-x="369" 
d="M182 -7q-62 0 -96.5 15.5t-48 48.5t-13.5 83v38h114v-64q0 -32 9 -45.5t34 -13.5q22 0 31.5 12.5t9.5 37.5v38q0 24 -9 38t-28 23.5t-48 21.5q-27 11 -50 25t-37.5 37t-14.5 59v29q0 62 34 94.5t123 32.5q59 0 92 -15t46.5 -46.5t13.5 -79.5v-37h-110v56q0 33 -9.5 46.5
t-31.5 13.5q-25 0 -33.5 -13t-8.5 -32v-37q0 -25 13.5 -39.5t35.5 -23t47 -18.5q26 -9 48 -22.5t35.5 -35.5t13.5 -59v-30q0 -45 -14.5 -76t-50 -46.5t-97.5 -15.5zM151 546l-94 105h76l52 -49l51 49h75l-95 -105h-65z" />
    <glyph glyph-name="uni0162" unicode="&#x162;" horiz-adv-x="318" 
d="M101 0v509h-92v82h300v-82h-92v-509h-116zM155 -161q-19 0 -35.5 7t-23.5 11l14 36q7 -5 19 -9t21 -4q16 0 24 7.5t8 19.5q0 10 -6.5 15.5t-16.5 5.5q-6 0 -11 -2t-9 -5l-32 17l32 62h43l-26 -52l-7 3q7 4 16.5 6.5t21.5 2.5q27 0 42.5 -17t15.5 -37q0 -28 -23.5 -47.5
t-66.5 -19.5z" />
    <glyph glyph-name="uni0163" unicode="&#x163;" horiz-adv-x="277" 
d="M184 -3q-23 0 -46 4t-41 15.5t-29 33t-11 57.5v321h-47v57l57 10l16 91h88v-91h94v-67h-94v-301q0 -21 8 -37.5t36 -16.5q13 0 30 1.5t20 1.5v-69q-3 0 -27.5 -5t-53.5 -5zM146 -161q-19 0 -35.5 7t-23.5 11l14 36q7 -5 19 -9t21 -4q16 0 24 7.5t8 19.5q0 10 -6.5 15.5
t-16.5 5.5q-6 0 -11 -2t-9 -5l-32 17l32 62h43l-26 -52l-7 3q7 4 16.5 6.5t21.5 2.5q27 0 42.5 -17t15.5 -37q0 -28 -23.5 -47.5t-66.5 -19.5z" />
    <glyph glyph-name="Tcaron" unicode="&#x164;" horiz-adv-x="318" 
d="M101 0v509h-92v82h300v-82h-92v-509h-116zM127 631l-94 97h80l47 -40l48 40h78l-95 -97h-64z" />
    <glyph glyph-name="tcaron" unicode="&#x165;" horiz-adv-x="277" 
d="M184 -3q-23 0 -46 4t-41 15.5t-29 33t-11 57.5v321h-47v57l57 10l16 91h88v-91h94v-67h-94v-301q0 -21 8 -37.5t36 -16.5q13 0 30 1.5t20 1.5v-69q-3 0 -27.5 -5t-53.5 -5zM204 549l24 146h69l-52 -146h-41z" />
    <glyph glyph-name="Tbar" unicode="&#x166;" horiz-adv-x="318" 
d="M101 0v509h-92v82h300v-82h-92v-509h-116zM57 371v58h206v-58h-206z" />
    <glyph glyph-name="tbar" unicode="&#x167;" horiz-adv-x="277" 
d="M184 -3q-23 0 -46 4t-41 15.5t-29 33t-11 57.5v321h-47v57l57 10l16 91h88v-91h94v-67h-94v-301q0 -21 8 -37.5t36 -16.5q13 0 30 1.5t20 1.5v-69q-3 0 -27.5 -5t-53.5 -5zM22 307v58h206v-58h-206z" />
    <glyph glyph-name="Utilde" unicode="&#x168;" horiz-adv-x="407" 
d="M204 -12q-36 0 -66 5t-52 21t-34 47.5t-12 85.5v444h116v-477q0 -21 6.5 -33.5t17.5 -16.5t24 -4q12 0 23 4t17.5 16.5t6.5 33.5v477h116v-444q0 -53 -12 -85t-33.5 -48t-52 -21t-65.5 -5zM246 637q-15 0 -28 5.5t-27 13.5q-10 7 -21 12t-23 5q-13 0 -20.5 -9.5
t-8.5 -25.5h-34q1 39 18.5 63.5t45.5 24.5q16 0 30 -5.5t26 -13.5q11 -6 21.5 -11t21.5 -5q14 0 21.5 9t9.5 23h37q0 -28 -10.5 -47.5t-26.5 -29t-32 -9.5z" />
    <glyph glyph-name="utilde" unicode="&#x169;" horiz-adv-x="385" 
d="M147 -7q-48 0 -72 16.5t-32.5 45.5t-8.5 69v371h114v-364q0 -15 2.5 -28t11.5 -21t29 -8q13 0 21.5 4t13.5 10t7 11v396h114v-495h-97l-9 60q-8 -28 -33 -47.5t-61 -19.5zM239 551q-15 0 -28 5.5t-27 13.5q-10 7 -21 12t-23 5q-13 0 -20.5 -9.5t-8.5 -25.5h-34
q1 39 18.5 63.5t45.5 24.5q16 0 30 -5.5t26 -13.5q11 -6 21.5 -11t21.5 -5q14 0 21.5 9t9.5 23h37q0 -28 -10.5 -47.5t-26.5 -29t-32 -9.5z" />
    <glyph glyph-name="Umacron" unicode="&#x16a;" horiz-adv-x="407" 
d="M204 -12q-36 0 -66 5t-52 21t-34 47.5t-12 85.5v444h116v-477q0 -21 6.5 -33.5t17.5 -16.5t24 -4q12 0 23 4t17.5 16.5t6.5 33.5v477h116v-444q0 -53 -12 -85t-33.5 -48t-52 -21t-65.5 -5zM100 646v58h206v-58h-206z" />
    <glyph glyph-name="umacron" unicode="&#x16b;" horiz-adv-x="385" 
d="M147 -7q-48 0 -72 16.5t-32.5 45.5t-8.5 69v371h114v-364q0 -15 2.5 -28t11.5 -21t29 -8q13 0 21.5 4t13.5 10t7 11v396h114v-495h-97l-9 60q-8 -28 -33 -47.5t-61 -19.5zM90 560v58h206v-58h-206z" />
    <glyph glyph-name="Ubreve" unicode="&#x16c;" horiz-adv-x="407" 
d="M204 -12q-36 0 -66 5t-52 21t-34 47.5t-12 85.5v444h116v-477q0 -21 6.5 -33.5t17.5 -16.5t24 -4q12 0 23 4t17.5 16.5t6.5 33.5v477h116v-444q0 -53 -12 -85t-33.5 -48t-52 -21t-65.5 -5zM202 630q-46 0 -70 17t-32.5 40.5t-9.5 42.5h62q2 -23 17 -34t34 -11
q21 0 35.5 10.5t16.5 34.5h62q0 -26 -12 -48.5t-36.5 -37t-66.5 -14.5z" />
    <glyph glyph-name="ubreve" unicode="&#x16d;" horiz-adv-x="385" 
d="M147 -7q-48 0 -72 16.5t-32.5 45.5t-8.5 69v371h114v-364q0 -15 2.5 -28t11.5 -21t29 -8q13 0 21.5 4t13.5 10t7 11v396h114v-495h-97l-9 60q-8 -28 -33 -47.5t-61 -19.5zM191 545q-46 0 -70 17t-32.5 40.5t-9.5 42.5h62q2 -23 17 -34t34 -11q21 0 35.5 10.5t16.5 34.5
h62q0 -26 -12 -48.5t-36.5 -37t-66.5 -14.5z" />
    <glyph glyph-name="Uring" unicode="&#x16e;" horiz-adv-x="407" 
d="M204 -12q-36 0 -66 5t-52 21t-34 47.5t-12 85.5v444h116v-477q0 -21 6.5 -33.5t17.5 -16.5t24 -4q12 0 23 4t17.5 16.5t6.5 33.5v477h116v-444q0 -53 -12 -85t-33.5 -48t-52 -21t-65.5 -5zM203 621q-37 0 -61.5 24t-24.5 57q0 35 24.5 59t61.5 24t62 -24.5t25 -58.5
q0 -33 -25.5 -57t-61.5 -24zM203 667q17 0 28 10t11 25q0 18 -11 28t-28 10q-16 0 -27 -10t-11 -28q0 -15 11 -25t27 -10z" />
    <glyph glyph-name="uring" unicode="&#x16f;" horiz-adv-x="385" 
d="M147 -7q-48 0 -72 16.5t-32.5 45.5t-8.5 69v371h114v-364q0 -15 2.5 -28t11.5 -21t29 -8q13 0 21.5 4t13.5 10t7 11v396h114v-495h-97l-9 60q-8 -28 -33 -47.5t-61 -19.5zM192 541q-37 0 -61.5 24t-24.5 57q0 35 24.5 59t61.5 24t62 -24.5t25 -58.5q0 -33 -25.5 -57
t-61.5 -24zM192 587q17 0 28 10t11 25q0 18 -11 28t-28 10q-16 0 -27 -10t-11 -28q0 -15 11 -25t27 -10z" />
    <glyph glyph-name="Uhungarumlaut" unicode="&#x170;" horiz-adv-x="407" 
d="M204 -12q-36 0 -66 5t-52 21t-34 47.5t-12 85.5v444h116v-477q0 -21 6.5 -33.5t17.5 -16.5t24 -4q12 0 23 4t17.5 16.5t6.5 33.5v477h116v-444q0 -53 -12 -85t-33.5 -48t-52 -21t-65.5 -5zM122 630l17 100h89l-61 -100h-45zM216 630l31 100h88l-67 -100h-52z" />
    <glyph glyph-name="uhungarumlaut" unicode="&#x171;" horiz-adv-x="385" 
d="M147 -7q-48 0 -72 16.5t-32.5 45.5t-8.5 69v371h114v-364q0 -15 2.5 -28t11.5 -21t29 -8q13 0 21.5 4t13.5 10t7 11v396h114v-495h-97l-9 60q-8 -28 -33 -47.5t-61 -19.5zM121 548l17 100h89l-61 -100h-45zM215 548l31 100h88l-67 -100h-52z" />
    <glyph glyph-name="Uogonek" unicode="&#x172;" horiz-adv-x="407" 
d="M204 -12q-36 0 -66 5t-52 21t-34 47.5t-12 85.5v444h116v-477q0 -21 6.5 -33.5t17.5 -16.5t24 -4q12 0 23 4t17.5 16.5t6.5 33.5v477h116v-444q0 -53 -12 -85t-33.5 -48t-52 -21t-65.5 -5zM216 -144q-36 0 -59 19.5t-23 44.5q0 28 22.5 52t56.5 29l47 -1
q-27 -9 -39.5 -28t-12.5 -36q0 -19 12.5 -29t24.5 -10q8 0 13.5 2t8.5 2l13 -30q-5 -3 -19.5 -9t-44.5 -6z" />
    <glyph glyph-name="uogonek" unicode="&#x173;" horiz-adv-x="385" 
d="M147 -7q-48 0 -72 16.5t-32.5 45.5t-8.5 69v371h114v-364q0 -15 2.5 -28t11.5 -21t29 -8q13 0 21.5 4t13.5 10t7 11v396h114v-495h-97l-9 60q-8 -28 -33 -47.5t-61 -19.5zM304 -144q-36 0 -59 19.5t-23 44.5q0 28 22.5 52t56.5 29l47 -1q-27 -9 -39.5 -28t-12.5 -36
q0 -19 12.5 -29t24.5 -10q8 0 13.5 2t8.5 2l13 -30q-5 -3 -19.5 -9t-44.5 -6z" />
    <glyph glyph-name="Wcircumflex" unicode="&#x174;" horiz-adv-x="598" 
d="M103 0l-90 591h120l56 -441l62 441h96l61 -441l57 441h119l-89 -591h-135l-61 343l-60 -343h-136zM171 631l96 100h64l97 -100h-79l-49 43l-49 -43h-80z" />
    <glyph glyph-name="wcircumflex" unicode="&#x175;" horiz-adv-x="585" 
d="M109 0l-104 495h109l62 -358l61 358h110l69 -358l55 358h108l-102 -495h-131l-54 276l-52 -276h-131zM165 546l95 105h64l95 -105h-75l-51 49l-51 -49h-77z" />
    <glyph glyph-name="Ycircumflex" unicode="&#x176;" horiz-adv-x="361" 
d="M120 0v251l-111 340h116l51 -177l7 -38l7 38l55 177h106l-115 -346v-245h-116zM57 631l96 100h64l97 -100h-79l-49 43l-49 -43h-80z" />
    <glyph glyph-name="ycircumflex" unicode="&#x177;" horiz-adv-x="349" 
d="M100 -117q-28 0 -54 4.5t-41 8.5v60q6 -2 17.5 -4t24.5 -2t29.5 4t22.5 26q2 9 4.5 19t-0.5 24l-101 472h118l60 -386h1l60 386h108l-96 -452q-17 -85 -54 -122.5t-99 -37.5zM47 546l95 105h64l95 -105h-75l-51 49l-51 -49h-77z" />
    <glyph glyph-name="Ydieresis" unicode="&#x178;" horiz-adv-x="361" 
d="M120 0v251l-111 340h116l51 -177l7 -38l7 38l55 177h106l-115 -346v-245h-116zM125 634q-21 0 -34.5 13t-13.5 33q0 19 13.5 31.5t34.5 12.5q20 0 33 -12.5t13 -31.5q0 -20 -13 -33t-33 -13zM245 634q-20 0 -34 13t-14 33q0 19 14 31.5t34 12.5t33.5 -12.5t13.5 -31.5
q0 -20 -13.5 -33t-33.5 -13z" />
    <glyph glyph-name="Zacute" unicode="&#x179;" horiz-adv-x="294" 
d="M14 0v74l134 435h-124v82h257v-58l-142 -451h142v-82h-267zM98 634l78 94h105l-119 -94h-64z" />
    <glyph glyph-name="zacute" unicode="&#x17a;" horiz-adv-x="287" 
d="M10 0v44l138 377h-125v74h254v-49l-134 -368h134v-78h-267zM101 548l57 100h103l-95 -100h-65z" />
    <glyph glyph-name="Zdotaccent" unicode="&#x17b;" horiz-adv-x="294" 
d="M14 0v74l134 435h-124v82h257v-58l-142 -451h142v-82h-267zM157 636q-22 0 -38 15.5t-16 36.5q0 22 16 37t38 15t38.5 -15t16.5 -37q0 -21 -16.5 -36.5t-38.5 -15.5z" />
    <glyph glyph-name="zdotaccent" unicode="&#x17c;" horiz-adv-x="287" 
d="M10 0v44l138 377h-125v74h254v-49l-134 -368h134v-78h-267zM143 550q-22 0 -38 15.5t-16 36.5q0 22 16 37t38 15t38.5 -15t16.5 -37q0 -21 -16.5 -36.5t-38.5 -15.5z" />
    <glyph glyph-name="Zcaron" unicode="&#x17d;" horiz-adv-x="294" 
d="M14 0v74l134 435h-124v82h257v-58l-142 -451h142v-82h-267zM125 631l-94 97h80l47 -40l48 40h78l-95 -97h-64z" />
    <glyph glyph-name="zcaron" unicode="&#x17e;" horiz-adv-x="287" 
d="M10 0v44l138 377h-125v74h254v-49l-134 -368h134v-78h-267zM111 546l-94 105h76l52 -49l51 49h75l-95 -105h-65z" />
    <glyph glyph-name="longs" unicode="&#x17f;" horiz-adv-x="266" 
d="M44 -144q-21 0 -43 1t-41 5v59l32 -1q9 -1 18 1t17 6q13 3 19.5 14.5t7.5 24.5v406h-40v68h40v83q0 47 18.5 70.5t51 31t71.5 7.5q27 0 51.5 -4t46.5 -9l-10 -66q-21 7 -39.5 9t-39.5 2q-22 0 -29 -19.5t-7 -37.5v-498q0 -53 -16 -85.5t-44 -48.5t-64 -19z" />
    <glyph glyph-name="uni018F" unicode="&#x18f;" horiz-adv-x="397" 
d="M195 -12q-50 0 -87 11.5t-57 48t-20 109.5v91h116v-135q0 -23 6 -35.5t17 -17t24 -4.5q14 0 24.5 4.5t16.5 17t6 35.5v358q0 24 -6 36.5t-16.5 16.5t-24.5 4q-13 0 -24 -4t-17 -16.5t-6 -36.5v-127h-116v122q0 52 20 81t57 41t86 12q50 0 87.5 -11.5t59 -40.5t21.5 -82
v-310q0 -72 -21.5 -108.5t-58.5 -48t-87 -11.5zM32 219v57h227v-57h-227z" />
    <glyph glyph-name="florin" unicode="&#x192;" horiz-adv-x="360" 
d="M-1 -144q-13 0 -31 1t-33.5 2t-20.5 2l7 67l54 -6q27 -1 42.5 6.5t23.5 29t13 62.5l43 365h-59l7 62h59l10 71q11 60 40 85.5t69 25.5q10 0 28 -0.5t37 -1t35.5 -1.5t24.5 -2l-7 -66q-7 2 -28 4.5t-44 2.5q-27 0 -35.5 -20t-11.5 -45l-7 -53h102l-6 -62h-102l-47 -398
q-8 -67 -48.5 -99t-114.5 -32z" />
    <glyph glyph-name="Ohorn" unicode="&#x1a0;" horiz-adv-x="401" 
d="M199 -12q-49 0 -86 11.5t-57.5 48t-20.5 108.5v310q0 53 20.5 82t58 40.5t86.5 11.5q48 0 85.5 -12t59 -41t21.5 -81v-309q0 -73 -21.5 -109.5t-59 -48t-86.5 -11.5zM199 56q15 0 26.5 5t18 17.5t6.5 34.5v358q0 22 -6.5 34.5t-18 17.5t-26.5 5t-26 -5t-17.5 -17.5
t-6.5 -34.5v-358q0 -22 6.5 -34.5t17.5 -17.5t26 -5zM248 541l-1 50h17q45 0 45 47v18h75v-17q0 -53 -34 -75.5t-102 -22.5z" />
    <glyph glyph-name="ohorn" unicode="&#x1a1;" horiz-adv-x="371" 
d="M186 -8q-50 0 -85.5 12t-53.5 47.5t-18 104.5v210q0 77 39 107.5t118 30.5t117.5 -30.5t38.5 -107.5v-210q0 -69 -17.5 -104t-52.5 -47.5t-86 -12.5zM186 60q22 0 32 12.5t10 45.5v260q0 31 -9.5 44.5t-32.5 13.5q-22 0 -32.5 -13t-10.5 -45v-260q0 -33 10.5 -45.5
t32.5 -12.5zM238 444l-1 50h17q45 0 45 47v18h75v-17q0 -53 -34 -75.5t-102 -22.5z" />
    <glyph glyph-name="Uhorn" unicode="&#x1af;" horiz-adv-x="407" 
d="M204 -12q-36 0 -66 5t-52 21t-34 47.5t-12 85.5v444h116v-477q0 -21 6.5 -33.5t17.5 -16.5t24 -4q12 0 23 4t17.5 16.5t6.5 33.5v477h116v-444q0 -53 -12 -85t-33.5 -48t-52 -21t-65.5 -5zM275 541l-1 50h17q45 0 45 47v18h75v-17q0 -53 -34 -75.5t-102 -22.5z" />
    <glyph glyph-name="uhorn" unicode="&#x1b0;" horiz-adv-x="385" 
d="M147 -7q-48 0 -72 16.5t-32.5 45.5t-8.5 69v371h114v-364q0 -15 2.5 -28t11.5 -21t29 -8q13 0 21.5 4t13.5 10t7 11v396h114v-495h-97l-9 60q-8 -28 -33 -47.5t-61 -19.5zM261 444l-1 50h17q45 0 45 47v18h75v-17q0 -53 -34 -75.5t-102 -22.5z" />
    <glyph glyph-name="uni01C4" unicode="&#x1c4;" horiz-adv-x="702" 
d="M42 0v591h207q42 0 69.5 -12t41 -36.5t13.5 -61.5v-354q0 -49 -17 -77t-48.5 -39t-74.5 -11h-191zM163 60h51q20 0 31.5 12t11.5 45v351q0 33 -11.5 45t-31.5 12h-51v-465zM422 0v74l134 435h-124v82h257v-58l-142 -451h142v-82h-267zM533 631l-94 97h80l47 -40l48 40h78
l-95 -97h-64z" />
    <glyph glyph-name="uni01C5" unicode="&#x1c5;" horiz-adv-x="695" 
d="M42 0v591h207q42 0 69.5 -12t41 -36.5t13.5 -61.5v-354q0 -49 -17 -77t-48.5 -39t-74.5 -11h-191zM163 60h51q20 0 31.5 12t11.5 45v351q0 33 -11.5 45t-31.5 12h-51v-465zM418 0v44l138 377h-125v74h254v-49l-134 -368h134v-78h-267zM519 546l-94 105h76l52 -49l51 49
h75l-95 -105h-65z" />
    <glyph glyph-name="uni01C6" unicode="&#x1c6;" horiz-adv-x="667" 
d="M159 -7q-32 0 -56 6.5t-41 22.5t-25 46t-8 77v241q0 33 9 55t24 35.5t34.5 19.5t42.5 6q40 0 60 -12.5t29 -28.5v169h114v-630h-77l-12 47q-4 -10 -15 -22.5t-29.5 -22t-49.5 -9.5zM185 58q15 0 23.5 5.5t13 15t5.5 21.5t1 26v284q-1 5 -5.5 10t-13.5 9t-23 4
q-15 0 -23.5 -4.5t-13 -12.5t-5.5 -18.5t-1 -23.5v-257q0 -17 2.5 -30.5t11.5 -21t28 -7.5zM390 0v44l138 377h-125v74h254v-49l-134 -368h134v-78h-267zM490 546l-94 105h76l52 -49l51 49h75l-95 -105h-65z" />
    <glyph glyph-name="uni01C7" unicode="&#x1c7;" horiz-adv-x="543" 
d="M42 0v591h115v-511h134v-80h-249zM353 -1h-23.5t-24.5 1v80h31q30 -1 40.5 10t10.5 42v459h116v-445q0 -57 -14.5 -89.5t-47 -45t-88.5 -12.5z" />
    <glyph glyph-name="uni01C8" unicode="&#x1c8;" horiz-adv-x="485" 
d="M42 0v591h115v-511h134v-80h-249zM276 -112q-6 1 -19.5 1.5t-17.5 1.5v61q8 -1 20 -0.5t19 0.5q28 2 43 16t15 39v488h114v-455q0 -67 -24.5 -100.5t-64 -44t-85.5 -7.5zM392 550q-22 0 -38 15.5t-16 36.5q0 22 16 37t38 15t38.5 -15t16.5 -37q0 -21 -16.5 -36.5
t-38.5 -15.5z" />
    <glyph glyph-name="uni01C9" unicode="&#x1c9;" horiz-adv-x="374" 
d="M37 0v632h114v-632h-114zM166 -112q-6 1 -19.5 1.5t-17.5 1.5v61q8 -1 20 -0.5t19 0.5q28 2 43 16t15 39v488h114v-455q0 -67 -24.5 -100.5t-64 -44t-85.5 -7.5zM281 550q-22 0 -38 15.5t-16 36.5q0 22 16 37t38 15t38.5 -15t16.5 -37q0 -21 -16.5 -36.5t-38.5 -15.5z
" />
    <glyph glyph-name="uni01CA" unicode="&#x1ca;" horiz-adv-x="653" 
d="M42 0v591h101l123 -358v358h102v-591h-101l-123 334v-334h-102zM463 -1h-23.5t-24.5 1v80h31q30 -1 40.5 10t10.5 42v459h116v-445q0 -57 -14.5 -89.5t-47 -45t-88.5 -12.5z" />
    <glyph glyph-name="uni01CB" unicode="&#x1cb;" horiz-adv-x="595" 
d="M42 0v591h101l123 -358v358h102v-591h-101l-123 334v-334h-102zM386 -112q-6 1 -19.5 1.5t-17.5 1.5v61q8 -1 20 -0.5t19 0.5q28 2 43 16t15 39v488h114v-455q0 -67 -24.5 -100.5t-64 -44t-85.5 -7.5zM502 550q-22 0 -38 15.5t-16 36.5q0 22 16 37t38 15t38.5 -15
t16.5 -37q0 -21 -16.5 -36.5t-38.5 -15.5z" />
    <glyph glyph-name="uni01CC" unicode="&#x1cc;" horiz-adv-x="567" 
d="M37 0v495h97l10 -58q9 30 35.5 49t58.5 19q48 0 72 -16.5t32.5 -46t8.5 -69.5v-373h-114v366q0 12 -1 22.5t-5.5 18.5t-12.5 12.5t-24 4.5q-12 0 -21 -4.5t-14 -10.5t-8 -11v-398h-114zM358 -112q-6 1 -19.5 1.5t-17.5 1.5v61q8 -1 20 -0.5t19 0.5q28 2 43 16t15 39v488
h114v-455q0 -67 -24.5 -100.5t-64 -44t-85.5 -7.5zM474 550q-22 0 -38 15.5t-16 36.5q0 22 16 37t38 15t38.5 -15t16.5 -37q0 -21 -16.5 -36.5t-38.5 -15.5z" />
    <glyph glyph-name="uni01CD" unicode="&#x1cd;" horiz-adv-x="392" 
d="M8 0l106 591h166l104 -591h-130l-18 109h-86l-17 -109h-125zM152 167h83l-41 321zM164 631l-94 97h80l47 -40l48 40h78l-95 -97h-64z" />
    <glyph glyph-name="uni01CE" unicode="&#x1ce;" horiz-adv-x="370" 
d="M126 -8q-26 0 -48.5 7t-37 29.5t-14.5 66.5v66q0 47 27.5 76.5t86.5 50.5q31 13 49 23t26 24.5t8 39.5v27q0 16 -5 24.5t-14.5 12.5t-21.5 4q-26 0 -34 -17.5t-8 -58.5v-42h-103v53q0 37 10.5 65.5t41.5 45t93 16.5q63 0 97 -11.5t47 -36t13 -66.5v-391h-114v55
q-8 -29 -36.5 -46t-62.5 -17zM175 67q27 0 37.5 20.5t10.5 57.5v127q-6 -10 -20 -17.5t-28 -16.5q-19 -13 -29 -26.5t-10 -37.5v-51q0 -21 5 -33.5t14 -17.5t20 -5zM156 546l-94 105h76l52 -49l51 49h75l-95 -105h-65z" />
    <glyph glyph-name="uni01CF" unicode="&#x1cf;" horiz-adv-x="200" 
d="M42 0v591h116v-591h-116zM68 631l-94 97h80l47 -40l48 40h78l-95 -97h-64z" />
    <glyph glyph-name="uni01D0" unicode="&#x1d0;" horiz-adv-x="189" 
d="M37 0v495h114v-495h-114zM61 546l-94 105h76l52 -49l51 49h75l-95 -105h-65z" />
    <glyph glyph-name="uni01D1" unicode="&#x1d1;" horiz-adv-x="401" 
d="M199 -12q-49 0 -86 11.5t-57.5 48t-20.5 108.5v310q0 53 20.5 82t58 40.5t86.5 11.5q48 0 85.5 -12t59 -41t21.5 -81v-309q0 -73 -21.5 -109.5t-59 -48t-86.5 -11.5zM199 56q15 0 26.5 5t18 17.5t6.5 34.5v358q0 22 -6.5 34.5t-18 17.5t-26.5 5t-26 -5t-17.5 -17.5
t-6.5 -34.5v-358q0 -22 6.5 -34.5t17.5 -17.5t26 -5zM168 631l-94 97h80l47 -40l48 40h78l-95 -97h-64z" />
    <glyph glyph-name="uni01D2" unicode="&#x1d2;" horiz-adv-x="371" 
d="M186 -8q-50 0 -85.5 12t-53.5 47.5t-18 104.5v210q0 77 39 107.5t118 30.5t117.5 -30.5t38.5 -107.5v-210q0 -69 -17.5 -104t-52.5 -47.5t-86 -12.5zM186 60q22 0 32 12.5t10 45.5v260q0 31 -9.5 44.5t-32.5 13.5q-22 0 -32.5 -13t-10.5 -45v-260q0 -33 10.5 -45.5
t32.5 -12.5zM152 546l-94 105h76l52 -49l51 49h75l-95 -105h-65z" />
    <glyph glyph-name="uni01D3" unicode="&#x1d3;" horiz-adv-x="407" 
d="M204 -12q-36 0 -66 5t-52 21t-34 47.5t-12 85.5v444h116v-477q0 -21 6.5 -33.5t17.5 -16.5t24 -4q12 0 23 4t17.5 16.5t6.5 33.5v477h116v-444q0 -53 -12 -85t-33.5 -48t-52 -21t-65.5 -5zM171 631l-94 97h80l47 -40l48 40h78l-95 -97h-64z" />
    <glyph glyph-name="uni01D4" unicode="&#x1d4;" horiz-adv-x="385" 
d="M147 -7q-48 0 -72 16.5t-32.5 45.5t-8.5 69v371h114v-364q0 -15 2.5 -28t11.5 -21t29 -8q13 0 21.5 4t13.5 10t7 11v396h114v-495h-97l-9 60q-8 -28 -33 -47.5t-61 -19.5zM159 546l-94 105h76l52 -49l51 49h75l-95 -105h-65z" />
    <glyph glyph-name="uni01D5" unicode="&#x1d5;" horiz-adv-x="407" 
d="M204 -12q-36 0 -66 5t-52 21t-34 47.5t-12 85.5v444h116v-477q0 -21 6.5 -33.5t17.5 -16.5t24 -4q12 0 23 4t17.5 16.5t6.5 33.5v477h116v-444q0 -53 -12 -85t-33.5 -48t-52 -21t-65.5 -5zM144 634q-21 0 -34.5 13t-13.5 33q0 19 13.5 31.5t34.5 12.5q20 0 33 -12.5
t13 -31.5q0 -20 -13 -33t-33 -13zM264 634q-20 0 -34 13t-14 33q0 19 14 31.5t34 12.5t33.5 -12.5t13.5 -31.5q0 -20 -13.5 -33t-33.5 -13zM101 749v58h206v-58h-206z" />
    <glyph glyph-name="uni01D6" unicode="&#x1d6;" horiz-adv-x="385" 
d="M147 -7q-48 0 -72 16.5t-32.5 45.5t-8.5 69v371h114v-364q0 -15 2.5 -28t11.5 -21t29 -8q13 0 21.5 4t13.5 10t7 11v396h114v-495h-97l-9 60q-8 -28 -33 -47.5t-61 -19.5zM133 549q-21 0 -34.5 13t-13.5 33q0 19 13.5 31.5t34.5 12.5q20 0 33 -12.5t13 -31.5
q0 -20 -13 -33t-33 -13zM253 549q-20 0 -34 13t-14 33q0 19 14 31.5t34 12.5t33.5 -12.5t13.5 -31.5q0 -20 -13.5 -33t-33.5 -13zM90 662v58h206v-58h-206z" />
    <glyph glyph-name="uni01D7" unicode="&#x1d7;" horiz-adv-x="407" 
d="M204 -12q-36 0 -66 5t-52 21t-34 47.5t-12 85.5v444h116v-477q0 -21 6.5 -33.5t17.5 -16.5t24 -4q12 0 23 4t17.5 16.5t6.5 33.5v477h116v-444q0 -53 -12 -85t-33.5 -48t-52 -21t-65.5 -5zM144 634q-21 0 -34.5 13t-13.5 33q0 19 13.5 31.5t34.5 12.5q20 0 33 -12.5
t13 -31.5q0 -20 -13 -33t-33 -13zM264 634q-20 0 -34 13t-14 33q0 19 14 31.5t34 12.5t33.5 -12.5t13.5 -31.5q0 -20 -13.5 -33t-33.5 -13zM145 742l78 94h105l-119 -94h-64z" />
    <glyph glyph-name="uni01D8" unicode="&#x1d8;" horiz-adv-x="385" 
d="M147 -7q-48 0 -72 16.5t-32.5 45.5t-8.5 69v371h114v-364q0 -15 2.5 -28t11.5 -21t29 -8q13 0 21.5 4t13.5 10t7 11v396h114v-495h-97l-9 60q-8 -28 -33 -47.5t-61 -19.5zM133 549q-21 0 -34.5 13t-13.5 33q0 19 13.5 31.5t34.5 12.5q20 0 33 -12.5t13 -31.5
q0 -20 -13 -33t-33 -13zM253 549q-20 0 -34 13t-14 33q0 19 14 31.5t34 12.5t33.5 -12.5t13.5 -31.5q0 -20 -13.5 -33t-33.5 -13zM149 652l57 100h103l-95 -100h-65z" />
    <glyph glyph-name="uni01D9" unicode="&#x1d9;" horiz-adv-x="407" 
d="M204 -12q-36 0 -66 5t-52 21t-34 47.5t-12 85.5v444h116v-477q0 -21 6.5 -33.5t17.5 -16.5t24 -4q12 0 23 4t17.5 16.5t6.5 33.5v477h116v-444q0 -53 -12 -85t-33.5 -48t-52 -21t-65.5 -5zM144 634q-21 0 -34.5 13t-13.5 33q0 19 13.5 31.5t34.5 12.5q20 0 33 -12.5
t13 -31.5q0 -20 -13 -33t-33 -13zM264 634q-20 0 -34 13t-14 33q0 19 14 31.5t34 12.5t33.5 -12.5t13.5 -31.5q0 -20 -13.5 -33t-33.5 -13zM172 739l-94 97h80l47 -40l48 40h78l-95 -97h-64z" />
    <glyph glyph-name="uni01DA" unicode="&#x1da;" horiz-adv-x="385" 
d="M147 -7q-48 0 -72 16.5t-32.5 45.5t-8.5 69v371h114v-364q0 -15 2.5 -28t11.5 -21t29 -8q13 0 21.5 4t13.5 10t7 11v396h114v-495h-97l-9 60q-8 -28 -33 -47.5t-61 -19.5zM133 549q-21 0 -34.5 13t-13.5 33q0 19 13.5 31.5t34.5 12.5q20 0 33 -12.5t13 -31.5
q0 -20 -13 -33t-33 -13zM253 549q-20 0 -34 13t-14 33q0 19 14 31.5t34 12.5t33.5 -12.5t13.5 -31.5q0 -20 -13.5 -33t-33.5 -13zM159 650l-94 105h76l52 -49l51 49h75l-95 -105h-65z" />
    <glyph glyph-name="uni01DB" unicode="&#x1db;" horiz-adv-x="407" 
d="M204 -12q-36 0 -66 5t-52 21t-34 47.5t-12 85.5v444h116v-477q0 -21 6.5 -33.5t17.5 -16.5t24 -4q12 0 23 4t17.5 16.5t6.5 33.5v477h116v-444q0 -53 -12 -85t-33.5 -48t-52 -21t-65.5 -5zM144 634q-21 0 -34.5 13t-13.5 33q0 19 13.5 31.5t34.5 12.5q20 0 33 -12.5
t13 -31.5q0 -20 -13 -33t-33 -13zM264 634q-20 0 -34 13t-14 33q0 19 14 31.5t34 12.5t33.5 -12.5t13.5 -31.5q0 -20 -13.5 -33t-33.5 -13zM190 742l-111 91h107l76 -91h-72z" />
    <glyph glyph-name="uni01DC" unicode="&#x1dc;" horiz-adv-x="385" 
d="M147 -7q-48 0 -72 16.5t-32.5 45.5t-8.5 69v371h114v-364q0 -15 2.5 -28t11.5 -21t29 -8q13 0 21.5 4t13.5 10t7 11v396h114v-495h-97l-9 60q-8 -28 -33 -47.5t-61 -19.5zM133 549q-21 0 -34.5 13t-13.5 33q0 19 13.5 31.5t34.5 12.5q20 0 33 -12.5t13 -31.5
q0 -20 -13 -33t-33 -13zM253 549q-20 0 -34 13t-14 33q0 19 14 31.5t34 12.5t33.5 -12.5t13.5 -31.5q0 -20 -13.5 -33t-33.5 -13zM176 652l-95 100h103l57 -100h-65z" />
    <glyph glyph-name="Gcaron" unicode="&#x1e6;" horiz-adv-x="398" 
d="M166 -11q-34 0 -63.5 11t-48.5 43.5t-19 97.5v324q0 52 20.5 81t57.5 40.5t86 11.5t86.5 -11.5t59 -40.5t21.5 -81v-83h-113v89q0 24 -6.5 36.5t-17.5 16.5t-27 4q-15 0 -26.5 -4t-18 -16.5t-6.5 -36.5v-358q0 -23 6.5 -35.5t18 -17t26.5 -4.5q23 0 37 14t14 43v118h-48
v66h161v-297h-87l-6 46l-4 -6t-3 -5q-10 -17 -33.5 -31.5t-66.5 -14.5zM167 631l-94 97h80l47 -40l48 40h78l-95 -97h-64z" />
    <glyph glyph-name="gcaron" unicode="&#x1e7;" horiz-adv-x="376" 
d="M186 -119q-14 0 -34 1t-39.5 3t-33 3.5t-16.5 2.5v61q13 -2 39 -4.5t44 -2.5q16 0 30.5 2.5t26 10t18.5 22t7 38.5v71q-5 -12 -14.5 -26.5t-27.5 -24.5t-51 -10q-24 0 -43.5 5.5t-33 21t-21.5 45t-8 77.5v202q0 63 26.5 94.5t80.5 31.5q32 0 51.5 -8t31.5 -22.5t19 -33.5
l-15 -2l17 56h102v-421q0 -36 -6.5 -70.5t-22.5 -62t-46.5 -44t-80.5 -16.5zM184 96q17 0 26.5 8.5t13 24t3.5 32.5v245q-2 5 -7 10t-13.5 9t-23.5 4q-20 0 -30 -11.5t-10 -42.5v-228q0 -17 4 -27.5t10.5 -15.5t13.5 -6.5t13 -1.5zM156 546l-94 105h76l52 -49l51 49h75
l-95 -105h-65z" />
    <glyph glyph-name="uni01EA" unicode="&#x1ea;" horiz-adv-x="401" 
d="M199 -12q-49 0 -86 11.5t-57.5 48t-20.5 108.5v310q0 53 20.5 82t58 40.5t86.5 11.5q48 0 85.5 -12t59 -41t21.5 -81v-309q0 -73 -21.5 -109.5t-59 -48t-86.5 -11.5zM199 56q15 0 26.5 5t18 17.5t6.5 34.5v358q0 22 -6.5 34.5t-18 17.5t-26.5 5t-26 -5t-17.5 -17.5
t-6.5 -34.5v-358q0 -22 6.5 -34.5t17.5 -17.5t26 -5zM215 -144q-36 0 -59 19.5t-23 44.5q0 28 22.5 52t56.5 29l47 -1q-27 -9 -39.5 -28t-12.5 -36q0 -19 12.5 -29t24.5 -10q8 0 13.5 2t8.5 2l13 -30q-5 -3 -19.5 -9t-44.5 -6z" />
    <glyph glyph-name="uni01EB" unicode="&#x1eb;" horiz-adv-x="371" 
d="M186 -8q-50 0 -85.5 12t-53.5 47.5t-18 104.5v210q0 77 39 107.5t118 30.5t117.5 -30.5t38.5 -107.5v-210q0 -69 -17.5 -104t-52.5 -47.5t-86 -12.5zM186 60q22 0 32 12.5t10 45.5v260q0 31 -9.5 44.5t-32.5 13.5q-22 0 -32.5 -13t-10.5 -45v-260q0 -33 10.5 -45.5
t32.5 -12.5zM196 -144q-36 0 -59 19.5t-23 44.5q0 28 22.5 52t56.5 29l47 -1q-27 -9 -39.5 -28t-12.5 -36q0 -19 12.5 -29t24.5 -10q8 0 13.5 2t8.5 2l13 -30q-5 -3 -19.5 -9t-44.5 -6z" />
    <glyph glyph-name="Aringacute" unicode="&#x1fa;" horiz-adv-x="392" 
d="M8 0l106 591h166l104 -591h-130l-18 109h-86l-17 -109h-125zM152 167h83l-41 321zM196 589q-37 0 -61.5 24t-24.5 57q0 35 24.5 59t61.5 24t62 -24.5t25 -58.5q0 -33 -25.5 -57t-61.5 -24zM196 635q17 0 28 10t11 25q0 18 -11 28t-28 10q-16 0 -27 -10t-11 -28
q0 -15 11 -25t27 -10zM157 773l78 94h105l-119 -94h-64z" />
    <glyph glyph-name="aringacute" unicode="&#x1fb;" horiz-adv-x="370" 
d="M126 -8q-26 0 -48.5 7t-37 29.5t-14.5 66.5v66q0 47 27.5 76.5t86.5 50.5q31 13 49 23t26 24.5t8 39.5v27q0 16 -5 24.5t-14.5 12.5t-21.5 4q-26 0 -34 -17.5t-8 -58.5v-42h-103v53q0 37 10.5 65.5t41.5 45t93 16.5q63 0 97 -11.5t47 -36t13 -66.5v-391h-114v55
q-8 -29 -36.5 -46t-62.5 -17zM175 67q27 0 37.5 20.5t10.5 57.5v127q-6 -10 -20 -17.5t-28 -16.5q-19 -13 -29 -26.5t-10 -37.5v-51q0 -21 5 -33.5t14 -17.5t20 -5zM189 541q-37 0 -61.5 24t-24.5 57q0 35 24.5 59t61.5 24t62 -24.5t25 -58.5q0 -33 -25.5 -57t-61.5 -24z
M189 587q17 0 28 10t11 25q0 18 -11 28t-28 10q-16 0 -27 -10t-11 -28q0 -15 11 -25t27 -10zM146 727l57 100h103l-95 -100h-65z" />
    <glyph glyph-name="AEacute" unicode="&#x1fc;" horiz-adv-x="550" 
d="M1 0l177 591h340v-82h-171l3 -158h151v-91h-150l2 -180h177v-80h-304v109h-70l-30 -109h-125zM165 167h69l11 300l1 21l-4 -20zM285 634l78 94h105l-119 -94h-64z" />
    <glyph glyph-name="aeacute" unicode="&#x1fd;" horiz-adv-x="562" 
d="M126 -6q-13 0 -30 2t-33 11t-26.5 30t-10.5 60v66q0 50 30.5 77.5t78.5 45.5q32 14 51.5 23.5t28 24t8.5 38.5v30q0 16 -5 24.5t-14.5 12.5t-21.5 4q-26 0 -34 -17.5t-8 -58.5v-42h-103v53q0 37 10.5 65.5t41.5 45t93 16.5q54 0 83.5 -14t40.5 -39t11 -61v-373l-69 63
q-16 -49 -50 -68t-72 -19zM175 69q27 0 37.5 19.5t10.5 56.5v127q-6 -10 -20.5 -17.5t-28.5 -17.5q-19 -13 -28.5 -26t-9.5 -36v-51q0 -21 5 -33.5t14 -17t20 -4.5zM381 -2q-34 0 -61 4.5t-45 19.5t-27 46t-9 84v225q0 58 35.5 92.5t106.5 34.5q79 0 118 -27.5t39 -99.5
v-135h-199v-137q0 -21 4 -32.5t13 -16t25 -4.5t25.5 5t13 17t3.5 33v76h115v-28q0 -54 -10.5 -85.5t-30 -46.5t-49 -20t-67.5 -5zM339 294h84v96q0 29 -8.5 41t-33.5 12q-23 0 -32.5 -12t-9.5 -41v-96zM260 548l57 100h103l-95 -100h-65z" />
    <glyph glyph-name="Oslashacute" unicode="&#x1fe;" horiz-adv-x="416" 
d="M16 -35l334 662h53l-335 -662h-52zM206 -12q-50 0 -87.5 11.5t-59 48t-21.5 108.5v310q0 53 21.5 82t59.5 40.5t87 11.5q51 0 87 -12t56 -41t20 -81v-309q0 -73 -20 -109.5t-56.5 -48t-86.5 -11.5zM206 56q14 0 24.5 4.5t16.5 17t6 35.5v358q0 24 -6 36.5t-16.5 16.5
t-24.5 4t-24.5 -4t-16.5 -16.5t-6 -36.5v-358q0 -23 6 -35.5t16.5 -17t24.5 -4.5zM146 634l78 94h105l-119 -94h-64z" />
    <glyph glyph-name="oslashacute" unicode="&#x1ff;" horiz-adv-x="379" 
d="M26 -38l277 559h43l-278 -559h-42zM186 -8q-54 0 -89 14t-51.5 50t-16.5 100v210q0 47 16 77.5t50.5 45t90.5 14.5t90.5 -14.5t50 -45t15.5 -77.5v-210q0 -64 -16.5 -100t-51 -50t-88.5 -14zM186 59q18 0 27 7.5t12 21t3 30.5v260q0 17 -3 30t-12 20.5t-27 7.5
t-27.5 -7.5t-12.5 -20.5t-3 -30v-260q0 -17 3 -30.5t12.5 -21t27.5 -7.5zM142 548l57 100h103l-95 -100h-65z" />
    <glyph glyph-name="uni0200" unicode="&#x200;" horiz-adv-x="392" 
d="M8 0l106 591h166l104 -591h-130l-18 109h-86l-17 -109h-125zM152 167h83l-41 321zM265 644h-45l-60 100h89zM171 644h-52l-67 100h89z" />
    <glyph glyph-name="uni0201" unicode="&#x201;" horiz-adv-x="370" 
d="M126 -8q-26 0 -48.5 7t-37 29.5t-14.5 66.5v66q0 47 27.5 76.5t86.5 50.5q31 13 49 23t26 24.5t8 39.5v27q0 16 -5 24.5t-14.5 12.5t-21.5 4q-26 0 -34 -17.5t-8 -58.5v-42h-103v53q0 37 10.5 65.5t41.5 45t93 16.5q63 0 97 -11.5t47 -36t13 -66.5v-391h-114v55
q-8 -29 -36.5 -46t-62.5 -17zM175 67q27 0 37.5 20.5t10.5 57.5v127q-6 -10 -20 -17.5t-28 -16.5q-19 -13 -29 -26.5t-10 -37.5v-51q0 -21 5 -33.5t14 -17.5t20 -5zM259 548h-45l-60 100h89zM165 548h-52l-67 100h89z" />
    <glyph glyph-name="uni0202" unicode="&#x202;" horiz-adv-x="392" 
d="M198 744q47 0 70.5 -17t32 -40t9.5 -42h-62q-2 22 -16.5 33.5t-34.5 11.5t-35 -11t-16 -34h-63q0 26 12 48.5t37 36.5t66 14zM8 0l106 591h166l104 -591h-130l-18 109h-86l-17 -109h-125zM152 167h83l-41 321z" />
    <glyph glyph-name="uni0203" unicode="&#x203;" horiz-adv-x="370" 
d="M191 648q47 0 70.5 -17t32 -40t9.5 -42h-62q-2 22 -16.5 33.5t-34.5 11.5t-34.5 -11t-16.5 -34h-63q1 26 12.5 48.5t36.5 36.5t66 14zM126 -8q-26 0 -48.5 7t-37 29.5t-14.5 66.5v66q0 47 27.5 76.5t86.5 50.5q31 13 49 23t26 24.5t8 39.5v27q0 16 -5 24.5t-14.5 12.5
t-21.5 4q-26 0 -34 -17.5t-8 -58.5v-42h-103v53q0 37 10.5 65.5t41.5 45t93 16.5q63 0 97 -11.5t47 -36t13 -66.5v-391h-114v55q-8 -29 -36.5 -46t-62.5 -17zM175 67q27 0 37.5 20.5t10.5 57.5v127q-6 -10 -20 -17.5t-28 -16.5q-19 -13 -29 -26.5t-10 -37.5v-51
q0 -21 5 -33.5t14 -17.5t20 -5z" />
    <glyph glyph-name="uni0204" unicode="&#x204;" horiz-adv-x="334" 
d="M42 0v591h272v-82h-151v-158h128v-91h-128v-180h151v-80h-272zM247 644h-45l-60 100h89zM153 644h-52l-67 100h89z" />
    <glyph glyph-name="uni0205" unicode="&#x205;" horiz-adv-x="366" 
d="M188 -8q-52 0 -87.5 11.5t-53.5 46t-18 104.5v223q0 73 39 100t118 27q78 0 117 -27t39 -100v-135h-199v-135q0 -30 9.5 -42t34.5 -12q23 0 31.5 11.5t8.5 42.5v79h115v-31q0 -70 -18 -105t-52.5 -46.5t-83.5 -11.5zM143 294h84v89q0 29 -8.5 41t-32.5 12t-33.5 -12
t-9.5 -41v-89zM252 548h-45l-60 100h89zM158 548h-52l-67 100h89z" />
    <glyph glyph-name="uni0206" unicode="&#x206;" horiz-adv-x="334" 
d="M179 744q47 0 70.5 -17t32 -40t9.5 -42h-62q-2 22 -16.5 33.5t-34.5 11.5t-34.5 -11t-16.5 -34h-63q1 26 12.5 48.5t36 36.5t66.5 14zM42 0v591h272v-82h-151v-158h128v-91h-128v-180h151v-80h-272z" />
    <glyph glyph-name="uni0207" unicode="&#x207;" horiz-adv-x="366" 
d="M185 648q47 0 70.5 -17t32 -40t9.5 -42h-62q-2 22 -16.5 33.5t-34.5 11.5t-35 -11t-17 -34h-62q0 26 12 48.5t37 36.5t66 14zM188 -8q-52 0 -87.5 11.5t-53.5 46t-18 104.5v223q0 73 39 100t118 27q78 0 117 -27t39 -100v-135h-199v-135q0 -30 9.5 -42t34.5 -12
q23 0 31.5 11.5t8.5 42.5v79h115v-31q0 -70 -18 -105t-52.5 -46.5t-83.5 -11.5zM143 294h84v89q0 29 -8.5 41t-32.5 12t-33.5 -12t-9.5 -41v-89z" />
    <glyph glyph-name="uni0208" unicode="&#x208;" horiz-adv-x="200" 
d="M42 0v591h116v-591h-116zM169 644h-45l-60 100h89zM75 644h-52l-67 100h89z" />
    <glyph glyph-name="uni0209" unicode="&#x209;" horiz-adv-x="189" 
d="M37 0v495h114v-495h-114zM163 548h-45l-60 100h89zM69 548h-52l-67 100h89z" />
    <glyph glyph-name="uni020A" unicode="&#x20a;" horiz-adv-x="200" 
d="M102 744q47 0 70.5 -17t32 -40t8.5 -42h-62q-1 22 -16 33.5t-34 11.5q-20 0 -35 -11t-17 -34h-62q0 26 12 48.5t37 36.5t66 14zM42 0v591h116v-591h-116z" />
    <glyph glyph-name="uni020B" unicode="&#x20b;" horiz-adv-x="189" 
d="M96 648q47 0 70.5 -17t32 -40t9.5 -42h-62q-2 22 -16.5 33.5t-34.5 11.5t-35 -11t-16 -34h-63q0 26 12 48.5t37 36.5t66 14zM37 0v495h114v-495h-114z" />
    <glyph glyph-name="uni020C" unicode="&#x20c;" horiz-adv-x="401" 
d="M199 -12q-49 0 -86 11.5t-57.5 48t-20.5 108.5v310q0 53 20.5 82t58 40.5t86.5 11.5q48 0 85.5 -12t59 -41t21.5 -81v-309q0 -73 -21.5 -109.5t-59 -48t-86.5 -11.5zM199 56q15 0 26.5 5t18 17.5t6.5 34.5v358q0 22 -6.5 34.5t-18 17.5t-26.5 5t-26 -5t-17.5 -17.5
t-6.5 -34.5v-358q0 -22 6.5 -34.5t17.5 -17.5t26 -5zM270 644h-45l-60 100h89zM176 644h-52l-67 100h89z" />
    <glyph glyph-name="uni020D" unicode="&#x20d;" horiz-adv-x="371" 
d="M186 -8q-50 0 -85.5 12t-53.5 47.5t-18 104.5v210q0 77 39 107.5t118 30.5t117.5 -30.5t38.5 -107.5v-210q0 -69 -17.5 -104t-52.5 -47.5t-86 -12.5zM186 60q22 0 32 12.5t10 45.5v260q0 31 -9.5 44.5t-32.5 13.5q-22 0 -32.5 -13t-10.5 -45v-260q0 -33 10.5 -45.5
t32.5 -12.5zM255 548h-45l-60 100h89zM161 548h-52l-67 100h89z" />
    <glyph glyph-name="uni020E" unicode="&#x20e;" horiz-adv-x="401" 
d="M202 744q47 0 71 -17t32.5 -40t8.5 -42h-62q-1 22 -16 33.5t-34 11.5q-21 0 -35.5 -11t-16.5 -34h-63q1 26 12.5 48.5t36.5 36.5t66 14zM199 -12q-49 0 -86 11.5t-57.5 48t-20.5 108.5v310q0 53 20.5 82t58 40.5t86.5 11.5q48 0 85.5 -12t59 -41t21.5 -81v-309
q0 -73 -21.5 -109.5t-59 -48t-86.5 -11.5zM199 56q15 0 26.5 5t18 17.5t6.5 34.5v358q0 22 -6.5 34.5t-18 17.5t-26.5 5t-26 -5t-17.5 -17.5t-6.5 -34.5v-358q0 -22 6.5 -34.5t17.5 -17.5t26 -5z" />
    <glyph glyph-name="uni020F" unicode="&#x20f;" horiz-adv-x="371" 
d="M187 648q47 0 71 -17t32.5 -40t8.5 -42h-62q-2 22 -16.5 33.5t-34.5 11.5t-34.5 -11t-16.5 -34h-63q1 26 12.5 48.5t36.5 36.5t66 14zM186 -8q-50 0 -85.5 12t-53.5 47.5t-18 104.5v210q0 77 39 107.5t118 30.5t117.5 -30.5t38.5 -107.5v-210q0 -69 -17.5 -104
t-52.5 -47.5t-86 -12.5zM186 60q22 0 32 12.5t10 45.5v260q0 31 -9.5 44.5t-32.5 13.5q-22 0 -32.5 -13t-10.5 -45v-260q0 -33 10.5 -45.5t32.5 -12.5z" />
    <glyph glyph-name="uni0210" unicode="&#x210;" horiz-adv-x="420" 
d="M42 0v591h216q59 0 89 -26.5t30 -73.5v-92q0 -47 -25 -79t-78 -37v0q34 -5 48.5 -22.5t25.5 -56.5l56 -204h-129l-43 196q-6 24 -13.5 40.5t-21.5 16.5h-34v-253h-121zM163 334h48q28 0 40 15.5t12 49.5v71q0 32 -11 45t-34 13h-55v-194zM279 644h-45l-60 100h89z
M185 644h-52l-67 100h89z" />
    <glyph glyph-name="uni0211" unicode="&#x211;" horiz-adv-x="281" 
d="M37 0v495h97l10 -59q9 22 27 35.5t38 18.5q33 14 69 7v-88q-2 1 -15.5 2.5t-30.5 0t-29 -8.5q-25 -9 -38.5 -31t-13.5 -53v-319h-114zM233 548h-45l-60 100h89zM139 548h-52l-67 100h89z" />
    <glyph glyph-name="uni0212" unicode="&#x212;" horiz-adv-x="420" 
d="M211 744q47 0 71 -17t32.5 -40t8.5 -42h-62q-2 22 -16.5 33.5t-34.5 11.5t-34.5 -11t-16.5 -34h-63q1 26 12.5 48.5t36.5 36.5t66 14zM42 0v591h216q59 0 89 -26.5t30 -73.5v-92q0 -47 -25 -79t-78 -37v0q34 -5 48.5 -22.5t25.5 -56.5l56 -204h-129l-43 196
q-6 24 -13.5 40.5t-21.5 16.5h-34v-253h-121zM163 334h48q28 0 40 15.5t12 49.5v71q0 32 -11 45t-34 13h-55v-194z" />
    <glyph glyph-name="uni0213" unicode="&#x213;" horiz-adv-x="281" 
d="M165 648q47 0 71 -17t32.5 -40t8.5 -42h-62q-2 22 -16.5 33.5t-34.5 11.5t-34.5 -11t-16.5 -34h-63q1 26 12.5 48.5t36 36.5t66.5 14zM37 0v495h97l10 -59q9 22 27 35.5t38 18.5q33 14 69 7v-88q-2 1 -15.5 2.5t-30.5 0t-29 -8.5q-25 -9 -38.5 -31t-13.5 -53v-319h-114z
" />
    <glyph glyph-name="uni0214" unicode="&#x214;" horiz-adv-x="407" 
d="M204 -12q-36 0 -66 5t-52 21t-34 47.5t-12 85.5v444h116v-477q0 -21 6.5 -33.5t17.5 -16.5t24 -4q12 0 23 4t17.5 16.5t6.5 33.5v477h116v-444q0 -53 -12 -85t-33.5 -48t-52 -21t-65.5 -5zM273 644h-45l-60 100h89zM179 644h-52l-67 100h89z" />
    <glyph glyph-name="uni0215" unicode="&#x215;" horiz-adv-x="385" 
d="M147 -7q-48 0 -72 16.5t-32.5 45.5t-8.5 69v371h114v-364q0 -15 2.5 -28t11.5 -21t29 -8q13 0 21.5 4t13.5 10t7 11v396h114v-495h-97l-9 60q-8 -28 -33 -47.5t-61 -19.5zM262 548h-45l-60 100h89zM168 548h-52l-67 100h89z" />
    <glyph glyph-name="uni0216" unicode="&#x216;" horiz-adv-x="407" 
d="M205 744q47 0 70.5 -17t32 -40t9.5 -42h-62q-2 22 -16.5 33.5t-34.5 11.5t-34.5 -11t-16.5 -34h-63q1 26 12.5 48.5t36.5 36.5t66 14zM204 -12q-36 0 -66 5t-52 21t-34 47.5t-12 85.5v444h116v-477q0 -21 6.5 -33.5t17.5 -16.5t24 -4q12 0 23 4t17.5 16.5t6.5 33.5v477
h116v-444q0 -53 -12 -85t-33.5 -48t-52 -21t-65.5 -5z" />
    <glyph glyph-name="uni0217" unicode="&#x217;" horiz-adv-x="385" 
d="M194 648q47 0 71 -17t32.5 -40t8.5 -42h-62q-2 22 -16.5 33.5t-34.5 11.5t-34.5 -11t-16.5 -34h-63q1 26 12.5 48.5t36.5 36.5t66 14zM147 -7q-48 0 -72 16.5t-32.5 45.5t-8.5 69v371h114v-364q0 -15 2.5 -28t11.5 -21t29 -8q13 0 21.5 4t13.5 10t7 11v396h114v-495h-97
l-9 60q-8 -28 -33 -47.5t-61 -19.5z" />
    <glyph glyph-name="uni0218" unicode="&#x218;" horiz-adv-x="391" 
d="M192 -7q-53 0 -90.5 15t-57.5 53t-20 107v35h61h60v-45q0 -37 6 -56.5t17 -27t26 -7.5q23 0 36.5 16.5t13.5 64.5q0 37 -11.5 55.5t-36.5 30t-64 28.5q-35 15 -58 36t-34 53t-11 78q0 58 15.5 94t52 52.5t98.5 16.5q80 0 122.5 -34.5t42.5 -103.5v-71h-57.5h-58.5v36
q0 45 -10.5 63t-37.5 18q-26 0 -37 -16t-11 -52q0 -33 13.5 -51.5t34.5 -28t45 -18.5q44 -17 72 -34.5t41 -48t13 -87.5q0 -64 -21.5 -101.5t-61 -53.5t-92.5 -16zM141 -189q14 21 23 39t9 30q0 7 -7 12t-14 12.5t-7 20.5q0 14 14 26t35 12q23 0 37 -13t14 -31q0 -14 -9 -34
t-22 -39.5t-27 -34.5h-46z" />
    <glyph glyph-name="uni0219" unicode="&#x219;" horiz-adv-x="369" 
d="M182 -7q-62 0 -96.5 15.5t-48 48.5t-13.5 83v38h114v-64q0 -32 9 -45.5t34 -13.5q22 0 31.5 12.5t9.5 37.5v38q0 24 -9 38t-28 23.5t-48 21.5q-27 11 -50 25t-37.5 37t-14.5 59v29q0 62 34 94.5t123 32.5q59 0 92 -15t46.5 -46.5t13.5 -79.5v-37h-110v56q0 33 -9.5 46.5
t-31.5 13.5q-25 0 -33.5 -13t-8.5 -32v-37q0 -25 13.5 -39.5t35.5 -23t47 -18.5q26 -9 48 -22.5t35.5 -35.5t13.5 -59v-30q0 -45 -14.5 -76t-50 -46.5t-97.5 -15.5zM130 -189q14 21 23 39t9 30q0 7 -7 12t-14 12.5t-7 20.5q0 14 14 26t35 12q23 0 37 -13t14 -31
q0 -14 -9 -34t-22 -39.5t-27 -34.5h-46z" />
    <glyph glyph-name="uni021A" unicode="&#x21a;" horiz-adv-x="318" 
d="M101 0v509h-92v82h300v-82h-92v-509h-116zM105 -189q14 21 23 39t9 30q0 7 -7 12t-14 12.5t-7 20.5q0 14 14 26t35 12q23 0 37 -13t14 -31q0 -14 -9 -34t-22 -39.5t-27 -34.5h-46z" />
    <glyph glyph-name="uni021B" unicode="&#x21b;" horiz-adv-x="277" 
d="M184 -3q-23 0 -46 4t-41 15.5t-29 33t-11 57.5v321h-47v57l57 10l16 91h88v-91h94v-67h-94v-301q0 -21 8 -37.5t36 -16.5q13 0 30 1.5t20 1.5v-69q-3 0 -27.5 -5t-53.5 -5zM96 -189q14 21 23 39t9 30q0 7 -7 12t-14 12.5t-7 20.5q0 14 14 26t35 12q23 0 37 -13t14 -31
q0 -14 -9 -34t-22 -39.5t-27 -34.5h-46z" />
    <glyph glyph-name="uni022A" unicode="&#x22a;" horiz-adv-x="401" 
d="M199 -12q-49 0 -86 11.5t-57.5 48t-20.5 108.5v310q0 53 20.5 82t58 40.5t86.5 11.5q48 0 85.5 -12t59 -41t21.5 -81v-309q0 -73 -21.5 -109.5t-59 -48t-86.5 -11.5zM199 56q15 0 26.5 5t18 17.5t6.5 34.5v358q0 22 -6.5 34.5t-18 17.5t-26.5 5t-26 -5t-17.5 -17.5
t-6.5 -34.5v-358q0 -22 6.5 -34.5t17.5 -17.5t26 -5zM141 634q-21 0 -34.5 13t-13.5 33q0 19 13.5 31.5t34.5 12.5q20 0 33 -12.5t13 -31.5q0 -20 -13 -33t-33 -13zM261 634q-20 0 -34 13t-14 33q0 19 14 31.5t34 12.5t33.5 -12.5t13.5 -31.5q0 -20 -13.5 -33t-33.5 -13z
M99 754v58h206v-58h-206z" />
    <glyph glyph-name="uni022B" unicode="&#x22b;" horiz-adv-x="371" 
d="M186 -8q-50 0 -85.5 12t-53.5 47.5t-18 104.5v210q0 77 39 107.5t118 30.5t117.5 -30.5t38.5 -107.5v-210q0 -69 -17.5 -104t-52.5 -47.5t-86 -12.5zM186 60q22 0 32 12.5t10 45.5v260q0 31 -9.5 44.5t-32.5 13.5q-22 0 -32.5 -13t-10.5 -45v-260q0 -33 10.5 -45.5
t32.5 -12.5zM126 549q-21 0 -34.5 13t-13.5 33q0 19 13.5 31.5t34.5 12.5q20 0 33 -12.5t13 -31.5q0 -20 -13 -33t-33 -13zM246 549q-20 0 -34 13t-14 33q0 19 14 31.5t34 12.5t33.5 -12.5t13.5 -31.5q0 -20 -13.5 -33t-33.5 -13zM83 664v58h206v-58h-206z" />
    <glyph glyph-name="uni022C" unicode="&#x22c;" horiz-adv-x="401" 
d="M199 -12q-49 0 -86 11.5t-57.5 48t-20.5 108.5v310q0 53 20.5 82t58 40.5t86.5 11.5q48 0 85.5 -12t59 -41t21.5 -81v-309q0 -73 -21.5 -109.5t-59 -48t-86.5 -11.5zM199 56q15 0 26.5 5t18 17.5t6.5 34.5v358q0 22 -6.5 34.5t-18 17.5t-26.5 5t-26 -5t-17.5 -17.5
t-6.5 -34.5v-358q0 -22 6.5 -34.5t17.5 -17.5t26 -5zM244 637q-15 0 -28 5.5t-27 13.5q-10 7 -21 12t-23 5q-13 0 -20.5 -9.5t-8.5 -25.5h-34q1 39 18.5 63.5t45.5 24.5q16 0 30 -5.5t26 -13.5q11 -6 21.5 -11t21.5 -5q14 0 21.5 9t9.5 23h37q0 -28 -10.5 -47.5t-26.5 -29
t-32 -9.5zM98 748v58h206v-58h-206z" />
    <glyph glyph-name="uni022D" unicode="&#x22d;" horiz-adv-x="371" 
d="M186 -8q-50 0 -85.5 12t-53.5 47.5t-18 104.5v210q0 77 39 107.5t118 30.5t117.5 -30.5t38.5 -107.5v-210q0 -69 -17.5 -104t-52.5 -47.5t-86 -12.5zM186 60q22 0 32 12.5t10 45.5v260q0 31 -9.5 44.5t-32.5 13.5q-22 0 -32.5 -13t-10.5 -45v-260q0 -33 10.5 -45.5
t32.5 -12.5zM232 551q-15 0 -28 5.5t-27 13.5q-10 7 -21 12t-23 5q-13 0 -20.5 -9.5t-8.5 -25.5h-34q1 39 18.5 63.5t45.5 24.5q16 0 30 -5.5t26 -13.5q11 -6 21.5 -11t21.5 -5q14 0 21.5 9t9.5 23h37q0 -28 -10.5 -47.5t-26.5 -29t-32 -9.5zM83 658v58h206v-58h-206z" />
    <glyph glyph-name="uni0230" unicode="&#x230;" horiz-adv-x="401" 
d="M199 -12q-49 0 -86 11.5t-57.5 48t-20.5 108.5v310q0 53 20.5 82t58 40.5t86.5 11.5q48 0 85.5 -12t59 -41t21.5 -81v-309q0 -73 -21.5 -109.5t-59 -48t-86.5 -11.5zM199 56q15 0 26.5 5t18 17.5t6.5 34.5v358q0 22 -6.5 34.5t-18 17.5t-26.5 5t-26 -5t-17.5 -17.5
t-6.5 -34.5v-358q0 -22 6.5 -34.5t17.5 -17.5t26 -5zM200 636q-22 0 -38 15.5t-16 36.5q0 22 16 37t38 15t38.5 -15t16.5 -37q0 -21 -16.5 -36.5t-38.5 -15.5zM97 775v58h206v-58h-206z" />
    <glyph glyph-name="uni0231" unicode="&#x231;" horiz-adv-x="371" 
d="M186 -8q-50 0 -85.5 12t-53.5 47.5t-18 104.5v210q0 77 39 107.5t118 30.5t117.5 -30.5t38.5 -107.5v-210q0 -69 -17.5 -104t-52.5 -47.5t-86 -12.5zM186 60q22 0 32 12.5t10 45.5v260q0 31 -9.5 44.5t-32.5 13.5q-22 0 -32.5 -13t-10.5 -45v-260q0 -33 10.5 -45.5
t32.5 -12.5zM185 550q-22 0 -38 15.5t-16 36.5q0 22 16 37t38 15t38.5 -15t16.5 -37q0 -21 -16.5 -36.5t-38.5 -15.5zM83 681v58h206v-58h-206z" />
    <glyph glyph-name="uni0232" unicode="&#x232;" horiz-adv-x="361" 
d="M120 0v251l-111 340h116l51 -177l7 -38l7 38l55 177h106l-115 -346v-245h-116zM82 646v58h206v-58h-206z" />
    <glyph glyph-name="uni0233" unicode="&#x233;" horiz-adv-x="349" 
d="M100 -117q-28 0 -54 4.5t-41 8.5v60q6 -2 17.5 -4t24.5 -2t29.5 4t22.5 26q2 9 4.5 19t-0.5 24l-101 472h118l60 -386h1l60 386h108l-96 -452q-17 -85 -54 -122.5t-99 -37.5zM72 560v58h206v-58h-206z" />
    <glyph glyph-name="uni0237" unicode="&#x237;" horiz-adv-x="186" 
d="M-23 -112q-6 1 -19.5 1.5t-17.5 1.5v61q8 -1 20 -0.5t19 0.5q28 2 43 16t15 39v488h114v-455q0 -67 -24.5 -100.5t-64 -44t-85.5 -7.5z" />
    <glyph glyph-name="uni0259" unicode="&#x259;" horiz-adv-x="366" 
d="M178 503q52 0 87.5 -11.5t53.5 -46t18 -104.5v-223q0 -73 -39.5 -100t-117.5 -27t-117 27t-39 100v135h198v135q0 30 -9 42t-34 12q-22 0 -31.5 -11.5t-9.5 -42.5v-79h-114v31q0 70 18 105t52.5 46.5t83.5 11.5zM222 201h-84v-89q0 -29 9.5 -41t32.5 -12q24 0 33 12t9 41
v89z" />
    <glyph glyph-name="uni02B9" unicode="&#x2b9;" horiz-adv-x="108" 
d="M50 405h-50l31 167h77z" />
    <glyph glyph-name="uni02BA" unicode="&#x2ba;" horiz-adv-x="227" 
d="M169 405h-50l31 167h77zM50 405h-50l31 167h77z" />
    <glyph glyph-name="uni02BC" unicode="&#x2bc;" horiz-adv-x="128" 
d="M59 372h-59l36 200h92z" />
    <glyph glyph-name="circumflex" unicode="&#x2c6;" horiz-adv-x="274" 
d="M10 546l95 105h64l95 -105h-75l-51 49l-51 -49h-77z" />
    <glyph glyph-name="caron" unicode="&#x2c7;" horiz-adv-x="283" 
d="M97 546l-94 105h76l52 -49l51 49h75l-95 -105h-65z" />
    <glyph glyph-name="breve" unicode="&#x2d8;" horiz-adv-x="260" 
d="M127 549q-46 0 -70 17t-32.5 40.5t-9.5 42.5h62q2 -23 17 -34t34 -11q21 0 35.5 10.5t16.5 34.5h62q0 -26 -12 -48.5t-36.5 -37t-66.5 -14.5z" />
    <glyph glyph-name="dotaccent" unicode="&#x2d9;" horiz-adv-x="115" 
d="M59 550q-22 0 -38 15.5t-16 36.5q0 22 16 37t38 15t38.5 -15t16.5 -37q0 -21 -16.5 -36.5t-38.5 -15.5z" />
    <glyph glyph-name="ring" unicode="&#x2da;" horiz-adv-x="211" 
d="M105 541q-37 0 -61.5 24t-24.5 57q0 35 24.5 59t61.5 24t62 -24.5t25 -58.5q0 -33 -25.5 -57t-61.5 -24zM105 587q17 0 28 10t11 25q0 18 -11 28t-28 10q-16 0 -27 -10t-11 -28q0 -15 11 -25t27 -10z" />
    <glyph glyph-name="ogonek" unicode="&#x2db;" horiz-adv-x="229" 
d="M89 -143q-36 0 -59 19.5t-23 44.5q0 28 22.5 52t56.5 29l47 -1q-27 -9 -39.5 -28t-12.5 -36q0 -19 12.5 -29t24.5 -10q8 0 13.5 2t8.5 2l13 -30q-5 -3 -19.5 -9t-44.5 -6z" />
    <glyph glyph-name="tilde" unicode="&#x2dc;" horiz-adv-x="258" 
d="M172 551q-15 0 -28 5.5t-27 13.5q-10 7 -21 12t-23 5q-13 0 -20.5 -9.5t-8.5 -25.5h-34q1 39 18.5 63.5t45.5 24.5q16 0 30 -5.5t26 -13.5q11 -6 21.5 -11t21.5 -5q14 0 21.5 9t9.5 23h37q0 -28 -10.5 -47.5t-26.5 -29t-32 -9.5z" />
    <glyph glyph-name="hungarumlaut" unicode="&#x2dd;" horiz-adv-x="213" 
d="M0 548l17 100h89l-61 -100h-45zM94 548l31 100h88l-67 -100h-52z" />
    <glyph glyph-name="gravecomb" unicode="&#x300;" 
d="M102 548l-95 100h103l57 -100h-65z" />
    <glyph glyph-name="acutecomb" unicode="&#x301;" 
d="M0 548l57 100h103l-95 -100h-65z" />
    <glyph glyph-name="uni0302" unicode="&#x302;" 
d="M10 546l95 105h64l95 -105h-75l-51 49l-51 -49h-77z" />
    <glyph glyph-name="tildecomb" unicode="&#x303;" 
d="M172 551q-15 0 -28 5.5t-27 13.5q-10 7 -21 12t-23 5q-13 0 -20.5 -9.5t-8.5 -25.5h-34q1 39 18.5 63.5t45.5 24.5q16 0 30 -5.5t26 -13.5q11 -6 21.5 -11t21.5 -5q14 0 21.5 9t9.5 23h37q0 -28 -10.5 -47.5t-26.5 -29t-32 -9.5z" />
    <glyph glyph-name="uni0304" unicode="&#x304;" 
d="M10 560v58h206v-58h-206z" />
    <glyph glyph-name="uni0306" unicode="&#x306;" 
d="M127 549q-46 0 -70 17t-32.5 40.5t-9.5 42.5h62q2 -23 17 -34t34 -11q21 0 35.5 10.5t16.5 34.5h62q0 -26 -12 -48.5t-36.5 -37t-66.5 -14.5z" />
    <glyph glyph-name="uni0307" unicode="&#x307;" 
d="M59 550q-22 0 -38 15.5t-16 36.5q0 22 16 37t38 15t38.5 -15t16.5 -37q0 -21 -16.5 -36.5t-38.5 -15.5z" />
    <glyph glyph-name="uni0308" unicode="&#x308;" 
d="M48 549q-21 0 -34.5 13t-13.5 33q0 19 13.5 31.5t34.5 12.5q20 0 33 -12.5t13 -31.5q0 -20 -13 -33t-33 -13zM168 549q-20 0 -34 13t-14 33q0 19 14 31.5t34 12.5t33.5 -12.5t13.5 -31.5q0 -20 -13.5 -33t-33.5 -13z" />
    <glyph glyph-name="hookabovecomb" unicode="&#x309;" 
d="M57 549v12q0 15 10.5 22.5t21.5 14t11 18.5v6q0 8 -4 15t-15 7q-16 0 -18 -21l-51 8q3 27 21 41t53 14q39 0 59 -11.5t20 -50.5v-4q0 -22 -12 -30.5t-23.5 -13.5t-11.5 -17v-10h-61z" />
    <glyph glyph-name="uni030A" unicode="&#x30a;" 
d="M105 541q-37 0 -61.5 24t-24.5 57q0 35 24.5 59t61.5 24t62 -24.5t25 -58.5q0 -33 -25.5 -57t-61.5 -24zM105 587q17 0 28 10t11 25q0 18 -11 28t-28 10q-16 0 -27 -10t-11 -28q0 -15 11 -25t27 -10z" />
    <glyph glyph-name="uni030B" unicode="&#x30b;" 
d="M0 548l17 100h89l-61 -100h-45zM94 548l31 100h88l-67 -100h-52z" />
    <glyph glyph-name="uni030C" unicode="&#x30c;" 
d="M97 546l-94 105h76l52 -49l51 49h75l-95 -105h-65z" />
    <glyph glyph-name="uni030F" unicode="&#x30f;" 
d="M213 548h-45l-60 100h89zM119 548h-52l-67 100h89z" />
    <glyph glyph-name="uni0311" unicode="&#x311;" 
d="M115 648q47 0 71 -17t32.5 -40t8.5 -42h-62q-1 22 -16 33.5t-34 11.5q-21 0 -35.5 -11t-16.5 -34h-63q1 26 12.5 48.5t36.5 36.5t66 14z" />
    <glyph glyph-name="uni0312" unicode="&#x312;" 
d="M102 695q-13 -21 -22 -39t-9 -30q0 -7 7 -12.5t13.5 -12.5t6.5 -20q0 -15 -13.5 -26.5t-35.5 -11.5t-36.5 12.5t-14.5 31.5q0 15 9 34.5t22.5 39t26.5 34.5h46z" />
    <glyph glyph-name="uni031B" unicode="&#x31b;" 
d="M11 442l-1 50h17q45 0 45 47v18h75v-17q0 -53 -34 -75.5t-102 -22.5z" />
    <glyph glyph-name="dotbelowcomb" unicode="&#x323;" 
d="M58 -130q-21 0 -34.5 14t-13.5 32q0 20 13.5 33.5t34.5 13.5q19 0 33.5 -13.5t14.5 -33.5q0 -18 -14.5 -32t-33.5 -14z" />
    <glyph glyph-name="uni0324" unicode="&#x324;" 
d="M48 -128q-21 0 -34.5 13t-13.5 33q0 19 13.5 31.5t34.5 12.5q20 0 33 -12.5t13 -31.5q0 -20 -13 -33t-33 -13zM168 -128q-20 0 -34 13t-14 33q0 19 14 31.5t34 12.5t33.5 -12.5t13.5 -31.5q0 -20 -13.5 -33t-33.5 -13z" />
    <glyph glyph-name="uni0326" unicode="&#x326;" 
d="M0 -189q14 21 23 39t9 30q0 7 -7 12t-14 12.5t-7 20.5q0 14 14 26t35 12q23 0 37 -13t14 -31q0 -14 -9 -34t-22 -39.5t-27 -34.5h-46z" />
    <glyph glyph-name="uni0327" unicode="&#x327;" 
d="M59 -161q-19 0 -35.5 7t-23.5 11l14 36q7 -5 19 -9t21 -4q16 0 24 7.5t8 19.5q0 10 -6.5 15.5t-16.5 5.5q-6 0 -11 -2t-9 -5l-32 17l32 62h43l-26 -52l-7 3q7 4 16.5 6.5t21.5 2.5q27 0 42.5 -17t15.5 -37q0 -28 -23.5 -47.5t-66.5 -19.5z" />
    <glyph glyph-name="uni0328" unicode="&#x328;" 
d="M89 -143q-36 0 -59 19.5t-23 44.5q0 28 22.5 52t56.5 29l47 -1q-27 -9 -39.5 -28t-12.5 -36q0 -19 12.5 -29t24.5 -10q8 0 13.5 2t8.5 2l13 -30q-5 -3 -19.5 -9t-44.5 -6z" />
    <glyph glyph-name="uni032E" unicode="&#x32e;" 
d="M112 -136q-46 0 -70 17t-32.5 40.5t-9.5 42.5h62q2 -23 17 -34t34 -11q21 0 35.5 10.5t16.5 34.5h62q0 -26 -12 -48.5t-36.5 -37t-66.5 -14.5z" />
    <glyph glyph-name="uni0331" unicode="&#x331;" 
d="M0 -88v58h206v-58h-206z" />
    <glyph glyph-name="uni0335" unicode="&#x335;" 
d="M0 226v58h206v-58h-206z" />
    <glyph glyph-name="uni0394" unicode="&#x394;" horiz-adv-x="555" 
d="M29 0l192 585h118l187 -585h-497zM164 88h220l-109 359z" />
    <glyph glyph-name="uni03A9" unicode="&#x3a9;" horiz-adv-x="600" 
d="M40 0v85l155 -4l-21 13q-35 27 -60.5 60t-39 73t-13.5 88q0 53 13.5 98t43.5 79.5t79 53.5t120 19q72 0 120 -20t77 -53.5t42 -77.5t13 -92q0 -51 -14 -92.5t-39.5 -74.5t-60.5 -61l-21 -13l156 4v-85h-240v67q31 26 52.5 52t34 54t18 58.5t5.5 64.5q0 55 -14 99.5
t-46 70.5t-84 26t-84 -26t-47 -71t-15 -103q0 -30 5.5 -60t18 -59t34 -55.5t53.5 -50.5v-67h-241z" />
    <glyph glyph-name="uni03BC" unicode="&#x3bc;" horiz-adv-x="385" 
d="M197 18q-16 -5 -27.5 -6t-21.5 0v-57q0 -17 2.5 -35.5t16.5 -36.5h-114q-14 23 -16.5 45.5t-2.5 44.5v522h114v-364q0 -15 2.5 -28t11.5 -21t29 -8q13 0 21.5 4t13.5 10t7 11v396h114v-209.5v-209.5q0 -18 6 -41.5t15 -34.5h-53.5h-53.5q-10 15 -13.5 30t-6.5 30
q-4 -14 -15 -25.5t-29 -16.5z" />
    <glyph glyph-name="pi" unicode="&#x3c0;" horiz-adv-x="600" 
d="M74 0q12 41 23 91.5t20.5 106t15 111t4.5 106.5q-27 0 -51 -5t-49 -15v70q9 5 20 8.5t24 7.5q21 6 51 10t72 4h339v-78h-68v-417h-117v417h-112q0 -52 -5 -109.5t-11.5 -114.5t-15 -107t-16.5 -86h-124z" />
    <glyph glyph-name="uni0400" unicode="&#x400;" horiz-adv-x="334" 
d="M42 0v591h272v-82h-151v-158h128v-91h-128v-180h151v-80h-272zM167 634l-111 91h107l76 -91h-72z" />
    <glyph glyph-name="uni0401" unicode="&#x401;" horiz-adv-x="334" 
d="M42 0v591h272v-82h-151v-158h128v-91h-128v-180h151v-80h-272zM121 634q-21 0 -34.5 13t-13.5 33q0 19 13.5 31.5t34.5 12.5q20 0 33 -12.5t13 -31.5q0 -20 -13 -33t-33 -13zM241 634q-20 0 -34 13t-14 33q0 19 14 31.5t34 12.5t33.5 -12.5t13.5 -31.5q0 -20 -13.5 -33
t-33.5 -13z" />
    <glyph glyph-name="uni0402" unicode="&#x402;" horiz-adv-x="464" 
d="M103 0v509h-94v82h305v-82h-94v-140q9 16 35.5 30.5t64.5 14.5q35 0 60.5 -10.5t40 -36.5t14.5 -72v-133q0 -57 -10.5 -90t-28.5 -48.5t-42.5 -19.5t-53.5 -4q-11 0 -25 3t-22 7v52q5 -1 11 -1.5t11 -0.5q24 0 34.5 17.5t10.5 53.5v155q0 30 -9.5 43.5t-39.5 13.5
q-23 0 -34.5 -9t-16.5 -20v-314h-117z" />
    <glyph glyph-name="uni0403" unicode="&#x403;" horiz-adv-x="321" 
d="M42 0v591h273v-82h-152v-509h-121zM109 634l78 94h105l-119 -94h-64z" />
    <glyph glyph-name="uni0404" unicode="&#x404;" horiz-adv-x="391" 
d="M197 -12q-49 0 -87 11.5t-59.5 48t-21.5 108.5v310q0 52 21.5 81t59.5 41t88 12t86.5 -12t56.5 -41t20 -81v-90h-116v94q0 23 -6 35t-16.5 16t-25.5 4q-14 0 -25 -4.5t-16.5 -16.5t-5.5 -36v-141h133v-78h-133v-135q0 -23 6 -35.5t17 -16.5t24 -4q14 0 24.5 4t17 16.5
t6.5 35.5v79h116v-36q0 -73 -20 -109.5t-57 -48t-87 -11.5z" />
    <glyph glyph-name="uni0405" unicode="&#x405;" horiz-adv-x="391" 
d="M192 -7q-53 0 -90.5 15t-57.5 53t-20 107v35h61h60v-45q0 -37 6 -56.5t17 -27t26 -7.5q23 0 36.5 16.5t13.5 64.5q0 37 -11.5 55.5t-36.5 30t-64 28.5q-35 15 -58 36t-34 53t-11 78q0 58 15.5 94t52 52.5t98.5 16.5q80 0 122.5 -34.5t42.5 -103.5v-71h-57.5h-58.5v36
q0 45 -10.5 63t-37.5 18q-26 0 -37 -16t-11 -52q0 -33 13.5 -51.5t34.5 -28t45 -18.5q44 -17 72 -34.5t41 -48t13 -87.5q0 -64 -21.5 -101.5t-61 -53.5t-92.5 -16z" />
    <glyph glyph-name="uni0406" unicode="&#x406;" horiz-adv-x="200" 
d="M42 0v591h116v-591h-116z" />
    <glyph glyph-name="uni0407" unicode="&#x407;" horiz-adv-x="200" 
d="M42 0v591h116v-591h-116zM41 634q-21 0 -34.5 13t-13.5 33q0 19 13.5 31.5t34.5 12.5q20 0 33 -12.5t13 -31.5q0 -20 -13 -33t-33 -13zM161 634q-20 0 -34 13t-14 33q0 19 14 31.5t34 12.5t33.5 -12.5t13.5 -31.5q0 -20 -13.5 -33t-33.5 -13z" />
    <glyph glyph-name="uni0408" unicode="&#x408;" horiz-adv-x="244" 
d="M54 -1h-23.5t-24.5 1v80h31q30 -1 40.5 10t10.5 42v459h116v-445q0 -57 -14.5 -89.5t-47 -45t-88.5 -12.5z" />
    <glyph glyph-name="uni0409" unicode="&#x409;" horiz-adv-x="647" 
d="M10 0v60q18 0 34.5 22t18.5 54l32 455h319v-591h-116v509h-89l-30 -403q-2 -18 -4 -36.5t-10.5 -34t-27.5 -25t-53 -10.5h-74zM414 60h47q18 0 27 9t12 30t3 60v134q0 23 -2.5 39t-11.5 24.5t-30 8.5h-45v-305zM298 0v590h114v-154h88q32 0 58 -10t41 -35.5t15 -72.5
v-163q0 -50 -9 -81t-26 -46.5t-41 -21.5t-55 -6h-185z" />
    <glyph glyph-name="uni040A" unicode="&#x40a;" horiz-adv-x="604" 
d="M42 0v591h116v-242h98v242h116v-155h88q32 0 58 -10t41 -35.5t15 -72.5v-163q0 -50 -9 -81t-26 -46.5t-41 -21.5t-55 -6h-187v262h-98v-262h-116zM372 61h46q18 0 27.5 8.5t12 29.5t2.5 57v116q0 35 -2.5 55.5t-11.5 29t-29 8.5h-45v-304z" />
    <glyph glyph-name="uni040B" unicode="&#x40b;" horiz-adv-x="455" 
d="M104 0v509h-94v82h304v-82h-94v-110q9 12 33.5 23t55.5 11q47 0 72 -16t33.5 -45.5t8.5 -70.5v-301h-115v300q0 18 -3.5 30t-12.5 19t-27 7q-19 0 -30 -8t-15 -17v-331h-116z" />
    <glyph glyph-name="uni040C" unicode="&#x40c;" horiz-adv-x="427" 
d="M42 0v591h116v-257h38l100 257h125l-120 -284l123 -307h-126l-97 257h-43v-257h-116zM164 634l78 94h105l-119 -94h-64z" />
    <glyph glyph-name="uni040D" unicode="&#x40d;" horiz-adv-x="410" 
d="M42 0v591h102v-359l123 359h102v-591h-103v335l-122 -335h-102zM192 634l-111 91h107l76 -91h-72z" />
    <glyph glyph-name="uni040E" unicode="&#x40e;" horiz-adv-x="360" 
d="M109 -15q-26 0 -51.5 4t-40.5 8v60q7 -2 16.5 -3.5t19.5 -1.5q14 0 29.5 4t19.5 24q2 10 2.5 20.5t-0.5 27.5l-97 463h118l59 -381h1l60 381h109l-96 -447q-18 -86 -51.5 -122.5t-97.5 -36.5zM178 630q-46 0 -70 17t-32.5 40.5t-9.5 42.5h62q2 -23 17 -34t34 -11
q21 0 35.5 10.5t16.5 34.5h62q0 -26 -12 -48.5t-36.5 -37t-66.5 -14.5z" />
    <glyph glyph-name="uni040F" unicode="&#x40f;" horiz-adv-x="416" 
d="M170 -99v99h-128v591h121v-509h90v509h121v-591h-129v-99h-75z" />
    <glyph glyph-name="uni0410" unicode="&#x410;" horiz-adv-x="392" 
d="M8 0l106 591h166l104 -591h-130l-18 109h-86l-17 -109h-125zM152 167h83l-41 321z" />
    <glyph glyph-name="uni0411" unicode="&#x411;" horiz-adv-x="388" 
d="M42 0v591h291v-82h-177v-73h88q33 0 58.5 -10t41 -35.5t15.5 -72.5v-163q0 -50 -9 -81t-26 -46.5t-41 -21.5t-55 -6h-186zM202 60q18 0 27 7t12.5 21t3.5 32v187q0 17 -3.5 30.5t-12.5 20.5t-28 7h-45v-305h46z" />
    <glyph glyph-name="uni0412" unicode="&#x412;" horiz-adv-x="406" 
d="M42 0v591h210q56 0 85.5 -26.5t29.5 -73.5v-67q0 -26 -7.5 -47.5t-22.5 -36.5q-11 -11 -28 -17t-33 -7v-1q17 0 33 -4t30 -16q17 -13 27 -35.5t10 -55.5v-81q0 -48 -16.5 -75t-47 -37.5t-72.5 -10.5h-198zM159 61h54q15 0 24.5 5.5t15 20.5t5.5 44v70q0 40 -13.5 52.5
t-35.5 12.5h-50v-205zM159 339h47q23 0 36.5 16t13.5 56v59q0 31 -11.5 44.5t-29.5 13.5h-56v-189z" />
    <glyph glyph-name="uni0413" unicode="&#x413;" horiz-adv-x="321" 
d="M42 0v591h273v-82h-152v-509h-121z" />
    <glyph glyph-name="uni0414" unicode="&#x414;" horiz-adv-x="587" 
d="M17 -114v188h53q19 2 35 24t20 58q4 37 9 83.5t10 96t8.5 97.5t6.5 89t4 69h304v-517h100v-188h-96v92h-359v-92h-95zM212 74h141v435h-81q-8 -85 -14.5 -170t-13.5 -170q-3 -27 -9.5 -55.5t-22.5 -39.5z" />
    <glyph glyph-name="uni0415" unicode="&#x415;" horiz-adv-x="334" 
d="M42 0v591h272v-82h-151v-158h128v-91h-128v-180h151v-80h-272z" />
    <glyph glyph-name="uni0416" unicode="&#x416;" horiz-adv-x="635" 
d="M8 0l126 307l-122 284h133l87 -252h26v252h117v-252h28l87 252h134l-123 -284l126 -307h-130l-94 275h-28v-275h-117v275h-26l-94 -275h-130z" />
    <glyph glyph-name="uni0417" unicode="&#x417;" horiz-adv-x="380" 
d="M188 -7q-58 0 -96 17.5t-56 50t-18 78.5v68h116v-37q0 -45 12 -69t40 -25q26 0 38.5 21t12.5 54v57q0 33 -22 47t-65 15h-47v64h48q20 0 36 5t27 14q12 10 17 21.5t5 24.5v41q0 29 -11 50t-39 21q-29 0 -39.5 -24t-10.5 -66v-24h-117v55q0 70 41.5 106t127.5 36
q90 0 129.5 -33t39.5 -99v-45q0 -51 -25.5 -82t-74.5 -37q49 -3 75 -34t26 -82v-43q0 -50 -17 -82.5t-54.5 -48t-98.5 -15.5z" />
    <glyph glyph-name="uni0418" unicode="&#x418;" horiz-adv-x="410" 
d="M42 0v591h102v-359l123 359h102v-591h-103v335l-122 -335h-102z" />
    <glyph glyph-name="uni0419" unicode="&#x419;" horiz-adv-x="410" 
d="M42 0v591h102v-359l123 359h102v-591h-103v335l-122 -335h-102zM204 630q-46 0 -70 17t-32.5 40.5t-9.5 42.5h62q2 -23 17 -34t34 -11q21 0 35.5 10.5t16.5 34.5h62q0 -26 -12 -48.5t-36.5 -37t-66.5 -14.5z" />
    <glyph glyph-name="uni041A" unicode="&#x41a;" horiz-adv-x="427" 
d="M42 0v591h116v-257h38l100 257h125l-120 -284l123 -307h-126l-97 257h-43v-257h-116z" />
    <glyph glyph-name="uni041B" unicode="&#x41b;" horiz-adv-x="447" 
d="M10 0v60q18 0 34.5 22t18.5 54l32 455h319v-591h-116v509h-89l-30 -403q-2 -18 -4 -36.5t-10.5 -34t-27.5 -25t-53 -10.5h-74z" />
    <glyph glyph-name="uni041C" unicode="&#x41c;" horiz-adv-x="536" 
d="M42 0v591h145l81 -382l82 382h144v-591h-102v442l-85 -442h-79l-84 442v-442h-102z" />
    <glyph glyph-name="uni041D" unicode="&#x41d;" horiz-adv-x="413" 
d="M42 0v591h116v-242h97v242h116v-591h-116v263h-97v-263h-116z" />
    <glyph glyph-name="uni041E" unicode="&#x41e;" horiz-adv-x="401" 
d="M199 -12q-49 0 -86 11.5t-57.5 48t-20.5 108.5v310q0 53 20.5 82t58 40.5t86.5 11.5q48 0 85.5 -12t59 -41t21.5 -81v-309q0 -73 -21.5 -109.5t-59 -48t-86.5 -11.5zM199 56q15 0 26.5 5t18 17.5t6.5 34.5v358q0 22 -6.5 34.5t-18 17.5t-26.5 5t-26 -5t-17.5 -17.5
t-6.5 -34.5v-358q0 -22 6.5 -34.5t17.5 -17.5t26 -5z" />
    <glyph glyph-name="uni041F" unicode="&#x41f;" horiz-adv-x="415" 
d="M42 0v591h331v-591h-121v509h-89v-509h-121z" />
    <glyph glyph-name="uni0420" unicode="&#x420;" horiz-adv-x="393" 
d="M42 0v591h210q59 0 89.5 -26.5t30.5 -73.5v-102q0 -40 -10 -74.5t-36 -55.5t-75 -21h-88v-238h-121zM163 302h45q24 0 36 23t12 76v40q0 47 -10 67t-29 20h-54v-226z" />
    <glyph glyph-name="uni0421" unicode="&#x421;" horiz-adv-x="397" 
d="M202 -12q-49 0 -86.5 11.5t-59 48t-21.5 108.5v310q0 53 21.5 82t59.5 40.5t87 11.5q50 0 86.5 -12t56.5 -41t20 -81v-122h-116v127q0 24 -6 36.5t-16.5 16.5t-24.5 4t-25 -4t-17 -16.5t-6 -36.5v-358q0 -23 6 -35.5t17 -17t25 -4.5t24.5 4.5t16.5 17t6 35.5v117h116v-73
q0 -73 -20 -109.5t-56.5 -48t-87.5 -11.5z" />
    <glyph glyph-name="uni0422" unicode="&#x422;" horiz-adv-x="318" 
d="M101 0v509h-92v82h300v-82h-92v-509h-116z" />
    <glyph glyph-name="uni0423" unicode="&#x423;" horiz-adv-x="360" 
d="M109 -15q-26 0 -51.5 4t-40.5 8v60q7 -2 16.5 -3.5t19.5 -1.5q14 0 29.5 4t19.5 24q2 10 2.5 20.5t-0.5 27.5l-97 463h118l59 -381h1l60 381h109l-96 -447q-18 -86 -51.5 -122.5t-97.5 -36.5z" />
    <glyph glyph-name="uni0424" unicode="&#x424;" horiz-adv-x="527" 
d="M206 -27v98h-34q-71 0 -108.5 29t-37.5 100v199q0 54 31 83.5t99 29.5h50v79h115v-79h49q68 0 99.5 -29t31.5 -85v-197q0 -74 -38.5 -102t-109.5 -28h-32v-98h-115zM191 131h15v158.5v156.5h-15q-24 0 -36.5 -13.5t-12.5 -45.5v-196q0 -32 12.5 -46t36.5 -14zM321 131h13
q25 0 38 13t13 47v195q0 34 -13 47t-38 13h-13v-156.5v-158.5z" />
    <glyph glyph-name="uni0425" unicode="&#x425;" horiz-adv-x="366" 
d="M10 0l87 304l-82 287h116l52 -197l51 197h122l-84 -287l82 -304h-116l-54 197l-51 -197h-123z" />
    <glyph glyph-name="uni0426" unicode="&#x426;" horiz-adv-x="469" 
d="M345 -91v91h-303v591h121v-509h93v509h121v-538h61v-144h-93z" />
    <glyph glyph-name="uni0427" unicode="&#x427;" horiz-adv-x="392" 
d="M234 0v162q-10 -9 -35 -18.5t-53 -9.5q-48 0 -73 16t-33.5 45.5t-8.5 71.5v324h114v-324q0 -27 9.5 -41t34.5 -14q19 0 30 5t15 9v365h116v-591h-116z" />
    <glyph glyph-name="uni0428" unicode="&#x428;" horiz-adv-x="631" 
d="M42 0v591h121v-509h92v509h121v-509h92v509h121v-591h-547z" />
    <glyph glyph-name="uni0429" unicode="&#x429;" horiz-adv-x="681" 
d="M557 -91v91h-515v591h121v-509h92v509h121v-509h92v509h121v-538h60v-144h-92z" />
    <glyph glyph-name="uni042A" unicode="&#x42a;" horiz-adv-x="412" 
d="M62 0v509h-55v82h170v-155h88q32 0 58 -10t41 -35.5t15 -72.5v-163q0 -50 -9 -81t-26 -46.5t-41 -21.5t-55 -6h-186zM177 60h46q18 0 27 9t12 30t3 60v134q0 23 -2.5 39t-11.5 24.5t-29 8.5h-45v-305z" />
    <glyph glyph-name="uni042B" unicode="&#x42b;" horiz-adv-x="567" 
d="M42 0v590h114v-154h88q33 0 58.5 -10t41 -35.5t15.5 -72.5v-163q0 -50 -9 -81t-26 -46.5t-41 -21.5t-55 -6h-186zM156 60h46q19 0 28 9t12 30t3 60v134q0 23 -2.5 39t-12 24.5t-29.5 8.5h-45v-305zM418 0v591h116v-591h-116z" />
    <glyph glyph-name="uni042C" unicode="&#x42c;" horiz-adv-x="392" 
d="M42 0v590h114v-154h88q33 0 58.5 -10t41 -35.5t15.5 -72.5v-163q0 -50 -9 -81t-26 -46.5t-41 -21.5t-55 -6h-186zM156 60h46q19 0 28 9t12 30t3 60v134q0 23 -2.5 39t-12 24.5t-29.5 8.5h-45v-305z" />
    <glyph glyph-name="uni042D" unicode="&#x42d;" horiz-adv-x="394" 
d="M193 -12q-49 0 -86.5 11.5t-57.5 48t-20 109.5v36h117v-79q0 -23 6 -35.5t17 -16.5t24 -4q15 0 25.5 4t16 16.5t5.5 35.5v135h-133v78h133v141q0 24 -5.5 36t-16 16.5t-25.5 4.5q-13 0 -24 -4t-17 -16t-6 -35v-94h-117v90q0 52 20 81t57 41t87 12t87.5 -12t59 -41
t21.5 -81v-310q0 -72 -21 -108.5t-59 -48t-88 -11.5z" />
    <glyph glyph-name="uni042E" unicode="&#x42e;" horiz-adv-x="596" 
d="M399 -12q-49 0 -87 11.5t-59.5 48t-21.5 109.5v106h-82v-263h-116v591h116v-242h82v117q0 52 21.5 81.5t59.5 41t87 11.5q51 0 87.5 -12t56.5 -41t20 -81v-309q0 -73 -20 -109.5t-57 -48t-87 -11.5zM399 56q14 0 24.5 4.5t17 16.5t6.5 35v360q0 24 -6.5 36t-17 16
t-24.5 4q-13 0 -24 -4t-17 -16t-6 -36v-360q0 -23 6 -35t17 -16.5t24 -4.5z" />
    <glyph glyph-name="uni042F" unicode="&#x42f;" horiz-adv-x="420" 
d="M378 0h-121v253h-34q-15 0 -22 -16.5t-13 -40.5l-43 -196h-129l56 204q10 39 24.5 56.5t48.5 22.5v0q-53 5 -77.5 37t-24.5 79v92q0 47 30 73.5t89 26.5h216v-591zM257 334v194h-55q-24 0 -34.5 -13t-10.5 -45v-71q0 -34 12 -49.5t39 -15.5h49z" />
    <glyph glyph-name="uni0430" unicode="&#x430;" horiz-adv-x="370" 
d="M126 -8q-26 0 -48.5 7t-37 29.5t-14.5 66.5v66q0 47 27.5 76.5t86.5 50.5q31 13 49 23t26 24.5t8 39.5v27q0 16 -5 24.5t-14.5 12.5t-21.5 4q-26 0 -34 -17.5t-8 -58.5v-42h-103v53q0 37 10.5 65.5t41.5 45t93 16.5q63 0 97 -11.5t47 -36t13 -66.5v-391h-114v55
q-8 -29 -36.5 -46t-62.5 -17zM175 67q27 0 37.5 20.5t10.5 57.5v127q-6 -10 -20 -17.5t-28 -16.5q-19 -13 -29 -26.5t-10 -37.5v-51q0 -21 5 -33.5t14 -17.5t20 -5z" />
    <glyph glyph-name="uni0431" unicode="&#x431;" horiz-adv-x="375" 
d="M183 -7q-46 0 -80.5 10.5t-53.5 38t-19 76.5l-1 353q0 51 9.5 85t33.5 51t67 17q20 0 49 3t57 7t48 9t22 9v-46q0 -17 -17.5 -31t-58.5 -15h-12q-36 0 -53.5 -8t-23.5 -25t-7 -41v-45q9 16 29 30.5t59 14.5q33 0 58.5 -10.5t41 -36t15.5 -72.5v-219q0 -50 -9.5 -80.5
t-29 -46.5t-50.5 -22t-74 -6zM188 60q19 0 28 7.5t12.5 21t3.5 31.5v236q0 18 -3 31t-12.5 20t-28.5 7q-15 0 -24 -4t-14 -12t-6 -17t-1 -19v-242q0 -18 3.5 -31.5t13 -21t28.5 -7.5z" />
    <glyph glyph-name="uni0432" unicode="&#x432;" horiz-adv-x="405" 
d="M33 0v495h207q59 0 89.5 -26t30.5 -75v-34q0 -44 -23.5 -72t-68.5 -32v0q44 0 74 -26.5t30 -84.5v-21q0 -49 -17.5 -76t-48.5 -37.5t-75 -10.5h-198zM154 58h47q14 0 24 4.5t15.5 17.5t5.5 37v46q0 19 -5.5 29.5t-16.5 15.5t-26 5h-44v-155zM154 288h44q23 0 34.5 14
t11.5 45v43q0 20 -10.5 31t-29.5 11h-50v-144z" />
    <glyph glyph-name="uni0433" unicode="&#x433;" horiz-adv-x="296" 
d="M33 0v495h249v-82h-128v-413h-121z" />
    <glyph glyph-name="uni0434" unicode="&#x434;" horiz-adv-x="539" 
d="M18 -114v181h36q11 2 25 11.5t25.5 30t15.5 54.5l36 332h285v-428h79v-181h-95v92h-312v-92h-95zM202 67h118v346h-60l-28 -244q-4 -29 -10 -60t-20 -42z" />
    <glyph glyph-name="uni0435" unicode="&#x435;" horiz-adv-x="366" 
d="M188 -8q-52 0 -87.5 11.5t-53.5 46t-18 104.5v223q0 73 39 100t118 27q78 0 117 -27t39 -100v-135h-199v-135q0 -30 9.5 -42t34.5 -12q23 0 31.5 11.5t8.5 42.5v79h115v-31q0 -70 -18 -105t-52.5 -46.5t-83.5 -11.5zM143 294h84v89q0 29 -8.5 41t-32.5 12t-33.5 -12
t-9.5 -41v-89z" />
    <glyph glyph-name="uni0436" unicode="&#x436;" horiz-adv-x="618" 
d="M17 0l107 263l-109 232h114l87 -206h36v206h114v-206h35l87 206h115l-109 -232l107 -263h-126l-78 221h-31v-221h-114v221h-31l-78 -221h-126z" />
    <glyph glyph-name="uni0437" unicode="&#x437;" horiz-adv-x="394" 
d="M187 1q-74 0 -109.5 31t-35.5 91v57h101v-30q0 -39 11 -58t37 -19q25 0 38 16t13 44v50q0 28 -20 38.5t-58 10.5h-57v55h49q17 0 34.5 4t25.5 11q11 8 18 17.5t7 28.5v42q0 22 -13.5 36.5t-34.5 14.5q-27 0 -38 -20t-11 -52v-30h-101v46q0 58 35.5 88t110.5 30
q86 0 123.5 -27.5t37.5 -84.5v-37q0 -39 -23 -66t-72 -32q46 -3 71.5 -27t25.5 -68v-37q0 -66 -39 -94.5t-126 -28.5z" />
    <glyph glyph-name="uni0438" unicode="&#x438;" horiz-adv-x="379" 
d="M33 0v495h100v-290l114 290h100v-495h-100v317q-31 -80 -61 -158.5t-61 -158.5h-92z" />
    <glyph glyph-name="uni0439" unicode="&#x439;" horiz-adv-x="379" 
d="M33 0v495h100v-290l114 290h100v-495h-100v317q-31 -80 -61 -158.5t-61 -158.5h-92zM188 545q-46 0 -70 17t-32.5 40.5t-9.5 42.5h62q2 -23 17 -34t34 -11q21 0 35.5 10.5t16.5 34.5h62q0 -26 -12 -48.5t-36.5 -37t-66.5 -14.5z" />
    <glyph glyph-name="uni043A" unicode="&#x43a;" horiz-adv-x="400" 
d="M33 0v495h114v-172q27 53 64.5 91.5t80.5 58t84 15.5v-75q-24 -5 -43 -17.5t-33 -27.5q-9 -10 -17 -20.5t-15 -22.5l106 -325h-131l-75 199q-6 -9 -11.5 -20.5t-9.5 -18.5v-160h-114z" />
    <glyph glyph-name="uni043B" unicode="&#x43b;" horiz-adv-x="435" 
d="M13 0v60q19 0 35 22t18 54l31 359h306v-495h-117v414h-73l-31 -308q-2 -16 -4 -34.5t-11 -34.5t-27.5 -26.5t-53.5 -10.5h-73z" />
    <glyph glyph-name="uni043C" unicode="&#x43c;" horiz-adv-x="502" 
d="M33 0v495h141l78 -352l78 352h140v-495h-93v347l-86 -347h-78l-87 347v-347h-93z" />
    <glyph glyph-name="uni043D" unicode="&#x43d;" horiz-adv-x="382" 
d="M33 0v495h114v-195h90v195h112v-495h-112v214h-90v-214h-114z" />
    <glyph glyph-name="uni043E" unicode="&#x43e;" horiz-adv-x="371" 
d="M186 -8q-50 0 -85.5 12t-53.5 47.5t-18 104.5v210q0 77 39 107.5t118 30.5t117.5 -30.5t38.5 -107.5v-210q0 -69 -17.5 -104t-52.5 -47.5t-86 -12.5zM186 60q22 0 32 12.5t10 45.5v260q0 31 -9.5 44.5t-32.5 13.5q-22 0 -32.5 -13t-10.5 -45v-260q0 -33 10.5 -45.5
t32.5 -12.5z" />
    <glyph glyph-name="uni043F" unicode="&#x43f;" horiz-adv-x="383" 
d="M33 0v495h317v-495h-114v413h-89v-413h-114z" />
    <glyph glyph-name="uni0440" unicode="&#x440;" horiz-adv-x="380" 
d="M37 -116v611h113v-39q10 17 28 32t59 15q35 0 60 -11.5t39 -37t14 -69.5v-240q0 -55 -12 -88.5t-37 -48t-64 -14.5q-35 0 -55.5 12.5t-30.5 28.5v-151h-114zM194 58q15 0 23 4.5t12.5 12.5t5.5 18.5t1 23.5v256q0 13 -1 24t-5.5 19t-12.5 12t-23 4q-14 0 -22.5 -4.5
t-13 -12t-6 -16.5t-1.5 -16v-269q0 -17 3.5 -30t12.5 -19.5t27 -6.5z" />
    <glyph glyph-name="uni0441" unicode="&#x441;" horiz-adv-x="366" 
d="M187 -8q-51 0 -86.5 11t-53.5 45.5t-18 103.5v218q0 76 39 105t118 29q78 0 117 -27.5t39 -99.5v-73h-115v79q0 29 -8.5 41.5t-32.5 12.5t-33.5 -12.5t-9.5 -41.5v-268q0 -31 9.5 -43.5t34.5 -12.5q23 0 31.5 12t8.5 44v85h115v-48q0 -68 -18 -103t-52.5 -46t-84.5 -11z
" />
    <glyph glyph-name="uni0442" unicode="&#x442;" horiz-adv-x="324" 
d="M104 0v413h-94v82h305v-82h-95v-413h-116z" />
    <glyph glyph-name="uni0443" unicode="&#x443;" horiz-adv-x="349" 
d="M100 -117q-28 0 -54 4.5t-41 8.5v60q6 -2 17.5 -4t24.5 -2t29.5 4t22.5 26q2 9 4.5 19t-0.5 24l-101 472h118l60 -386h1l60 386h108l-96 -452q-17 -85 -54 -122.5t-99 -37.5z" />
    <glyph glyph-name="uni0444" unicode="&#x444;" horiz-adv-x="589" 
d="M239 -115v125q-15 -7 -34.5 -12t-46.5 -5q-76 0 -102.5 37.5t-26.5 105.5v196q0 42 11 72t39 46t81 16q29 0 49.5 -6t29.5 -16v147h113v-146q7 10 28.5 15.5t47.5 5.5q53 0 82 -16t39.5 -46t10.5 -72v-196q0 -68 -26.5 -105.5t-102.5 -37.5q-26 0 -45 5t-34 13v-126h-113
zM187 53q18 0 29.5 7.5t17 20t5.5 25.5v229q0 23 -3.5 38.5t-15 24t-32.5 8.5t-30 -8t-11.5 -24.5t-2.5 -42.5v-217q0 -19 3.5 -32.5t13 -21t26.5 -7.5zM406 53q17 0 26 7.5t12.5 21t3.5 32.5v217q0 25 -2.5 41t-11.5 25t-29 9t-31.5 -8t-16.5 -22.5t-5 -36.5v-226
q0 -16 5.5 -30t17.5 -22t31 -8z" />
    <glyph glyph-name="uni0445" unicode="&#x445;" horiz-adv-x="345" 
d="M1 0l99 257l-82 238h109l49 -152l58 152h105l-91 -238l91 -257h-109l-55 162l-62 -162h-112z" />
    <glyph glyph-name="uni0446" unicode="&#x446;" horiz-adv-x="439" 
d="M325 -89v89h-292v495h114v-413h88v413h114v-442h67v-142h-91z" />
    <glyph glyph-name="uni0447" unicode="&#x447;" horiz-adv-x="367" 
d="M228 0v167q-7 -30 -33 -48t-60 -18q-46 0 -70 15.5t-32 45t-8 71.5v262h114v-262q0 -27 8.5 -41t31.5 -14q17 0 27 8t14 16v293h114v-495h-106z" />
    <glyph glyph-name="uni0448" unicode="&#x448;" horiz-adv-x="560" 
d="M33 0v495h114v-413h76v413h114v-413h76v413h114v-495h-494z" />
    <glyph glyph-name="uni0449" unicode="&#x449;" horiz-adv-x="616" 
d="M502 -89v89h-469v495h114v-413h76v413h114v-413h76v413h114v-442h67v-142h-92z" />
    <glyph glyph-name="uni044A" unicode="&#x44a;" horiz-adv-x="419" 
d="M69 0v427h-56v68h170v-155h88q33 0 58.5 -10t41 -35.5t15.5 -72.5v-67q0 -50 -9 -81t-26 -46.5t-41 -21.5t-56 -6h-185zM183 60h46q19 0 28 7t12 21t3 32v84q0 21 -2.5 35.5t-11.5 22t-30 7.5h-45v-209z" />
    <glyph glyph-name="uni044B" unicode="&#x44b;" horiz-adv-x="568" 
d="M31 0v494h114v-154h88q34 0 59.5 -10.5t40 -36t14.5 -71.5v-60q0 -50 -8.5 -82t-24.5 -49t-40.5 -24t-57.5 -7h-185zM145 60h45q19 0 28 7t12 21t3 32v84q0 21 -2.5 35.5t-11.5 22t-29 7.5h-45v-209zM417 0v495h114v-495h-114z" />
    <glyph glyph-name="uni044C" unicode="&#x44c;" horiz-adv-x="380" 
d="M31 0v494h114v-154h88q34 0 59.5 -10.5t40 -36t14.5 -71.5v-60q0 -50 -8.5 -82t-24.5 -49t-40.5 -24t-57.5 -7h-185zM145 60h45q19 0 28 7t12 21t3 32v84q0 21 -2.5 35.5t-11.5 22t-29 7.5h-45v-209z" />
    <glyph glyph-name="uni044D" unicode="&#x44d;" horiz-adv-x="382" 
d="M192 -10q-56 0 -91 13.5t-51.5 49.5t-16.5 102v19h114v-65q0 -18 3 -31.5t13 -20.5t29 -7q20 0 29 7.5t12 21t3 30.5v113h-144v73h144v88q0 18 -3 31.5t-12 21t-29 7.5q-19 0 -29 -7.5t-13 -20.5t-3 -32v-41h-114v29q0 46 16 75t51 43t92 14q43 0 72.5 -8t48.5 -24.5
t28 -41t9 -57.5v-218q0 -49 -9.5 -81t-28.5 -50t-48.5 -25.5t-71.5 -7.5z" />
    <glyph glyph-name="uni044E" unicode="&#x44e;" horiz-adv-x="590" 
d="M402 -10q-54 0 -89 14t-51 49.5t-16 99.5v220q0 44 15.5 72.5t50 43t90.5 14.5t90.5 -14.5t50.5 -43t16 -72.5v-219q0 -65 -16.5 -100.5t-51.5 -49.5t-89 -14zM33 0v495h114v-195h137v-86h-137v-214h-114zM402 50q18 0 27.5 7t12 20.5t2.5 30.5v277q0 17 -2.5 30
t-12 20.5t-27.5 7.5t-27 -7.5t-12 -20.5t-3 -30v-277q0 -17 3 -30.5t12 -20.5t27 -7z" />
    <glyph glyph-name="uni044F" unicode="&#x44f;" horiz-adv-x="407" 
d="M19 0l58 163q13 34 28.5 48t35.5 16q-46 4 -68.5 29t-22.5 81v35q0 62 30.5 92.5t89.5 30.5h204v-495h-121v215l-32 -18q-14 -22 -24.5 -50t-20.5 -62l-27 -85h-130zM215 260h38v172h-50q-18 0 -27.5 -20.5t-9.5 -47.5v-21q0 -48 13 -65.5t36 -17.5z" />
    <glyph glyph-name="uni0450" unicode="&#x450;" horiz-adv-x="366" 
d="M188 -8q-52 0 -87.5 11.5t-53.5 46t-18 104.5v223q0 73 39 100t118 27q78 0 117 -27t39 -100v-135h-199v-135q0 -30 9.5 -42t34.5 -12q23 0 31.5 11.5t8.5 42.5v79h115v-31q0 -70 -18 -105t-52.5 -46.5t-83.5 -11.5zM143 294h84v89q0 29 -8.5 41t-32.5 12t-33.5 -12
t-9.5 -41v-89zM167 548l-95 100h103l57 -100h-65z" />
    <glyph glyph-name="uni0451" unicode="&#x451;" horiz-adv-x="366" 
d="M188 -8q-52 0 -87.5 11.5t-53.5 46t-18 104.5v223q0 73 39 100t118 27q78 0 117 -27t39 -100v-135h-199v-135q0 -30 9.5 -42t34.5 -12q23 0 31.5 11.5t8.5 42.5v79h115v-31q0 -70 -18 -105t-52.5 -46.5t-83.5 -11.5zM143 294h84v89q0 29 -8.5 41t-32.5 12t-33.5 -12
t-9.5 -41v-89zM124 549q-21 0 -34.5 13t-13.5 33q0 19 13.5 31.5t34.5 12.5q20 0 33 -12.5t13 -31.5q0 -20 -13 -33t-33 -13zM244 549q-20 0 -34 13t-14 33q0 19 14 31.5t34 12.5t33.5 -12.5t13.5 -31.5q0 -20 -13.5 -33t-33.5 -13z" />
    <glyph glyph-name="uni0452" unicode="&#x452;" horiz-adv-x="429" 
d="M289 -92q-24 0 -41 4t-28 9l4 53q4 -3 9.5 -4.5t12.5 -1.5q21 0 29.5 16.5t8.5 49.5v260q-1 24 -10.5 37.5t-33.5 13.5q-16 0 -24.5 -5.5t-12.5 -15t-5.5 -18.5t-2.5 -17v-289h-116v494h-69v61h69v75h116v-75h90v-61h-90v-126q10 19 30.5 33t57.5 14q33 0 59 -10
t41 -35.5t15 -72.5v-234q0 -47 -8 -77t-22.5 -47.5t-34 -24t-44.5 -6.5z" />
    <glyph glyph-name="uni0453" unicode="&#x453;" horiz-adv-x="296" 
d="M33 0v495h249v-82h-128v-413h-121zM105 548l57 100h103l-95 -100h-65z" />
    <glyph glyph-name="uni0454" unicode="&#x454;" horiz-adv-x="382" 
d="M191 -10q-42 0 -72 7.5t-49 25.5t-28 50t-9 81v218q0 33 8.5 57.5t27.5 41t49 24.5t73 8q57 0 92 -14t51 -43t16 -75v-29h-114v41q0 19 -3.5 32t-12.5 20.5t-29 7.5t-29.5 -7.5t-12 -21t-2.5 -31.5v-88h144v-73h-144v-113q0 -17 2.5 -30.5t12 -21t29.5 -7.5t29 7
t12.5 20.5t3.5 31.5v65h114v-19q0 -66 -16.5 -102t-51.5 -49.5t-91 -13.5z" />
    <glyph glyph-name="uni0455" unicode="&#x455;" horiz-adv-x="369" 
d="M182 -7q-62 0 -96.5 15.5t-48 48.5t-13.5 83v38h114v-64q0 -32 9 -45.5t34 -13.5q22 0 31.5 12.5t9.5 37.5v38q0 24 -9 38t-28 23.5t-48 21.5q-27 11 -50 25t-37.5 37t-14.5 59v29q0 62 34 94.5t123 32.5q59 0 92 -15t46.5 -46.5t13.5 -79.5v-37h-110v56q0 33 -9.5 46.5
t-31.5 13.5q-25 0 -33.5 -13t-8.5 -32v-37q0 -25 13.5 -39.5t35.5 -23t47 -18.5q26 -9 48 -22.5t35.5 -35.5t13.5 -59v-30q0 -45 -14.5 -76t-50 -46.5t-97.5 -15.5z" />
    <glyph glyph-name="uni0456" unicode="&#x456;" horiz-adv-x="189" 
d="M37 0v495h114v-495h-114zM94 550q-22 0 -38 15.5t-16 36.5q0 22 16 37t38 15t38.5 -15t16.5 -37q0 -21 -16.5 -36.5t-38.5 -15.5z" />
    <glyph glyph-name="uni0457" unicode="&#x457;" horiz-adv-x="189" 
d="M37 0v495h114v-495h-114zM35 549q-21 0 -34.5 13t-13.5 33q0 19 13.5 31.5t34.5 12.5q20 0 33 -12.5t13 -31.5q0 -20 -13 -33t-33 -13zM155 549q-20 0 -34 13t-14 33q0 19 14 31.5t34 12.5t33.5 -12.5t13.5 -31.5q0 -20 -13.5 -33t-33.5 -13z" />
    <glyph glyph-name="uni0458" unicode="&#x458;" horiz-adv-x="186" 
d="M-23 -112q-6 1 -19.5 1.5t-17.5 1.5v61q8 -1 20 -0.5t19 0.5q28 2 43 16t15 39v488h114v-455q0 -67 -24.5 -100.5t-64 -44t-85.5 -7.5zM93 550q-22 0 -38 15.5t-16 36.5q0 22 16 37t38 15t38.5 -15t16.5 -37q0 -21 -16.5 -36.5t-38.5 -15.5z" />
    <glyph glyph-name="uni0459" unicode="&#x459;" horiz-adv-x="638" 
d="M13 0v60q19 0 35 22t18 54l31 359h306v-155h87q35 0 60.5 -10.5t40 -36t14.5 -71.5v-60q0 -50 -8.5 -82t-25 -49t-40.5 -24t-57 -7h-188v414h-73l-31 -308q-2 -16 -4 -34.5t-11 -34.5t-27.5 -26.5t-53.5 -10.5h-73zM403 60h45q19 0 28 7t12 21t3 32v84q0 21 -2.5 35.5
t-11.5 22t-30 7.5h-44v-209z" />
    <glyph glyph-name="uni045A" unicode="&#x45a;" horiz-adv-x="585" 
d="M33 0v495h114v-195h90v195h112v-155h88q34 0 60 -10.5t40.5 -36t14.5 -71.5v-60q0 -50 -8.5 -82t-25 -49t-41 -24t-56.5 -7h-184v214h-90v-214h-114zM349 60h46q19 0 28 7t12 21t3 32v84q0 21 -2.5 35.5t-11.5 22t-30 7.5h-45v-209z" />
    <glyph glyph-name="uni045B" unicode="&#x45b;" horiz-adv-x="433" 
d="M81 0v494h-59v61h59v75h116v-75h122v-61h-122v-123q10 19 30.5 33t58.5 14q32 0 58 -10t41 -35.5t15 -73.5v-299h-114v289q0 18 -3 31t-12.5 20.5t-27.5 7.5q-16 0 -25 -6t-12.5 -15t-5 -18.5t-3.5 -17.5v-291h-116z" />
    <glyph glyph-name="uni045C" unicode="&#x45c;" horiz-adv-x="400" 
d="M33 0v495h114v-172q27 53 64.5 91.5t80.5 58t84 15.5v-75q-24 -5 -43 -17.5t-33 -27.5q-9 -10 -17 -20.5t-15 -22.5l106 -325h-131l-75 199q-6 -9 -11.5 -20.5t-9.5 -18.5v-160h-114zM157 548l57 100h103l-95 -100h-65z" />
    <glyph glyph-name="uni045D" unicode="&#x45d;" horiz-adv-x="379" 
d="M33 0v495h100v-290l114 290h100v-495h-100v317q-31 -80 -61 -158.5t-61 -158.5h-92zM173 548l-95 100h103l57 -100h-65z" />
    <glyph glyph-name="uni045E" unicode="&#x45e;" horiz-adv-x="349" 
d="M100 -117q-28 0 -54 4.5t-41 8.5v60q6 -2 17.5 -4t24.5 -2t29.5 4t22.5 26q2 9 4.5 19t-0.5 24l-101 472h118l60 -386h1l60 386h108l-96 -452q-17 -85 -54 -122.5t-99 -37.5zM173 545q-46 0 -70 17t-32.5 40.5t-9.5 42.5h62q2 -23 17 -34t34 -11q21 0 35.5 10.5
t16.5 34.5h62q0 -26 -12 -48.5t-36.5 -37t-66.5 -14.5z" />
    <glyph glyph-name="uni045F" unicode="&#x45f;" horiz-adv-x="383" 
d="M149 -103v103h-116v495h114v-413h89v413h114v-495h-118v-103h-83z" />
    <glyph glyph-name="uni0462" unicode="&#x462;" horiz-adv-x="435" 
d="M85 0v590h114v-154h88q32 0 58 -10t41.5 -35.5t15.5 -72.5v-163q0 -50 -9 -81t-26 -46.5t-41 -21.5t-56 -6h-185zM199 60h46q19 0 28 9t12 30t3 60v134q0 23 -2.5 39t-12 24.5t-29.5 8.5h-45v-305zM16 493v57h311v-57h-311z" />
    <glyph glyph-name="uni0463" unicode="&#x463;" horiz-adv-x="418" 
d="M69 0v494h114v-154h88q34 0 59.5 -10.5t40.5 -36t15 -71.5v-60q0 -50 -8.5 -82t-25 -49t-41 -24t-56.5 -7h-186zM183 60h46q19 0 28 7t12 21t3 32v84q0 21 -2.5 35.5t-11.5 22t-30 7.5h-45v-209zM7 386v53h282v-53h-282z" />
    <glyph glyph-name="uni046A" unicode="&#x46a;" horiz-adv-x="660" 
d="M29 0l58 244q5 24 16 43.5t28.5 32t42.5 13.5l57 1l-208 178v79h609v-79l-207 -177l61 -3q25 -1 42 -13t28 -31.5t17 -43.5l58 -244h-129l-44 224q-5 23 -12.5 44t-21.5 34h-34v-302h-121v302h-34q-14 -11 -21.5 -31.5t-11.5 -42.5l-45 -228h-128zM328 374l170 138h-341z
" />
    <glyph glyph-name="uni046B" unicode="&#x46b;" horiz-adv-x="660" 
d="M27 0l49 205q11 31 28.5 51.5t41.5 21.5l51 2l-174 149v66h510v-66l-174 -149l54 -2q18 -1 30.5 -10t22.5 -25.5t18 -37.5l48 -205h-108l-37 188q-3 11 -8.5 22t-15.5 15l-32 29v-254h-102l-1 253l-30 -21q-11 -5 -16 -17t-8 -24l-39 -191h-108zM278 313l142 116h-285z
" />
    <glyph glyph-name="Wgrave" unicode="&#x1e80;" horiz-adv-x="598" 
d="M103 0l-90 591h120l56 -441l62 441h96l61 -441l57 441h119l-89 -591h-135l-61 343l-60 -343h-136zM285 634l-111 91h107l76 -91h-72z" />
    <glyph glyph-name="wgrave" unicode="&#x1e81;" horiz-adv-x="585" 
d="M109 0l-104 495h109l62 -358l61 358h110l69 -358l55 358h108l-102 -495h-131l-54 276l-52 -276h-131zM276 548l-95 100h103l57 -100h-65z" />
    <glyph glyph-name="Wacute" unicode="&#x1e82;" horiz-adv-x="598" 
d="M103 0l-90 591h120l56 -441l62 441h96l61 -441l57 441h119l-89 -591h-135l-61 343l-60 -343h-136zM240 634l78 94h105l-119 -94h-64z" />
    <glyph glyph-name="wacute" unicode="&#x1e83;" horiz-adv-x="585" 
d="M109 0l-104 495h109l62 -358l61 358h110l69 -358l55 358h108l-102 -495h-131l-54 276l-52 -276h-131zM249 548l57 100h103l-95 -100h-65z" />
    <glyph glyph-name="Wdieresis" unicode="&#x1e84;" horiz-adv-x="598" 
d="M103 0l-90 591h120l56 -441l62 441h96l61 -441l57 441h119l-89 -591h-135l-61 343l-60 -343h-136zM240 634q-21 0 -34.5 13t-13.5 33q0 19 13.5 31.5t34.5 12.5q20 0 33 -12.5t13 -31.5q0 -20 -13 -33t-33 -13zM360 634q-20 0 -34 13t-14 33q0 19 14 31.5t34 12.5
t33.5 -12.5t13.5 -31.5q0 -20 -13.5 -33t-33.5 -13z" />
    <glyph glyph-name="wdieresis" unicode="&#x1e85;" horiz-adv-x="585" 
d="M109 0l-104 495h109l62 -358l61 358h110l69 -358l55 358h108l-102 -495h-131l-54 276l-52 -276h-131zM233 549q-21 0 -34.5 13t-13.5 33q0 19 13.5 31.5t34.5 12.5q20 0 33 -12.5t13 -31.5q0 -20 -13 -33t-33 -13zM353 549q-20 0 -34 13t-14 33q0 19 14 31.5t34 12.5
t33.5 -12.5t13.5 -31.5q0 -20 -13.5 -33t-33.5 -13z" />
    <glyph glyph-name="uni1E9E" unicode="&#x1e9e;" horiz-adv-x="451" 
d="M62 -36v580q0 20 11.5 31t48.5 15.5t111 4.5q86 0 131.5 -21.5t45.5 -76.5v-59q0 -42 -23 -68t-52 -28v-4q22 -2 42.5 -13t34.5 -31t14 -50v-123q0 -52 -21 -78t-58 -34.5t-87 -8.5h-55v59h39q22 0 34 8t17 31t5 69v72q0 22 -6 36.5t-19.5 22t-38.5 7.5h-27l1 60h43
q28 0 36 19.5t8 53.5v24q0 41 -11.5 59t-49.5 18q-27 0 -40 -1.5t-16.5 -7.5t-3.5 -17l1 -549h-115z" />
    <glyph glyph-name="uni1EA0" unicode="&#x1ea0;" horiz-adv-x="392" 
d="M8 0l106 591h166l104 -591h-130l-18 109h-86l-17 -109h-125zM152 167h83l-41 321zM196 -130q-21 0 -34.5 14t-13.5 32q0 20 13.5 33.5t34.5 13.5q19 0 33.5 -13.5t14.5 -33.5q0 -18 -14.5 -32t-33.5 -14z" />
    <glyph glyph-name="uni1EA1" unicode="&#x1ea1;" horiz-adv-x="370" 
d="M126 -8q-26 0 -48.5 7t-37 29.5t-14.5 66.5v66q0 47 27.5 76.5t86.5 50.5q31 13 49 23t26 24.5t8 39.5v27q0 16 -5 24.5t-14.5 12.5t-21.5 4q-26 0 -34 -17.5t-8 -58.5v-42h-103v53q0 37 10.5 65.5t41.5 45t93 16.5q63 0 97 -11.5t47 -36t13 -66.5v-391h-114v55
q-8 -29 -36.5 -46t-62.5 -17zM175 67q27 0 37.5 20.5t10.5 57.5v127q-6 -10 -20 -17.5t-28 -16.5q-19 -13 -29 -26.5t-10 -37.5v-51q0 -21 5 -33.5t14 -17.5t20 -5zM185 -130q-21 0 -34.5 14t-13.5 32q0 20 13.5 33.5t34.5 13.5q19 0 33.5 -13.5t14.5 -33.5q0 -18 -14.5 -32
t-33.5 -14z" />
    <glyph glyph-name="uni1EA2" unicode="&#x1ea2;" horiz-adv-x="392" 
d="M8 0l106 591h166l104 -591h-130l-18 109h-86l-17 -109h-125zM152 167h83l-41 321zM163 628v12q0 15 10.5 22.5t21.5 14t11 18.5v6q0 8 -4 15t-15 7q-16 0 -18 -21l-51 8q3 27 21 41t53 14q39 0 59 -11.5t20 -50.5v-4q0 -22 -12 -30.5t-23.5 -13.5t-11.5 -17v-10h-61z" />
    <glyph glyph-name="uni1EA3" unicode="&#x1ea3;" horiz-adv-x="370" 
d="M126 -8q-26 0 -48.5 7t-37 29.5t-14.5 66.5v66q0 47 27.5 76.5t86.5 50.5q31 13 49 23t26 24.5t8 39.5v27q0 16 -5 24.5t-14.5 12.5t-21.5 4q-26 0 -34 -17.5t-8 -58.5v-42h-103v53q0 37 10.5 65.5t41.5 45t93 16.5q63 0 97 -11.5t47 -36t13 -66.5v-391h-114v55
q-8 -29 -36.5 -46t-62.5 -17zM175 67q27 0 37.5 20.5t10.5 57.5v127q-6 -10 -20 -17.5t-28 -16.5q-19 -13 -29 -26.5t-10 -37.5v-51q0 -21 5 -33.5t14 -17.5t20 -5zM158 549v12q0 15 10.5 22.5t21.5 14t11 18.5v6q0 8 -4 15t-15 7q-16 0 -18 -21l-51 8q3 27 21 41t53 14
q39 0 59 -11.5t20 -50.5v-4q0 -22 -12 -30.5t-23.5 -13.5t-11.5 -17v-10h-61z" />
    <glyph glyph-name="uni1EA4" unicode="&#x1ea4;" horiz-adv-x="392" 
d="M8 0l106 591h166l104 -591h-130l-18 109h-86l-17 -109h-125zM152 167h83l-41 321zM96 626l70 82h60l70 -82h-65l-34 35l-34 -35h-67zM295 681l41 75h100l-76 -75h-65z" />
    <glyph glyph-name="uni1EA5" unicode="&#x1ea5;" horiz-adv-x="370" 
d="M126 -8q-26 0 -48.5 7t-37 29.5t-14.5 66.5v66q0 47 27.5 76.5t86.5 50.5q31 13 49 23t26 24.5t8 39.5v27q0 16 -5 24.5t-14.5 12.5t-21.5 4q-26 0 -34 -17.5t-8 -58.5v-42h-103v53q0 37 10.5 65.5t41.5 45t93 16.5q63 0 97 -11.5t47 -36t13 -66.5v-391h-114v55
q-8 -29 -36.5 -46t-62.5 -17zM175 67q27 0 37.5 20.5t10.5 57.5v127q-6 -10 -20 -17.5t-28 -16.5q-19 -13 -29 -26.5t-10 -37.5v-51q0 -21 5 -33.5t14 -17.5t20 -5zM62 546l95 105h64l95 -105h-75l-51 49l-51 -49h-77zM318 602l57 100h103l-95 -100h-65z" />
    <glyph glyph-name="uni1EA6" unicode="&#x1ea6;" horiz-adv-x="392" 
d="M8 0l106 591h166l104 -591h-130l-18 109h-86l-17 -109h-125zM152 167h83l-41 321zM96 626l70 82h60l70 -82h-65l-34 35l-34 -35h-67zM321 680l-76 75h100l41 -75h-65z" />
    <glyph glyph-name="uni1EA7" unicode="&#x1ea7;" horiz-adv-x="370" 
d="M126 -8q-26 0 -48.5 7t-37 29.5t-14.5 66.5v66q0 47 27.5 76.5t86.5 50.5q31 13 49 23t26 24.5t8 39.5v27q0 16 -5 24.5t-14.5 12.5t-21.5 4q-26 0 -34 -17.5t-8 -58.5v-42h-103v53q0 37 10.5 65.5t41.5 45t93 16.5q63 0 97 -11.5t47 -36t13 -66.5v-391h-114v55
q-8 -29 -36.5 -46t-62.5 -17zM175 67q27 0 37.5 20.5t10.5 57.5v127q-6 -10 -20 -17.5t-28 -16.5q-19 -13 -29 -26.5t-10 -37.5v-51q0 -21 5 -33.5t14 -17.5t20 -5zM62 546l95 105h64l95 -105h-75l-51 49l-51 -49h-77zM344 602l-95 100h103l57 -100h-65z" />
    <glyph glyph-name="uni1EA8" unicode="&#x1ea8;" horiz-adv-x="392" 
d="M8 0l106 591h166l104 -591h-130l-18 109h-86l-17 -109h-125zM152 167h83l-41 321zM96 626l70 82h60l70 -82h-65l-34 35l-34 -35h-67zM299 676v6q0 11 8 16.5t16 10t8 11.5v5q0 8 -3 11t-8 3q-9 0 -11 -14l-45 7q1 22 15.5 33.5t45.5 11.5q36 0 50.5 -9t14.5 -40v-3
q0 -16 -8 -22t-16 -9.5t-8 -11.5v-6h-59z" />
    <glyph glyph-name="uni1EA9" unicode="&#x1ea9;" horiz-adv-x="370" 
d="M126 -8q-26 0 -48.5 7t-37 29.5t-14.5 66.5v66q0 47 27.5 76.5t86.5 50.5q31 13 49 23t26 24.5t8 39.5v27q0 16 -5 24.5t-14.5 12.5t-21.5 4q-26 0 -34 -17.5t-8 -58.5v-42h-103v53q0 37 10.5 65.5t41.5 45t93 16.5q63 0 97 -11.5t47 -36t13 -66.5v-391h-114v55
q-8 -29 -36.5 -46t-62.5 -17zM175 67q27 0 37.5 20.5t10.5 57.5v127q-6 -10 -20 -17.5t-28 -16.5q-19 -13 -29 -26.5t-10 -37.5v-51q0 -21 5 -33.5t14 -17.5t20 -5zM62 546l95 105h64l95 -105h-75l-51 49l-51 -49h-77zM329 603v12q0 15 10.5 22.5t21.5 14t11 18.5v6
q0 8 -4 15t-15 7q-16 0 -18 -21l-51 8q3 27 21 41t53 14q39 0 59 -11.5t20 -50.5v-4q0 -22 -12 -30.5t-23.5 -13.5t-11.5 -17v-10h-61z" />
    <glyph glyph-name="uni1EAA" unicode="&#x1eaa;" horiz-adv-x="392" 
d="M8 0l106 591h166l104 -591h-130l-18 109h-86l-17 -109h-125zM152 167h83l-41 321zM96 626l70 82h60l70 -82h-65l-34 35l-34 -35h-67zM232 726q-12 0 -22.5 4.5t-20.5 9.5q-9 5 -17.5 8t-16.5 3t-13.5 -7t-5.5 -17h-30q0 34 14 54t37 20q11 0 22 -3t21 -9q8 -4 16 -7.5
t16 -3.5q12 0 16.5 6.5t5.5 14.5h34q0 -24 -9.5 -40.5t-22 -24.5t-24.5 -8z" />
    <glyph glyph-name="uni1EAB" unicode="&#x1eab;" horiz-adv-x="370" 
d="M126 -8q-26 0 -48.5 7t-37 29.5t-14.5 66.5v66q0 47 27.5 76.5t86.5 50.5q31 13 49 23t26 24.5t8 39.5v27q0 16 -5 24.5t-14.5 12.5t-21.5 4q-26 0 -34 -17.5t-8 -58.5v-42h-103v53q0 37 10.5 65.5t41.5 45t93 16.5q63 0 97 -11.5t47 -36t13 -66.5v-391h-114v55
q-8 -29 -36.5 -46t-62.5 -17zM175 67q27 0 37.5 20.5t10.5 57.5v127q-6 -10 -20 -17.5t-28 -16.5q-19 -13 -29 -26.5t-10 -37.5v-51q0 -21 5 -33.5t14 -17.5t20 -5zM62 546l95 105h64l95 -105h-75l-51 49l-51 -49h-77zM236 675q-15 0 -28 5.5t-27 13.5q-10 7 -21 12t-23 5
q-13 0 -20.5 -9.5t-8.5 -25.5h-34q1 39 18.5 63.5t45.5 24.5q16 0 30 -5.5t26 -13.5q11 -6 21.5 -11t21.5 -5q14 0 21.5 9t9.5 23h37q0 -28 -10.5 -47.5t-26.5 -29t-32 -9.5z" />
    <glyph glyph-name="uni1EAC" unicode="&#x1eac;" horiz-adv-x="392" 
d="M8 0l106 591h166l104 -591h-130l-18 109h-86l-17 -109h-125zM152 167h83l-41 321zM196 -130q-21 0 -34.5 14t-13.5 32q0 20 13.5 33.5t34.5 13.5q19 0 33.5 -13.5t14.5 -33.5q0 -18 -14.5 -32t-33.5 -14zM68 631l96 100h64l97 -100h-79l-49 43l-49 -43h-80z" />
    <glyph glyph-name="uni1EAD" unicode="&#x1ead;" horiz-adv-x="370" 
d="M126 -8q-26 0 -48.5 7t-37 29.5t-14.5 66.5v66q0 47 27.5 76.5t86.5 50.5q31 13 49 23t26 24.5t8 39.5v27q0 16 -5 24.5t-14.5 12.5t-21.5 4q-26 0 -34 -17.5t-8 -58.5v-42h-103v53q0 37 10.5 65.5t41.5 45t93 16.5q63 0 97 -11.5t47 -36t13 -66.5v-391h-114v55
q-8 -29 -36.5 -46t-62.5 -17zM175 67q27 0 37.5 20.5t10.5 57.5v127q-6 -10 -20 -17.5t-28 -16.5q-19 -13 -29 -26.5t-10 -37.5v-51q0 -21 5 -33.5t14 -17.5t20 -5zM185 -130q-21 0 -34.5 14t-13.5 32q0 20 13.5 33.5t34.5 13.5q19 0 33.5 -13.5t14.5 -33.5q0 -18 -14.5 -32
t-33.5 -14zM62 546l95 105h64l95 -105h-75l-51 49l-51 -49h-77z" />
    <glyph glyph-name="uni1EAE" unicode="&#x1eae;" horiz-adv-x="392" 
d="M8 0l106 591h166l104 -591h-130l-18 109h-86l-17 -109h-125zM152 167h83l-41 321zM195 625q-38 0 -56.5 13.5t-24.5 31.5t-7 33h61q0 -12 8.5 -18t19.5 -6q10 0 19 5.5t9 18.5h61q0 -33 -20.5 -55.5t-69.5 -22.5zM154 721l40 75h100l-76 -75h-64z" />
    <glyph glyph-name="uni1EAF" unicode="&#x1eaf;" horiz-adv-x="370" 
d="M126 -8q-26 0 -48.5 7t-37 29.5t-14.5 66.5v66q0 47 27.5 76.5t86.5 50.5q31 13 49 23t26 24.5t8 39.5v27q0 16 -5 24.5t-14.5 12.5t-21.5 4q-26 0 -34 -17.5t-8 -58.5v-42h-103v53q0 37 10.5 65.5t41.5 45t93 16.5q63 0 97 -11.5t47 -36t13 -66.5v-391h-114v55
q-8 -29 -36.5 -46t-62.5 -17zM175 67q27 0 37.5 20.5t10.5 57.5v127q-6 -10 -20 -17.5t-28 -16.5q-19 -13 -29 -26.5t-10 -37.5v-51q0 -21 5 -33.5t14 -17.5t20 -5zM187 545q-46 0 -70 17t-32.5 40.5t-9.5 42.5h62q2 -23 17 -34t34 -11q21 0 35.5 10.5t16.5 34.5h62
q0 -26 -12 -48.5t-36.5 -37t-66.5 -14.5zM146 666l57 100h103l-95 -100h-65z" />
    <glyph glyph-name="uni1EB0" unicode="&#x1eb0;" horiz-adv-x="392" 
d="M8 0l106 591h166l104 -591h-130l-18 109h-86l-17 -109h-125zM152 167h83l-41 321zM195 625q-38 0 -56.5 13.5t-24.5 31.5t-6 33h60q0 -13 9.5 -18.5t18.5 -5.5q11 0 19.5 5.5t9.5 18.5h60q1 -33 -20.5 -55.5t-69.5 -22.5zM181 721l-76 75h100l41 -75h-65z" />
    <glyph glyph-name="uni1EB1" unicode="&#x1eb1;" horiz-adv-x="370" 
d="M126 -8q-26 0 -48.5 7t-37 29.5t-14.5 66.5v66q0 47 27.5 76.5t86.5 50.5q31 13 49 23t26 24.5t8 39.5v27q0 16 -5 24.5t-14.5 12.5t-21.5 4q-26 0 -34 -17.5t-8 -58.5v-42h-103v53q0 37 10.5 65.5t41.5 45t93 16.5q63 0 97 -11.5t47 -36t13 -66.5v-391h-114v55
q-8 -29 -36.5 -46t-62.5 -17zM175 67q27 0 37.5 20.5t10.5 57.5v127q-6 -10 -20 -17.5t-28 -16.5q-19 -13 -29 -26.5t-10 -37.5v-51q0 -21 5 -33.5t14 -17.5t20 -5zM187 545q-46 0 -70 17t-32.5 40.5t-9.5 42.5h62q2 -23 17 -34t34 -11q21 0 35.5 10.5t16.5 34.5h62
q0 -26 -12 -48.5t-36.5 -37t-66.5 -14.5zM173 666l-95 100h103l57 -100h-65z" />
    <glyph glyph-name="uni1EB2" unicode="&#x1eb2;" horiz-adv-x="392" 
d="M8 0l106 591h166l104 -591h-130l-18 109h-86l-17 -109h-125zM152 167h83l-41 321zM195 625q-38 0 -56.5 13.5t-24.5 31.5t-7 33h61q0 -12 8.5 -18t19.5 -6q10 0 19 5.5t9 18.5h61q0 -33 -20.5 -55.5t-69.5 -22.5zM165 721v6q0 11 8 16.5t16 10t8 12.5v4q0 8 -2.5 11
t-8.5 3q-4 0 -7.5 -3.5t-3.5 -9.5l-46 6q2 22 16 34t45 12q37 0 51.5 -9.5t14.5 -40.5v-3q0 -16 -7.5 -22t-15.5 -9.5t-8 -11.5v-6h-60z" />
    <glyph glyph-name="uni1EB3" unicode="&#x1eb3;" horiz-adv-x="370" 
d="M126 -8q-26 0 -48.5 7t-37 29.5t-14.5 66.5v66q0 47 27.5 76.5t86.5 50.5q31 13 49 23t26 24.5t8 39.5v27q0 16 -5 24.5t-14.5 12.5t-21.5 4q-26 0 -34 -17.5t-8 -58.5v-42h-103v53q0 37 10.5 65.5t41.5 45t93 16.5q63 0 97 -11.5t47 -36t13 -66.5v-391h-114v55
q-8 -29 -36.5 -46t-62.5 -17zM175 67q27 0 37.5 20.5t10.5 57.5v127q-6 -10 -20 -17.5t-28 -16.5q-19 -13 -29 -26.5t-10 -37.5v-51q0 -21 5 -33.5t14 -17.5t20 -5zM187 545q-46 0 -70 17t-32.5 40.5t-9.5 42.5h62q2 -23 17 -34t34 -11q21 0 35.5 10.5t16.5 34.5h62
q0 -26 -12 -48.5t-36.5 -37t-66.5 -14.5zM157 667v12q0 15 10.5 22.5t21.5 14t11 18.5v6q0 8 -4 15t-15 7q-16 0 -18 -21l-51 8q3 27 21 41t53 14q39 0 59 -11.5t20 -50.5v-4q0 -22 -12 -30.5t-23.5 -13.5t-11.5 -17v-10h-61z" />
    <glyph glyph-name="uni1EB4" unicode="&#x1eb4;" horiz-adv-x="392" 
d="M8 0l106 591h166l104 -591h-130l-18 109h-86l-17 -109h-125zM152 167h83l-41 321zM194 625q-38 0 -56.5 13.5t-24.5 31.5t-7 33h61q1 -12 9.5 -18t18.5 -6q11 0 19.5 5.5t9.5 18.5h60q1 -33 -20.5 -55.5t-69.5 -22.5zM231 719q-12 0 -22.5 4.5t-22.5 11.5l-15 7.5
t-17 3.5q-9 0 -14 -8t-5 -18h-30q0 33 14 54.5t36 21.5q12 0 23 -3.5t20 -8.5q10 -5 17.5 -8.5t16.5 -3.5q10 0 14.5 6t5.5 16h34q0 -25 -9 -42t-21.5 -25t-24.5 -8z" />
    <glyph glyph-name="uni1EB5" unicode="&#x1eb5;" horiz-adv-x="370" 
d="M126 -8q-26 0 -48.5 7t-37 29.5t-14.5 66.5v66q0 47 27.5 76.5t86.5 50.5q31 13 49 23t26 24.5t8 39.5v27q0 16 -5 24.5t-14.5 12.5t-21.5 4q-26 0 -34 -17.5t-8 -58.5v-42h-103v53q0 37 10.5 65.5t41.5 45t93 16.5q63 0 97 -11.5t47 -36t13 -66.5v-391h-114v55
q-8 -29 -36.5 -46t-62.5 -17zM175 67q27 0 37.5 20.5t10.5 57.5v127q-6 -10 -20 -17.5t-28 -16.5q-19 -13 -29 -26.5t-10 -37.5v-51q0 -21 5 -33.5t14 -17.5t20 -5zM187 545q-46 0 -70 17t-32.5 40.5t-9.5 42.5h62q2 -23 17 -34t34 -11q21 0 35.5 10.5t16.5 34.5h62
q0 -26 -12 -48.5t-36.5 -37t-66.5 -14.5zM235 669q-15 0 -28 5.5t-27 13.5q-10 7 -21 12t-23 5q-13 0 -20.5 -9.5t-8.5 -25.5h-34q1 39 18.5 63.5t45.5 24.5q16 0 30 -5.5t26 -13.5q11 -6 21.5 -11t21.5 -5q14 0 21.5 9t9.5 23h37q0 -28 -10.5 -47.5t-26.5 -29t-32 -9.5z
" />
    <glyph glyph-name="uni1EB6" unicode="&#x1eb6;" horiz-adv-x="392" 
d="M8 0l106 591h166l104 -591h-130l-18 109h-86l-17 -109h-125zM152 167h83l-41 321zM196 -130q-21 0 -34.5 14t-13.5 32q0 20 13.5 33.5t34.5 13.5q19 0 33.5 -13.5t14.5 -33.5q0 -18 -14.5 -32t-33.5 -14zM194 630q-46 0 -70 17t-32.5 40.5t-9.5 42.5h62q2 -23 17 -34
t34 -11q21 0 35.5 10.5t16.5 34.5h62q0 -26 -12 -48.5t-36.5 -37t-66.5 -14.5z" />
    <glyph glyph-name="uni1EB7" unicode="&#x1eb7;" horiz-adv-x="370" 
d="M126 -8q-26 0 -48.5 7t-37 29.5t-14.5 66.5v66q0 47 27.5 76.5t86.5 50.5q31 13 49 23t26 24.5t8 39.5v27q0 16 -5 24.5t-14.5 12.5t-21.5 4q-26 0 -34 -17.5t-8 -58.5v-42h-103v53q0 37 10.5 65.5t41.5 45t93 16.5q63 0 97 -11.5t47 -36t13 -66.5v-391h-114v55
q-8 -29 -36.5 -46t-62.5 -17zM175 67q27 0 37.5 20.5t10.5 57.5v127q-6 -10 -20 -17.5t-28 -16.5q-19 -13 -29 -26.5t-10 -37.5v-51q0 -21 5 -33.5t14 -17.5t20 -5zM185 -130q-21 0 -34.5 14t-13.5 32q0 20 13.5 33.5t34.5 13.5q19 0 33.5 -13.5t14.5 -33.5q0 -18 -14.5 -32
t-33.5 -14zM187 545q-46 0 -70 17t-32.5 40.5t-9.5 42.5h62q2 -23 17 -34t34 -11q21 0 35.5 10.5t16.5 34.5h62q0 -26 -12 -48.5t-36.5 -37t-66.5 -14.5z" />
    <glyph glyph-name="uni1EB8" unicode="&#x1eb8;" horiz-adv-x="334" 
d="M42 0v591h272v-82h-151v-158h128v-91h-128v-180h151v-80h-272zM176 -130q-21 0 -34.5 14t-13.5 32q0 20 13.5 33.5t34.5 13.5q19 0 33.5 -13.5t14.5 -33.5q0 -18 -14.5 -32t-33.5 -14z" />
    <glyph glyph-name="uni1EB9" unicode="&#x1eb9;" horiz-adv-x="366" 
d="M188 -8q-52 0 -87.5 11.5t-53.5 46t-18 104.5v223q0 73 39 100t118 27q78 0 117 -27t39 -100v-135h-199v-135q0 -30 9.5 -42t34.5 -12q23 0 31.5 11.5t8.5 42.5v79h115v-31q0 -70 -18 -105t-52.5 -46.5t-83.5 -11.5zM143 294h84v89q0 29 -8.5 41t-32.5 12t-33.5 -12
t-9.5 -41v-89zM183 -130q-21 0 -34.5 14t-13.5 32q0 20 13.5 33.5t34.5 13.5q19 0 33.5 -13.5t14.5 -33.5q0 -18 -14.5 -32t-33.5 -14z" />
    <glyph glyph-name="uni1EBA" unicode="&#x1eba;" horiz-adv-x="334" 
d="M42 0v591h272v-82h-151v-158h128v-91h-128v-180h151v-80h-272zM145 628v12q0 15 10.5 22.5t21.5 14t11 18.5v6q0 8 -4 15t-15 7q-16 0 -18 -21l-51 8q3 27 21 41t53 14q39 0 59 -11.5t20 -50.5v-4q0 -22 -12 -30.5t-23.5 -13.5t-11.5 -17v-10h-61z" />
    <glyph glyph-name="uni1EBB" unicode="&#x1ebb;" horiz-adv-x="366" 
d="M188 -8q-52 0 -87.5 11.5t-53.5 46t-18 104.5v223q0 73 39 100t118 27q78 0 117 -27t39 -100v-135h-199v-135q0 -30 9.5 -42t34.5 -12q23 0 31.5 11.5t8.5 42.5v79h115v-31q0 -70 -18 -105t-52.5 -46.5t-83.5 -11.5zM143 294h84v89q0 29 -8.5 41t-32.5 12t-33.5 -12
t-9.5 -41v-89zM151 549v12q0 15 10.5 22.5t21.5 14t11 18.5v6q0 8 -4 15t-15 7q-16 0 -18 -21l-51 8q3 27 21 41t53 14q39 0 59 -11.5t20 -50.5v-4q0 -22 -12 -30.5t-23.5 -13.5t-11.5 -17v-10h-61z" />
    <glyph glyph-name="uni1EBC" unicode="&#x1ebc;" horiz-adv-x="334" 
d="M42 0v591h272v-82h-151v-158h128v-91h-128v-180h151v-80h-272zM220 637q-15 0 -28 5.5t-27 13.5q-10 7 -21 12t-23 5q-13 0 -20.5 -9.5t-8.5 -25.5h-34q1 39 18.5 63.5t45.5 24.5q16 0 30 -5.5t26 -13.5q11 -6 21.5 -11t21.5 -5q14 0 21.5 9t9.5 23h37q0 -28 -10.5 -47.5
t-26.5 -29t-32 -9.5z" />
    <glyph glyph-name="uni1EBD" unicode="&#x1ebd;" horiz-adv-x="366" 
d="M188 -8q-52 0 -87.5 11.5t-53.5 46t-18 104.5v223q0 73 39 100t118 27q78 0 117 -27t39 -100v-135h-199v-135q0 -30 9.5 -42t34.5 -12q23 0 31.5 11.5t8.5 42.5v79h115v-31q0 -70 -18 -105t-52.5 -46.5t-83.5 -11.5zM143 294h84v89q0 29 -8.5 41t-32.5 12t-33.5 -12
t-9.5 -41v-89zM229 551q-15 0 -28 5.5t-27 13.5q-10 7 -21 12t-23 5q-13 0 -20.5 -9.5t-8.5 -25.5h-34q1 39 18.5 63.5t45.5 24.5q16 0 30 -5.5t26 -13.5q11 -6 21.5 -11t21.5 -5q14 0 21.5 9t9.5 23h37q0 -28 -10.5 -47.5t-26.5 -29t-32 -9.5z" />
    <glyph glyph-name="uni1EBE" unicode="&#x1ebe;" horiz-adv-x="334" 
d="M42 0v591h272v-82h-151v-158h128v-91h-128v-180h151v-80h-272zM77 626l70 82h60l70 -82h-65l-34 35l-34 -35h-67zM276 681l41 75h100l-76 -75h-65z" />
    <glyph glyph-name="uni1EBF" unicode="&#x1ebf;" horiz-adv-x="366" 
d="M188 -8q-52 0 -87.5 11.5t-53.5 46t-18 104.5v223q0 73 39 100t118 27q78 0 117 -27t39 -100v-135h-199v-135q0 -30 9.5 -42t34.5 -12q23 0 31.5 11.5t8.5 42.5v79h115v-31q0 -70 -18 -105t-52.5 -46.5t-83.5 -11.5zM143 294h84v89q0 29 -8.5 41t-32.5 12t-33.5 -12
t-9.5 -41v-89zM56 546l95 105h64l95 -105h-75l-51 49l-51 -49h-77zM311 602l57 100h103l-95 -100h-65z" />
    <glyph glyph-name="uni1EC0" unicode="&#x1ec0;" horiz-adv-x="334" 
d="M42 0v591h272v-82h-151v-158h128v-91h-128v-180h151v-80h-272zM77 626l70 82h60l70 -82h-65l-34 35l-34 -35h-67zM302 680l-76 75h100l41 -75h-65z" />
    <glyph glyph-name="uni1EC1" unicode="&#x1ec1;" horiz-adv-x="366" 
d="M188 -8q-52 0 -87.5 11.5t-53.5 46t-18 104.5v223q0 73 39 100t118 27q78 0 117 -27t39 -100v-135h-199v-135q0 -30 9.5 -42t34.5 -12q23 0 31.5 11.5t8.5 42.5v79h115v-31q0 -70 -18 -105t-52.5 -46.5t-83.5 -11.5zM143 294h84v89q0 29 -8.5 41t-32.5 12t-33.5 -12
t-9.5 -41v-89zM56 546l95 105h64l95 -105h-75l-51 49l-51 -49h-77zM338 602l-95 100h103l57 -100h-65z" />
    <glyph glyph-name="uni1EC2" unicode="&#x1ec2;" horiz-adv-x="334" 
d="M42 0v591h272v-82h-151v-158h128v-91h-128v-180h151v-80h-272zM77 626l70 82h60l70 -82h-65l-34 35l-34 -35h-67zM280 676v6q0 11 8 16.5t16 10t8 11.5v5q0 8 -3 11t-8 3q-9 0 -11 -14l-45 7q1 22 15.5 33.5t45.5 11.5q36 0 50.5 -9t14.5 -40v-3q0 -16 -8 -22t-16 -9.5
t-8 -11.5v-6h-59z" />
    <glyph glyph-name="uni1EC3" unicode="&#x1ec3;" horiz-adv-x="366" 
d="M188 -8q-52 0 -87.5 11.5t-53.5 46t-18 104.5v223q0 73 39 100t118 27q78 0 117 -27t39 -100v-135h-199v-135q0 -30 9.5 -42t34.5 -12q23 0 31.5 11.5t8.5 42.5v79h115v-31q0 -70 -18 -105t-52.5 -46.5t-83.5 -11.5zM143 294h84v89q0 29 -8.5 41t-32.5 12t-33.5 -12
t-9.5 -41v-89zM56 546l95 105h64l95 -105h-75l-51 49l-51 -49h-77zM323 603v12q0 15 10.5 22.5t21.5 14t11 18.5v6q0 8 -4 15t-15 7q-16 0 -18 -21l-51 8q3 27 21 41t53 14q39 0 59 -11.5t20 -50.5v-4q0 -22 -12 -30.5t-23.5 -13.5t-11.5 -17v-10h-61z" />
    <glyph glyph-name="uni1EC4" unicode="&#x1ec4;" horiz-adv-x="334" 
d="M42 0v591h272v-82h-151v-158h128v-91h-128v-180h151v-80h-272zM77 626l70 82h60l70 -82h-65l-34 35l-34 -35h-67zM213 726q-12 0 -22.5 4.5t-20.5 9.5q-9 5 -17.5 8t-16.5 3t-13.5 -7t-5.5 -17h-30q0 34 14 54t37 20q11 0 22 -3t21 -9q8 -4 16 -7.5t16 -3.5
q12 0 16.5 6.5t5.5 14.5h34q0 -24 -9.5 -40.5t-22 -24.5t-24.5 -8z" />
    <glyph glyph-name="uni1EC5" unicode="&#x1ec5;" horiz-adv-x="366" 
d="M188 -8q-52 0 -87.5 11.5t-53.5 46t-18 104.5v223q0 73 39 100t118 27q78 0 117 -27t39 -100v-135h-199v-135q0 -30 9.5 -42t34.5 -12q23 0 31.5 11.5t8.5 42.5v79h115v-31q0 -70 -18 -105t-52.5 -46.5t-83.5 -11.5zM143 294h84v89q0 29 -8.5 41t-32.5 12t-33.5 -12
t-9.5 -41v-89zM56 546l95 105h64l95 -105h-75l-51 49l-51 -49h-77zM229 675q-15 0 -28 5.5t-27 13.5q-10 7 -21 12t-23 5q-13 0 -20.5 -9.5t-8.5 -25.5h-34q1 39 18.5 63.5t45.5 24.5q16 0 30 -5.5t26 -13.5q11 -6 21.5 -11t21.5 -5q14 0 21.5 9t9.5 23h37
q0 -28 -10.5 -47.5t-26.5 -29t-32 -9.5z" />
    <glyph glyph-name="uni1EC6" unicode="&#x1ec6;" horiz-adv-x="334" 
d="M42 0v591h272v-82h-151v-158h128v-91h-128v-180h151v-80h-272zM176 -130q-21 0 -34.5 14t-13.5 32q0 20 13.5 33.5t34.5 13.5q19 0 33.5 -13.5t14.5 -33.5q0 -18 -14.5 -32t-33.5 -14zM49 631l96 100h64l97 -100h-79l-49 43l-49 -43h-80z" />
    <glyph glyph-name="uni1EC7" unicode="&#x1ec7;" horiz-adv-x="366" 
d="M188 -8q-52 0 -87.5 11.5t-53.5 46t-18 104.5v223q0 73 39 100t118 27q78 0 117 -27t39 -100v-135h-199v-135q0 -30 9.5 -42t34.5 -12q23 0 31.5 11.5t8.5 42.5v79h115v-31q0 -70 -18 -105t-52.5 -46.5t-83.5 -11.5zM143 294h84v89q0 29 -8.5 41t-32.5 12t-33.5 -12
t-9.5 -41v-89zM183 -130q-21 0 -34.5 14t-13.5 32q0 20 13.5 33.5t34.5 13.5q19 0 33.5 -13.5t14.5 -33.5q0 -18 -14.5 -32t-33.5 -14zM56 546l95 105h64l95 -105h-75l-51 49l-51 -49h-77z" />
    <glyph glyph-name="uni1EC8" unicode="&#x1ec8;" horiz-adv-x="200" 
d="M42 0v591h116v-591h-116zM67 628v12q0 15 10.5 22.5t21.5 14t11 18.5v6q0 8 -4 15t-15 7q-16 0 -18 -21l-51 8q3 27 21 41t53 14q39 0 59 -11.5t20 -50.5v-4q0 -22 -12 -30.5t-23.5 -13.5t-11.5 -17v-10h-61z" />
    <glyph glyph-name="uni1EC9" unicode="&#x1ec9;" horiz-adv-x="189" 
d="M37 0v495h114v-495h-114zM62 549v12q0 15 10.5 22.5t21.5 14t11 18.5v6q0 8 -4 15t-15 7q-16 0 -18 -21l-51 8q3 27 21 41t53 14q39 0 59 -11.5t20 -50.5v-4q0 -22 -12 -30.5t-23.5 -13.5t-11.5 -17v-10h-61z" />
    <glyph glyph-name="uni1ECA" unicode="&#x1eca;" horiz-adv-x="200" 
d="M42 0v591h116v-591h-116zM100 -130q-21 0 -34.5 14t-13.5 32q0 20 13.5 33.5t34.5 13.5q19 0 33.5 -13.5t14.5 -33.5q0 -18 -14.5 -32t-33.5 -14z" />
    <glyph glyph-name="uni1ECB" unicode="&#x1ecb;" horiz-adv-x="189" 
d="M37 0v495h114v-495h-114zM94 550q-22 0 -38 15.5t-16 36.5q0 22 16 37t38 15t38.5 -15t16.5 -37q0 -21 -16.5 -36.5t-38.5 -15.5zM97 -130q-21 0 -34.5 14t-13.5 32q0 20 13.5 33.5t34.5 13.5q19 0 33.5 -13.5t14.5 -33.5q0 -18 -14.5 -32t-33.5 -14z" />
    <glyph glyph-name="uni1ECC" unicode="&#x1ecc;" horiz-adv-x="401" 
d="M199 -12q-49 0 -86 11.5t-57.5 48t-20.5 108.5v310q0 53 20.5 82t58 40.5t86.5 11.5q48 0 85.5 -12t59 -41t21.5 -81v-309q0 -73 -21.5 -109.5t-59 -48t-86.5 -11.5zM199 56q15 0 26.5 5t18 17.5t6.5 34.5v358q0 22 -6.5 34.5t-18 17.5t-26.5 5t-26 -5t-17.5 -17.5
t-6.5 -34.5v-358q0 -22 6.5 -34.5t17.5 -17.5t26 -5zM201 -130q-21 0 -34.5 14t-13.5 32q0 20 13.5 33.5t34.5 13.5q19 0 33.5 -13.5t14.5 -33.5q0 -18 -14.5 -32t-33.5 -14z" />
    <glyph glyph-name="uni1ECD" unicode="&#x1ecd;" horiz-adv-x="371" 
d="M186 -8q-50 0 -85.5 12t-53.5 47.5t-18 104.5v210q0 77 39 107.5t118 30.5t117.5 -30.5t38.5 -107.5v-210q0 -69 -17.5 -104t-52.5 -47.5t-86 -12.5zM186 60q22 0 32 12.5t10 45.5v260q0 31 -9.5 44.5t-32.5 13.5q-22 0 -32.5 -13t-10.5 -45v-260q0 -33 10.5 -45.5
t32.5 -12.5zM185 -130q-21 0 -34.5 14t-13.5 32q0 20 13.5 33.5t34.5 13.5q19 0 33.5 -13.5t14.5 -33.5q0 -18 -14.5 -32t-33.5 -14z" />
    <glyph glyph-name="uni1ECE" unicode="&#x1ece;" horiz-adv-x="401" 
d="M199 -12q-49 0 -86 11.5t-57.5 48t-20.5 108.5v310q0 53 20.5 82t58 40.5t86.5 11.5q48 0 85.5 -12t59 -41t21.5 -81v-309q0 -73 -21.5 -109.5t-59 -48t-86.5 -11.5zM199 56q15 0 26.5 5t18 17.5t6.5 34.5v358q0 22 -6.5 34.5t-18 17.5t-26.5 5t-26 -5t-17.5 -17.5
t-6.5 -34.5v-358q0 -22 6.5 -34.5t17.5 -17.5t26 -5zM168 628v12q0 15 10.5 22.5t21.5 14t11 18.5v6q0 8 -4 15t-15 7q-16 0 -18 -21l-51 8q3 27 21 41t53 14q39 0 59 -11.5t20 -50.5v-4q0 -22 -12 -30.5t-23.5 -13.5t-11.5 -17v-10h-61z" />
    <glyph glyph-name="uni1ECF" unicode="&#x1ecf;" horiz-adv-x="371" 
d="M186 -8q-50 0 -85.5 12t-53.5 47.5t-18 104.5v210q0 77 39 107.5t118 30.5t117.5 -30.5t38.5 -107.5v-210q0 -69 -17.5 -104t-52.5 -47.5t-86 -12.5zM186 60q22 0 32 12.5t10 45.5v260q0 31 -9.5 44.5t-32.5 13.5q-22 0 -32.5 -13t-10.5 -45v-260q0 -33 10.5 -45.5
t32.5 -12.5zM154 549v12q0 15 10.5 22.5t21.5 14t11 18.5v6q0 8 -4 15t-15 7q-16 0 -18 -21l-51 8q3 27 21 41t53 14q39 0 59 -11.5t20 -50.5v-4q0 -22 -12 -30.5t-23.5 -13.5t-11.5 -17v-10h-61z" />
    <glyph glyph-name="uni1ED0" unicode="&#x1ed0;" horiz-adv-x="401" 
d="M199 -12q-49 0 -86 11.5t-57.5 48t-20.5 108.5v310q0 53 20.5 82t58 40.5t86.5 11.5q48 0 85.5 -12t59 -41t21.5 -81v-309q0 -73 -21.5 -109.5t-59 -48t-86.5 -11.5zM199 56q15 0 26.5 5t18 17.5t6.5 34.5v358q0 22 -6.5 34.5t-18 17.5t-26.5 5t-26 -5t-17.5 -17.5
t-6.5 -34.5v-358q0 -22 6.5 -34.5t17.5 -17.5t26 -5zM101 626l70 82h60l70 -82h-65l-34 35l-34 -35h-67zM300 681l41 75h100l-76 -75h-65z" />
    <glyph glyph-name="uni1ED1" unicode="&#x1ed1;" horiz-adv-x="371" 
d="M186 -8q-50 0 -85.5 12t-53.5 47.5t-18 104.5v210q0 77 39 107.5t118 30.5t117.5 -30.5t38.5 -107.5v-210q0 -69 -17.5 -104t-52.5 -47.5t-86 -12.5zM186 60q22 0 32 12.5t10 45.5v260q0 31 -9.5 44.5t-32.5 13.5q-22 0 -32.5 -13t-10.5 -45v-260q0 -33 10.5 -45.5
t32.5 -12.5zM58 546l95 105h64l95 -105h-75l-51 49l-51 -49h-77zM314 602l57 100h103l-95 -100h-65z" />
    <glyph glyph-name="uni1ED2" unicode="&#x1ed2;" horiz-adv-x="401" 
d="M199 -12q-49 0 -86 11.5t-57.5 48t-20.5 108.5v310q0 53 20.5 82t58 40.5t86.5 11.5q48 0 85.5 -12t59 -41t21.5 -81v-309q0 -73 -21.5 -109.5t-59 -48t-86.5 -11.5zM199 56q15 0 26.5 5t18 17.5t6.5 34.5v358q0 22 -6.5 34.5t-18 17.5t-26.5 5t-26 -5t-17.5 -17.5
t-6.5 -34.5v-358q0 -22 6.5 -34.5t17.5 -17.5t26 -5zM101 626l70 82h60l70 -82h-65l-34 35l-34 -35h-67zM326 680l-76 75h100l41 -75h-65z" />
    <glyph glyph-name="uni1ED3" unicode="&#x1ed3;" horiz-adv-x="371" 
d="M186 -8q-50 0 -85.5 12t-53.5 47.5t-18 104.5v210q0 77 39 107.5t118 30.5t117.5 -30.5t38.5 -107.5v-210q0 -69 -17.5 -104t-52.5 -47.5t-86 -12.5zM186 60q22 0 32 12.5t10 45.5v260q0 31 -9.5 44.5t-32.5 13.5q-22 0 -32.5 -13t-10.5 -45v-260q0 -33 10.5 -45.5
t32.5 -12.5zM58 546l95 105h64l95 -105h-75l-51 49l-51 -49h-77zM340 602l-95 100h103l57 -100h-65z" />
    <glyph glyph-name="uni1ED4" unicode="&#x1ed4;" horiz-adv-x="401" 
d="M199 -12q-49 0 -86 11.5t-57.5 48t-20.5 108.5v310q0 53 20.5 82t58 40.5t86.5 11.5q48 0 85.5 -12t59 -41t21.5 -81v-309q0 -73 -21.5 -109.5t-59 -48t-86.5 -11.5zM199 56q15 0 26.5 5t18 17.5t6.5 34.5v358q0 22 -6.5 34.5t-18 17.5t-26.5 5t-26 -5t-17.5 -17.5
t-6.5 -34.5v-358q0 -22 6.5 -34.5t17.5 -17.5t26 -5zM101 626l70 82h60l70 -82h-65l-34 35l-34 -35h-67zM304 676v6q0 11 8 16.5t16 10t8 11.5v5q0 8 -3 11t-8 3q-9 0 -11 -14l-45 7q1 22 15.5 33.5t45.5 11.5q36 0 50.5 -9t14.5 -40v-3q0 -16 -8 -22t-16 -9.5t-8 -11.5v-6
h-59z" />
    <glyph glyph-name="uni1ED5" unicode="&#x1ed5;" horiz-adv-x="371" 
d="M186 -8q-50 0 -85.5 12t-53.5 47.5t-18 104.5v210q0 77 39 107.5t118 30.5t117.5 -30.5t38.5 -107.5v-210q0 -69 -17.5 -104t-52.5 -47.5t-86 -12.5zM186 60q22 0 32 12.5t10 45.5v260q0 31 -9.5 44.5t-32.5 13.5q-22 0 -32.5 -13t-10.5 -45v-260q0 -33 10.5 -45.5
t32.5 -12.5zM58 546l95 105h64l95 -105h-75l-51 49l-51 -49h-77zM325 603v12q0 15 10.5 22.5t21.5 14t11 18.5v6q0 8 -4 15t-15 7q-16 0 -18 -21l-51 8q3 27 21 41t53 14q39 0 59 -11.5t20 -50.5v-4q0 -22 -12 -30.5t-23.5 -13.5t-11.5 -17v-10h-61z" />
    <glyph glyph-name="uni1ED6" unicode="&#x1ed6;" horiz-adv-x="401" 
d="M199 -12q-49 0 -86 11.5t-57.5 48t-20.5 108.5v310q0 53 20.5 82t58 40.5t86.5 11.5q48 0 85.5 -12t59 -41t21.5 -81v-309q0 -73 -21.5 -109.5t-59 -48t-86.5 -11.5zM199 56q15 0 26.5 5t18 17.5t6.5 34.5v358q0 22 -6.5 34.5t-18 17.5t-26.5 5t-26 -5t-17.5 -17.5
t-6.5 -34.5v-358q0 -22 6.5 -34.5t17.5 -17.5t26 -5zM101 626l70 82h60l70 -82h-65l-34 35l-34 -35h-67zM237 726q-12 0 -22.5 4.5t-20.5 9.5q-9 5 -17.5 8t-16.5 3t-13.5 -7t-5.5 -17h-30q0 34 14 54t37 20q11 0 22 -3t21 -9q8 -4 16 -7.5t16 -3.5q12 0 16.5 6.5t5.5 14.5
h34q0 -24 -9.5 -40.5t-22 -24.5t-24.5 -8z" />
    <glyph glyph-name="uni1ED7" unicode="&#x1ed7;" horiz-adv-x="371" 
d="M186 -8q-50 0 -85.5 12t-53.5 47.5t-18 104.5v210q0 77 39 107.5t118 30.5t117.5 -30.5t38.5 -107.5v-210q0 -69 -17.5 -104t-52.5 -47.5t-86 -12.5zM186 60q22 0 32 12.5t10 45.5v260q0 31 -9.5 44.5t-32.5 13.5q-22 0 -32.5 -13t-10.5 -45v-260q0 -33 10.5 -45.5
t32.5 -12.5zM58 546l95 105h64l95 -105h-75l-51 49l-51 -49h-77zM232 675q-15 0 -28 5.5t-27 13.5q-10 7 -21 12t-23 5q-13 0 -20.5 -9.5t-8.5 -25.5h-34q1 39 18.5 63.5t45.5 24.5q16 0 30 -5.5t26 -13.5q11 -6 21.5 -11t21.5 -5q14 0 21.5 9t9.5 23h37q0 -28 -10.5 -47.5
t-26.5 -29t-32 -9.5z" />
    <glyph glyph-name="uni1ED8" unicode="&#x1ed8;" horiz-adv-x="401" 
d="M199 -12q-49 0 -86 11.5t-57.5 48t-20.5 108.5v310q0 53 20.5 82t58 40.5t86.5 11.5q48 0 85.5 -12t59 -41t21.5 -81v-309q0 -73 -21.5 -109.5t-59 -48t-86.5 -11.5zM199 56q15 0 26.5 5t18 17.5t6.5 34.5v358q0 22 -6.5 34.5t-18 17.5t-26.5 5t-26 -5t-17.5 -17.5
t-6.5 -34.5v-358q0 -22 6.5 -34.5t17.5 -17.5t26 -5zM201 -130q-21 0 -34.5 14t-13.5 32q0 20 13.5 33.5t34.5 13.5q19 0 33.5 -13.5t14.5 -33.5q0 -18 -14.5 -32t-33.5 -14zM73 631l96 100h64l97 -100h-79l-49 43l-49 -43h-80z" />
    <glyph glyph-name="uni1ED9" unicode="&#x1ed9;" horiz-adv-x="371" 
d="M186 -8q-50 0 -85.5 12t-53.5 47.5t-18 104.5v210q0 77 39 107.5t118 30.5t117.5 -30.5t38.5 -107.5v-210q0 -69 -17.5 -104t-52.5 -47.5t-86 -12.5zM186 60q22 0 32 12.5t10 45.5v260q0 31 -9.5 44.5t-32.5 13.5q-22 0 -32.5 -13t-10.5 -45v-260q0 -33 10.5 -45.5
t32.5 -12.5zM185 -130q-21 0 -34.5 14t-13.5 32q0 20 13.5 33.5t34.5 13.5q19 0 33.5 -13.5t14.5 -33.5q0 -18 -14.5 -32t-33.5 -14zM58 546l95 105h64l95 -105h-75l-51 49l-51 -49h-77z" />
    <glyph glyph-name="uni1EDA" unicode="&#x1eda;" horiz-adv-x="401" 
d="M199 -12q-49 0 -86 11.5t-57.5 48t-20.5 108.5v310q0 53 20.5 82t58 40.5t86.5 11.5q48 0 85.5 -12t59 -41t21.5 -81v-309q0 -73 -21.5 -109.5t-59 -48t-86.5 -11.5zM199 56q15 0 26.5 5t18 17.5t6.5 34.5v358q0 22 -6.5 34.5t-18 17.5t-26.5 5t-26 -5t-17.5 -17.5
t-6.5 -34.5v-358q0 -22 6.5 -34.5t17.5 -17.5t26 -5zM248 541l-1 50h17q45 0 45 47v18h75v-17q0 -53 -34 -75.5t-102 -22.5zM141 634l78 94h105l-119 -94h-64z" />
    <glyph glyph-name="uni1EDB" unicode="&#x1edb;" horiz-adv-x="371" 
d="M186 -8q-50 0 -85.5 12t-53.5 47.5t-18 104.5v210q0 77 39 107.5t118 30.5t117.5 -30.5t38.5 -107.5v-210q0 -69 -17.5 -104t-52.5 -47.5t-86 -12.5zM186 60q22 0 32 12.5t10 45.5v260q0 31 -9.5 44.5t-32.5 13.5q-22 0 -32.5 -13t-10.5 -45v-260q0 -33 10.5 -45.5
t32.5 -12.5zM238 444l-1 50h17q45 0 45 47v18h75v-17q0 -53 -34 -75.5t-102 -22.5zM142 548l57 100h103l-95 -100h-65z" />
    <glyph glyph-name="uni1EDC" unicode="&#x1edc;" horiz-adv-x="401" 
d="M199 -12q-49 0 -86 11.5t-57.5 48t-20.5 108.5v310q0 53 20.5 82t58 40.5t86.5 11.5q48 0 85.5 -12t59 -41t21.5 -81v-309q0 -73 -21.5 -109.5t-59 -48t-86.5 -11.5zM199 56q15 0 26.5 5t18 17.5t6.5 34.5v358q0 22 -6.5 34.5t-18 17.5t-26.5 5t-26 -5t-17.5 -17.5
t-6.5 -34.5v-358q0 -22 6.5 -34.5t17.5 -17.5t26 -5zM248 541l-1 50h17q45 0 45 47v18h75v-17q0 -53 -34 -75.5t-102 -22.5zM187 634l-111 91h107l76 -91h-72z" />
    <glyph glyph-name="uni1EDD" unicode="&#x1edd;" horiz-adv-x="371" 
d="M186 -8q-50 0 -85.5 12t-53.5 47.5t-18 104.5v210q0 77 39 107.5t118 30.5t117.5 -30.5t38.5 -107.5v-210q0 -69 -17.5 -104t-52.5 -47.5t-86 -12.5zM186 60q22 0 32 12.5t10 45.5v260q0 31 -9.5 44.5t-32.5 13.5q-22 0 -32.5 -13t-10.5 -45v-260q0 -33 10.5 -45.5
t32.5 -12.5zM238 444l-1 50h17q45 0 45 47v18h75v-17q0 -53 -34 -75.5t-102 -22.5zM169 548l-95 100h103l57 -100h-65z" />
    <glyph glyph-name="uni1EDE" unicode="&#x1ede;" horiz-adv-x="401" 
d="M199 -12q-49 0 -86 11.5t-57.5 48t-20.5 108.5v310q0 53 20.5 82t58 40.5t86.5 11.5q48 0 85.5 -12t59 -41t21.5 -81v-309q0 -73 -21.5 -109.5t-59 -48t-86.5 -11.5zM199 56q15 0 26.5 5t18 17.5t6.5 34.5v358q0 22 -6.5 34.5t-18 17.5t-26.5 5t-26 -5t-17.5 -17.5
t-6.5 -34.5v-358q0 -22 6.5 -34.5t17.5 -17.5t26 -5zM248 541l-1 50h17q45 0 45 47v18h75v-17q0 -53 -34 -75.5t-102 -22.5zM168 628v12q0 15 10.5 22.5t21.5 14t11 18.5v6q0 8 -4 15t-15 7q-16 0 -18 -21l-51 8q3 27 21 41t53 14q39 0 59 -11.5t20 -50.5v-4
q0 -22 -12 -30.5t-23.5 -13.5t-11.5 -17v-10h-61z" />
    <glyph glyph-name="uni1EDF" unicode="&#x1edf;" horiz-adv-x="371" 
d="M186 -8q-50 0 -85.5 12t-53.5 47.5t-18 104.5v210q0 77 39 107.5t118 30.5t117.5 -30.5t38.5 -107.5v-210q0 -69 -17.5 -104t-52.5 -47.5t-86 -12.5zM186 60q22 0 32 12.5t10 45.5v260q0 31 -9.5 44.5t-32.5 13.5q-22 0 -32.5 -13t-10.5 -45v-260q0 -33 10.5 -45.5
t32.5 -12.5zM238 444l-1 50h17q45 0 45 47v18h75v-17q0 -53 -34 -75.5t-102 -22.5zM154 549v12q0 15 10.5 22.5t21.5 14t11 18.5v6q0 8 -4 15t-15 7q-16 0 -18 -21l-51 8q3 27 21 41t53 14q39 0 59 -11.5t20 -50.5v-4q0 -22 -12 -30.5t-23.5 -13.5t-11.5 -17v-10h-61z" />
    <glyph glyph-name="uni1EE0" unicode="&#x1ee0;" horiz-adv-x="401" 
d="M199 -12q-49 0 -86 11.5t-57.5 48t-20.5 108.5v310q0 53 20.5 82t58 40.5t86.5 11.5q48 0 85.5 -12t59 -41t21.5 -81v-309q0 -73 -21.5 -109.5t-59 -48t-86.5 -11.5zM199 56q15 0 26.5 5t18 17.5t6.5 34.5v358q0 22 -6.5 34.5t-18 17.5t-26.5 5t-26 -5t-17.5 -17.5
t-6.5 -34.5v-358q0 -22 6.5 -34.5t17.5 -17.5t26 -5zM248 541l-1 50h17q45 0 45 47v18h75v-17q0 -53 -34 -75.5t-102 -22.5zM244 637q-15 0 -28 5.5t-27 13.5q-10 7 -21 12t-23 5q-13 0 -20.5 -9.5t-8.5 -25.5h-34q1 39 18.5 63.5t45.5 24.5q16 0 30 -5.5t26 -13.5
q11 -6 21.5 -11t21.5 -5q14 0 21.5 9t9.5 23h37q0 -28 -10.5 -47.5t-26.5 -29t-32 -9.5z" />
    <glyph glyph-name="uni1EE1" unicode="&#x1ee1;" horiz-adv-x="371" 
d="M186 -8q-50 0 -85.5 12t-53.5 47.5t-18 104.5v210q0 77 39 107.5t118 30.5t117.5 -30.5t38.5 -107.5v-210q0 -69 -17.5 -104t-52.5 -47.5t-86 -12.5zM186 60q22 0 32 12.5t10 45.5v260q0 31 -9.5 44.5t-32.5 13.5q-22 0 -32.5 -13t-10.5 -45v-260q0 -33 10.5 -45.5
t32.5 -12.5zM238 444l-1 50h17q45 0 45 47v18h75v-17q0 -53 -34 -75.5t-102 -22.5zM232 551q-15 0 -28 5.5t-27 13.5q-10 7 -21 12t-23 5q-13 0 -20.5 -9.5t-8.5 -25.5h-34q1 39 18.5 63.5t45.5 24.5q16 0 30 -5.5t26 -13.5q11 -6 21.5 -11t21.5 -5q14 0 21.5 9t9.5 23h37
q0 -28 -10.5 -47.5t-26.5 -29t-32 -9.5z" />
    <glyph glyph-name="uni1EE2" unicode="&#x1ee2;" horiz-adv-x="401" 
d="M199 -12q-49 0 -86 11.5t-57.5 48t-20.5 108.5v310q0 53 20.5 82t58 40.5t86.5 11.5q48 0 85.5 -12t59 -41t21.5 -81v-309q0 -73 -21.5 -109.5t-59 -48t-86.5 -11.5zM199 56q15 0 26.5 5t18 17.5t6.5 34.5v358q0 22 -6.5 34.5t-18 17.5t-26.5 5t-26 -5t-17.5 -17.5
t-6.5 -34.5v-358q0 -22 6.5 -34.5t17.5 -17.5t26 -5zM248 541l-1 50h17q45 0 45 47v18h75v-17q0 -53 -34 -75.5t-102 -22.5zM201 -130q-21 0 -34.5 14t-13.5 32q0 20 13.5 33.5t34.5 13.5q19 0 33.5 -13.5t14.5 -33.5q0 -18 -14.5 -32t-33.5 -14z" />
    </font>
</defs>
</svg>
