<?xml version="1.0" standalone="no"?>
<!DOCTYPE svg PUBLIC "-//W3C//DTD SVG 1.1//EN" "http://www.w3.org/Graphics/SVG/1.1/DTD/svg11.dtd" >
<svg xmlns="http://www.w3.org/2000/svg" xmlns:xlink="http://www.w3.org/1999/xlink" version="1.1">
<metadata>
Created by FontForge 20170731 at Wed Dec  8 21:05:24 2021
 By Aleksey,,,
Copyright 2015 The Alumni Sans Project Authors (https://github.com/googlefonts/alumni)
</metadata>
<defs>
<font id="AlumniSans-ExtraBold" horiz-adv-x="374" >
  <font-face 
    font-family="Alumni Sans ExtraBold"
    font-weight="800"
    font-stretch="normal"
    units-per-em="1000"
    panose-1="0 0 0 0 0 0 0 0 0 0"
    ascent="800"
    descent="-200"
    x-height="495"
    cap-height="591"
    bbox="-112 -300 992 884"
    underline-thickness="50"
    underline-position="-175"
    unicode-range="U+000D-FB02"
  />
<missing-glyph horiz-adv-x="437" 
d="M58 0l-8 9v611l8 10h320l9 -9v-613l-9 -8h-320zM50 9l304 612h33l-304 -612h-33zM354 9l-304 612h33l304 -612h-33zM116 77h205v475h-205v-475z" />
    <glyph glyph-name="fi" unicode="fi" horiz-adv-x="416" 
d="M41 0v399h-32v77h32v41q0 64 41 89t122 25q52 0 89 -6t62 -15l-9 -62q-20 8 -47 12.5t-58 4.5t-48 -12t-17 -35v-42h211v-476h-136v399h-75v-399h-135z" />
    <glyph glyph-name="fl" unicode="fl" horiz-adv-x="439" 
d="M41 0v399h-32v77h32v41q0 62 35 88t126 26q33 0 71 -3t74 -7.5t61 -10.5v-610h-135v590l36 -34q-21 5 -43 7.5t-33 2.5q-35 0 -46 -12t-11 -36v-42h67v-77h-67v-399h-135z" />
    <glyph glyph-name="f_f" unicode="ff" horiz-adv-x="464" 
d="M41 0v399h-32v77h32v41q0 57 35.5 85.5t102.5 28.5q47 0 77.5 -6t46.5 -12l-23 -54q-10 3 -31 5t-36 2q-20 0 -28.5 -11t-8.5 -34v-45h67v41q0 54 32 84t94 30q37 0 63 -1.5t34 -3.5v-63q-6 1 -20 2t-31 1q-20 0 -28 -11.5t-8 -32.5v-46h87v-77h-87v-399h-136v399h-67
v-399h-135z" />
    <glyph glyph-name="f_f_i" unicode="ffi" horiz-adv-x="619" 
d="M41 0v399h-32v77h32v41q0 51 31.5 82.5t104.5 31.5q36 0 69.5 -4.5t56.5 -13.5l-23 -53q-10 3 -27 4.5t-37 1.5q-23 0 -31.5 -11.5t-8.5 -37.5v-41h67v41q0 48 21.5 72.5t56.5 33t77 8.5q49 0 83.5 -6.5t59.5 -14.5v-63q-23 8 -50.5 13t-55.5 5q-24 0 -36 -7t-16 -18
t-4 -22v-42h210v-476h-136v399h-74v-399h-136v399h-67v-399h-135z" />
    <glyph glyph-name="f_f_l" unicode="ffl" horiz-adv-x="642" 
d="M41 -2v401h-32v77h32v41q0 58 36 86t94 28q44 0 77.5 -6.5t54.5 -11.5l-23 -56q-10 3 -30 6t-34 3q-23 0 -31.5 -11.5t-8.5 -36.5v-42h67v41q0 51 33.5 82.5t117.5 31.5q38 0 78.5 -3t77 -7.5t61.5 -10.5v-612h-136v592l37 -34q-20 5 -42.5 7.5t-34.5 2.5q-34 0 -45 -12
t-11 -36v-44h68v-76h-68v-400h-136v401h-67v-401h-135z" />
    <glyph glyph-name=".notdef" horiz-adv-x="437" 
d="M58 0l-8 9v611l8 10h320l9 -9v-613l-9 -8h-320zM50 9l304 612h33l-304 -612h-33zM354 9l-304 612h33l304 -612h-33zM116 77h205v475h-205v-475z" />
    <glyph glyph-name=".null" horiz-adv-x="0" 
 />
    <glyph glyph-name="nonmarkingreturn" horiz-adv-x="333" 
 />
    <glyph glyph-name="CR" unicode="&#xd;" horiz-adv-x="509" 
 />
    <glyph glyph-name="space" unicode=" " horiz-adv-x="157" 
 />
    <glyph glyph-name="exclam" unicode="!" horiz-adv-x="237" 
d="M73 189l-23 185l-7 256h148l-7 -253l-24 -188h-87zM121 -8q-31 0 -52.5 20t-21.5 48t21.5 48t52.5 20t52.5 -20t21.5 -48t-21.5 -48t-52.5 -20z" />
    <glyph glyph-name="quotedbl" unicode="&#x22;" horiz-adv-x="373" 
d="M222 418l-19 212h111l-18 -212h-74zM77 418l-19 212h111l-18 -212h-74z" />
    <glyph glyph-name="numbersign" unicode="#" horiz-adv-x="730" 
d="M125 0l53 168h-149l26 83h149l35 110l-152 1l27 83h152l40 129h87l-41 -129h119l41 129h87l-41 -129h143l-26 -84h-143l-35 -110h145l-26 -84h-145l-52 -167h-88l53 167l-119 1l-53 -168h-87zM291 251h119l35 110h-120z" />
    <glyph glyph-name="dollar" unicode="$" horiz-adv-x="367" 
d="M147 48q-71 0 -96.5 41t-25.5 112v34h129v-64q0 -16 1.5 -28t7.5 -18t20 -6q12 0 17.5 5.5t7.5 14.5t2 18v42q0 25 -9.5 38.5t-27.5 22t-42 19.5q-24 9 -45.5 23t-35.5 37.5t-14 60.5v29q0 58 25.5 91.5t90.5 41.5l81 1q66 -6 90.5 -42t24.5 -104v-34h-124v60
q0 26 -6 37.5t-22 11.5q-17 0 -22.5 -10.5t-5.5 -25.5v-42q0 -25 13.5 -38t33.5 -20.5t42 -15.5q23 -9 43.5 -22.5t34 -36t13.5 -58.5v-33q0 -30 -5.5 -56t-19.5 -45.5t-36.5 -30t-58.5 -10.5h-81zM194 676h78l-77 -738h-78z" />
    <glyph glyph-name="percent" unicode="%" horiz-adv-x="587" 
d="M80 0l323 591h99l-324 -591h-98zM177 252q-32 0 -53.5 7.5t-32.5 28.5t-11 62v118q0 18 5 36t24.5 30.5t62.5 12.5q44 0 66 -9.5t29 -28t7 -45.5v-112q0 -43 -11 -64.5t-32.5 -28.5t-53.5 -7zM177 294q10 0 14 6.5t4 19.5v159q0 12 -4 19.5t-14 7.5q-8 0 -12 -4t-5 -9.5
t-1 -13.5v-159q0 -7 1 -13t5 -9.5t12 -3.5zM410 40q-31 0 -53 7t-32.5 28.5t-10.5 62.5v118q0 18 4.5 36t24.5 30.5t63 12.5t65 -9.5t29 -28t7 -45.5v-112q0 -43 -11 -64.5t-32.5 -28.5t-53.5 -7zM410 81q11 0 15 7t4 20v159q0 12 -4 19t-15 7q-7 0 -11 -3.5t-5.5 -9
t-1.5 -13.5v-159q0 -7 1.5 -13t5.5 -10t11 -4z" />
    <glyph glyph-name="ampersand" unicode="&#x26;" horiz-adv-x="456" 
d="M185 -3q-52 0 -88 20t-54.5 57t-18.5 88q0 43 19.5 79t58.5 44q-11 21 -18 46.5t-5 57.5q4 58 35 89t95 31q32 0 64 -4.5t57 -10t34 -9.5v-98q-2 1 -20.5 5.5t-44.5 8t-52 3.5q-19 0 -30.5 -8.5t-15.5 -22.5t-0.5 -30t13.5 -32q4 -6 9.5 -14t12 -16.5l13 -17t13 -15.5
t11.5 -13l1 82h157v-84h-70q0 -13 -0.5 -24.5t-2 -22.5t-2.5 -22q17 -13 39 -26t36 -19v-121q-23 0 -57.5 17t-64.5 39q-13 -20 -32 -32.5t-42 -18.5t-50 -6zM191 90q17 0 28.5 6.5t17.5 17.5q-25 24 -49 50.5t-41 51.5q-8 -6 -12.5 -15t-4.5 -25q-3 -40 15 -63t46 -23z" />
    <glyph glyph-name="quotesingle" unicode="'" horiz-adv-x="228" 
d="M77 418l-19 212h111l-18 -212h-74z" />
    <glyph glyph-name="parenleft" unicode="(" horiz-adv-x="335" 
d="M289 -119q-55 1 -102.5 32t-83 83t-55 118.5t-19.5 136.5q0 76 21.5 149t59.5 132t87 95t103 37v-76q-36 -10 -63.5 -41t-46 -77t-27.5 -100t-9 -111q0 -56 8.5 -109t26 -96t42.5 -68.5t58 -28.5v-76z" />
    <glyph glyph-name="parenright" unicode=")" horiz-adv-x="333" 
d="M33 -119v77q36 9 63.5 40t46 76.5t27.5 100.5t9 113q0 55 -8.5 108t-26 95.5t-42.5 68.5t-58 29v75q56 0 103 -31.5t82.5 -83t55 -117.5t19.5 -137q0 -75 -21.5 -149t-59.5 -133t-87 -95t-103 -37z" />
    <glyph glyph-name="asterisk" unicode="*" horiz-adv-x="590" 
d="M196 78l-101 75l147 139l-205 15l45 136l175 -109l-43 200h130l-40 -199l176 104l41 -125l-202 -22l151 -138l-104 -73l-85 183z" />
    <glyph glyph-name="plus" unicode="+" horiz-adv-x="515" 
d="M186 56v139h-136v142h136v137h142v-137h137v-142h-137v-139h-142z" />
    <glyph glyph-name="comma" unicode="," horiz-adv-x="239" 
d="M51 -159q17 37 29 66.5t12 52.5q0 22 -10 33.5l-20 23t-10 32.5q0 26 20 45t50 19q31 0 49 -19.5t18 -50.5q0 -29 -12 -65.5t-30 -72.5t-37 -64h-59z" />
    <glyph glyph-name="hyphen" unicode="-" horiz-adv-x="276" 
d="M33 240v90h210v-90h-210z" />
    <glyph glyph-name="period" unicode="." horiz-adv-x="238" 
d="M118 -10q-28 0 -48 19t-20 46q0 28 20 47t48 19t49 -19t21 -47q0 -27 -21 -46t-49 -19z" />
    <glyph glyph-name="slash" unicode="/" horiz-adv-x="501" 
d="M33 -44l341 674h95l-342 -674h-94z" />
    <glyph glyph-name="zero" unicode="0" horiz-adv-x="390" 
d="M196 -13q-52 1 -90.5 21t-60 64t-21.5 120v233q0 89 47.5 131t126.5 42q75 0 121.5 -42t46.5 -131v-232q0 -77 -21 -122t-59.5 -64.5t-89.5 -19.5zM195 68q15 0 24.5 12t9.5 38v348q0 26 -9.5 37.5t-24.5 11.5q-13 0 -22.5 -11.5t-9.5 -37.5v-348q0 -26 9.5 -38t22.5 -12
z" />
    <glyph glyph-name="one" unicode="1" horiz-adv-x="285" 
d="M113 0v426h-103v78l18 1q39 4 62 24t40 62h122v-591h-139z" />
    <glyph glyph-name="two" unicode="2" horiz-adv-x="393" 
d="M18 0v61.5v60.5q0 57 12.5 89.5t40.5 53.5t72 43q35 16 53.5 31.5t26.5 36.5t8 54q0 32 -7 48.5t-27 16.5q-21 0 -28 -21.5t-7 -65.5v-38h-138v80q0 72 44 107.5t131 35.5q67 0 105.5 -16.5t54.5 -53.5t16 -98q0 -71 -21.5 -113t-75.5 -71q-22 -12 -41 -22.5t-34 -22
t-23 -27.5q-8 -11 -12.5 -25t-5.5 -32h214v-112h-358z" />
    <glyph glyph-name="three" unicode="3" horiz-adv-x="386" 
d="M190 -6q-59 0 -98 16.5t-58.5 49t-19.5 78.5v72h139v-30q0 -44 7 -66t29 -22q19 0 26.5 18t7.5 46v58q0 28 -19.5 38t-59.5 11h-43v74h44q18 0 32.5 3.5t23.5 10.5q13 7 17.5 17t4.5 22v43q0 26 -7.5 44t-26.5 18q-23 0 -29 -22t-6 -64v-19h-139v61q0 70 43.5 106
t131.5 36q95 0 136 -31.5t41 -98.5v-52q0 -50 -25.5 -81t-76.5 -34q49 -2 75.5 -31.5t26.5 -80.5v-46q0 -52 -18 -83.5t-56.5 -46t-102.5 -14.5z" />
    <glyph glyph-name="four" unicode="4" horiz-adv-x="398" 
d="M190 0v114h-184v111l185 366h137v-385h62v-92h-62v-114h-138zM114 206h76v156z" />
    <glyph glyph-name="five" unicode="5" horiz-adv-x="391" 
d="M196 -8q-67 0 -105.5 12t-55 46t-16.5 98v59h139v-48q0 -40 9 -53.5t28 -13.5q18 0 26 14.5t8 53.5v103q0 14 -2.5 26.5t-10 20t-22.5 7.5q-16 0 -25.5 -11t-10.5 -30h-138v315h341v-98h-204v-125q7 13 28 27t66 14q66 0 93.5 -25.5t27.5 -86.5v-155q0 -58 -19 -90.5
t-58 -46t-99 -13.5z" />
    <glyph glyph-name="six" unicode="6" horiz-adv-x="393" 
d="M195 -11q-53 0 -92 17.5t-59 54.5t-20 93v300q0 73 47 108t125 35q82 0 126 -34t44 -108v-41h-138v57q0 23 -8 32.5t-24 9.5t-24.5 -10.5t-8.5 -32.5v-129q15 21 41 30t53 9q49 0 82 -24t33 -74v-145q0 -47 -22 -80t-61.5 -50.5t-93.5 -17.5zM198 70q15 0 25.5 10
t10.5 34v145q0 22 -13.5 28.5t-24.5 6.5q-13 0 -22.5 -7t-10.5 -18v-155q0 -23 10 -33.5t25 -10.5z" />
    <glyph glyph-name="seven" unicode="7" horiz-adv-x="338" 
d="M27 0l160 494h-180v97h318v-99l-159 -492h-139z" />
    <glyph glyph-name="eight" unicode="8" horiz-adv-x="386" 
d="M194 -8q-58 0 -97 17t-58.5 50t-19.5 81v36q0 30 4.5 54.5t17.5 41.5q11 14 34.5 25t61.5 13q-38 -1 -54.5 5.5t-32.5 19.5q-18 17 -21.5 47t-3.5 60v25q0 43 15.5 71t52 41.5t101.5 13.5q66 0 102.5 -13.5t52 -41.5t15.5 -71v-25q0 -35 -7.5 -63t-29 -45t-62.5 -24
q37 -2 58 -15.5t30 -33.5t11 -43t2 -44v-36q0 -40 -17.5 -73t-55.5 -53t-99 -20zM192 70q20 0 28 12t8 31v92q0 20 -7 32.5t-29 12.5q-21 0 -28 -15t-7 -31v-91q0 -18 7.5 -30t27.5 -13zM192 354q14 0 24.5 12t10.5 40v53q0 25 -7 43t-28 18q-22 0 -28 -18.5t-6 -40.5v-53
q0 -20 4.5 -32t12.5 -17t17 -5z" />
    <glyph glyph-name="nine" unicode="9" horiz-adv-x="391" 
d="M196 -12q-83 0 -127 34t-44 108v52h138v-68q0 -23 8 -32.5t24 -9.5t24.5 10.5t8.5 32.5v138q-14 -21 -40.5 -30t-53.5 -9q-33 0 -59 12.5t-41 42.5t-15 82v97q0 48 22 80.5t62 50t93 17.5q54 0 92.5 -17.5t58.5 -54t20 -93.5v-300q0 -73 -46.5 -108t-124.5 -35zM195 299
q13 0 22.5 7.5t10.5 17.5v147q0 23 -10 33.5t-25 10.5t-25 -10t-10 -34v-136q0 -22 13 -28.5t24 -7.5z" />
    <glyph glyph-name="colon" unicode=":" horiz-adv-x="238" 
d="M118 262q-28 0 -48 19t-20 46q0 28 20 47t48 19t49 -19t21 -47q0 -27 -21 -46t-49 -19zM118 -10q-28 0 -48 19t-20 46q0 28 20 47t48 19t49 -19t21 -47q0 -27 -21 -46t-49 -19z" />
    <glyph glyph-name="semicolon" unicode=";" horiz-adv-x="255" 
d="M67 -159q17 37 29 66.5t12 52.5q0 22 -10 33.5l-20 23t-10 32.5q0 26 20 45t50 19q31 0 49 -19.5t18 -50.5q0 -29 -12 -65.5t-30 -72.5t-37 -64h-59zM119 262q-28 0 -48 19t-20 46q0 28 20 47t48 19t49 -19t21 -47q0 -27 -21 -46t-49 -19z" />
    <glyph glyph-name="less" unicode="&#x3c;" horiz-adv-x="314" 
d="M280 125l-246 167v73l246 168v-122l-134 -84l134 -83v-119z" />
    <glyph glyph-name="equal" unicode="=" horiz-adv-x="453" 
d="M50 327v91h353v-91h-353zM50 127v91h353v-91h-353z" />
    <glyph glyph-name="greater" unicode="&#x3e;" horiz-adv-x="314" 
d="M34 125v122l134 84l-134 84v118l246 -167v-73z" />
    <glyph glyph-name="question" unicode="?" horiz-adv-x="408" 
d="M116 164v123q17 2 32.5 5.5t28.5 9.5q16 7 29.5 18t21 27.5t7.5 37.5v45q0 28 -7 46.5t-27 18.5q-22 0 -28 -18.5t-6 -43.5v-60h-138v77q0 143 173 143q66 0 105 -16t55.5 -51t16.5 -93v-18q0 -43 -12.5 -78.5t-35.5 -58t-58 -30.5q-9 -2 -17.5 -2.5t-19.5 -0.5v-81h-120
zM173 -10q-28 0 -47.5 19.5t-19.5 45.5q0 28 19.5 47.5t47.5 19.5q29 0 49.5 -19.5t20.5 -47.5q0 -26 -20.5 -45.5t-49.5 -19.5z" />
    <glyph glyph-name="at" unicode="@" horiz-adv-x="749" 
d="M359 -68q-121 0 -189 37t-95.5 108.5t-27.5 173.5q0 162 75.5 251.5t243.5 90.5q94 1 168.5 -29.5t117.5 -96t43 -171.5q0 -82 -20 -134t-53 -77t-73 -25q-30 0 -57 12.5t-45 37.5t-21 61l29 -10q-15 -46 -43 -66t-74 -20q-48 0 -77.5 25.5t-29.5 85.5q0 28 6.5 49
t30.5 39t80 32q25 6 40 17.5t17 19.5q1 6 2 12.5t1 13.5q0 22 -7 30t-29 8t-30.5 -10t-8.5 -35v-30h-92v35q0 35 9.5 56t37.5 30.5t83 9.5q58 0 88 -11.5t41 -35t11 -60.5v-169q0 -43 15.5 -59.5t38.5 -16.5q17 0 31.5 15t22.5 52t8 102q0 80 -27.5 138.5t-84 89.5
t-143.5 31t-144 -27t-84.5 -90.5t-27.5 -171.5q0 -82 18 -133.5t51.5 -79t80.5 -39t105 -12.5q20 -1 54 2t72 8.5t70 13.5t47 17v-51q-19 -8 -57 -19t-88.5 -18t-109.5 -7zM368 146q20 0 29.5 9t13 19.5t3.5 18.5v77q-18 -1 -33.5 -6t-25.5 -11t-16.5 -13t-10 -17.5
t-3.5 -25.5q0 -24 7 -37.5t36 -13.5z" />
    <glyph glyph-name="A" unicode="A" horiz-adv-x="401" 
d="M6 0l94 591h203l92 -591h-155l-13 97h-60l-11 -97h-150zM168 165h59l-29 311z" />
    <glyph glyph-name="B" unicode="B" horiz-adv-x="403" 
d="M33 0v591h222q59 0 88 -27.5t29 -72.5v-66q0 -26 -7.5 -47.5t-22.5 -35.5q-11 -11 -27 -17t-32 -8v-1q15 0 29.5 -4t30.5 -16q17 -13 27.5 -36t10.5 -57v-79q0 -48 -16.5 -75t-48 -38t-75.5 -11h-208zM172 71h37q10 0 17 5t11 18.5t4 37.5v67q0 36 -9 47t-26 11h-34v-186
zM172 344h32q15 0 25 13.5t10 51.5v56q0 29 -8 40.5t-22 11.5h-37v-173z" />
    <glyph glyph-name="C" unicode="C" horiz-adv-x="396" 
d="M202 -12q-52 0 -91 12.5t-61.5 50.5t-22.5 114v301q0 51 22.5 80t62 41.5t90.5 12.5q53 0 91 -12.5t58.5 -41.5t20.5 -80v-131h-139v137q0 18 -4 27t-10.5 12.5t-16.5 3.5q-9 0 -16 -3.5t-11 -12.5t-4 -27v-360q0 -17 4 -27t11 -13t16 -3q10 0 16.5 3t10.5 13t4 27v127
h139v-73q0 -77 -20.5 -115t-58.5 -50.5t-91 -12.5z" />
    <glyph glyph-name="D" unicode="D" horiz-adv-x="405" 
d="M33 0v591h220q43 0 70.5 -12.5t41 -36t13.5 -56.5v-360q0 -48 -17.5 -75.5t-50 -39t-77.5 -11.5h-200zM178 71h32q13 0 21 9t8 33v358q0 24 -8 33.5t-21 9.5h-32v-443z" />
    <glyph glyph-name="E" unicode="E" horiz-adv-x="331" 
d="M33 0v591h280v-97h-135v-136h118v-109h-118v-154h135v-95h-280z" />
    <glyph glyph-name="F" unicode="F" horiz-adv-x="328" 
d="M33 0v591h280v-97h-135v-136h118v-109h-118v-249h-145z" />
    <glyph glyph-name="G" unicode="G" horiz-adv-x="397" 
d="M157 -10q-32 0 -61.5 11t-49 45t-19.5 100v318q0 51 21.5 80.5t59.5 41.5t90 12q51 0 90 -12.5t61.5 -41.5t22.5 -80v-87h-135v95q0 18 -4.5 27t-12 12.5t-19.5 3.5q-10 0 -18 -3.5t-12.5 -12.5t-4.5 -27v-360q0 -17 4.5 -27t12.5 -13t18 -3q17 0 26.5 10t9.5 33v114h-36
v78h171v-304h-105l-7 42q0 -1 -1 -2.5t-2 -2.5q-8 -16 -31.5 -31.5t-68.5 -15.5z" />
    <glyph glyph-name="H" unicode="H" horiz-adv-x="408" 
d="M33 0v591h139v-235h65v235h138v-591h-138v253h-65v-253h-139z" />
    <glyph glyph-name="I" unicode="I" horiz-adv-x="205" 
d="M33 0v591h139v-591h-139z" />
    <glyph glyph-name="J" unicode="J" horiz-adv-x="254" 
d="M57 -1h-26t-26 1v95h30q30 -1 39.5 9.5t9.5 40.5v446h138v-438q0 -60 -16.5 -94t-52.5 -47t-96 -13z" />
    <glyph glyph-name="K" unicode="K" horiz-adv-x="425" 
d="M269 0l-96 306l95 285h148l-108 -284l111 -307h-150zM33 0v591h139v-591h-139z" />
    <glyph glyph-name="L" unicode="L" horiz-adv-x="300" 
d="M33 0v591h137v-496h121v-95h-258z" />
    <glyph glyph-name="M" unicode="M" horiz-adv-x="538" 
d="M33 0v591h175l61 -340l62 340h174v-591h-122v426l-67 -426h-94l-67 426v-426h-122z" />
    <glyph glyph-name="N" unicode="N" horiz-adv-x="404" 
d="M33 0v591h120l97 -315v315h121v-591h-120l-96 288v-288h-122z" />
    <glyph glyph-name="O" unicode="O" horiz-adv-x="399" 
d="M198 -12q-51 0 -89.5 12.5t-60 50.5t-21.5 114v301q0 51 21.5 80t60 41.5t89.5 12.5t90 -12.5t61.5 -41.5t22.5 -80v-300q0 -77 -22.5 -115t-61.5 -50.5t-90 -12.5zM198 69q10 0 18.5 4t12.5 13.5t4 25.5v360q0 15 -4 25t-12.5 14t-18.5 4t-18 -4t-12.5 -14t-4.5 -25
v-360q0 -16 4.5 -25.5t12.5 -13.5t18 -4z" />
    <glyph glyph-name="P" unicode="P" horiz-adv-x="396" 
d="M33 0v591h222q62 0 92 -27.5t30 -72.5v-101q0 -42 -10 -78.5t-35.5 -58.5t-73.5 -22h-80v-231h-145zM178 306h28q17 0 25 22t8 77v24q0 48 -6 68t-22 20h-33v-211z" />
    <glyph glyph-name="Q" unicode="Q" horiz-adv-x="406" 
d="M286 -126l-67 118q-5 0 -9.5 -0.5t-9.5 -0.5q-51 0 -90 12.5t-61 51t-22 113.5v298q0 51 22.5 80t63 41.5t93.5 12.5t92 -12.5t59.5 -41.5t20.5 -80v-297q0 -60 -14 -95.5t-40 -53.5l53 -93zM206 72q10 0 17.5 3.5t12 13t4.5 26.5v357q0 18 -4.5 27t-12 12.5t-17.5 3.5
t-18 -3.5t-12.5 -12.5t-4.5 -27v-357q0 -17 4.5 -26.5t12.5 -13t18 -3.5z" />
    <glyph glyph-name="R" unicode="R" horiz-adv-x="422" 
d="M33 0v591h229q62 0 92 -27.5t30 -72.5v-92q0 -44 -22.5 -78t-75.5 -39v-2q34 -6 48 -22.5t24 -53.5l54 -204h-154l-39 195q-5 22 -10 35.5t-14 13.5h-17v-244h-145zM178 341h31q20 0 29.5 13t9.5 43v68q0 30 -8 41t-26 11h-36v-176z" />
    <glyph glyph-name="S" unicode="S" horiz-adv-x="398" 
d="M196 -8q-56 0 -96 15t-60.5 53t-20.5 109v36h72.5h72.5v-48q0 -32 4 -48.5t11.5 -22.5t18.5 -6q17 0 25.5 13.5t8.5 53.5q0 35 -10.5 51.5t-34.5 27.5t-64 27q-36 17 -58 39t-31.5 55t-9.5 78q0 61 16 98t54 53.5t105 16.5q85 0 129 -35.5t44 -106.5v-73h-68.5h-69.5v31
q0 42 -6 58t-28 16q-19 0 -26 -12.5t-7 -40.5q0 -32 12.5 -48.5t32.5 -25t42 -16.5q44 -17 71.5 -34.5t40.5 -48.5t13 -89q0 -66 -22 -104.5t-63.5 -55t-97.5 -16.5z" />
    <glyph glyph-name="T" unicode="T" horiz-adv-x="332" 
d="M97 0v494h-88v97h315v-97h-89v-494h-138z" />
    <glyph glyph-name="U" unicode="U" horiz-adv-x="404" 
d="M202 -12q-38 0 -69 5.5t-53.5 21.5t-35 49.5t-12.5 90.5v436h139v-476q0 -16 4 -25.5t11 -13t16 -3.5t16.5 3.5t11.5 13t4 25.5v476h138v-435q0 -57 -12 -91t-34.5 -50t-54 -21.5t-69.5 -5.5z" />
    <glyph glyph-name="V" unicode="V" horiz-adv-x="402" 
d="M102 0l-91 591h143l47 -450h1l52 450h138l-93 -591h-197z" />
    <glyph glyph-name="W" unicode="W" horiz-adv-x="618" 
d="M98 0l-87 591h143l48 -415l49 415h116l49 -415l48 415h144l-88 -591h-162l-49 299l-49 -299h-162z" />
    <glyph glyph-name="X" unicode="X" horiz-adv-x="386" 
d="M8 0l83 306l-80 285h138l43 -175l40 175h147l-81 -286l79 -305h-139l-44 174l-39 -174h-147z" />
    <glyph glyph-name="Y" unicode="Y" horiz-adv-x="377" 
d="M117 0v248l-111 343h138l41 -149l8 -45l8 45l43 149h127l-115 -351v-240h-139z" />
    <glyph glyph-name="Z" unicode="Z" horiz-adv-x="301" 
d="M12 0v86l120 408h-110v97h268v-67l-128 -427h128v-97h-278z" />
    <glyph glyph-name="bracketleft" unicode="[" horiz-adv-x="323" 
d="M42 -57v687h240v-71h-112v-545h112v-71h-240z" />
    <glyph glyph-name="backslash" unicode="\" horiz-adv-x="581" 
d="M375 -44l-342 674h95l341 -674h-94z" />
    <glyph glyph-name="bracketright" unicode="]" horiz-adv-x="323" 
d="M42 -57v71h112v545h-112v71h240v-687h-240z" />
    <glyph glyph-name="asciicircum" unicode="^" horiz-adv-x="431" 
d="M33 495l150 215h66l149 -215h-108l-73 113l-73 -113h-111z" />
    <glyph glyph-name="underscore" unicode="_" horiz-adv-x="709" 
d="M33 -140v70h643v-70h-643z" />
    <glyph glyph-name="grave" unicode="`" horiz-adv-x="220" 
d="M109 549l-101 103h121l57 -103h-77z" />
    <glyph glyph-name="a" unicode="a" 
d="M119 -8q-27 0 -49.5 7.5t-36 29t-13.5 63.5v74q0 45 26.5 73.5t87.5 49.5q30 12 46.5 20.5t23.5 22t7 38.5v30q0 11 -3.5 18t-10 11t-15.5 4q-17 0 -23 -15t-6 -53v-42h-123v55q0 37 11 65.5t43.5 45t97.5 16.5q66 0 102 -10.5t50.5 -36t14.5 -69.5v-389h-136v52
q-7 -27 -34.5 -43.5t-59.5 -16.5zM179 81q19 0 25 15.5t6 46.5v113q-3 -7 -13.5 -12.5t-19.5 -12.5q-13 -10 -19.5 -20t-6.5 -29v-56q0 -15 3 -25t9 -15t16 -5z" />
    <glyph glyph-name="b" unicode="b" horiz-adv-x="386" 
d="M228 -7q-44 0 -68 18t-30 33l-3 -44h-96v630h136v-173q9 17 28.5 32.5t55.5 15.5q28 0 53 -9t41 -34.5t16 -74.5v-237q0 -54 -9.5 -85.5t-27.5 -46.5t-42.5 -20t-53.5 -5zM196 85q12 0 18.5 5t8.5 15.5t2 26.5v244q0 24 -7 33t-22 9q-14 0 -21.5 -9.5t-7.5 -31.5v-244
q0 -24 6.5 -36t22.5 -12z" />
    <glyph glyph-name="c" unicode="c" 
d="M190 -8q-52 0 -89 11t-57 47t-20 109v207q0 79 42.5 108t123.5 29q80 0 122 -27.5t42 -100.5v-76h-136v84q0 23 -6.5 32t-21.5 9t-22.5 -9t-7.5 -32v-270q0 -23 7.5 -32.5t22.5 -9.5t21.5 9t6.5 33v94h136v-47q0 -74 -19.5 -110t-56 -47t-88.5 -11z" />
    <glyph glyph-name="d" unicode="d" horiz-adv-x="386" 
d="M158 -7q-30 0 -54.5 5.5t-42.5 21t-27.5 46.5t-9.5 84v239q0 35 10.5 56.5t26.5 33.5t34.5 17t36.5 5q40 0 58.5 -13t28.5 -27v169h136v-630h-92l-14 47q-4 -8 -14.5 -21t-29 -23t-47.5 -10zM189 69q9 0 15 3.5t9 10t4.5 15t1.5 20.5v290q-1 2 -4.5 5t-9.5 5t-15 2
q-10 0 -15.5 -3t-9 -8.5t-4.5 -13.5t-1 -19v-263q0 -14 2.5 -24t9 -15t17.5 -5z" />
    <glyph glyph-name="e" unicode="e" 
d="M190 -8q-52 0 -89 11.5t-57 48t-20 111.5v212q0 75 42.5 102.5t123.5 27.5q80 0 122 -27.5t42 -102.5v-138h-194v-132q0 -24 7.5 -33t22.5 -9t21.5 9t6.5 33v84h136v-25q0 -76 -19.5 -112.5t-56 -48t-88.5 -11.5zM160 297h58v86q0 23 -6.5 32t-21.5 9t-22.5 -9t-7.5 -32
v-86z" />
    <glyph glyph-name="f" unicode="f" horiz-adv-x="261" 
d="M41 0v399h-32v77h32v41q0 39 10.5 62t27.5 34t37.5 14.5t40.5 3.5q22 0 44.5 -1.5t40 -3t21.5 -1.5v-62q-8 1 -21 2t-29 1q-20 0 -28.5 -10.5t-8.5 -34.5v-45h87v-77h-87v-399h-135z" />
    <glyph glyph-name="g" unicode="g" horiz-adv-x="384" 
d="M195 -120q-16 0 -38 1.5t-43.5 3t-37 3.5t-18.5 3v71q14 -2 41.5 -4.5t45.5 -2.5q17 0 30.5 3t23 9.5t14.5 19t5 30.5v72q-4 -10 -12 -24t-25.5 -25t-52.5 -11q-25 0 -44.5 6.5t-32.5 23.5t-20 48t-7 80v192q0 61 27 93.5t79 32.5q34 0 53 -8.5t29.5 -23t17.5 -33.5
l-18 -3l21 58h121v-408q0 -34 -4.5 -70.5t-20 -67.5t-47.5 -50t-87 -19zM189 109q11 0 17.5 5.5t9 16.5t2.5 25v246q-2 3 -5.5 6t-9 5t-15.5 2q-13 0 -20.5 -9t-7.5 -33v-223q0 -13 2.5 -21t7 -12t9.5 -6t10 -2z" />
    <glyph glyph-name="h" unicode="h" horiz-adv-x="386" 
d="M31 0v630h127v-193q12 33 35.5 50.5t56.5 17.5q46 0 70 -16t32.5 -45t8.5 -70v-374h-136v367q0 9 -1 16.5t-4 13t-9 9t-17 3.5q-8 0 -14 -2t-8.5 -4.5t-4.5 -5.5v-397h-136z" />
    <glyph glyph-name="i" unicode="i" horiz-adv-x="198" 
d="M31 0v495h136v-495h-136zM98 547q-25 0 -43.5 17.5t-18.5 42.5t18.5 42.5t43.5 17.5q26 0 44.5 -17.5t18.5 -42.5t-18.5 -42.5t-44.5 -17.5z" />
    <glyph glyph-name="j" unicode="j" horiz-adv-x="194" 
d="M-21 -113q-8 1 -23 2t-19 2v71q9 0 22.5 0.5t20.5 1.5q26 1 38.5 15.5t12.5 34.5v481h136v-440q0 -73 -27 -110.5t-69.5 -49.5t-91.5 -8zM97 547q-25 0 -43.5 17.5t-18.5 42.5t18.5 42.5t43.5 17.5q26 0 44.5 -17.5t18.5 -42.5t-18.5 -42.5t-44.5 -17.5z" />
    <glyph glyph-name="k" unicode="k" horiz-adv-x="399" 
d="M245 0l-75 286l90 209h134l-96 -211l94 -284h-147zM31 0v631h136v-631h-136z" />
    <glyph glyph-name="l" unicode="l" horiz-adv-x="198" 
d="M31 0v631h136v-631h-136z" />
    <glyph glyph-name="m" unicode="m" horiz-adv-x="579" 
d="M31 0v495h116l11 -60q9 30 34 50t58 20q57 0 80.5 -24t28.5 -70h-14q5 39 32.5 66.5t66.5 27.5q65 0 87 -32.5t22 -96.5v-376h-136v369q0 21 -6.5 30.5t-20.5 9.5q-10 0 -18.5 -4.5t-11.5 -12.5v-392h-136v371q0 20 -6.5 29t-20.5 9q-11 0 -18.5 -4t-11.5 -10v-395h-136z
" />
    <glyph glyph-name="n" unicode="n" horiz-adv-x="386" 
d="M31 0v495h115l12 -60q8 31 34 50.5t58 19.5q46 0 70 -16t32.5 -45t8.5 -70v-374h-136v367q0 10 -1 17.5t-4 13t-8.5 8.5t-15.5 3q-7 0 -13 -2t-10 -5.5t-6 -6.5v-395h-136z" />
    <glyph glyph-name="o" unicode="o" horiz-adv-x="379" 
d="M190 -8q-52 0 -89 12t-57 48.5t-20 110.5v201q0 79 42.5 109.5t123.5 30.5t123 -30t42 -110v-200q0 -75 -19.5 -111.5t-56.5 -48.5t-89 -12zM190 71q14 0 21.5 9.5t7.5 34.5v266q0 23 -7 33t-22 10q-14 0 -22 -9.5t-8 -33.5v-266q0 -25 8 -34.5t22 -9.5z" />
    <glyph glyph-name="p" unicode="p" horiz-adv-x="386" 
d="M31 -116v611h135v-37q10 16 27 30.5t56 14.5q30 0 55 -9.5t41 -34t16 -71.5v-238q0 -61 -13.5 -95t-38.5 -47.5t-59 -13.5q-35 0 -54 12.5t-29 29.5v-152h-136zM196 70q9 0 14.5 2.5t9 8.5t4.5 13.5t1 18.5v263q0 11 -1 19t-4.5 13.5t-9 8.5t-14.5 3q-8 0 -13.5 -2.5
t-9 -6.5t-5 -8.5t-1.5 -8.5v-282q0 -14 2.5 -24t9 -14t17.5 -4z" />
    <glyph glyph-name="q" unicode="q" horiz-adv-x="386" 
d="M219 -116v160q-8 -20 -27.5 -35.5t-58.5 -15.5q-21 0 -40.5 5.5t-35 21t-24.5 46.5t-9 83v239q0 35 10.5 57t26.5 34t34.5 16.5t36.5 4.5q41 0 59.5 -13t27.5 -28l1 36h135v-611h-136zM190 69q8 0 13.5 3.5t9 10t5 14.5t1.5 17v280q0 4 -1.5 8.5t-5 8.5t-9 6.5t-13.5 2.5
q-10 0 -15.5 -3t-9 -8.5t-4.5 -13.5t-1 -19v-263q0 -11 1 -19t4.5 -13.5t9 -8.5t15.5 -3z" />
    <glyph glyph-name="r" unicode="r" horiz-adv-x="293" 
d="M31 0v495h116l11 -62q7 20 22.5 34t33.5 21q34 17 75 8v-104q-1 1 -16 2.5t-34.5 0t-32.5 -11.5q-21 -11 -30 -33t-9 -52v-298h-136z" />
    <glyph glyph-name="s" unicode="s" horiz-adv-x="378" 
d="M186 -8q-66 0 -102.5 16.5t-50.5 51t-14 85.5v36h136v-66q0 -26 6 -38t24 -12q15 0 21.5 10t6.5 28v42q0 25 -9.5 37.5t-28.5 20.5t-46 19q-24 10 -46.5 23.5t-37 36.5t-14.5 59v28q0 67 36 100.5t131 33.5q63 0 98 -15.5t49 -48.5t14 -82v-34h-132v58q0 27 -6 38.5
t-22 11.5q-17 0 -23 -10.5t-6 -25.5v-41q0 -23 14 -36t35.5 -20t42.5 -15q25 -9 47 -22t36 -35t14 -57v-33q0 -47 -16 -79t-53 -48.5t-104 -16.5z" />
    <glyph glyph-name="t" unicode="t" horiz-adv-x="292" 
d="M194 -4q-24 0 -48.5 4t-45 15.5t-33 34t-12.5 61.5v305h-48v67l60 12l19 91h105v-91h89v-79h-89v-281q0 -18 7 -33.5t33 -15.5q13 0 30 1.5t19 1.5v-81q-2 0 -28.5 -6t-57.5 -6z" />
    <glyph glyph-name="u" unicode="u" horiz-adv-x="391" 
d="M141 -7q-46 0 -70 15.5t-33 45t-9 70.5v371h136v-365q0 -12 2.5 -21t9 -14.5t18.5 -5.5q8 0 13.5 2t9.5 5t6 6v393h136v-495h-116l-11 63q-9 -30 -33.5 -50t-58.5 -20z" />
    <glyph glyph-name="v" unicode="v" horiz-adv-x="380" 
d="M110 0l-103 495h140l52 -343h1l44 343h129l-101 -495h-162z" />
    <glyph glyph-name="w" unicode="w" horiz-adv-x="602" 
d="M103 0l-101 495h130l51 -333l52 333h132l59 -333l44 333h129l-100 -495h-157l-42 235l-40 -235h-157z" />
    <glyph glyph-name="x" unicode="x" horiz-adv-x="357" 
d="M-2 0l94 256l-77 239h130l38 -138l49 138h125l-87 -239l82 -256h-129l-41 143l-51 -143h-133z" />
    <glyph glyph-name="y" unicode="y" horiz-adv-x="362" 
d="M113 -116q-31 0 -61 4.5t-47 8.5v71q7 -2 18.5 -4t25.5 -2q12 0 27 4t19 25q1 8 1.5 17t-2.5 21l-96 466h141l47 -367h2l48 367h129l-91 -442q-18 -91 -57 -130t-104 -39z" />
    <glyph glyph-name="z" unicode="z" horiz-adv-x="298" 
d="M8 0v53l128 355h-114v87h267v-58l-122 -345h122v-92h-281z" />
    <glyph glyph-name="braceleft" unicode="{" horiz-adv-x="343" 
d="M298 -136q-91 1 -143.5 23t-75 56.5t-22.5 69.5q0 40 12 65.5t28 43.5t28 34t12 36q0 16 -8.5 28t-24 19t-39.5 7v38q19 0 34.5 9t24.5 24t9 32q0 14 -11.5 29.5t-26 33.5t-26.5 41.5t-12 55.5q0 41 21.5 76t73.5 57t146 23v-71q-25 -4 -47 -9.5t-34.5 -22.5t-12.5 -53
q0 -29 8.5 -50.5t19 -39.5t19 -36.5t8.5 -42.5q0 -14 -7.5 -31t-25 -29.5t-48.5 -14.5q34 -2 57.5 -16.5t23.5 -51.5q0 -19 -7 -36.5t-16 -36.5t-16.5 -42t-7.5 -54q0 -36 15 -56.5t35 -28.5t36 -9v-70z" />
    <glyph glyph-name="bar" unicode="|" horiz-adv-x="312" 
d="M97 -238v868h118v-868h-118z" />
    <glyph glyph-name="braceright" unicode="}" horiz-adv-x="343" 
d="M46 -136v70q16 1 35.5 9t34.5 28.5t15 56.5q0 31 -7 54t-16.5 42t-16.5 36.5t-7 36.5q0 37 24 51.5t57 16.5q-31 2 -48.5 14.5t-24.5 29.5t-7 31q0 24 8.5 42.5t19 36.5t19 39.5t8.5 50.5q0 36 -13 53t-34 22.5t-47 9.5v71q93 -1 145 -23t73.5 -57t21.5 -76
q0 -32 -11.5 -55.5t-26.5 -41.5t-26.5 -33.5t-11.5 -29.5q0 -17 9.5 -32t25 -24t33.5 -9v-38q-22 0 -38 -7t-24.5 -19t-8.5 -28q0 -20 12 -36t27.5 -34t27.5 -43.5t12 -65.5q0 -35 -22 -69.5t-75 -56.5t-143 -23z" />
    <glyph glyph-name="asciitilde" unicode="~" horiz-adv-x="539" 
d="M368 507q-36 2 -68 13.5t-64 23.5t-71 14q-28 2 -45 -14t-19 -35h-68q0 37 16.5 68t47.5 50t73 17q35 -1 66 -12t61.5 -22t62.5 -13q38 -1 52 13t18 31h76q-1 -57 -22 -86t-52.5 -38.5t-63.5 -9.5z" />
    <glyph glyph-name="uni00A0" unicode="&#xa0;" horiz-adv-x="157" 
 />
    <glyph glyph-name="exclamdown" unicode="&#xa1;" horiz-adv-x="237" 
d="M73 299h87l24 -188l7 -253h-148l7 256zM121 495q31 0 52.5 -19.5t21.5 -48.5q0 -27 -21.5 -47t-52.5 -20t-52.5 20t-21.5 47q0 29 21.5 48.5t52.5 19.5z" />
    <glyph glyph-name="cent" unicode="&#xa2;" horiz-adv-x="375" 
d="M148 -66v115q-36 4 -61.5 17t-39.5 43.5t-14 86.5v252q0 38 14 61.5t39.5 35.5t61.5 15v89h84v-92q32 -5 57 -18t39 -35t14 -56v-108h-119v116q0 15 -5.5 22t-13.5 10t-17 3q-7 0 -15 -3t-13.5 -10t-5.5 -22v-303q0 -15 5.5 -23t13.5 -11t15 -3q9 0 17 3t13.5 11t5.5 23
v107h119v-63q0 -50 -14.5 -80t-39 -44.5t-56.5 -19.5v-119h-84z" />
    <glyph glyph-name="sterling" unicode="&#xa3;" horiz-adv-x="420" 
d="M24 0v53q21 28 37 59.5t25.5 67t9.5 73.5h-70v82h62q-6 24 -15 48t-15.5 49t-6.5 51q0 51 40.5 83t125.5 32q77 0 123.5 -30.5t46.5 -101.5v-48h-120v49q0 23 -7.5 38.5t-19.5 23t-25 7.5q-18 0 -31.5 -12t-13.5 -35q0 -18 9.5 -42t19 -52.5t10.5 -59.5h69v-82h-72
q-5 -37 -18 -71t-27.5 -59.5t-25.5 -38.5q11 2 22 3.5t24.5 1.5t30.5 -1q36 -1 47 7t11 42v42h117v-53q0 -64 -16.5 -89.5t-45.5 -31.5q-31 -6 -68.5 -1t-76.5 12t-76 7q-33 0 -52 -8t-28 -15z" />
    <glyph glyph-name="currency" unicode="&#xa4;" horiz-adv-x="544" 
d="M97 65l-61 62l102 103q-10 16 -15 33.5t-5 37.5q0 39 19 72l-104 104l61 61l106 -105q34 17 71 17q38 0 71 -17l106 107l61 -61l-104 -105q20 -33 20 -73q0 -38 -19 -71l106 -104l-62 -61l-107 107q-18 -9 -35.5 -13.5t-36.5 -4.5q-38 0 -70 16zM271 243q24 0 41 16.5
t17 41.5t-17 42t-41 17t-40.5 -17t-16.5 -42t16.5 -41.5t40.5 -16.5z" />
    <glyph glyph-name="yen" unicode="&#xa5;" horiz-adv-x="396" 
d="M127 0v122h-89v65h89v50h-89v65h72l-94 289h137l49 -168l52 168h126l-95 -289h58v-65h-78v-50h78v-65h-78v-122h-138z" />
    <glyph glyph-name="brokenbar" unicode="&#xa6;" horiz-adv-x="233" 
d="M57 -166v345h118v-345h-118zM57 268v317h118v-317h-118z" />
    <glyph glyph-name="section" unicode="&#xa7;" horiz-adv-x="443" 
d="M197 -137q-56 0 -95 15t-59 53t-20 108v20h145v-44q0 -32 4.5 -48.5t11.5 -22.5t18 -6q17 0 25.5 13.5t8.5 54.5q0 34 -10 53t-33.5 31.5t-62.5 27.5q-37 15 -61 34t-35 44.5t-11 59.5q0 52 18 81.5t47 44.5t61 25l24 -44q-10 -13 -21 -31t-11 -49q0 -25 10 -40.5t33 -27
t59 -26.5q32 -12 56.5 -21t41 -22.5t25.5 -38t9 -68.5q0 -66 -22 -104.5t-62 -55t-94 -16.5zM286 33l-45 64q25 16 43 33t18 56q0 35 -23 54.5t-59.5 32.5t-75.5 30q-32 14 -52.5 29.5t-29 38.5t-8.5 60q0 61 16 97.5t54 53.5t105 17q85 0 129.5 -35.5t44.5 -106.5v-48h-139
v61q0 22 -6 34.5t-28 12.5q-19 0 -26 -12.5t-7 -40.5q0 -39 12 -59t33 -30t50 -21q43 -15 71.5 -30.5t42.5 -43t14 -82.5q0 -50 -19 -83t-49.5 -52.5t-65.5 -29.5z" />
    <glyph glyph-name="dieresis" unicode="&#xa8;" horiz-adv-x="257" 
d="M54 546q-23 0 -38.5 15t-15.5 36q0 22 15.5 36.5t38.5 14.5t38 -14.5t15 -36.5q0 -21 -15 -36t-38 -15zM184 546q-23 0 -38.5 15t-15.5 36q0 22 15.5 36.5t38.5 14.5t38 -14.5t15 -36.5q0 -21 -15 -36t-38 -15z" />
    <glyph glyph-name="copyright" unicode="&#xa9;" horiz-adv-x="600" 
d="M309 30q-58 0 -109 21.5t-89.5 60.5t-60 90t-21.5 109t21.5 109t60 89.5t89.5 60t109 21.5t109 -21.5t89.5 -60t60 -89.5t21.5 -109t-21.5 -109t-60 -90t-89.5 -60.5t-109 -21.5zM309 80q48 0 89.5 18t73 50t49 74t17.5 89q0 64 -31 115.5t-82.5 82.5t-115.5 31
q-47 0 -88.5 -18t-73 -49.5t-49 -73t-17.5 -88.5t17.5 -89t49 -74t73 -50t88.5 -18zM310 149q-35 0 -60.5 7.5t-38.5 31t-13 72.5v138q0 53 28.5 72.5t83.5 19.5q56 0 84 -18.5t28 -67.5v-50h-91v56q0 14 -5 20.5t-16 6.5t-15.5 -6.5t-4.5 -20.5v-180q0 -16 4.5 -22t15.5 -6
t16 6t5 22v62h91v-31q0 -49 -13 -73t-38.5 -31.5t-60.5 -7.5z" />
    <glyph glyph-name="ordfeminine" unicode="&#xaa;" horiz-adv-x="242" 
d="M82 259q-16 0 -29 4.5t-21.5 17t-8.5 38.5v45q0 27 16 44t53 30q27 10 36.5 18t9.5 30v18q0 10 -4 15t-13 5q-11 0 -14.5 -9t-3.5 -32v-25h-74v33q0 22 7 39t26 27t59 10q39 0 61 -6.5t30.5 -21.5t8.5 -41v-234h-82v31q-4 -16 -20 -26t-37 -10zM118 313q12 0 15.5 9
t3.5 28v68q-2 -5 -8 -8t-11 -8q-8 -6 -12 -11.5t-4 -17.5v-34q0 -8 2 -14t5.5 -9t8.5 -3z" />
    <glyph glyph-name="guillemotleft" unicode="&#xab;" horiz-adv-x="546" 
d="M391 101l-134 192l135 195h121l-135 -195l133 -192h-120zM167 101l-134 192l135 195h121l-135 -195l133 -192h-120z" />
    <glyph glyph-name="logicalnot" unicode="&#xac;" horiz-adv-x="558" 
d="M438 112v197h-400v99h487v-296h-87z" />
    <glyph glyph-name="uni00AD" unicode="&#xad;" horiz-adv-x="45" 
 />
    <glyph glyph-name="registered" unicode="&#xae;" horiz-adv-x="378" 
d="M189 279q-43 0 -78.5 21t-56.5 56.5t-21 78.5t21 78.5t56.5 56.5t78.5 21q44 0 79 -21t56 -56.5t21 -78.5t-21 -78.5t-56 -56.5t-79 -21zM189 308q35 0 64 17.5t45.5 46t16.5 63.5q0 36 -16.5 64.5t-45.5 45t-64 16.5t-63.5 -16.5t-45.5 -45.5t-17 -64t17 -64t45.5 -46
t63.5 -17zM137 358v160h60q27 0 36 -9.5t9 -30.5q0 -18 -6 -30.5t-24 -15.5q1 -1 3 -3.5t2 -4.5l35 -66h-35q-5 12 -11 24t-11.5 24t-10.5 23h-17v-71h-30zM167 446h21q14 0 20.5 8t6.5 22q0 10 -4 17t-19 7h-25v-54z" />
    <glyph glyph-name="macron" unicode="&#xaf;" horiz-adv-x="234" 
d="M10 558v68h214v-68h-214z" />
    <glyph glyph-name="degree" unicode="&#xb0;" horiz-adv-x="331" 
d="M165 333q-68 0 -100 37.5t-32 90.5q0 54 30 92t104 38q49 0 78 -17.5t41 -46.5t12 -64q0 -57 -32 -93.5t-101 -36.5zM166 393q29 0 46 19.5t17 49.5q0 28 -16 49t-48 21q-28 0 -45 -21t-17 -50t17.5 -48.5t45.5 -19.5z" />
    <glyph glyph-name="plusminus" unicode="&#xb1;" horiz-adv-x="430" 
d="M169 161v138h-136v91h136v138h91v-138h137v-91h-137v-138h-91zM33 0v85h364v-85h-364z" />
    <glyph glyph-name="uni00B2" unicode="&#xb2;" horiz-adv-x="254" 
d="M22 237v46q0 51 12 79.5t57 49.5q37 17 49 33t12 47q0 19 -4 31t-19 12q-13 0 -19 -10t-6 -35v-38h-83v26q0 65 25.5 90t85.5 25q46 0 69.5 -12.5t31 -33.5t7.5 -45q0 -39 -10 -62t-26.5 -37t-37.5 -27q-33 -20 -46 -29.5t-19 -18.5q-4 -6 -4.5 -12t-0.5 -11h141v-68
h-215z" />
    <glyph glyph-name="uni00B3" unicode="&#xb3;" horiz-adv-x="252" 
d="M124 236q-57 0 -84.5 22.5t-27.5 64.5v43h86v-17q0 -22 4.5 -36.5t20.5 -15.5q13 0 18.5 11.5t5.5 26.5v34q0 16 -12 22t-40 6h-27v46h28q29 0 40 7.5t11 22.5v26q0 14 -5 25t-19 11q-16 0 -20 -14.5t-4 -36.5v-11h-87v37q0 43 28 64.5t84 21.5q67 0 89.5 -21.5
t22.5 -56.5v-32q0 -29 -15.5 -48t-48.5 -21q31 0 48 -18.5t17 -48.5v-27q0 -43 -23.5 -65t-89.5 -22z" />
    <glyph glyph-name="acute" unicode="&#xb4;" horiz-adv-x="206" 
d="M0 549l58 103h120l-101 -103h-77z" />
    <glyph glyph-name="uni00B5" unicode="&#xb5;" horiz-adv-x="396" 
d="M33 -129v624h136v-393q4 -7 12 -10.5t18 -3.5q9 0 15 3.5t9.5 12.5t3.5 24v367h136v-371q0 -43 -9 -72.5t-33 -44t-68 -14.5q-32 0 -58 19t-35 51l-11 -192h-116z" />
    <glyph glyph-name="paragraph" unicode="&#xb6;" horiz-adv-x="600" 
d="M183 -59v265q-43 0 -75 22t-49 64.5t-17 105.5q0 58 15.5 95t41 57t54 27.5t54.5 7.5h188v-644h-56v552h-45v-552h-111z" />
    <glyph glyph-name="periodcentered" unicode="&#xb7;" horiz-adv-x="238" 
d="M118 220q-28 0 -48 19t-20 46q0 28 20 47t48 19t49 -19t21 -47q0 -27 -21 -46t-49 -19z" />
    <glyph glyph-name="cedilla" unicode="&#xb8;" horiz-adv-x="224" 
d="M63 -168q-21 0 -38.5 8t-24.5 12l16 42q7 -6 19.5 -10.5t21.5 -4.5q14 0 22 7t8 20q0 9 -6 13.5t-14 4.5q-6 0 -10.5 -2t-7.5 -5l-36 20l31 63h50l-26 -53l-7 4q6 3 16 6.5t23 3.5q29 0 45 -18.5t16 -39.5q0 -29 -25.5 -50t-72.5 -21z" />
    <glyph glyph-name="uni00B9" unicode="&#xb9;" horiz-adv-x="182" 
d="M70 236v257l-58 -13v48q32 13 53 27.5t42 35.5h46v-355h-83z" />
    <glyph glyph-name="ordmasculine" unicode="&#xba;" horiz-adv-x="233" 
d="M117 266q-32 0 -54 7t-34 29t-12 67v121q0 47 25.5 65t74.5 18q48 0 73.5 -18t25.5 -65v-120q0 -45 -12 -67.5t-34 -29.5t-53 -7zM117 314q8 0 12.5 5.5t4.5 20.5v159q0 15 -4.5 20.5t-12.5 5.5q-10 0 -14 -5.5t-4 -20.5v-159q0 -15 4 -20.5t14 -5.5z" />
    <glyph glyph-name="guillemotright" unicode="&#xbb;" horiz-adv-x="546" 
d="M259 101l133 192l-135 195h120l136 -195l-135 -192h-119zM35 101l133 192l-135 195h121l135 -195l-135 -192h-119z" />
    <glyph glyph-name="onequarter" unicode="&#xbc;" horiz-adv-x="593" 
d="M70 236v257l-58 -13v48q32 13 53 27.5t42 35.5h46v-355h-83zM70 0l321 590h97l-322 -590h-96zM456 0v69h-130v53l140 233h74v-229h38v-57h-38v-69h-84zM402 126h54v95z" />
    <glyph glyph-name="onehalf" unicode="&#xbd;" horiz-adv-x="629" 
d="M70 236v257l-58 -13v48q32 13 53 27.5t42 35.5h46v-355h-83zM70 0l321 590h97l-322 -590h-96zM382 1v46q0 51 12 79.5t57 49.5q37 17 49 33t12 47q0 19 -4 31t-19 12q-13 0 -19 -10t-6 -35v-38h-83v26q0 65 25.5 90t85.5 25q46 0 69.5 -12.5t31 -33.5t7.5 -45
q0 -39 -10 -62t-26.5 -37t-37.5 -27q-33 -20 -46 -29.5t-19 -18.5q-4 -6 -4.5 -12t-0.5 -11h141v-68h-215z" />
    <glyph glyph-name="threequarters" unicode="&#xbe;" horiz-adv-x="637" 
d="M124 236q-57 0 -84.5 22.5t-27.5 64.5v43h86v-17q0 -22 4.5 -36.5t20.5 -15.5q13 0 18.5 11.5t5.5 26.5v34q0 16 -12 22t-40 6h-27v46h28q29 0 40 7.5t11 22.5v26q0 14 -5 25t-19 11q-16 0 -20 -14.5t-4 -36.5v-11h-87v37q0 43 28 64.5t84 21.5q67 0 89.5 -21.5
t22.5 -56.5v-32q0 -29 -15.5 -48t-48.5 -21q31 0 48 -18.5t17 -48.5v-27q0 -43 -23.5 -65t-89.5 -22zM119 0l321 590h97l-322 -590h-96zM492 3v69h-130v53l140 233h74v-229h38v-57h-38v-69h-84zM438 129h54v95z" />
    <glyph glyph-name="questiondown" unicode="&#xbf;" horiz-adv-x="408" 
d="M292 325v-124q-17 -1 -32.5 -4t-29.5 -10q-16 -7 -29 -18t-21 -27.5t-8 -38.5v-45q0 -27 7.5 -45.5t27.5 -18.5q21 0 27 18.5t6 43.5v60h139v-78q0 -143 -174 -143q-65 0 -104 16t-55.5 51t-16.5 94v17q0 45 12 79.5t35.5 57.5t57.5 31q10 1 19 1.5t19 0.5v82h120z
M234 498q29 0 48.5 -19t19.5 -46q0 -28 -19.5 -47t-48.5 -19q-28 0 -49 19t-21 47q0 27 21 46t49 19z" />
    <glyph glyph-name="Agrave" unicode="&#xc0;" horiz-adv-x="401" 
d="M6 0l94 591h203l92 -591h-155l-13 97h-60l-11 -97h-150zM168 165h59l-29 311zM179 635l-115 94h125l74 -94h-84z" />
    <glyph glyph-name="Aacute" unicode="&#xc1;" horiz-adv-x="401" 
d="M6 0l94 591h203l92 -591h-155l-13 97h-60l-11 -97h-150zM168 165h59l-29 311zM135 635l78 98h122l-124 -98h-76z" />
    <glyph glyph-name="Acircumflex" unicode="&#xc2;" horiz-adv-x="401" 
d="M6 0l94 591h203l92 -591h-155l-13 97h-60l-11 -97h-150zM168 165h59l-29 311zM64 631l99 105h74l100 -104h-93l-43 37l-43 -38h-94z" />
    <glyph glyph-name="Atilde" unicode="&#xc3;" horiz-adv-x="401" 
d="M6 0l94 591h203l92 -591h-155l-13 97h-60l-11 -97h-150zM168 165h59l-29 311zM244 636q-16 0 -30 6.5t-28 14.5q-11 6 -22.5 11t-23.5 5q-13 0 -20 -10t-8 -26h-38q0 44 18.5 70.5t49.5 26.5q17 0 31.5 -5.5t26.5 -12.5q12 -6 23 -11t22 -5q15 0 22 9t9 22h42
q-1 -31 -12.5 -52t-28 -32t-33.5 -11z" />
    <glyph glyph-name="Adieresis" unicode="&#xc4;" horiz-adv-x="401" 
d="M6 0l94 591h203l92 -591h-155l-13 97h-60l-11 -97h-150zM168 165h59l-29 311zM136 632q-23 0 -38.5 15t-15.5 36q0 22 15.5 36.5t38.5 14.5t38 -14.5t15 -36.5q0 -21 -15 -36t-38 -15zM266 632q-23 0 -38.5 15t-15.5 36q0 22 15.5 36.5t38.5 14.5t38 -14.5t15 -36.5
q0 -21 -15 -36t-38 -15z" />
    <glyph glyph-name="Aring" unicode="&#xc5;" horiz-adv-x="401" 
d="M6 0l94 591h203l92 -591h-155l-13 97h-60l-11 -97h-150zM168 165h59l-29 311zM201 596q-39 0 -64.5 24.5t-25.5 59.5q0 37 25.5 61.5t64.5 24.5q37 0 63.5 -25t26.5 -61q0 -35 -27 -59.5t-63 -24.5zM201 649q15 0 24.5 9t9.5 22q0 16 -9.5 25t-24.5 9t-25 -9t-10 -25
q0 -13 10 -22t25 -9z" />
    <glyph glyph-name="AE" unicode="&#xc6;" horiz-adv-x="559" 
d="M-2 0l167 591h364v-97h-160l2 -136h143v-109h-141l2 -154h165v-95h-318l2 97h-53l-23 -97h-150zM181 165h51l14 289l2 22l-4 -22z" />
    <glyph glyph-name="Ccedilla" unicode="&#xc7;" horiz-adv-x="396" 
d="M202 -12q-52 0 -91 12.5t-61.5 50.5t-22.5 114v301q0 51 22.5 80t62 41.5t90.5 12.5q53 0 91 -12.5t58.5 -41.5t20.5 -80v-131h-139v137q0 18 -4 27t-10.5 12.5t-16.5 3.5q-9 0 -16 -3.5t-11 -12.5t-4 -27v-360q0 -17 4 -27t11 -13t16 -3q10 0 16.5 3t10.5 13t4 27v127
h139v-73q0 -77 -20.5 -115t-58.5 -50.5t-91 -12.5zM193 -168q-21 0 -38.5 8t-24.5 12l16 42q7 -6 19.5 -10.5t21.5 -4.5q14 0 22 7t8 20q0 9 -6 13.5t-14 4.5q-6 0 -10.5 -2t-7.5 -5l-36 20l31 63h50l-26 -53l-7 4q6 3 16 6.5t23 3.5q29 0 45 -18.5t16 -39.5
q0 -29 -25.5 -50t-72.5 -21z" />
    <glyph glyph-name="Egrave" unicode="&#xc8;" horiz-adv-x="331" 
d="M33 0v591h280v-97h-135v-136h118v-109h-118v-154h135v-95h-280zM150 635l-115 94h125l74 -94h-84z" />
    <glyph glyph-name="Eacute" unicode="&#xc9;" horiz-adv-x="331" 
d="M33 0v591h280v-97h-135v-136h118v-109h-118v-154h135v-95h-280zM106 635l78 98h122l-124 -98h-76z" />
    <glyph glyph-name="Ecircumflex" unicode="&#xca;" horiz-adv-x="331" 
d="M33 0v591h280v-97h-135v-136h118v-109h-118v-154h135v-95h-280zM36 631l99 105h74l100 -104h-93l-43 37l-43 -38h-94z" />
    <glyph glyph-name="Edieresis" unicode="&#xcb;" horiz-adv-x="331" 
d="M33 0v591h280v-97h-135v-136h118v-109h-118v-154h135v-95h-280zM107 632q-23 0 -38.5 15t-15.5 36q0 22 15.5 36.5t38.5 14.5t38 -14.5t15 -36.5q0 -21 -15 -36t-38 -15zM237 632q-23 0 -38.5 15t-15.5 36q0 22 15.5 36.5t38.5 14.5t38 -14.5t15 -36.5q0 -21 -15 -36
t-38 -15z" />
    <glyph glyph-name="Igrave" unicode="&#xcc;" horiz-adv-x="205" 
d="M33 0v591h139v-591h-139zM81 635l-115 94h125l74 -94h-84z" />
    <glyph glyph-name="Iacute" unicode="&#xcd;" horiz-adv-x="205" 
d="M33 0v591h139v-591h-139zM37 635l78 98h122l-124 -98h-76z" />
    <glyph glyph-name="Icircumflex" unicode="&#xce;" horiz-adv-x="205" 
d="M33 0v591h139v-591h-139zM-34 631l99 105h74l100 -104h-93l-43 37l-43 -38h-94z" />
    <glyph glyph-name="Idieresis" unicode="&#xcf;" horiz-adv-x="205" 
d="M33 0v591h139v-591h-139zM38 632q-23 0 -38.5 15t-15.5 36q0 22 15.5 36.5t38.5 14.5t38 -14.5t15 -36.5q0 -21 -15 -36t-38 -15zM168 632q-23 0 -38.5 15t-15.5 36q0 22 15.5 36.5t38.5 14.5t38 -14.5t15 -36.5q0 -21 -15 -36t-38 -15z" />
    <glyph glyph-name="Eth" unicode="&#xd0;" horiz-adv-x="444" 
d="M53 0v591h239q43 0 70.5 -12.5t40.5 -36t13 -56.5v-360q0 -48 -17.5 -75.5t-49.5 -39t-77 -11.5h-219zM10 251v79h218v-79h-218zM197 71h41q22 0 31 9t9 33v358q0 24 -9 33.5t-31 9.5h-41v-443z" />
    <glyph glyph-name="Ntilde" unicode="&#xd1;" horiz-adv-x="404" 
d="M33 0v591h120l97 -315v315h121v-591h-120l-96 288v-288h-122zM249 636q-16 0 -30 6.5t-28 14.5q-11 6 -22.5 11t-23.5 5q-13 0 -20 -10t-8 -26h-38q0 44 18.5 70.5t49.5 26.5q17 0 31.5 -5.5t26.5 -12.5q12 -6 23 -11t22 -5q15 0 22 9t9 22h42q-1 -31 -12.5 -52t-28 -32
t-33.5 -11z" />
    <glyph glyph-name="Ograve" unicode="&#xd2;" horiz-adv-x="399" 
d="M198 -12q-51 0 -89.5 12.5t-60 50.5t-21.5 114v301q0 51 21.5 80t60 41.5t89.5 12.5t90 -12.5t61.5 -41.5t22.5 -80v-300q0 -77 -22.5 -115t-61.5 -50.5t-90 -12.5zM198 69q10 0 18.5 4t12.5 13.5t4 25.5v360q0 15 -4 25t-12.5 14t-18.5 4t-18 -4t-12.5 -14t-4.5 -25
v-360q0 -16 4.5 -25.5t12.5 -13.5t18 -4zM178 635l-115 94h125l74 -94h-84z" />
    <glyph glyph-name="Oacute" unicode="&#xd3;" horiz-adv-x="399" 
d="M198 -12q-51 0 -89.5 12.5t-60 50.5t-21.5 114v301q0 51 21.5 80t60 41.5t89.5 12.5t90 -12.5t61.5 -41.5t22.5 -80v-300q0 -77 -22.5 -115t-61.5 -50.5t-90 -12.5zM198 69q10 0 18.5 4t12.5 13.5t4 25.5v360q0 15 -4 25t-12.5 14t-18.5 4t-18 -4t-12.5 -14t-4.5 -25
v-360q0 -16 4.5 -25.5t12.5 -13.5t18 -4zM134 635l78 98h122l-124 -98h-76z" />
    <glyph glyph-name="Ocircumflex" unicode="&#xd4;" horiz-adv-x="399" 
d="M198 -12q-51 0 -89.5 12.5t-60 50.5t-21.5 114v301q0 51 21.5 80t60 41.5t89.5 12.5t90 -12.5t61.5 -41.5t22.5 -80v-300q0 -77 -22.5 -115t-61.5 -50.5t-90 -12.5zM198 69q10 0 18.5 4t12.5 13.5t4 25.5v360q0 15 -4 25t-12.5 14t-18.5 4t-18 -4t-12.5 -14t-4.5 -25
v-360q0 -16 4.5 -25.5t12.5 -13.5t18 -4zM63 631l99 105h74l100 -104h-93l-43 37l-43 -38h-94z" />
    <glyph glyph-name="Otilde" unicode="&#xd5;" horiz-adv-x="399" 
d="M198 -12q-51 0 -89.5 12.5t-60 50.5t-21.5 114v301q0 51 21.5 80t60 41.5t89.5 12.5t90 -12.5t61.5 -41.5t22.5 -80v-300q0 -77 -22.5 -115t-61.5 -50.5t-90 -12.5zM198 69q10 0 18.5 4t12.5 13.5t4 25.5v360q0 15 -4 25t-12.5 14t-18.5 4t-18 -4t-12.5 -14t-4.5 -25
v-360q0 -16 4.5 -25.5t12.5 -13.5t18 -4zM243 636q-16 0 -30 6.5t-28 14.5q-11 6 -22.5 11t-23.5 5q-13 0 -20 -10t-8 -26h-38q0 44 18.5 70.5t49.5 26.5q17 0 31.5 -5.5t26.5 -12.5q12 -6 23 -11t22 -5q15 0 22 9t9 22h42q-1 -31 -12.5 -52t-28 -32t-33.5 -11z" />
    <glyph glyph-name="Odieresis" unicode="&#xd6;" horiz-adv-x="399" 
d="M198 -12q-51 0 -89.5 12.5t-60 50.5t-21.5 114v301q0 51 21.5 80t60 41.5t89.5 12.5t90 -12.5t61.5 -41.5t22.5 -80v-300q0 -77 -22.5 -115t-61.5 -50.5t-90 -12.5zM198 69q10 0 18.5 4t12.5 13.5t4 25.5v360q0 15 -4 25t-12.5 14t-18.5 4t-18 -4t-12.5 -14t-4.5 -25
v-360q0 -16 4.5 -25.5t12.5 -13.5t18 -4zM135 632q-23 0 -38.5 15t-15.5 36q0 22 15.5 36.5t38.5 14.5t38 -14.5t15 -36.5q0 -21 -15 -36t-38 -15zM265 632q-23 0 -38.5 15t-15.5 36q0 22 15.5 36.5t38.5 14.5t38 -14.5t15 -36.5q0 -21 -15 -36t-38 -15z" />
    <glyph glyph-name="multiply" unicode="&#xd7;" horiz-adv-x="401" 
d="M305 93l-104 103l-102 -100l-65 64l103 101l-104 103l65 65l103 -103l102 103l64 -65l-101 -103l102 -104z" />
    <glyph glyph-name="Oslash" unicode="&#xd8;" horiz-adv-x="413" 
d="M12 -36l336 664h60l-336 -664h-60zM206 -12q-51 0 -90.5 12.5t-62 50.5t-22.5 114v301q0 51 22.5 80t62 41.5t91.5 12.5t90 -12.5t58.5 -41.5t20.5 -80v-300q0 -77 -20.5 -115t-58.5 -50.5t-91 -12.5zM207 69q9 0 16 3t10.5 13t3.5 27v360q0 18 -3.5 27t-10.5 12.5
t-16 3.5q-10 0 -17 -3.5t-10.5 -12.5t-3.5 -27v-360q0 -17 3.5 -27t10.5 -13t17 -3z" />
    <glyph glyph-name="Ugrave" unicode="&#xd9;" horiz-adv-x="404" 
d="M202 -12q-38 0 -69 5.5t-53.5 21.5t-35 49.5t-12.5 90.5v436h139v-476q0 -16 4 -25.5t11 -13t16 -3.5t16.5 3.5t11.5 13t4 25.5v476h138v-435q0 -57 -12 -91t-34.5 -50t-54 -21.5t-69.5 -5.5zM180 635l-115 94h125l74 -94h-84z" />
    <glyph glyph-name="Uacute" unicode="&#xda;" horiz-adv-x="404" 
d="M202 -12q-38 0 -69 5.5t-53.5 21.5t-35 49.5t-12.5 90.5v436h139v-476q0 -16 4 -25.5t11 -13t16 -3.5t16.5 3.5t11.5 13t4 25.5v476h138v-435q0 -57 -12 -91t-34.5 -50t-54 -21.5t-69.5 -5.5zM137 635l78 98h122l-124 -98h-76z" />
    <glyph glyph-name="Ucircumflex" unicode="&#xdb;" horiz-adv-x="404" 
d="M202 -12q-38 0 -69 5.5t-53.5 21.5t-35 49.5t-12.5 90.5v436h139v-476q0 -16 4 -25.5t11 -13t16 -3.5t16.5 3.5t11.5 13t4 25.5v476h138v-435q0 -57 -12 -91t-34.5 -50t-54 -21.5t-69.5 -5.5zM66 631l99 105h74l100 -104h-93l-43 37l-43 -38h-94z" />
    <glyph glyph-name="Udieresis" unicode="&#xdc;" horiz-adv-x="404" 
d="M202 -12q-38 0 -69 5.5t-53.5 21.5t-35 49.5t-12.5 90.5v436h139v-476q0 -16 4 -25.5t11 -13t16 -3.5t16.5 3.5t11.5 13t4 25.5v476h138v-435q0 -57 -12 -91t-34.5 -50t-54 -21.5t-69.5 -5.5zM137 632q-23 0 -38.5 15t-15.5 36q0 22 15.5 36.5t38.5 14.5t38 -14.5
t15 -36.5q0 -21 -15 -36t-38 -15zM267 632q-23 0 -38.5 15t-15.5 36q0 22 15.5 36.5t38.5 14.5t38 -14.5t15 -36.5q0 -21 -15 -36t-38 -15z" />
    <glyph glyph-name="Yacute" unicode="&#xdd;" horiz-adv-x="377" 
d="M117 0v248l-111 343h138l41 -149l8 -45l8 45l43 149h127l-115 -351v-240h-139zM129 635l78 98h122l-124 -98h-76z" />
    <glyph glyph-name="Thorn" unicode="&#xde;" horiz-adv-x="401" 
d="M29 0v591h145v-100h76q63 0 93 -27t30 -73v-101q0 -42 -10 -78.5t-36 -59t-73 -22.5h-81v-130h-144zM173 206h28q17 0 25.5 22t8.5 76v25q0 49 -5.5 68.5t-22.5 19.5h-34v-211z" />
    <glyph glyph-name="germandbls" unicode="&#xdf;" horiz-adv-x="476" 
d="M15 -147q-11 0 -31.5 1.5t-28.5 2.5v77q4 -1 7 -1t7 -1q5 -1 12.5 -1.5t17.5 -0.5q37 0 49 21t12 50v401h-42v93h42v27q0 38 13.5 62t54 35.5t118.5 11.5q91 0 139.5 -21.5t48.5 -76.5v-95q0 -42 -25 -68t-55 -28v-4q23 -2 45 -13t37 -31t15 -50v-123q0 -52 -22 -78
t-62 -34.5t-94 -8.5h-49v69h29q20 0 30 8t14 31t4 69v62q0 19 -4 32t-15.5 20.5t-35.5 7.5h-22l1 70h40q22 0 28.5 18t6.5 50v53q0 41 -8.5 58.5t-43.5 17.5q-22 0 -33 -8t-15 -22t-4 -33l1 -479q0 -55 -17 -89t-44 -51.5t-59 -24t-62 -6.5z" />
    <glyph glyph-name="agrave" unicode="&#xe0;" 
d="M119 -8q-27 0 -49.5 7.5t-36 29t-13.5 63.5v74q0 45 26.5 73.5t87.5 49.5q30 12 46.5 20.5t23.5 22t7 38.5v30q0 11 -3.5 18t-10 11t-15.5 4q-17 0 -23 -15t-6 -53v-42h-123v55q0 37 11 65.5t43.5 45t97.5 16.5q66 0 102 -10.5t50.5 -36t14.5 -69.5v-389h-136v52
q-7 -27 -34.5 -43.5t-59.5 -16.5zM179 81q19 0 25 15.5t6 46.5v113q-3 -7 -13.5 -12.5t-19.5 -12.5q-13 -10 -19.5 -20t-6.5 -29v-56q0 -15 3 -25t9 -15t16 -5zM167 549l-101 103h121l57 -103h-77z" />
    <glyph glyph-name="aacute" unicode="&#xe1;" 
d="M119 -8q-27 0 -49.5 7.5t-36 29t-13.5 63.5v74q0 45 26.5 73.5t87.5 49.5q30 12 46.5 20.5t23.5 22t7 38.5v30q0 11 -3.5 18t-10 11t-15.5 4q-17 0 -23 -15t-6 -53v-42h-123v55q0 37 11 65.5t43.5 45t97.5 16.5q66 0 102 -10.5t50.5 -36t14.5 -69.5v-389h-136v52
q-7 -27 -34.5 -43.5t-59.5 -16.5zM179 81q19 0 25 15.5t6 46.5v113q-3 -7 -13.5 -12.5t-19.5 -12.5q-13 -10 -19.5 -20t-6.5 -29v-56q0 -15 3 -25t9 -15t16 -5zM145 549l58 103h120l-101 -103h-77z" />
    <glyph glyph-name="acircumflex" unicode="&#xe2;" 
d="M119 -8q-27 0 -49.5 7.5t-36 29t-13.5 63.5v74q0 45 26.5 73.5t87.5 49.5q30 12 46.5 20.5t23.5 22t7 38.5v30q0 11 -3.5 18t-10 11t-15.5 4q-17 0 -23 -15t-6 -53v-42h-123v55q0 37 11 65.5t43.5 45t97.5 16.5q66 0 102 -10.5t50.5 -36t14.5 -69.5v-389h-136v52
q-7 -27 -34.5 -43.5t-59.5 -16.5zM179 81q19 0 25 15.5t6 46.5v113q-3 -7 -13.5 -12.5t-19.5 -12.5q-13 -10 -19.5 -20t-6.5 -29v-56q0 -15 3 -25t9 -15t16 -5zM57 545l97 111h74l98 -111h-88l-46 46l-45 -46h-90z" />
    <glyph glyph-name="atilde" unicode="&#xe3;" 
d="M119 -8q-27 0 -49.5 7.5t-36 29t-13.5 63.5v74q0 45 26.5 73.5t87.5 49.5q30 12 46.5 20.5t23.5 22t7 38.5v30q0 11 -3.5 18t-10 11t-15.5 4q-17 0 -23 -15t-6 -53v-42h-123v55q0 37 11 65.5t43.5 45t97.5 16.5q66 0 102 -10.5t50.5 -36t14.5 -69.5v-389h-136v52
q-7 -27 -34.5 -43.5t-59.5 -16.5zM179 81q19 0 25 15.5t6 46.5v113q-3 -7 -13.5 -12.5t-19.5 -12.5q-13 -10 -19.5 -20t-6.5 -29v-56q0 -15 3 -25t9 -15t16 -5zM239 549q-16 0 -30 6.5t-28 14.5q-11 6 -22.5 11t-23.5 5q-13 0 -20 -10t-8 -26h-38q0 44 18.5 70.5t49.5 26.5
q17 0 31.5 -5.5t26.5 -12.5q12 -6 23 -11t22 -5q15 0 22 9t9 22h42q-1 -31 -12.5 -52t-28 -32t-33.5 -11z" />
    <glyph glyph-name="adieresis" unicode="&#xe4;" 
d="M119 -8q-27 0 -49.5 7.5t-36 29t-13.5 63.5v74q0 45 26.5 73.5t87.5 49.5q30 12 46.5 20.5t23.5 22t7 38.5v30q0 11 -3.5 18t-10 11t-15.5 4q-17 0 -23 -15t-6 -53v-42h-123v55q0 37 11 65.5t43.5 45t97.5 16.5q66 0 102 -10.5t50.5 -36t14.5 -69.5v-389h-136v52
q-7 -27 -34.5 -43.5t-59.5 -16.5zM179 81q19 0 25 15.5t6 46.5v113q-3 -7 -13.5 -12.5t-19.5 -12.5q-13 -10 -19.5 -20t-6.5 -29v-56q0 -15 3 -25t9 -15t16 -5zM126 546q-23 0 -38.5 15t-15.5 36q0 22 15.5 36.5t38.5 14.5t38 -14.5t15 -36.5q0 -21 -15 -36t-38 -15z
M256 546q-23 0 -38.5 15t-15.5 36q0 22 15.5 36.5t38.5 14.5t38 -14.5t15 -36.5q0 -21 -15 -36t-38 -15z" />
    <glyph glyph-name="aring" unicode="&#xe5;" 
d="M119 -8q-27 0 -49.5 7.5t-36 29t-13.5 63.5v74q0 45 26.5 73.5t87.5 49.5q30 12 46.5 20.5t23.5 22t7 38.5v30q0 11 -3.5 18t-10 11t-15.5 4q-17 0 -23 -15t-6 -53v-42h-123v55q0 37 11 65.5t43.5 45t97.5 16.5q66 0 102 -10.5t50.5 -36t14.5 -69.5v-389h-136v52
q-7 -27 -34.5 -43.5t-59.5 -16.5zM179 81q19 0 25 15.5t6 46.5v113q-3 -7 -13.5 -12.5t-19.5 -12.5q-13 -10 -19.5 -20t-6.5 -29v-56q0 -15 3 -25t9 -15t16 -5zM191 540q-39 0 -64.5 24.5t-25.5 59.5q0 37 25.5 61.5t64.5 24.5q37 0 63.5 -25t26.5 -61q0 -35 -27 -59.5
t-63 -24.5zM191 593q15 0 24.5 9t9.5 22q0 16 -9.5 25t-24.5 9t-25 -9t-10 -25q0 -13 10 -22t25 -9z" />
    <glyph glyph-name="ae" unicode="&#xe6;" horiz-adv-x="562" 
d="M119 -6q-12 0 -29 1.5t-33 10t-26.5 29t-10.5 58.5v74q0 51 30.5 77t79.5 44q30 11 47.5 19t25.5 22t8 39v32q0 11 -3.5 18t-10 11t-15.5 4q-17 0 -23 -15t-6 -53v-42h-123v55q0 37 11 65.5t43.5 45t97.5 16.5q55 0 86 -13.5t43 -39.5t12 -63v-380l-83 70
q-17 -49 -51 -67t-70 -18zM179 81q19 0 25 15.5t6 46.5v113q-3 -7 -14 -12.5t-20 -13.5q-12 -10 -18.5 -19.5t-6.5 -27.5v-56q0 -15 3 -25.5t9 -15.5t16 -5zM378 -2q-35 0 -62.5 4.5t-46.5 19.5t-29 48t-10 89v216q0 56 38 92t110 36q81 0 123 -27.5t42 -100.5v-138h-194
v-136q0 -15 3 -24.5t9.5 -13t16.5 -3.5t16.5 4t9.5 13.5t3 24.5v84h136v-25q0 -57 -11 -90t-32.5 -48.5t-52 -20t-69.5 -4.5zM349 297h58v95q0 22 -6.5 31.5t-22.5 9.5q-15 0 -22 -9.5t-7 -31.5v-95z" />
    <glyph glyph-name="ccedilla" unicode="&#xe7;" 
d="M190 -8q-52 0 -89 11t-57 47t-20 109v207q0 79 42.5 108t123.5 29q80 0 122 -27.5t42 -100.5v-76h-136v84q0 23 -6.5 32t-21.5 9t-22.5 -9t-7.5 -32v-270q0 -23 7.5 -32.5t22.5 -9.5t21.5 9t6.5 33v94h136v-47q0 -74 -19.5 -110t-56 -47t-88.5 -11zM182 -168
q-21 0 -38.5 8t-24.5 12l16 42q7 -6 19.5 -10.5t21.5 -4.5q14 0 22 7t8 20q0 9 -6 13.5t-14 4.5q-6 0 -10.5 -2t-7.5 -5l-36 20l31 63h50l-26 -53l-7 4q6 3 16 6.5t23 3.5q29 0 45 -18.5t16 -39.5q0 -29 -25.5 -50t-72.5 -21z" />
    <glyph glyph-name="egrave" unicode="&#xe8;" 
d="M190 -8q-52 0 -89 11.5t-57 48t-20 111.5v212q0 75 42.5 102.5t123.5 27.5q80 0 122 -27.5t42 -102.5v-138h-194v-132q0 -24 7.5 -33t22.5 -9t21.5 9t6.5 33v84h136v-25q0 -76 -19.5 -112.5t-56 -48t-88.5 -11.5zM160 297h58v86q0 23 -6.5 32t-21.5 9t-22.5 -9t-7.5 -32
v-86zM163 549l-101 103h121l57 -103h-77z" />
    <glyph glyph-name="eacute" unicode="&#xe9;" 
d="M190 -8q-52 0 -89 11.5t-57 48t-20 111.5v212q0 75 42.5 102.5t123.5 27.5q80 0 122 -27.5t42 -102.5v-138h-194v-132q0 -24 7.5 -33t22.5 -9t21.5 9t6.5 33v84h136v-25q0 -76 -19.5 -112.5t-56 -48t-88.5 -11.5zM160 297h58v86q0 23 -6.5 32t-21.5 9t-22.5 -9t-7.5 -32
v-86zM141 549l58 103h120l-101 -103h-77z" />
    <glyph glyph-name="ecircumflex" unicode="&#xea;" 
d="M190 -8q-52 0 -89 11.5t-57 48t-20 111.5v212q0 75 42.5 102.5t123.5 27.5q80 0 122 -27.5t42 -102.5v-138h-194v-132q0 -24 7.5 -33t22.5 -9t21.5 9t6.5 33v84h136v-25q0 -76 -19.5 -112.5t-56 -48t-88.5 -11.5zM160 297h58v86q0 23 -6.5 32t-21.5 9t-22.5 -9t-7.5 -32
v-86zM53 545l97 111h74l98 -111h-88l-46 46l-45 -46h-90z" />
    <glyph glyph-name="edieresis" unicode="&#xeb;" 
d="M190 -8q-52 0 -89 11.5t-57 48t-20 111.5v212q0 75 42.5 102.5t123.5 27.5q80 0 122 -27.5t42 -102.5v-138h-194v-132q0 -24 7.5 -33t22.5 -9t21.5 9t6.5 33v84h136v-25q0 -76 -19.5 -112.5t-56 -48t-88.5 -11.5zM160 297h58v86q0 23 -6.5 32t-21.5 9t-22.5 -9t-7.5 -32
v-86zM123 546q-23 0 -38.5 15t-15.5 36q0 22 15.5 36.5t38.5 14.5t38 -14.5t15 -36.5q0 -21 -15 -36t-38 -15zM253 546q-23 0 -38.5 15t-15.5 36q0 22 15.5 36.5t38.5 14.5t38 -14.5t15 -36.5q0 -21 -15 -36t-38 -15z" />
    <glyph glyph-name="igrave" unicode="&#xec;" horiz-adv-x="198" 
d="M31 0v495h136v-495h-136zM75 549l-101 103h121l57 -103h-77z" />
    <glyph glyph-name="iacute" unicode="&#xed;" horiz-adv-x="198" 
d="M31 0v495h136v-495h-136zM52 549l58 103h120l-101 -103h-77z" />
    <glyph glyph-name="icircumflex" unicode="&#xee;" horiz-adv-x="198" 
d="M31 0v495h136v-495h-136zM-36 545l97 111h74l98 -111h-88l-46 46l-45 -46h-90z" />
    <glyph glyph-name="idieresis" unicode="&#xef;" horiz-adv-x="198" 
d="M31 0v495h136v-495h-136zM34 546q-23 0 -38.5 15t-15.5 36q0 22 15.5 36.5t38.5 14.5t38 -14.5t15 -36.5q0 -21 -15 -36t-38 -15zM164 546q-23 0 -38.5 15t-15.5 36q0 22 15.5 36.5t38.5 14.5t38 -14.5t15 -36.5q0 -21 -15 -36t-38 -15z" />
    <glyph glyph-name="eth" unicode="&#xf0;" horiz-adv-x="380" 
d="M189 -8q-50 0 -87.5 11.5t-57.5 47.5t-20 110v192q0 73 40.5 100.5t109.5 27.5q11 0 22.5 -1t19.5 -5v13q0 29 -8.5 48t-25 28.5t-37.5 9.5q-22 0 -42 -2.5t-46 -6.5v85q19 5 45.5 8.5t67.5 3.5q59 0 95 -15t55.5 -49.5t26.5 -91.5t7 -140v-198q0 -75 -19.5 -113
t-56 -50.5t-89.5 -12.5zM189 63q15 0 22 10.5t7 36.5v266q0 11 -3 18.5t-9.5 12t-17.5 4.5q-15 0 -21.5 -9.5t-6.5 -32.5v-267q0 -21 7.5 -30t21.5 -9zM135 496l-30 37l193 158l32 -36z" />
    <glyph glyph-name="ntilde" unicode="&#xf1;" horiz-adv-x="386" 
d="M31 0v495h115l12 -60q8 31 34 50.5t58 19.5q46 0 70 -16t32.5 -45t8.5 -70v-374h-136v367q0 10 -1 17.5t-4 13t-8.5 8.5t-15.5 3q-7 0 -13 -2t-10 -5.5t-6 -6.5v-395h-136zM241 549q-16 0 -30 6.5t-28 14.5q-11 6 -22.5 11t-23.5 5q-13 0 -20 -10t-8 -26h-38
q0 44 18.5 70.5t49.5 26.5q17 0 31.5 -5.5t26.5 -12.5q12 -6 23 -11t22 -5q15 0 22 9t9 22h42q-1 -31 -12.5 -52t-28 -32t-33.5 -11z" />
    <glyph glyph-name="ograve" unicode="&#xf2;" horiz-adv-x="379" 
d="M190 -8q-52 0 -89 12t-57 48.5t-20 110.5v201q0 79 42.5 109.5t123.5 30.5t123 -30t42 -110v-200q0 -75 -19.5 -111.5t-56.5 -48.5t-89 -12zM190 71q14 0 21.5 9.5t7.5 34.5v266q0 23 -7 33t-22 10q-14 0 -22 -9.5t-8 -33.5v-266q0 -25 8 -34.5t22 -9.5zM166 549
l-101 103h121l57 -103h-77z" />
    <glyph glyph-name="oacute" unicode="&#xf3;" horiz-adv-x="379" 
d="M190 -8q-52 0 -89 12t-57 48.5t-20 110.5v201q0 79 42.5 109.5t123.5 30.5t123 -30t42 -110v-200q0 -75 -19.5 -111.5t-56.5 -48.5t-89 -12zM190 71q14 0 21.5 9.5t7.5 34.5v266q0 23 -7 33t-22 10q-14 0 -22 -9.5t-8 -33.5v-266q0 -25 8 -34.5t22 -9.5zM143 549l58 103
h120l-101 -103h-77z" />
    <glyph glyph-name="ocircumflex" unicode="&#xf4;" horiz-adv-x="379" 
d="M190 -8q-52 0 -89 12t-57 48.5t-20 110.5v201q0 79 42.5 109.5t123.5 30.5t123 -30t42 -110v-200q0 -75 -19.5 -111.5t-56.5 -48.5t-89 -12zM190 71q14 0 21.5 9.5t7.5 34.5v266q0 23 -7 33t-22 10q-14 0 -22 -9.5t-8 -33.5v-266q0 -25 8 -34.5t22 -9.5zM55 545l97 111
h74l98 -111h-88l-46 46l-45 -46h-90z" />
    <glyph glyph-name="otilde" unicode="&#xf5;" horiz-adv-x="379" 
d="M190 -8q-52 0 -89 12t-57 48.5t-20 110.5v201q0 79 42.5 109.5t123.5 30.5t123 -30t42 -110v-200q0 -75 -19.5 -111.5t-56.5 -48.5t-89 -12zM190 71q14 0 21.5 9.5t7.5 34.5v266q0 23 -7 33t-22 10q-14 0 -22 -9.5t-8 -33.5v-266q0 -25 8 -34.5t22 -9.5zM237 549
q-16 0 -30 6.5t-28 14.5q-11 6 -22.5 11t-23.5 5q-13 0 -20 -10t-8 -26h-38q0 44 18.5 70.5t49.5 26.5q17 0 31.5 -5.5t26.5 -12.5q12 -6 23 -11t22 -5q15 0 22 9t9 22h42q-1 -31 -12.5 -52t-28 -32t-33.5 -11z" />
    <glyph glyph-name="odieresis" unicode="&#xf6;" horiz-adv-x="379" 
d="M190 -8q-52 0 -89 12t-57 48.5t-20 110.5v201q0 79 42.5 109.5t123.5 30.5t123 -30t42 -110v-200q0 -75 -19.5 -111.5t-56.5 -48.5t-89 -12zM190 71q14 0 21.5 9.5t7.5 34.5v266q0 23 -7 33t-22 10q-14 0 -22 -9.5t-8 -33.5v-266q0 -25 8 -34.5t22 -9.5zM125 546
q-23 0 -38.5 15t-15.5 36q0 22 15.5 36.5t38.5 14.5t38 -14.5t15 -36.5q0 -21 -15 -36t-38 -15zM255 546q-23 0 -38.5 15t-15.5 36q0 22 15.5 36.5t38.5 14.5t38 -14.5t15 -36.5q0 -21 -15 -36t-38 -15z" />
    <glyph glyph-name="divide" unicode="&#xf7;" horiz-adv-x="396" 
d="M42 241v91h312v-91h-312zM197 63q-27 0 -45 17t-18 42q0 26 18 44t45 18t45.5 -18t18.5 -44q0 -25 -18.5 -42t-45.5 -17zM197 388q-27 0 -45 17.5t-18 42.5q0 26 18 43.5t45 17.5q26 0 44.5 -17.5t18.5 -43.5q0 -25 -18.5 -42.5t-44.5 -17.5z" />
    <glyph glyph-name="oslash" unicode="&#xf8;" horiz-adv-x="388" 
d="M28 -41l276 563h49l-277 -563h-48zM190 -8q-54 0 -91 13t-56 49.5t-19 108.5v201q0 51 18 81.5t55 44t93 13.5t92.5 -13.5t54.5 -44t18 -81.5v-200q0 -73 -19 -109.5t-56 -49.5t-90 -13zM190 71q11 0 17.5 5t9 15t2.5 24v266q0 14 -2.5 23.5t-9 14.5t-17.5 5
q-12 0 -18.5 -5t-9 -14.5t-2.5 -23.5v-266q0 -14 2.5 -24t9 -15t18.5 -5z" />
    <glyph glyph-name="ugrave" unicode="&#xf9;" horiz-adv-x="391" 
d="M141 -7q-46 0 -70 15.5t-33 45t-9 70.5v371h136v-365q0 -12 2.5 -21t9 -14.5t18.5 -5.5q8 0 13.5 2t9.5 5t6 6v393h136v-495h-116l-11 63q-9 -30 -33.5 -50t-58.5 -20zM171 549l-101 103h121l57 -103h-77z" />
    <glyph glyph-name="uacute" unicode="&#xfa;" horiz-adv-x="391" 
d="M141 -7q-46 0 -70 15.5t-33 45t-9 70.5v371h136v-365q0 -12 2.5 -21t9 -14.5t18.5 -5.5q8 0 13.5 2t9.5 5t6 6v393h136v-495h-116l-11 63q-9 -30 -33.5 -50t-58.5 -20zM149 549l58 103h120l-101 -103h-77z" />
    <glyph glyph-name="ucircumflex" unicode="&#xfb;" horiz-adv-x="391" 
d="M141 -7q-46 0 -70 15.5t-33 45t-9 70.5v371h136v-365q0 -12 2.5 -21t9 -14.5t18.5 -5.5q8 0 13.5 2t9.5 5t6 6v393h136v-495h-116l-11 63q-9 -30 -33.5 -50t-58.5 -20zM61 545l97 111h74l98 -111h-88l-46 46l-45 -46h-90z" />
    <glyph glyph-name="udieresis" unicode="&#xfc;" horiz-adv-x="391" 
d="M141 -7q-46 0 -70 15.5t-33 45t-9 70.5v371h136v-365q0 -12 2.5 -21t9 -14.5t18.5 -5.5q8 0 13.5 2t9.5 5t6 6v393h136v-495h-116l-11 63q-9 -30 -33.5 -50t-58.5 -20zM131 546q-23 0 -38.5 15t-15.5 36q0 22 15.5 36.5t38.5 14.5t38 -14.5t15 -36.5q0 -21 -15 -36
t-38 -15zM261 546q-23 0 -38.5 15t-15.5 36q0 22 15.5 36.5t38.5 14.5t38 -14.5t15 -36.5q0 -21 -15 -36t-38 -15z" />
    <glyph glyph-name="yacute" unicode="&#xfd;" horiz-adv-x="362" 
d="M113 -116q-31 0 -61 4.5t-47 8.5v71q7 -2 18.5 -4t25.5 -2q12 0 27 4t19 25q1 8 1.5 17t-2.5 21l-96 466h141l47 -367h2l48 367h129l-91 -442q-18 -91 -57 -130t-104 -39zM134 549l58 103h120l-101 -103h-77z" />
    <glyph glyph-name="thorn" unicode="&#xfe;" horiz-adv-x="386" 
d="M31 -116v746h136v-172q14 22 31.5 33.5t50.5 11.5q30 0 55 -9t41 -33.5t16 -71.5v-239q0 -61 -13.5 -95t-38.5 -47.5t-59 -13.5q-31 0 -51.5 11t-32.5 33l1 -154h-136zM196 69q9 0 14.5 3t9 8.5t4.5 13.5t1 19v263q0 11 -1.5 19t-5 13t-9 7.5t-14.5 2.5q-10 0 -16 -5
t-9 -14t-3 -22v-259q0 -12 1 -20.5t4.5 -15t9 -10t14.5 -3.5z" />
    <glyph glyph-name="ydieresis" unicode="&#xff;" horiz-adv-x="362" 
d="M113 -116q-31 0 -61 4.5t-47 8.5v71q7 -2 18.5 -4t25.5 -2q12 0 27 4t19 25q1 8 1.5 17t-2.5 21l-96 466h141l47 -367h2l48 367h129l-91 -442q-18 -91 -57 -130t-104 -39zM116 546q-23 0 -38.5 15t-15.5 36q0 22 15.5 36.5t38.5 14.5t38 -14.5t15 -36.5q0 -21 -15 -36
t-38 -15zM246 546q-23 0 -38.5 15t-15.5 36q0 22 15.5 36.5t38.5 14.5t38 -14.5t15 -36.5q0 -21 -15 -36t-38 -15z" />
    <glyph glyph-name="Amacron" unicode="&#x100;" horiz-adv-x="401" 
d="M6 0l94 591h203l92 -591h-155l-13 97h-60l-11 -97h-150zM168 165h59l-29 311zM94 644v68h214v-68h-214z" />
    <glyph glyph-name="amacron" unicode="&#x101;" 
d="M119 -8q-27 0 -49.5 7.5t-36 29t-13.5 63.5v74q0 45 26.5 73.5t87.5 49.5q30 12 46.5 20.5t23.5 22t7 38.5v30q0 11 -3.5 18t-10 11t-15.5 4q-17 0 -23 -15t-6 -53v-42h-123v55q0 37 11 65.5t43.5 45t97.5 16.5q66 0 102 -10.5t50.5 -36t14.5 -69.5v-389h-136v52
q-7 -27 -34.5 -43.5t-59.5 -16.5zM179 81q19 0 25 15.5t6 46.5v113q-3 -7 -13.5 -12.5t-19.5 -12.5q-13 -10 -19.5 -20t-6.5 -29v-56q0 -15 3 -25t9 -15t16 -5zM84 558v68h214v-68h-214z" />
    <glyph glyph-name="Abreve" unicode="&#x102;" horiz-adv-x="401" 
d="M6 0l94 591h203l92 -591h-155l-13 97h-60l-11 -97h-150zM168 165h59l-29 311zM199 631q-49 0 -74.5 18t-34 42.5t-8.5 43.5h72q1 -20 15 -30t31 -10q19 0 32.5 9.5t14.5 30.5h74q-1 -28 -13 -51.5t-38.5 -38t-70.5 -14.5z" />
    <glyph glyph-name="abreve" unicode="&#x103;" 
d="M119 -8q-27 0 -49.5 7.5t-36 29t-13.5 63.5v74q0 45 26.5 73.5t87.5 49.5q30 12 46.5 20.5t23.5 22t7 38.5v30q0 11 -3.5 18t-10 11t-15.5 4q-17 0 -23 -15t-6 -53v-42h-123v55q0 37 11 65.5t43.5 45t97.5 16.5q66 0 102 -10.5t50.5 -36t14.5 -69.5v-389h-136v52
q-7 -27 -34.5 -43.5t-59.5 -16.5zM179 81q19 0 25 15.5t6 46.5v113q-3 -7 -13.5 -12.5t-19.5 -12.5q-13 -10 -19.5 -20t-6.5 -29v-56q0 -15 3 -25t9 -15t16 -5zM189 545q-49 0 -74.5 18t-34 42.5t-8.5 43.5h72q1 -20 15 -30t31 -10q19 0 32.5 9.5t14.5 30.5h74
q-1 -28 -13 -51.5t-38.5 -38t-70.5 -14.5z" />
    <glyph glyph-name="Aogonek" unicode="&#x104;" horiz-adv-x="401" 
d="M6 0l94 591h203l92 -591h-155l-13 97h-60l-11 -97h-150zM168 165h59l-29 311zM345 -148q-40 0 -64 20.5t-24 45.5q0 28 23.5 53.5t61.5 30.5l53 -2q-27 -8 -39.5 -26.5t-12.5 -36.5t12.5 -28t25.5 -10q7 0 12 1.5t7 2.5l16 -34q-6 -3 -21.5 -10t-49.5 -7z" />
    <glyph glyph-name="aogonek" unicode="&#x105;" 
d="M119 -8q-27 0 -49.5 7.5t-36 29t-13.5 63.5v74q0 45 26.5 73.5t87.5 49.5q30 12 46.5 20.5t23.5 22t7 38.5v30q0 11 -3.5 18t-10 11t-15.5 4q-17 0 -23 -15t-6 -53v-42h-123v55q0 37 11 65.5t43.5 45t97.5 16.5q66 0 102 -10.5t50.5 -36t14.5 -69.5v-389h-136v52
q-7 -27 -34.5 -43.5t-59.5 -16.5zM179 81q19 0 25 15.5t6 46.5v113q-3 -7 -13.5 -12.5t-19.5 -12.5q-13 -10 -19.5 -20t-6.5 -29v-56q0 -15 3 -25t9 -15t16 -5zM299 -148q-40 0 -64 20.5t-24 45.5q0 28 23.5 53.5t61.5 30.5l53 -2q-27 -8 -39.5 -26.5t-12.5 -36.5t12.5 -28
t25.5 -10q7 0 12 1.5t7 2.5l16 -34q-6 -3 -21.5 -10t-49.5 -7z" />
    <glyph glyph-name="Cacute" unicode="&#x106;" horiz-adv-x="396" 
d="M202 -12q-52 0 -91 12.5t-61.5 50.5t-22.5 114v301q0 51 22.5 80t62 41.5t90.5 12.5q53 0 91 -12.5t58.5 -41.5t20.5 -80v-131h-139v137q0 18 -4 27t-10.5 12.5t-16.5 3.5q-9 0 -16 -3.5t-11 -12.5t-4 -27v-360q0 -17 4 -27t11 -13t16 -3q10 0 16.5 3t10.5 13t4 27v127
h139v-73q0 -77 -20.5 -115t-58.5 -50.5t-91 -12.5zM133 635l78 98h122l-124 -98h-76z" />
    <glyph glyph-name="cacute" unicode="&#x107;" 
d="M190 -8q-52 0 -89 11t-57 47t-20 109v207q0 79 42.5 108t123.5 29q80 0 122 -27.5t42 -100.5v-76h-136v84q0 23 -6.5 32t-21.5 9t-22.5 -9t-7.5 -32v-270q0 -23 7.5 -32.5t22.5 -9.5t21.5 9t6.5 33v94h136v-47q0 -74 -19.5 -110t-56 -47t-88.5 -11zM141 549l58 103h120
l-101 -103h-77z" />
    <glyph glyph-name="Ccircumflex" unicode="&#x108;" horiz-adv-x="396" 
d="M202 -12q-52 0 -91 12.5t-61.5 50.5t-22.5 114v301q0 51 22.5 80t62 41.5t90.5 12.5q53 0 91 -12.5t58.5 -41.5t20.5 -80v-131h-139v137q0 18 -4 27t-10.5 12.5t-16.5 3.5q-9 0 -16 -3.5t-11 -12.5t-4 -27v-360q0 -17 4 -27t11 -13t16 -3q10 0 16.5 3t10.5 13t4 27v127
h139v-73q0 -77 -20.5 -115t-58.5 -50.5t-91 -12.5zM62 631l99 105h74l100 -104h-93l-43 37l-43 -38h-94z" />
    <glyph glyph-name="ccircumflex" unicode="&#x109;" 
d="M190 -8q-52 0 -89 11t-57 47t-20 109v207q0 79 42.5 108t123.5 29q80 0 122 -27.5t42 -100.5v-76h-136v84q0 23 -6.5 32t-21.5 9t-22.5 -9t-7.5 -32v-270q0 -23 7.5 -32.5t22.5 -9.5t21.5 9t6.5 33v94h136v-47q0 -74 -19.5 -110t-56 -47t-88.5 -11zM53 545l97 111h74
l98 -111h-88l-46 46l-45 -46h-90z" />
    <glyph glyph-name="Cdotaccent" unicode="&#x10a;" horiz-adv-x="396" 
d="M202 -12q-52 0 -91 12.5t-61.5 50.5t-22.5 114v301q0 51 22.5 80t62 41.5t90.5 12.5q53 0 91 -12.5t58.5 -41.5t20.5 -80v-131h-139v137q0 18 -4 27t-10.5 12.5t-16.5 3.5q-9 0 -16 -3.5t-11 -12.5t-4 -27v-360q0 -17 4 -27t11 -13t16 -3q10 0 16.5 3t10.5 13t4 27v127
h139v-73q0 -77 -20.5 -115t-58.5 -50.5t-91 -12.5zM198 634q-25 0 -43.5 17.5t-18.5 42.5t18.5 42.5t43.5 17.5q26 0 44.5 -17.5t18.5 -42.5t-18.5 -42.5t-44.5 -17.5z" />
    <glyph glyph-name="cdotaccent" unicode="&#x10b;" 
d="M190 -8q-52 0 -89 11t-57 47t-20 109v207q0 79 42.5 108t123.5 29q80 0 122 -27.5t42 -100.5v-76h-136v84q0 23 -6.5 32t-21.5 9t-22.5 -9t-7.5 -32v-270q0 -23 7.5 -32.5t22.5 -9.5t21.5 9t6.5 33v94h136v-47q0 -74 -19.5 -110t-56 -47t-88.5 -11zM187 547
q-25 0 -43.5 17.5t-18.5 42.5t18.5 42.5t43.5 17.5q26 0 44.5 -17.5t18.5 -42.5t-18.5 -42.5t-44.5 -17.5z" />
    <glyph glyph-name="Ccaron" unicode="&#x10c;" horiz-adv-x="396" 
d="M202 -12q-52 0 -91 12.5t-61.5 50.5t-22.5 114v301q0 51 22.5 80t62 41.5t90.5 12.5q53 0 91 -12.5t58.5 -41.5t20.5 -80v-131h-139v137q0 18 -4 27t-10.5 12.5t-16.5 3.5q-9 0 -16 -3.5t-11 -12.5t-4 -27v-360q0 -17 4 -27t11 -13t16 -3q10 0 16.5 3t10.5 13t4 27v127
h139v-73q0 -77 -20.5 -115t-58.5 -50.5t-91 -12.5zM161 631l-98 104h94l42 -37l42 36h92l-98 -103h-74z" />
    <glyph glyph-name="ccaron" unicode="&#x10d;" 
d="M190 -8q-52 0 -89 11t-57 47t-20 109v207q0 79 42.5 108t123.5 29q80 0 122 -27.5t42 -100.5v-76h-136v84q0 23 -6.5 32t-21.5 9t-22.5 -9t-7.5 -32v-270q0 -23 7.5 -32.5t22.5 -9.5t21.5 9t6.5 33v94h136v-47q0 -74 -19.5 -110t-56 -47t-88.5 -11zM150 545l-97 111h90
l46 -45l45 45h88l-98 -111h-74z" />
    <glyph glyph-name="Dcaron" unicode="&#x10e;" horiz-adv-x="405" 
d="M33 0v591h220q43 0 70.5 -12.5t41 -36t13.5 -56.5v-360q0 -48 -17.5 -75.5t-50 -39t-77.5 -11.5h-200zM178 71h32q13 0 21 9t8 33v358q0 24 -8 33.5t-21 9.5h-32v-443zM165 631l-98 104h94l42 -37l42 36h92l-98 -103h-74z" />
    <glyph glyph-name="dcaron" unicode="&#x10f;" horiz-adv-x="475" 
d="M158 -7q-30 0 -54.5 5.5t-42.5 21t-27.5 46.5t-9.5 84v239q0 35 10.5 56.5t26.5 33.5t34.5 17t36.5 5q40 0 58.5 -13t28.5 -27v169h136v-630h-92l-14 47q-4 -8 -14.5 -21t-29 -23t-47.5 -10zM189 69q9 0 15 3.5t9 10t4.5 15t1.5 20.5v290q-1 2 -4.5 5t-9.5 5t-15 2
q-10 0 -15.5 -3t-9 -8.5t-4.5 -13.5t-1 -19v-263q0 -14 2.5 -24t9 -15t17.5 -5zM379 481l26 154h81l-60 -154h-47z" />
    <glyph glyph-name="Dcroat" unicode="&#x110;" horiz-adv-x="444" 
d="M53 0v591h239q43 0 70.5 -12.5t40.5 -36t13 -56.5v-360q0 -48 -17.5 -75.5t-49.5 -39t-77 -11.5h-219zM10 251v79h218v-79h-218zM197 71h41q22 0 31 9t9 33v358q0 24 -9 33.5t-31 9.5h-41v-443z" />
    <glyph glyph-name="dcroat" unicode="&#x111;" horiz-adv-x="384" 
d="M141 529v50h241v-50h-241zM158 -7q-30 0 -54.5 5.5t-42.5 21t-27.5 46.5t-9.5 84v239q0 35 10.5 56.5t26.5 33.5t34.5 17t36.5 5q40 0 58.5 -13t28.5 -27v169h136v-630h-92l-14 47q-4 -8 -14.5 -21t-29 -23t-47.5 -10zM189 69q9 0 15 3.5t9 10t4.5 15t1.5 20.5v290
q-1 2 -4.5 5t-9.5 5t-15 2q-10 0 -15.5 -3t-9 -8.5t-4.5 -13.5t-1 -19v-263q0 -14 2.5 -24t9 -15t17.5 -5z" />
    <glyph glyph-name="Emacron" unicode="&#x112;" horiz-adv-x="331" 
d="M33 0v591h280v-97h-135v-136h118v-109h-118v-154h135v-95h-280zM65 644v68h214v-68h-214z" />
    <glyph glyph-name="emacron" unicode="&#x113;" 
d="M190 -8q-52 0 -89 11.5t-57 48t-20 111.5v212q0 75 42.5 102.5t123.5 27.5q80 0 122 -27.5t42 -102.5v-138h-194v-132q0 -24 7.5 -33t22.5 -9t21.5 9t6.5 33v84h136v-25q0 -76 -19.5 -112.5t-56 -48t-88.5 -11.5zM160 297h58v86q0 23 -6.5 32t-21.5 9t-22.5 -9t-7.5 -32
v-86zM80 558v68h214v-68h-214z" />
    <glyph glyph-name="Ebreve" unicode="&#x114;" horiz-adv-x="331" 
d="M33 0v591h280v-97h-135v-136h118v-109h-118v-154h135v-95h-280zM170 631q-49 0 -74.5 18t-34 42.5t-8.5 43.5h72q1 -20 15 -30t31 -10q19 0 32.5 9.5t14.5 30.5h74q-1 -28 -13 -51.5t-38.5 -38t-70.5 -14.5z" />
    <glyph glyph-name="ebreve" unicode="&#x115;" 
d="M190 -8q-52 0 -89 11.5t-57 48t-20 111.5v212q0 75 42.5 102.5t123.5 27.5q80 0 122 -27.5t42 -102.5v-138h-194v-132q0 -24 7.5 -33t22.5 -9t21.5 9t6.5 33v84h136v-25q0 -76 -19.5 -112.5t-56 -48t-88.5 -11.5zM160 297h58v86q0 23 -6.5 32t-21.5 9t-22.5 -9t-7.5 -32
v-86zM185 545q-49 0 -74.5 18t-34 42.5t-8.5 43.5h72q1 -20 15 -30t31 -10q19 0 32.5 9.5t14.5 30.5h74q-1 -28 -13 -51.5t-38.5 -38t-70.5 -14.5z" />
    <glyph glyph-name="Edotaccent" unicode="&#x116;" horiz-adv-x="331" 
d="M33 0v591h280v-97h-135v-136h118v-109h-118v-154h135v-95h-280zM171 634q-25 0 -43.5 17.5t-18.5 42.5t18.5 42.5t43.5 17.5q26 0 44.5 -17.5t18.5 -42.5t-18.5 -42.5t-44.5 -17.5z" />
    <glyph glyph-name="edotaccent" unicode="&#x117;" 
d="M190 -8q-52 0 -89 11.5t-57 48t-20 111.5v212q0 75 42.5 102.5t123.5 27.5q80 0 122 -27.5t42 -102.5v-138h-194v-132q0 -24 7.5 -33t22.5 -9t21.5 9t6.5 33v84h136v-25q0 -76 -19.5 -112.5t-56 -48t-88.5 -11.5zM160 297h58v86q0 23 -6.5 32t-21.5 9t-22.5 -9t-7.5 -32
v-86zM187 547q-25 0 -43.5 17.5t-18.5 42.5t18.5 42.5t43.5 17.5q26 0 44.5 -17.5t18.5 -42.5t-18.5 -42.5t-44.5 -17.5z" />
    <glyph glyph-name="Eogonek" unicode="&#x118;" horiz-adv-x="331" 
d="M33 0v591h280v-97h-135v-136h118v-109h-118v-154h135v-95h-280zM233 -148q-40 0 -64 20.5t-24 45.5q0 28 23.5 53.5t61.5 30.5l53 -2q-27 -8 -39.5 -26.5t-12.5 -36.5t12.5 -28t25.5 -10q7 0 12 1.5t7 2.5l16 -34q-6 -3 -21.5 -10t-49.5 -7z" />
    <glyph glyph-name="eogonek" unicode="&#x119;" 
d="M190 -8q-52 0 -89 11.5t-57 48t-20 111.5v212q0 75 42.5 102.5t123.5 27.5q80 0 122 -27.5t42 -102.5v-138h-194v-132q0 -24 7.5 -33t22.5 -9t21.5 9t6.5 33v84h136v-25q0 -76 -19.5 -112.5t-56 -48t-88.5 -11.5zM160 297h58v86q0 23 -6.5 32t-21.5 9t-22.5 -9t-7.5 -32
v-86zM205 -148q-40 0 -64 20.5t-24 45.5q0 28 23.5 53.5t61.5 30.5l53 -2q-27 -8 -39.5 -26.5t-12.5 -36.5t12.5 -28t25.5 -10q7 0 12 1.5t7 2.5l16 -34q-6 -3 -21.5 -10t-49.5 -7z" />
    <glyph glyph-name="Ecaron" unicode="&#x11a;" horiz-adv-x="331" 
d="M33 0v591h280v-97h-135v-136h118v-109h-118v-154h135v-95h-280zM135 631l-98 104h94l42 -37l42 36h92l-98 -103h-74z" />
    <glyph glyph-name="ecaron" unicode="&#x11b;" 
d="M190 -8q-52 0 -89 11.5t-57 48t-20 111.5v212q0 75 42.5 102.5t123.5 27.5q80 0 122 -27.5t42 -102.5v-138h-194v-132q0 -24 7.5 -33t22.5 -9t21.5 9t6.5 33v84h136v-25q0 -76 -19.5 -112.5t-56 -48t-88.5 -11.5zM160 297h58v86q0 23 -6.5 32t-21.5 9t-22.5 -9t-7.5 -32
v-86zM150 545l-97 111h90l46 -45l45 45h88l-98 -111h-74z" />
    <glyph glyph-name="Gcircumflex" unicode="&#x11c;" horiz-adv-x="397" 
d="M157 -10q-32 0 -61.5 11t-49 45t-19.5 100v318q0 51 21.5 80.5t59.5 41.5t90 12q51 0 90 -12.5t61.5 -41.5t22.5 -80v-87h-135v95q0 18 -4.5 27t-12 12.5t-19.5 3.5q-10 0 -18 -3.5t-12.5 -12.5t-4.5 -27v-360q0 -17 4.5 -27t12.5 -13t18 -3q17 0 26.5 10t9.5 33v114h-36
v78h171v-304h-105l-7 42q0 -1 -1 -2.5t-2 -2.5q-8 -16 -31.5 -31.5t-68.5 -15.5zM62 631l99 105h74l100 -104h-93l-43 37l-43 -38h-94z" />
    <glyph glyph-name="gcircumflex" unicode="&#x11d;" horiz-adv-x="384" 
d="M195 -120q-16 0 -38 1.5t-43.5 3t-37 3.5t-18.5 3v71q14 -2 41.5 -4.5t45.5 -2.5q17 0 30.5 3t23 9.5t14.5 19t5 30.5v72q-4 -10 -12 -24t-25.5 -25t-52.5 -11q-25 0 -44.5 6.5t-32.5 23.5t-20 48t-7 80v192q0 61 27 93.5t79 32.5q34 0 53 -8.5t29.5 -23t17.5 -33.5
l-18 -3l21 58h121v-408q0 -34 -4.5 -70.5t-20 -67.5t-47.5 -50t-87 -19zM189 109q11 0 17.5 5.5t9 16.5t2.5 25v246q-2 3 -5.5 6t-9 5t-15.5 2q-13 0 -20.5 -9t-7.5 -33v-223q0 -13 2.5 -21t7 -12t9.5 -6t10 -2zM58 545l97 111h74l98 -111h-88l-46 46l-45 -46h-90z" />
    <glyph glyph-name="Gbreve" unicode="&#x11e;" horiz-adv-x="397" 
d="M157 -10q-32 0 -61.5 11t-49 45t-19.5 100v318q0 51 21.5 80.5t59.5 41.5t90 12q51 0 90 -12.5t61.5 -41.5t22.5 -80v-87h-135v95q0 18 -4.5 27t-12 12.5t-19.5 3.5q-10 0 -18 -3.5t-12.5 -12.5t-4.5 -27v-360q0 -17 4.5 -27t12.5 -13t18 -3q17 0 26.5 10t9.5 33v114h-36
v78h171v-304h-105l-7 42q0 -1 -1 -2.5t-2 -2.5q-8 -16 -31.5 -31.5t-68.5 -15.5zM196 631q-49 0 -74.5 18t-34 42.5t-8.5 43.5h72q1 -20 15 -30t31 -10q19 0 32.5 9.5t14.5 30.5h74q-1 -28 -13 -51.5t-38.5 -38t-70.5 -14.5z" />
    <glyph glyph-name="gbreve" unicode="&#x11f;" horiz-adv-x="384" 
d="M195 -120q-16 0 -38 1.5t-43.5 3t-37 3.5t-18.5 3v71q14 -2 41.5 -4.5t45.5 -2.5q17 0 30.5 3t23 9.5t14.5 19t5 30.5v72q-4 -10 -12 -24t-25.5 -25t-52.5 -11q-25 0 -44.5 6.5t-32.5 23.5t-20 48t-7 80v192q0 61 27 93.5t79 32.5q34 0 53 -8.5t29.5 -23t17.5 -33.5
l-18 -3l21 58h121v-408q0 -34 -4.5 -70.5t-20 -67.5t-47.5 -50t-87 -19zM189 109q11 0 17.5 5.5t9 16.5t2.5 25v246q-2 3 -5.5 6t-9 5t-15.5 2q-13 0 -20.5 -9t-7.5 -33v-223q0 -13 2.5 -21t7 -12t9.5 -6t10 -2zM191 545q-49 0 -74.5 18t-34 42.5t-8.5 43.5h72q1 -20 15 -30
t31 -10q19 0 32.5 9.5t14.5 30.5h74q-1 -28 -13 -51.5t-38.5 -38t-70.5 -14.5z" />
    <glyph glyph-name="Gdotaccent" unicode="&#x120;" horiz-adv-x="397" 
d="M157 -10q-32 0 -61.5 11t-49 45t-19.5 100v318q0 51 21.5 80.5t59.5 41.5t90 12q51 0 90 -12.5t61.5 -41.5t22.5 -80v-87h-135v95q0 18 -4.5 27t-12 12.5t-19.5 3.5q-10 0 -18 -3.5t-12.5 -12.5t-4.5 -27v-360q0 -17 4.5 -27t12.5 -13t18 -3q17 0 26.5 10t9.5 33v114h-36
v78h171v-304h-105l-7 42q0 -1 -1 -2.5t-2 -2.5q-8 -16 -31.5 -31.5t-68.5 -15.5zM198 634q-25 0 -43.5 17.5t-18.5 42.5t18.5 42.5t43.5 17.5q26 0 44.5 -17.5t18.5 -42.5t-18.5 -42.5t-44.5 -17.5z" />
    <glyph glyph-name="gdotaccent" unicode="&#x121;" horiz-adv-x="384" 
d="M195 -120q-16 0 -38 1.5t-43.5 3t-37 3.5t-18.5 3v71q14 -2 41.5 -4.5t45.5 -2.5q17 0 30.5 3t23 9.5t14.5 19t5 30.5v72q-4 -10 -12 -24t-25.5 -25t-52.5 -11q-25 0 -44.5 6.5t-32.5 23.5t-20 48t-7 80v192q0 61 27 93.5t79 32.5q34 0 53 -8.5t29.5 -23t17.5 -33.5
l-18 -3l21 58h121v-408q0 -34 -4.5 -70.5t-20 -67.5t-47.5 -50t-87 -19zM189 109q11 0 17.5 5.5t9 16.5t2.5 25v246q-2 3 -5.5 6t-9 5t-15.5 2q-13 0 -20.5 -9t-7.5 -33v-223q0 -13 2.5 -21t7 -12t9.5 -6t10 -2zM192 547q-25 0 -43.5 17.5t-18.5 42.5t18.5 42.5t43.5 17.5
q26 0 44.5 -17.5t18.5 -42.5t-18.5 -42.5t-44.5 -17.5z" />
    <glyph glyph-name="uni0122" unicode="&#x122;" horiz-adv-x="397" 
d="M157 -10q-32 0 -61.5 11t-49 45t-19.5 100v318q0 51 21.5 80.5t59.5 41.5t90 12q51 0 90 -12.5t61.5 -41.5t22.5 -80v-87h-135v95q0 18 -4.5 27t-12 12.5t-19.5 3.5q-10 0 -18 -3.5t-12.5 -12.5t-4.5 -27v-360q0 -17 4.5 -27t12.5 -13t18 -3q17 0 26.5 10t9.5 33v114h-36
v78h171v-304h-105l-7 42q0 -1 -1 -2.5t-2 -2.5q-8 -16 -31.5 -31.5t-68.5 -15.5zM139 -201q16 23 24.5 41.5t8.5 30.5q0 8 -7.5 13.5t-15 13.5t-7.5 22q0 17 15.5 30.5t40.5 13.5q26 0 42.5 -14.5t16.5 -35.5q0 -15 -10 -36t-24 -42t-29 -37h-55z" />
    <glyph glyph-name="uni0123" unicode="&#x123;" horiz-adv-x="384" 
d="M248 707q-15 -23 -24 -41.5t-9 -29.5q0 -8 7.5 -13.5t15 -13.5t7.5 -23q0 -16 -15.5 -29.5t-40.5 -13.5q-26 0 -42.5 14t-16.5 36q0 15 10 36t25 42t29 36h54zM195 -120q-16 0 -38 1.5t-43.5 3t-37 3.5t-18.5 3v71q14 -2 41.5 -4.5t45.5 -2.5q17 0 30.5 3t23 9.5t14.5 19
t5 30.5v72q-4 -10 -12 -24t-25.5 -25t-52.5 -11q-25 0 -44.5 6.5t-32.5 23.5t-20 48t-7 80v192q0 61 27 93.5t79 32.5q34 0 53 -8.5t29.5 -23t17.5 -33.5l-18 -3l21 58h121v-408q0 -34 -4.5 -70.5t-20 -67.5t-47.5 -50t-87 -19zM189 109q11 0 17.5 5.5t9 16.5t2.5 25v246
q-2 3 -5.5 6t-9 5t-15.5 2q-13 0 -20.5 -9t-7.5 -33v-223q0 -13 2.5 -21t7 -12t9.5 -6t10 -2z" />
    <glyph glyph-name="Hcircumflex" unicode="&#x124;" horiz-adv-x="408" 
d="M33 0v591h139v-235h65v235h138v-591h-138v253h-65v-253h-139zM68 631l99 105h74l100 -104h-93l-43 37l-43 -38h-94z" />
    <glyph glyph-name="hcircumflex" unicode="&#x125;" horiz-adv-x="386" 
d="M31 0v630h127v-193q12 33 35.5 50.5t56.5 17.5q46 0 70 -16t32.5 -45t8.5 -70v-374h-136v367q0 9 -1 16.5t-4 13t-9 9t-17 3.5q-8 0 -14 -2t-8.5 -4.5t-4.5 -5.5v-397h-136zM-45 670l99 105h74l100 -104h-93l-43 37l-43 -38h-94z" />
    <glyph glyph-name="Hbar" unicode="&#x126;" horiz-adv-x="408" 
d="M33 0v591h139v-235h65v235h138v-591h-138v253h-65v-253h-139zM6 441v63h398v-63h-398z" />
    <glyph glyph-name="hbar" unicode="&#x127;" horiz-adv-x="386" 
d="M31 0v630h127v-193q12 33 35.5 50.5t56.5 17.5q46 0 70 -16t32.5 -45t8.5 -70v-374h-136v367q0 9 -1 16.5t-4 13t-9 9t-17 3.5q-8 0 -14 -2t-8.5 -4.5t-4.5 -5.5v-397h-136zM-9 520v68h214v-68h-214z" />
    <glyph glyph-name="Itilde" unicode="&#x128;" horiz-adv-x="205" 
d="M33 0v591h139v-591h-139zM146 636q-16 0 -30 6.5t-28 14.5q-11 6 -22.5 11t-23.5 5q-13 0 -20 -10t-8 -26h-38q0 44 18.5 70.5t49.5 26.5q17 0 31.5 -5.5t26.5 -12.5q12 -6 23 -11t22 -5q15 0 22 9t9 22h42q-1 -31 -12.5 -52t-28 -32t-33.5 -11z" />
    <glyph glyph-name="itilde" unicode="&#x129;" horiz-adv-x="198" 
d="M31 0v495h136v-495h-136zM147 549q-16 0 -30 6.5t-28 14.5q-11 6 -22.5 11t-23.5 5q-13 0 -20 -10t-8 -26h-38q0 44 18.5 70.5t49.5 26.5q17 0 31.5 -5.5t26.5 -12.5q12 -6 23 -11t22 -5q15 0 22 9t9 22h42q-1 -31 -12.5 -52t-28 -32t-33.5 -11z" />
    <glyph glyph-name="Imacron" unicode="&#x12a;" horiz-adv-x="205" 
d="M33 0v591h139v-591h-139zM-4 644v68h214v-68h-214z" />
    <glyph glyph-name="imacron" unicode="&#x12b;" horiz-adv-x="198" 
d="M31 0v495h136v-495h-136zM-8 558v68h214v-68h-214z" />
    <glyph glyph-name="Ibreve" unicode="&#x12c;" horiz-adv-x="205" 
d="M33 0v591h139v-591h-139zM100 631q-49 0 -74.5 18t-34 42.5t-8.5 43.5h72q1 -20 15 -30t31 -10q19 0 32.5 9.5t14.5 30.5h74q-1 -28 -13 -51.5t-38.5 -38t-70.5 -14.5z" />
    <glyph glyph-name="ibreve" unicode="&#x12d;" horiz-adv-x="198" 
d="M31 0v495h136v-495h-136zM97 545q-49 0 -74.5 18t-34 42.5t-8.5 43.5h72q1 -20 15 -30t31 -10q19 0 32.5 9.5t14.5 30.5h74q-1 -28 -13 -51.5t-38.5 -38t-70.5 -14.5z" />
    <glyph glyph-name="Iogonek" unicode="&#x12e;" horiz-adv-x="205" 
d="M33 0v591h139v-591h-139zM121 -148q-40 0 -64 20.5t-24 45.5q0 28 23.5 53.5t61.5 30.5l53 -2q-27 -8 -39.5 -26.5t-12.5 -36.5t12.5 -28t25.5 -10q7 0 12 1.5t7 2.5l16 -34q-6 -3 -21.5 -10t-49.5 -7z" />
    <glyph glyph-name="iogonek" unicode="&#x12f;" horiz-adv-x="198" 
d="M31 0v495h136v-495h-136zM98 547q-25 0 -43.5 17.5t-18.5 42.5t18.5 42.5t43.5 17.5q26 0 44.5 -17.5t18.5 -42.5t-18.5 -42.5t-44.5 -17.5zM117 -148q-40 0 -64 20.5t-24 45.5q0 28 23.5 53.5t61.5 30.5l53 -2q-27 -8 -39.5 -26.5t-12.5 -36.5t12.5 -28t25.5 -10
q7 0 12 1.5t7 2.5l16 -34q-6 -3 -21.5 -10t-49.5 -7z" />
    <glyph glyph-name="Idotaccent" unicode="&#x130;" horiz-adv-x="205" 
d="M33 0v591h139v-591h-139zM102 634q-25 0 -43.5 17.5t-18.5 42.5t18.5 42.5t43.5 17.5q26 0 44.5 -17.5t18.5 -42.5t-18.5 -42.5t-44.5 -17.5z" />
    <glyph glyph-name="dotlessi" unicode="&#x131;" horiz-adv-x="198" 
d="M31 0v495h136v-495h-136z" />
    <glyph glyph-name="Jcircumflex" unicode="&#x134;" horiz-adv-x="254" 
d="M57 -1h-26t-26 1v95h30q30 -1 39.5 9.5t9.5 40.5v446h138v-438q0 -60 -16.5 -94t-52.5 -47t-96 -13zM18 631l99 105h74l100 -104h-93l-43 37l-43 -38h-94z" />
    <glyph glyph-name="jcircumflex" unicode="&#x135;" horiz-adv-x="194" 
d="M-21 -113q-8 1 -23 2t-19 2v71q9 0 22.5 0.5t20.5 1.5q26 1 38.5 15.5t12.5 34.5v481h136v-440q0 -73 -27 -110.5t-69.5 -49.5t-91.5 -8zM-37 545l97 111h74l98 -111h-88l-46 46l-45 -46h-90z" />
    <glyph glyph-name="uni0136" unicode="&#x136;" horiz-adv-x="425" 
d="M269 0l-96 306l95 285h148l-108 -284l111 -307h-150zM33 0v591h139v-591h-139zM155 -201q16 23 24.5 41.5t8.5 30.5q0 8 -7.5 13.5t-15 13.5t-7.5 22q0 17 15.5 30.5t40.5 13.5q26 0 42.5 -14.5t16.5 -35.5q0 -15 -10 -36t-24 -42t-29 -37h-55z" />
    <glyph glyph-name="uni0137" unicode="&#x137;" horiz-adv-x="399" 
d="M245 0l-75 286l90 209h134l-96 -211l94 -284h-147zM31 0v631h136v-631h-136zM140 -201q16 23 24.5 41.5t8.5 30.5q0 8 -7.5 13.5t-15 13.5t-7.5 22q0 17 15.5 30.5t40.5 13.5q26 0 42.5 -14.5t16.5 -35.5q0 -15 -10 -36t-24 -42t-29 -37h-55z" />
    <glyph glyph-name="kgreenlandic" unicode="&#x138;" horiz-adv-x="399" 
d="M245 0l-75 286l90 209h134l-96 -211l94 -284h-147zM31 0v549h136v-549h-136z" />
    <glyph glyph-name="Lacute" unicode="&#x139;" horiz-adv-x="300" 
d="M33 0v591h137v-496h121v-95h-258zM76 635l78 98h122l-124 -98h-76z" />
    <glyph glyph-name="lacute" unicode="&#x13a;" horiz-adv-x="198" 
d="M31 0v631h136v-631h-136zM33 674l78 98h122l-124 -98h-76z" />
    <glyph glyph-name="uni013B" unicode="&#x13b;" horiz-adv-x="300" 
d="M33 0v591h137v-496h121v-95h-258zM98 -201q16 23 24.5 41.5t8.5 30.5q0 8 -7.5 13.5t-15 13.5t-7.5 22q0 17 15.5 30.5t40.5 13.5q26 0 42.5 -14.5t16.5 -35.5q0 -15 -10 -36t-24 -42t-29 -37h-55z" />
    <glyph glyph-name="uni013C" unicode="&#x13c;" horiz-adv-x="198" 
d="M31 0v631h136v-631h-136zM38 -201q16 23 24.5 41.5t8.5 30.5q0 8 -7.5 13.5t-15 13.5t-7.5 22q0 17 15.5 30.5t40.5 13.5q26 0 42.5 -14.5t16.5 -35.5q0 -15 -10 -36t-24 -42t-29 -37h-55z" />
    <glyph glyph-name="Lcaron" unicode="&#x13d;" horiz-adv-x="324" 
d="M33 0v591h137v-496h121v-95h-258zM218 453l26 154h81l-60 -154h-47z" />
    <glyph glyph-name="lcaron" unicode="&#x13e;" horiz-adv-x="291" 
d="M31 0v631h136v-631h-136zM192 502l26 154h81l-60 -154h-47z" />
    <glyph glyph-name="Ldot" unicode="&#x13f;" horiz-adv-x="300" 
d="M33 0v591h137v-496h121v-95h-258zM325 221q-28 0 -48 19t-20 46q0 28 20 47t48 19t49 -19t21 -47q0 -27 -21 -46t-49 -19z" />
    <glyph glyph-name="ldot" unicode="&#x140;" horiz-adv-x="198" 
d="M31 0v631h136v-631h-136zM282 221q-28 0 -48 19t-20 46q0 28 20 47t48 19t49 -19t21 -47q0 -27 -21 -46t-49 -19z" />
    <glyph glyph-name="Lslash" unicode="&#x141;" horiz-adv-x="336" 
d="M70 0v158l-54 -23v57l54 24v370h136v-309l69 31v-57l-69 -31v-125h121v-95h-257z" />
    <glyph glyph-name="lslash" unicode="&#x142;" horiz-adv-x="296" 
d="M79 0v161l-59 -26v57l59 27v412h136v-352l60 27v-57l-60 -27v-222h-136z" />
    <glyph glyph-name="Nacute" unicode="&#x143;" horiz-adv-x="404" 
d="M33 0v591h120l97 -315v315h121v-591h-120l-96 288v-288h-122zM140 635l78 98h122l-124 -98h-76z" />
    <glyph glyph-name="nacute" unicode="&#x144;" horiz-adv-x="386" 
d="M31 0v495h115l12 -60q8 31 34 50.5t58 19.5q46 0 70 -16t32.5 -45t8.5 -70v-374h-136v367q0 10 -1 17.5t-4 13t-8.5 8.5t-15.5 3q-7 0 -13 -2t-10 -5.5t-6 -6.5v-395h-136zM147 549l58 103h120l-101 -103h-77z" />
    <glyph glyph-name="uni0145" unicode="&#x145;" horiz-adv-x="404" 
d="M33 0v591h120l97 -315v315h121v-591h-120l-96 288v-288h-122zM141 -201q16 23 24.5 41.5t8.5 30.5q0 8 -7.5 13.5t-15 13.5t-7.5 22q0 17 15.5 30.5t40.5 13.5q26 0 42.5 -14.5t16.5 -35.5q0 -15 -10 -36t-24 -42t-29 -37h-55z" />
    <glyph glyph-name="uni0146" unicode="&#x146;" horiz-adv-x="386" 
d="M31 0v495h115l12 -60q8 31 34 50.5t58 19.5q46 0 70 -16t32.5 -45t8.5 -70v-374h-136v367q0 10 -1 17.5t-4 13t-8.5 8.5t-15.5 3q-7 0 -13 -2t-10 -5.5t-6 -6.5v-395h-136zM133 -201q16 23 24.5 41.5t8.5 30.5q0 8 -7.5 13.5t-15 13.5t-7.5 22q0 17 15.5 30.5t40.5 13.5
q26 0 42.5 -14.5t16.5 -35.5q0 -15 -10 -36t-24 -42t-29 -37h-55z" />
    <glyph glyph-name="Ncaron" unicode="&#x147;" horiz-adv-x="404" 
d="M33 0v591h120l97 -315v315h121v-591h-120l-96 288v-288h-122zM168 631l-98 104h94l42 -37l42 36h92l-98 -103h-74z" />
    <glyph glyph-name="ncaron" unicode="&#x148;" horiz-adv-x="386" 
d="M31 0v495h115l12 -60q8 31 34 50.5t58 19.5q46 0 70 -16t32.5 -45t8.5 -70v-374h-136v367q0 10 -1 17.5t-4 13t-8.5 8.5t-15.5 3q-7 0 -13 -2t-10 -5.5t-6 -6.5v-395h-136zM156 545l-97 111h90l46 -45l45 45h88l-98 -111h-74z" />
    <glyph glyph-name="Eng" unicode="&#x14a;" horiz-adv-x="405" 
d="M222 -191h-25t-26 1v95l30 -1q29 0 39 10t10 41v47l-95 286v-288h-122l1 591h120l96 -315l1 315h121l-1 -628q0 -61 -14.5 -94.5t-47.5 -46.5t-87 -13z" />
    <glyph glyph-name="eng" unicode="&#x14b;" horiz-adv-x="388" 
d="M192 -115q-14 0 -27 1.5t-27 4.5v68h9h16.5h8.5q26 0 38.5 11t12.5 32v363q0 13 -2 22t-8 14.5t-19 5.5q-7 0 -13 -2t-10 -5t-6 -7v-393h-136v495h115l11 -63q10 32 35.5 51t57.5 19q46 0 70 -15.5t32.5 -44.5t8.5 -71v-318q0 -66 -23.5 -103.5t-61.5 -51.5t-82 -13z" />
    <glyph glyph-name="Omacron" unicode="&#x14c;" horiz-adv-x="399" 
d="M198 -12q-51 0 -89.5 12.5t-60 50.5t-21.5 114v301q0 51 21.5 80t60 41.5t89.5 12.5t90 -12.5t61.5 -41.5t22.5 -80v-300q0 -77 -22.5 -115t-61.5 -50.5t-90 -12.5zM198 69q10 0 18.5 4t12.5 13.5t4 25.5v360q0 15 -4 25t-12.5 14t-18.5 4t-18 -4t-12.5 -14t-4.5 -25
v-360q0 -16 4.5 -25.5t12.5 -13.5t18 -4zM93 644v68h214v-68h-214z" />
    <glyph glyph-name="omacron" unicode="&#x14d;" horiz-adv-x="379" 
d="M190 -8q-52 0 -89 12t-57 48.5t-20 110.5v201q0 79 42.5 109.5t123.5 30.5t123 -30t42 -110v-200q0 -75 -19.5 -111.5t-56.5 -48.5t-89 -12zM190 71q14 0 21.5 9.5t7.5 34.5v266q0 23 -7 33t-22 10q-14 0 -22 -9.5t-8 -33.5v-266q0 -25 8 -34.5t22 -9.5zM82 558v68h214
v-68h-214z" />
    <glyph glyph-name="Obreve" unicode="&#x14e;" horiz-adv-x="399" 
d="M198 -12q-51 0 -89.5 12.5t-60 50.5t-21.5 114v301q0 51 21.5 80t60 41.5t89.5 12.5t90 -12.5t61.5 -41.5t22.5 -80v-300q0 -77 -22.5 -115t-61.5 -50.5t-90 -12.5zM198 69q10 0 18.5 4t12.5 13.5t4 25.5v360q0 15 -4 25t-12.5 14t-18.5 4t-18 -4t-12.5 -14t-4.5 -25
v-360q0 -16 4.5 -25.5t12.5 -13.5t18 -4zM198 631q-49 0 -74.5 18t-34 42.5t-8.5 43.5h72q1 -20 15 -30t31 -10q19 0 32.5 9.5t14.5 30.5h74q-1 -28 -13 -51.5t-38.5 -38t-70.5 -14.5z" />
    <glyph glyph-name="obreve" unicode="&#x14f;" horiz-adv-x="379" 
d="M190 -8q-52 0 -89 12t-57 48.5t-20 110.5v201q0 79 42.5 109.5t123.5 30.5t123 -30t42 -110v-200q0 -75 -19.5 -111.5t-56.5 -48.5t-89 -12zM190 71q14 0 21.5 9.5t7.5 34.5v266q0 23 -7 33t-22 10q-14 0 -22 -9.5t-8 -33.5v-266q0 -25 8 -34.5t22 -9.5zM187 545
q-49 0 -74.5 18t-34 42.5t-8.5 43.5h72q1 -20 15 -30t31 -10q19 0 32.5 9.5t14.5 30.5h74q-1 -28 -13 -51.5t-38.5 -38t-70.5 -14.5z" />
    <glyph glyph-name="Ohungarumlaut" unicode="&#x150;" horiz-adv-x="399" 
d="M198 -12q-51 0 -89.5 12.5t-60 50.5t-21.5 114v301q0 51 21.5 80t60 41.5t89.5 12.5t90 -12.5t61.5 -41.5t22.5 -80v-300q0 -77 -22.5 -115t-61.5 -50.5t-90 -12.5zM198 69q10 0 18.5 4t12.5 13.5t4 25.5v360q0 15 -4 25t-12.5 14t-18.5 4t-18 -4t-12.5 -14t-4.5 -25
v-360q0 -16 4.5 -25.5t12.5 -13.5t18 -4zM109 630l12 103h103l-63 -103h-52zM213 630l29 103h103l-71 -103h-61z" />
    <glyph glyph-name="ohungarumlaut" unicode="&#x151;" horiz-adv-x="379" 
d="M190 -8q-52 0 -89 12t-57 48.5t-20 110.5v201q0 79 42.5 109.5t123.5 30.5t123 -30t42 -110v-200q0 -75 -19.5 -111.5t-56.5 -48.5t-89 -12zM190 71q14 0 21.5 9.5t7.5 34.5v266q0 23 -7 33t-22 10q-14 0 -22 -9.5t-8 -33.5v-266q0 -25 8 -34.5t22 -9.5zM110 549l12 103
h103l-63 -103h-52zM214 549l29 103h103l-71 -103h-61z" />
    <glyph glyph-name="OE" unicode="&#x152;" horiz-adv-x="549" 
d="M198 -12q-51 0 -89.5 12.5t-60 50.5t-21.5 114v301q0 51 21.5 80t60 41.5t89.5 12.5q46 0 81.5 -12.5t55.5 -41.5t20 -80v-300q0 -77 -20 -115t-55.5 -50.5t-81.5 -12.5zM198 69q10 0 18.5 4t12.5 13.5t4 25.5v360q0 15 -4 25t-12.5 14t-18.5 4t-17.5 -4t-12.5 -14
t-5 -25v-360q0 -16 5 -25.5t12.5 -13.5t17.5 -4zM234 0v591h297v-97h-159v-136h143v-109h-143v-154h159v-95h-297z" />
    <glyph glyph-name="oe" unicode="&#x153;" horiz-adv-x="568" 
d="M183 -8q-50 0 -85.5 13t-54.5 49.5t-19 108.5v201q0 51 18 81.5t53.5 44t88.5 13.5q42 0 74.5 -17t51.5 -48t19 -74v-200q0 -56 -15.5 -95t-48 -58t-82.5 -19zM190 71q11 0 17.5 5t9 15t2.5 24v266q0 14 -2.5 23.5t-9 14.5t-17.5 5q-12 0 -18.5 -5t-9 -14.5t-2.5 -23.5
v-266q0 -14 2.5 -24t9 -15t18.5 -5zM392 -8q-77 0 -112.5 40.5t-35.5 130.5v193q0 76 41.5 111.5t106.5 35.5q75 0 116 -27.5t41 -100.5v-138h-194v-127q0 -24 7 -33t22 -9t22 9t7 33v79h136v-25q0 -66 -18 -104t-53 -53t-86 -15zM355 297h58v86q0 23 -7 32t-22 9t-22 -9
t-7 -32v-86z" />
    <glyph glyph-name="Racute" unicode="&#x154;" horiz-adv-x="422" 
d="M33 0v591h229q62 0 92 -27.5t30 -72.5v-92q0 -44 -22.5 -78t-75.5 -39v-2q34 -6 48 -22.5t24 -53.5l54 -204h-154l-39 195q-5 22 -10 35.5t-14 13.5h-17v-244h-145zM178 341h31q20 0 29.5 13t9.5 43v68q0 30 -8 41t-26 11h-36v-176zM145 635l78 98h122l-124 -98h-76z" />
    <glyph glyph-name="racute" unicode="&#x155;" horiz-adv-x="293" 
d="M31 0v495h116l11 -62q7 20 22.5 34t33.5 21q34 17 75 8v-104q-1 1 -16 2.5t-34.5 0t-32.5 -11.5q-21 -11 -30 -33t-9 -52v-298h-136zM120 549l58 103h120l-101 -103h-77z" />
    <glyph glyph-name="uni0156" unicode="&#x156;" horiz-adv-x="422" 
d="M33 0v591h229q62 0 92 -27.5t30 -72.5v-92q0 -44 -22.5 -78t-75.5 -39v-2q34 -6 48 -22.5t24 -53.5l54 -204h-154l-39 195q-5 22 -10 35.5t-14 13.5h-17v-244h-145zM178 341h31q20 0 29.5 13t9.5 43v68q0 30 -8 41t-26 11h-36v-176zM152 -201q16 23 24.5 41.5t8.5 30.5
q0 8 -7.5 13.5t-15 13.5t-7.5 22q0 17 15.5 30.5t40.5 13.5q26 0 42.5 -14.5t16.5 -35.5q0 -15 -10 -36t-24 -42t-29 -37h-55z" />
    <glyph glyph-name="uni0157" unicode="&#x157;" horiz-adv-x="293" 
d="M31 0v495h116l11 -62q7 20 22.5 34t33.5 21q34 17 75 8v-104q-1 1 -16 2.5t-34.5 0t-32.5 -11.5q-21 -11 -30 -33t-9 -52v-298h-136zM38 -201q16 23 24.5 41.5t8.5 30.5q0 8 -7.5 13.5t-15 13.5t-7.5 22q0 17 15.5 30.5t40.5 13.5q26 0 42.5 -14.5t16.5 -35.5
q0 -15 -10 -36t-24 -42t-29 -37h-55z" />
    <glyph glyph-name="Rcaron" unicode="&#x158;" horiz-adv-x="422" 
d="M33 0v591h229q62 0 92 -27.5t30 -72.5v-92q0 -44 -22.5 -78t-75.5 -39v-2q34 -6 48 -22.5t24 -53.5l54 -204h-154l-39 195q-5 22 -10 35.5t-14 13.5h-17v-244h-145zM178 341h31q20 0 29.5 13t9.5 43v68q0 30 -8 41t-26 11h-36v-176zM174 631l-98 104h94l42 -37l42 36h92
l-98 -103h-74z" />
    <glyph glyph-name="rcaron" unicode="&#x159;" horiz-adv-x="293" 
d="M31 0v495h116l11 -62q7 20 22.5 34t33.5 21q34 17 75 8v-104q-1 1 -16 2.5t-34.5 0t-32.5 -11.5q-21 -11 -30 -33t-9 -52v-298h-136zM129 545l-97 111h90l46 -45l45 45h88l-98 -111h-74z" />
    <glyph glyph-name="Sacute" unicode="&#x15a;" horiz-adv-x="398" 
d="M196 -8q-56 0 -96 15t-60.5 53t-20.5 109v36h72.5h72.5v-48q0 -32 4 -48.5t11.5 -22.5t18.5 -6q17 0 25.5 13.5t8.5 53.5q0 35 -10.5 51.5t-34.5 27.5t-64 27q-36 17 -58 39t-31.5 55t-9.5 78q0 61 16 98t54 53.5t105 16.5q85 0 129 -35.5t44 -106.5v-73h-68.5h-69.5v31
q0 42 -6 58t-28 16q-19 0 -26 -12.5t-7 -40.5q0 -32 12.5 -48.5t32.5 -25t42 -16.5q44 -17 71.5 -34.5t40.5 -48.5t13 -89q0 -66 -22 -104.5t-63.5 -55t-97.5 -16.5zM134 635l78 98h122l-124 -98h-76z" />
    <glyph glyph-name="sacute" unicode="&#x15b;" horiz-adv-x="378" 
d="M186 -8q-66 0 -102.5 16.5t-50.5 51t-14 85.5v36h136v-66q0 -26 6 -38t24 -12q15 0 21.5 10t6.5 28v42q0 25 -9.5 37.5t-28.5 20.5t-46 19q-24 10 -46.5 23.5t-37 36.5t-14.5 59v28q0 67 36 100.5t131 33.5q63 0 98 -15.5t49 -48.5t14 -82v-34h-132v58q0 27 -6 38.5
t-22 11.5q-17 0 -23 -10.5t-6 -25.5v-41q0 -23 14 -36t35.5 -20t42.5 -15q25 -9 47 -22t36 -35t14 -57v-33q0 -47 -16 -79t-53 -48.5t-104 -16.5zM142 549l58 103h120l-101 -103h-77z" />
    <glyph glyph-name="Scircumflex" unicode="&#x15c;" horiz-adv-x="398" 
d="M196 -8q-56 0 -96 15t-60.5 53t-20.5 109v36h72.5h72.5v-48q0 -32 4 -48.5t11.5 -22.5t18.5 -6q17 0 25.5 13.5t8.5 53.5q0 35 -10.5 51.5t-34.5 27.5t-64 27q-36 17 -58 39t-31.5 55t-9.5 78q0 61 16 98t54 53.5t105 16.5q85 0 129 -35.5t44 -106.5v-73h-68.5h-69.5v31
q0 42 -6 58t-28 16q-19 0 -26 -12.5t-7 -40.5q0 -32 12.5 -48.5t32.5 -25t42 -16.5q44 -17 71.5 -34.5t40.5 -48.5t13 -89q0 -66 -22 -104.5t-63.5 -55t-97.5 -16.5zM63 631l99 105h74l100 -104h-93l-43 37l-43 -38h-94z" />
    <glyph glyph-name="scircumflex" unicode="&#x15d;" horiz-adv-x="378" 
d="M186 -8q-66 0 -102.5 16.5t-50.5 51t-14 85.5v36h136v-66q0 -26 6 -38t24 -12q15 0 21.5 10t6.5 28v42q0 25 -9.5 37.5t-28.5 20.5t-46 19q-24 10 -46.5 23.5t-37 36.5t-14.5 59v28q0 67 36 100.5t131 33.5q63 0 98 -15.5t49 -48.5t14 -82v-34h-132v58q0 27 -6 38.5
t-22 11.5q-17 0 -23 -10.5t-6 -25.5v-41q0 -23 14 -36t35.5 -20t42.5 -15q25 -9 47 -22t36 -35t14 -57v-33q0 -47 -16 -79t-53 -48.5t-104 -16.5zM54 545l97 111h74l98 -111h-88l-46 46l-45 -46h-90z" />
    <glyph glyph-name="Scedilla" unicode="&#x15e;" horiz-adv-x="398" 
d="M196 -8q-56 0 -96 15t-60.5 53t-20.5 109v36h72.5h72.5v-48q0 -32 4 -48.5t11.5 -22.5t18.5 -6q17 0 25.5 13.5t8.5 53.5q0 35 -10.5 51.5t-34.5 27.5t-64 27q-36 17 -58 39t-31.5 55t-9.5 78q0 61 16 98t54 53.5t105 16.5q85 0 129 -35.5t44 -106.5v-73h-68.5h-69.5v31
q0 42 -6 58t-28 16q-19 0 -26 -12.5t-7 -40.5q0 -32 12.5 -48.5t32.5 -25t42 -16.5q44 -17 71.5 -34.5t40.5 -48.5t13 -89q0 -66 -22 -104.5t-63.5 -55t-97.5 -16.5zM195 -168q-21 0 -38.5 8t-24.5 12l16 42q7 -6 19.5 -10.5t21.5 -4.5q14 0 22 7t8 20q0 9 -6 13.5t-14 4.5
q-6 0 -10.5 -2t-7.5 -5l-36 20l31 63h50l-26 -53l-7 4q6 3 16 6.5t23 3.5q29 0 45 -18.5t16 -39.5q0 -29 -25.5 -50t-72.5 -21z" />
    <glyph glyph-name="scedilla" unicode="&#x15f;" horiz-adv-x="378" 
d="M186 -8q-66 0 -102.5 16.5t-50.5 51t-14 85.5v36h136v-66q0 -26 6 -38t24 -12q15 0 21.5 10t6.5 28v42q0 25 -9.5 37.5t-28.5 20.5t-46 19q-24 10 -46.5 23.5t-37 36.5t-14.5 59v28q0 67 36 100.5t131 33.5q63 0 98 -15.5t49 -48.5t14 -82v-34h-132v58q0 27 -6 38.5
t-22 11.5q-17 0 -23 -10.5t-6 -25.5v-41q0 -23 14 -36t35.5 -20t42.5 -15q25 -9 47 -22t36 -35t14 -57v-33q0 -47 -16 -79t-53 -48.5t-104 -16.5zM184 -168q-21 0 -38.5 8t-24.5 12l16 42q7 -6 19.5 -10.5t21.5 -4.5q14 0 22 7t8 20q0 9 -6 13.5t-14 4.5q-6 0 -10.5 -2
t-7.5 -5l-36 20l31 63h50l-26 -53l-7 4q6 3 16 6.5t23 3.5q29 0 45 -18.5t16 -39.5q0 -29 -25.5 -50t-72.5 -21z" />
    <glyph glyph-name="Scaron" unicode="&#x160;" horiz-adv-x="398" 
d="M196 -8q-56 0 -96 15t-60.5 53t-20.5 109v36h72.5h72.5v-48q0 -32 4 -48.5t11.5 -22.5t18.5 -6q17 0 25.5 13.5t8.5 53.5q0 35 -10.5 51.5t-34.5 27.5t-64 27q-36 17 -58 39t-31.5 55t-9.5 78q0 61 16 98t54 53.5t105 16.5q85 0 129 -35.5t44 -106.5v-73h-68.5h-69.5v31
q0 42 -6 58t-28 16q-19 0 -26 -12.5t-7 -40.5q0 -32 12.5 -48.5t32.5 -25t42 -16.5q44 -17 71.5 -34.5t40.5 -48.5t13 -89q0 -66 -22 -104.5t-63.5 -55t-97.5 -16.5zM162 631l-98 104h94l42 -37l42 36h92l-98 -103h-74z" />
    <glyph glyph-name="scaron" unicode="&#x161;" horiz-adv-x="378" 
d="M186 -8q-66 0 -102.5 16.5t-50.5 51t-14 85.5v36h136v-66q0 -26 6 -38t24 -12q15 0 21.5 10t6.5 28v42q0 25 -9.5 37.5t-28.5 20.5t-46 19q-24 10 -46.5 23.5t-37 36.5t-14.5 59v28q0 67 36 100.5t131 33.5q63 0 98 -15.5t49 -48.5t14 -82v-34h-132v58q0 27 -6 38.5
t-22 11.5q-17 0 -23 -10.5t-6 -25.5v-41q0 -23 14 -36t35.5 -20t42.5 -15q25 -9 47 -22t36 -35t14 -57v-33q0 -47 -16 -79t-53 -48.5t-104 -16.5zM151 545l-97 111h90l46 -45l45 45h88l-98 -111h-74z" />
    <glyph glyph-name="uni0162" unicode="&#x162;" horiz-adv-x="332" 
d="M97 0v494h-88v97h315v-97h-89v-494h-138zM162 -168q-21 0 -38.5 8t-24.5 12l16 42q7 -6 19.5 -10.5t21.5 -4.5q14 0 22 7t8 20q0 9 -6 13.5t-14 4.5q-6 0 -10.5 -2t-7.5 -5l-36 20l31 63h50l-26 -53l-7 4q6 3 16 6.5t23 3.5q29 0 45 -18.5t16 -39.5q0 -29 -25.5 -50
t-72.5 -21z" />
    <glyph glyph-name="uni0163" unicode="&#x163;" horiz-adv-x="292" 
d="M194 -4q-24 0 -48.5 4t-45 15.5t-33 34t-12.5 61.5v305h-48v67l60 12l19 91h105v-91h89v-79h-89v-281q0 -18 7 -33.5t33 -15.5q13 0 30 1.5t19 1.5v-81q-2 0 -28.5 -6t-57.5 -6zM156 -168q-21 0 -38.5 8t-24.5 12l16 42q7 -6 19.5 -10.5t21.5 -4.5q14 0 22 7t8 20
q0 9 -6 13.5t-14 4.5q-6 0 -10.5 -2t-7.5 -5l-36 20l31 63h50l-26 -53l-7 4q6 3 16 6.5t23 3.5q29 0 45 -18.5t16 -39.5q0 -29 -25.5 -50t-72.5 -21z" />
    <glyph glyph-name="Tcaron" unicode="&#x164;" horiz-adv-x="332" 
d="M97 0v494h-88v97h315v-97h-89v-494h-138zM129 631l-98 104h94l42 -37l42 36h92l-98 -103h-74z" />
    <glyph glyph-name="tcaron" unicode="&#x165;" horiz-adv-x="292" 
d="M194 -4q-24 0 -48.5 4t-45 15.5t-33 34t-12.5 61.5v305h-48v67l60 12l19 91h105v-91h89v-79h-89v-281q0 -18 7 -33.5t33 -15.5q13 0 30 1.5t19 1.5v-81q-2 0 -28.5 -6t-57.5 -6zM220 549l26 154h81l-60 -154h-47z" />
    <glyph glyph-name="Tbar" unicode="&#x166;" horiz-adv-x="332" 
d="M97 0v494h-88v97h315v-97h-89v-494h-138zM59 350v68h214v-68h-214z" />
    <glyph glyph-name="tbar" unicode="&#x167;" horiz-adv-x="292" 
d="M194 -4q-24 0 -48.5 4t-45 15.5t-33 34t-12.5 61.5v305h-48v67l60 12l19 91h105v-91h89v-79h-89v-281q0 -18 7 -33.5t33 -15.5q13 0 30 1.5t19 1.5v-81q-2 0 -28.5 -6t-57.5 -6zM22 287v68h214v-68h-214z" />
    <glyph glyph-name="Utilde" unicode="&#x168;" horiz-adv-x="404" 
d="M202 -12q-38 0 -69 5.5t-53.5 21.5t-35 49.5t-12.5 90.5v436h139v-476q0 -16 4 -25.5t11 -13t16 -3.5t16.5 3.5t11.5 13t4 25.5v476h138v-435q0 -57 -12 -91t-34.5 -50t-54 -21.5t-69.5 -5.5zM246 636q-16 0 -30 6.5t-28 14.5q-11 6 -22.5 11t-23.5 5q-13 0 -20 -10
t-8 -26h-38q0 44 18.5 70.5t49.5 26.5q17 0 31.5 -5.5t26.5 -12.5q12 -6 23 -11t22 -5q15 0 22 9t9 22h42q-1 -31 -12.5 -52t-28 -32t-33.5 -11z" />
    <glyph glyph-name="utilde" unicode="&#x169;" horiz-adv-x="391" 
d="M141 -7q-46 0 -70 15.5t-33 45t-9 70.5v371h136v-365q0 -12 2.5 -21t9 -14.5t18.5 -5.5q8 0 13.5 2t9.5 5t6 6v393h136v-495h-116l-11 63q-9 -30 -33.5 -50t-58.5 -20zM243 549q-16 0 -30 6.5t-28 14.5q-11 6 -22.5 11t-23.5 5q-13 0 -20 -10t-8 -26h-38q0 44 18.5 70.5
t49.5 26.5q17 0 31.5 -5.5t26.5 -12.5q12 -6 23 -11t22 -5q15 0 22 9t9 22h42q-1 -31 -12.5 -52t-28 -32t-33.5 -11z" />
    <glyph glyph-name="Umacron" unicode="&#x16a;" horiz-adv-x="404" 
d="M202 -12q-38 0 -69 5.5t-53.5 21.5t-35 49.5t-12.5 90.5v436h139v-476q0 -16 4 -25.5t11 -13t16 -3.5t16.5 3.5t11.5 13t4 25.5v476h138v-435q0 -57 -12 -91t-34.5 -50t-54 -21.5t-69.5 -5.5zM95 644v68h214v-68h-214z" />
    <glyph glyph-name="umacron" unicode="&#x16b;" horiz-adv-x="391" 
d="M141 -7q-46 0 -70 15.5t-33 45t-9 70.5v371h136v-365q0 -12 2.5 -21t9 -14.5t18.5 -5.5q8 0 13.5 2t9.5 5t6 6v393h136v-495h-116l-11 63q-9 -30 -33.5 -50t-58.5 -20zM88 558v68h214v-68h-214z" />
    <glyph glyph-name="Ubreve" unicode="&#x16c;" horiz-adv-x="404" 
d="M202 -12q-38 0 -69 5.5t-53.5 21.5t-35 49.5t-12.5 90.5v436h139v-476q0 -16 4 -25.5t11 -13t16 -3.5t16.5 3.5t11.5 13t4 25.5v476h138v-435q0 -57 -12 -91t-34.5 -50t-54 -21.5t-69.5 -5.5zM200 631q-49 0 -74.5 18t-34 42.5t-8.5 43.5h72q1 -20 15 -30t31 -10
q19 0 32.5 9.5t14.5 30.5h74q-1 -28 -13 -51.5t-38.5 -38t-70.5 -14.5z" />
    <glyph glyph-name="ubreve" unicode="&#x16d;" horiz-adv-x="391" 
d="M141 -7q-46 0 -70 15.5t-33 45t-9 70.5v371h136v-365q0 -12 2.5 -21t9 -14.5t18.5 -5.5q8 0 13.5 2t9.5 5t6 6v393h136v-495h-116l-11 63q-9 -30 -33.5 -50t-58.5 -20zM193 545q-49 0 -74.5 18t-34 42.5t-8.5 43.5h72q1 -20 15 -30t31 -10q19 0 32.5 9.5t14.5 30.5h74
q-1 -28 -13 -51.5t-38.5 -38t-70.5 -14.5z" />
    <glyph glyph-name="Uring" unicode="&#x16e;" horiz-adv-x="404" 
d="M202 -12q-38 0 -69 5.5t-53.5 21.5t-35 49.5t-12.5 90.5v436h139v-476q0 -16 4 -25.5t11 -13t16 -3.5t16.5 3.5t11.5 13t4 25.5v476h138v-435q0 -57 -12 -91t-34.5 -50t-54 -21.5t-69.5 -5.5zM202 624q-39 0 -64.5 24.5t-25.5 59.5q0 37 25.5 61.5t64.5 24.5
q37 0 63.5 -25t26.5 -61q0 -35 -27 -59.5t-63 -24.5zM202 677q15 0 24.5 9t9.5 22q0 16 -9.5 25t-24.5 9t-25 -9t-10 -25q0 -13 10 -22t25 -9z" />
    <glyph glyph-name="uring" unicode="&#x16f;" horiz-adv-x="391" 
d="M141 -7q-46 0 -70 15.5t-33 45t-9 70.5v371h136v-365q0 -12 2.5 -21t9 -14.5t18.5 -5.5q8 0 13.5 2t9.5 5t6 6v393h136v-495h-116l-11 63q-9 -30 -33.5 -50t-58.5 -20zM195 540q-39 0 -64.5 24.5t-25.5 59.5q0 37 25.5 61.5t64.5 24.5q37 0 63.5 -25t26.5 -61
q0 -35 -27 -59.5t-63 -24.5zM195 593q15 0 24.5 9t9.5 22q0 16 -9.5 25t-24.5 9t-25 -9t-10 -25q0 -13 10 -22t25 -9z" />
    <glyph glyph-name="Uhungarumlaut" unicode="&#x170;" horiz-adv-x="404" 
d="M202 -12q-38 0 -69 5.5t-53.5 21.5t-35 49.5t-12.5 90.5v436h139v-476q0 -16 4 -25.5t11 -13t16 -3.5t16.5 3.5t11.5 13t4 25.5v476h138v-435q0 -57 -12 -91t-34.5 -50t-54 -21.5t-69.5 -5.5zM111 630l12 103h103l-63 -103h-52zM215 630l29 103h103l-71 -103h-61z" />
    <glyph glyph-name="uhungarumlaut" unicode="&#x171;" horiz-adv-x="391" 
d="M141 -7q-46 0 -70 15.5t-33 45t-9 70.5v371h136v-365q0 -12 2.5 -21t9 -14.5t18.5 -5.5q8 0 13.5 2t9.5 5t6 6v393h136v-495h-116l-11 63q-9 -30 -33.5 -50t-58.5 -20zM116 549l12 103h103l-63 -103h-52zM220 549l29 103h103l-71 -103h-61z" />
    <glyph glyph-name="Uogonek" unicode="&#x172;" horiz-adv-x="404" 
d="M202 -12q-38 0 -69 5.5t-53.5 21.5t-35 49.5t-12.5 90.5v436h139v-476q0 -16 4 -25.5t11 -13t16 -3.5t16.5 3.5t11.5 13t4 25.5v476h138v-435q0 -57 -12 -91t-34.5 -50t-54 -21.5t-69.5 -5.5zM215 -148q-40 0 -64 20.5t-24 45.5q0 28 23.5 53.5t61.5 30.5l53 -2
q-27 -8 -39.5 -26.5t-12.5 -36.5t12.5 -28t25.5 -10q7 0 12 1.5t7 2.5l16 -34q-6 -3 -21.5 -10t-49.5 -7z" />
    <glyph glyph-name="uogonek" unicode="&#x173;" horiz-adv-x="391" 
d="M141 -7q-46 0 -70 15.5t-33 45t-9 70.5v371h136v-365q0 -12 2.5 -21t9 -14.5t18.5 -5.5q8 0 13.5 2t9.5 5t6 6v393h136v-495h-116l-11 63q-9 -30 -33.5 -50t-58.5 -20zM310 -148q-40 0 -64 20.5t-24 45.5q0 28 23.5 53.5t61.5 30.5l53 -2q-27 -8 -39.5 -26.5t-12.5 -36.5
t12.5 -28t25.5 -10q7 0 12 1.5t7 2.5l16 -34q-6 -3 -21.5 -10t-49.5 -7z" />
    <glyph glyph-name="Wcircumflex" unicode="&#x174;" horiz-adv-x="618" 
d="M98 0l-87 591h143l48 -415l49 415h116l49 -415l48 415h144l-88 -591h-162l-49 299l-49 -299h-162zM173 631l99 105h74l100 -104h-93l-43 37l-43 -38h-94z" />
    <glyph glyph-name="wcircumflex" unicode="&#x175;" horiz-adv-x="602" 
d="M103 0l-101 495h130l51 -333l52 333h132l59 -333l44 333h129l-100 -495h-157l-42 235l-40 -235h-157zM167 545l97 111h74l98 -111h-88l-46 46l-45 -46h-90z" />
    <glyph glyph-name="Ycircumflex" unicode="&#x176;" horiz-adv-x="377" 
d="M117 0v248l-111 343h138l41 -149l8 -45l8 45l43 149h127l-115 -351v-240h-139zM58 631l99 105h74l100 -104h-93l-43 37l-43 -38h-94z" />
    <glyph glyph-name="ycircumflex" unicode="&#x177;" horiz-adv-x="362" 
d="M113 -116q-31 0 -61 4.5t-47 8.5v71q7 -2 18.5 -4t25.5 -2q12 0 27 4t19 25q1 8 1.5 17t-2.5 21l-96 466h141l47 -367h2l48 367h129l-91 -442q-18 -91 -57 -130t-104 -39zM47 545l97 111h74l98 -111h-88l-46 46l-45 -46h-90z" />
    <glyph glyph-name="Ydieresis" unicode="&#x178;" horiz-adv-x="377" 
d="M117 0v248l-111 343h138l41 -149l8 -45l8 45l43 149h127l-115 -351v-240h-139zM130 632q-23 0 -38.5 15t-15.5 36q0 22 15.5 36.5t38.5 14.5t38 -14.5t15 -36.5q0 -21 -15 -36t-38 -15zM260 632q-23 0 -38.5 15t-15.5 36q0 22 15.5 36.5t38.5 14.5t38 -14.5t15 -36.5
q0 -21 -15 -36t-38 -15z" />
    <glyph glyph-name="Zacute" unicode="&#x179;" horiz-adv-x="301" 
d="M12 0v86l120 408h-110v97h268v-67l-128 -427h128v-97h-278zM95 635l78 98h122l-124 -98h-76z" />
    <glyph glyph-name="zacute" unicode="&#x17a;" horiz-adv-x="298" 
d="M8 0v53l128 355h-114v87h267v-58l-122 -345h122v-92h-281zM102 549l58 103h120l-101 -103h-77z" />
    <glyph glyph-name="Zdotaccent" unicode="&#x17b;" horiz-adv-x="301" 
d="M12 0v86l120 408h-110v97h268v-67l-128 -427h128v-97h-278zM160 634q-25 0 -43.5 17.5t-18.5 42.5t18.5 42.5t43.5 17.5q26 0 44.5 -17.5t18.5 -42.5t-18.5 -42.5t-44.5 -17.5z" />
    <glyph glyph-name="zdotaccent" unicode="&#x17c;" horiz-adv-x="298" 
d="M8 0v53l128 355h-114v87h267v-58l-122 -345h122v-92h-281zM148 547q-25 0 -43.5 17.5t-18.5 42.5t18.5 42.5t43.5 17.5q26 0 44.5 -17.5t18.5 -42.5t-18.5 -42.5t-44.5 -17.5z" />
    <glyph glyph-name="Zcaron" unicode="&#x17d;" horiz-adv-x="301" 
d="M12 0v86l120 408h-110v97h268v-67l-128 -427h128v-97h-278zM123 631l-98 104h94l42 -37l42 36h92l-98 -103h-74z" />
    <glyph glyph-name="zcaron" unicode="&#x17e;" horiz-adv-x="298" 
d="M8 0v53l128 355h-114v87h267v-58l-122 -345h122v-92h-281zM111 545l-97 111h90l46 -45l45 45h88l-98 -111h-74z" />
    <glyph glyph-name="longs" unicode="&#x17f;" horiz-adv-x="286" 
d="M49 -143q-21 -1 -43 0.5t-43 5.5v68h34q8 0 16 2.5t15 6.5q9 4 14.5 12.5t6.5 18.5v390h-42v79h42v77q0 52 21.5 76.5t57.5 31t78 6.5q26 0 51 -4t47 -10l-11 -77q-21 8 -38.5 10t-38.5 2q-19 0 -25 -18.5t-6 -35.5v-473q0 -59 -18 -94.5t-48.5 -52.5t-69.5 -21z" />
    <glyph glyph-name="uni018F" unicode="&#x18f;" horiz-adv-x="396" 
d="M194 -12q-52 0 -90.5 12.5t-59 50.5t-20.5 115v82h139v-136q0 -17 4 -27t11 -13t16 -3t16 3t10.5 13t3.5 27v360q0 18 -3.5 27t-10.5 12.5t-16 3.5t-16 -3.5t-11 -12.5t-4 -27v-137h-139v131q0 51 20.5 80t59 41.5t89.5 12.5q53 0 92 -12.5t61.5 -41.5t22.5 -80v-301
q0 -76 -22.5 -114t-61.5 -50.5t-91 -12.5zM25 218v65h219v-65h-219z" />
    <glyph glyph-name="florin" unicode="&#x192;" horiz-adv-x="379" 
d="M7 -143q-13 0 -32 1t-35.5 2t-21.5 2l8 79l52 -6q27 -1 43 5.5t24 29t13 68.5l40 341h-62l8 73h62l10 61q11 65 42.5 90.5t70.5 25.5q10 0 30 -0.5t41.5 -1t40.5 -1.5t27 -2l-9 -79q-7 2 -28.5 5.5t-44.5 3.5q-25 0 -32 -19.5t-10 -43.5l-5 -39h99l-7 -73h-100l-44 -382
q-8 -72 -53.5 -106t-126.5 -34z" />
    <glyph glyph-name="Ohorn" unicode="&#x1a0;" horiz-adv-x="399" 
d="M198 -12q-51 0 -89.5 12.5t-60 50.5t-21.5 114v301q0 51 21.5 80t60 41.5t89.5 12.5t90 -12.5t61.5 -41.5t22.5 -80v-300q0 -77 -22.5 -115t-61.5 -50.5t-90 -12.5zM198 69q10 0 18.5 4t12.5 13.5t4 25.5v360q0 15 -4 25t-12.5 14t-18.5 4t-18 -4t-12.5 -14t-4.5 -25
v-360q0 -16 4.5 -25.5t12.5 -13.5t18 -4zM245 532l-1 59h19q44 0 44 46v20h88v-19q0 -58 -37.5 -82t-112.5 -24z" />
    <glyph glyph-name="ohorn" unicode="&#x1a1;" horiz-adv-x="379" 
d="M190 -8q-52 0 -89 12t-57 48.5t-20 110.5v201q0 79 42.5 109.5t123.5 30.5t123 -30t42 -110v-200q0 -75 -19.5 -111.5t-56.5 -48.5t-89 -12zM190 71q14 0 21.5 9.5t7.5 34.5v266q0 23 -7 33t-22 10q-14 0 -22 -9.5t-8 -33.5v-266q0 -25 8 -34.5t22 -9.5zM240 435l-1 59
h19q44 0 44 46v20h88v-19q0 -58 -37.5 -82t-112.5 -24z" />
    <glyph glyph-name="Uhorn" unicode="&#x1af;" horiz-adv-x="404" 
d="M202 -12q-38 0 -69 5.5t-53.5 21.5t-35 49.5t-12.5 90.5v436h139v-476q0 -16 4 -25.5t11 -13t16 -3.5t16.5 3.5t11.5 13t4 25.5v476h138v-435q0 -57 -12 -91t-34.5 -50t-54 -21.5t-69.5 -5.5zM263 532l-1 59h19q44 0 44 46v20h88v-19q0 -58 -37.5 -82t-112.5 -24z" />
    <glyph glyph-name="uhorn" unicode="&#x1b0;" horiz-adv-x="391" 
d="M141 -7q-46 0 -70 15.5t-33 45t-9 70.5v371h136v-365q0 -12 2.5 -21t9 -14.5t18.5 -5.5q8 0 13.5 2t9.5 5t6 6v393h136v-495h-116l-11 63q-9 -30 -33.5 -50t-58.5 -20zM255 435l-1 59h19q44 0 44 46v20h88v-19q0 -58 -37.5 -82t-112.5 -24z" />
    <glyph glyph-name="uni01C4" unicode="&#x1c4;" horiz-adv-x="706" 
d="M33 0v591h220q43 0 70.5 -12.5t41 -36t13.5 -56.5v-360q0 -48 -17.5 -75.5t-50 -39t-77.5 -11.5h-200zM178 71h32q13 0 21 9t8 33v358q0 24 -8 33.5t-21 9.5h-32v-443zM417 0v86l120 408h-110v97h268v-67l-128 -427h128v-97h-278zM528 631l-98 104h94l42 -37l42 36h92
l-98 -103h-74z" />
    <glyph glyph-name="uni01C5" unicode="&#x1c5;" horiz-adv-x="703" 
d="M33 0v591h220q43 0 70.5 -12.5t41 -36t13.5 -56.5v-360q0 -48 -17.5 -75.5t-50 -39t-77.5 -11.5h-200zM178 71h32q13 0 21 9t8 33v358q0 24 -8 33.5t-21 9.5h-32v-443zM413 0v53l128 355h-114v87h267v-58l-122 -345h122v-92h-281zM516 545l-97 111h90l46 -45l45 45h88
l-98 -111h-74z" />
    <glyph glyph-name="uni01C6" unicode="&#x1c6;" horiz-adv-x="684" 
d="M158 -7q-30 0 -54.5 5.5t-42.5 21t-27.5 46.5t-9.5 84v239q0 35 10.5 56.5t26.5 33.5t34.5 17t36.5 5q40 0 58.5 -13t28.5 -27v169h136v-630h-92l-14 47q-4 -8 -14.5 -21t-29 -23t-47.5 -10zM189 69q9 0 15 3.5t9 10t4.5 15t1.5 20.5v290q-1 2 -4.5 5t-9.5 5t-15 2
q-10 0 -15.5 -3t-9 -8.5t-4.5 -13.5t-1 -19v-263q0 -14 2.5 -24t9 -15t17.5 -5zM394 0v53l128 355h-114v87h267v-58l-122 -345h122v-92h-281zM497 545l-97 111h90l46 -45l45 45h88l-98 -111h-74z" />
    <glyph glyph-name="uni01C7" unicode="&#x1c7;" horiz-adv-x="554" 
d="M33 0v591h137v-496h121v-95h-258zM357 -1h-26t-26 1v95h30q30 -1 39.5 9.5t9.5 40.5v446h138v-438q0 -60 -16.5 -94t-52.5 -47t-96 -13z" />
    <glyph glyph-name="uni01C8" unicode="&#x1c8;" horiz-adv-x="494" 
d="M33 0v591h137v-496h121v-95h-258zM279 -113q-8 1 -23 2t-19 2v71q9 0 22.5 0.5t20.5 1.5q26 1 38.5 15.5t12.5 34.5v481h136v-440q0 -73 -27 -110.5t-69.5 -49.5t-91.5 -8zM397 547q-25 0 -43.5 17.5t-18.5 42.5t18.5 42.5t43.5 17.5q26 0 44.5 -17.5t18.5 -42.5
t-18.5 -42.5t-44.5 -17.5z" />
    <glyph glyph-name="uni01C9" unicode="&#x1c9;" horiz-adv-x="392" 
d="M31 0v631h136v-631h-136zM177 -113q-8 1 -23 2t-19 2v71q9 0 22.5 0.5t20.5 1.5q26 1 38.5 15.5t12.5 34.5v481h136v-440q0 -73 -27 -110.5t-69.5 -49.5t-91.5 -8zM294 547q-25 0 -43.5 17.5t-18.5 42.5t18.5 42.5t43.5 17.5q26 0 44.5 -17.5t18.5 -42.5t-18.5 -42.5
t-44.5 -17.5z" />
    <glyph glyph-name="uni01CA" unicode="&#x1ca;" horiz-adv-x="658" 
d="M33 0v591h120l97 -315v315h121v-591h-120l-96 288v-288h-122zM461 -1h-26t-26 1v95h30q30 -1 39.5 9.5t9.5 40.5v446h138v-438q0 -60 -16.5 -94t-52.5 -47t-96 -13z" />
    <glyph glyph-name="uni01CB" unicode="&#x1cb;" horiz-adv-x="598" 
d="M33 0v591h120l97 -315v315h121v-591h-120l-96 288v-288h-122zM383 -113q-8 1 -23 2t-19 2v71q9 0 22.5 0.5t20.5 1.5q26 1 38.5 15.5t12.5 34.5v481h136v-440q0 -73 -27 -110.5t-69.5 -49.5t-91.5 -8zM501 547q-25 0 -43.5 17.5t-18.5 42.5t18.5 42.5t43.5 17.5
q26 0 44.5 -17.5t18.5 -42.5t-18.5 -42.5t-44.5 -17.5z" />
    <glyph glyph-name="uni01CC" unicode="&#x1cc;" horiz-adv-x="581" 
d="M31 0v495h115l12 -60q8 31 34 50.5t58 19.5q46 0 70 -16t32.5 -45t8.5 -70v-374h-136v367q0 10 -1 17.5t-4 13t-8.5 8.5t-15.5 3q-7 0 -13 -2t-10 -5.5t-6 -6.5v-395h-136zM365 -113q-8 1 -23 2t-19 2v71q9 0 22.5 0.5t20.5 1.5q26 1 38.5 15.5t12.5 34.5v481h136v-440
q0 -73 -27 -110.5t-69.5 -49.5t-91.5 -8zM483 547q-25 0 -43.5 17.5t-18.5 42.5t18.5 42.5t43.5 17.5q26 0 44.5 -17.5t18.5 -42.5t-18.5 -42.5t-44.5 -17.5z" />
    <glyph glyph-name="uni01CD" unicode="&#x1cd;" horiz-adv-x="401" 
d="M6 0l94 591h203l92 -591h-155l-13 97h-60l-11 -97h-150zM168 165h59l-29 311zM164 631l-98 104h94l42 -37l42 36h92l-98 -103h-74z" />
    <glyph glyph-name="uni01CE" unicode="&#x1ce;" 
d="M119 -8q-27 0 -49.5 7.5t-36 29t-13.5 63.5v74q0 45 26.5 73.5t87.5 49.5q30 12 46.5 20.5t23.5 22t7 38.5v30q0 11 -3.5 18t-10 11t-15.5 4q-17 0 -23 -15t-6 -53v-42h-123v55q0 37 11 65.5t43.5 45t97.5 16.5q66 0 102 -10.5t50.5 -36t14.5 -69.5v-389h-136v52
q-7 -27 -34.5 -43.5t-59.5 -16.5zM179 81q19 0 25 15.5t6 46.5v113q-3 -7 -13.5 -12.5t-19.5 -12.5q-13 -10 -19.5 -20t-6.5 -29v-56q0 -15 3 -25t9 -15t16 -5zM153 545l-97 111h90l46 -45l45 45h88l-98 -111h-74z" />
    <glyph glyph-name="uni01CF" unicode="&#x1cf;" horiz-adv-x="205" 
d="M33 0v591h139v-591h-139zM66 631l-98 104h94l42 -37l42 36h92l-98 -103h-74z" />
    <glyph glyph-name="uni01D0" unicode="&#x1d0;" horiz-adv-x="198" 
d="M31 0v495h136v-495h-136zM61 545l-97 111h90l46 -45l45 45h88l-98 -111h-74z" />
    <glyph glyph-name="uni01D1" unicode="&#x1d1;" horiz-adv-x="399" 
d="M198 -12q-51 0 -89.5 12.5t-60 50.5t-21.5 114v301q0 51 21.5 80t60 41.5t89.5 12.5t90 -12.5t61.5 -41.5t22.5 -80v-300q0 -77 -22.5 -115t-61.5 -50.5t-90 -12.5zM198 69q10 0 18.5 4t12.5 13.5t4 25.5v360q0 15 -4 25t-12.5 14t-18.5 4t-18 -4t-12.5 -14t-4.5 -25
v-360q0 -16 4.5 -25.5t12.5 -13.5t18 -4zM163 631l-98 104h94l42 -37l42 36h92l-98 -103h-74z" />
    <glyph glyph-name="uni01D2" unicode="&#x1d2;" horiz-adv-x="379" 
d="M190 -8q-52 0 -89 12t-57 48.5t-20 110.5v201q0 79 42.5 109.5t123.5 30.5t123 -30t42 -110v-200q0 -75 -19.5 -111.5t-56.5 -48.5t-89 -12zM190 71q14 0 21.5 9.5t7.5 34.5v266q0 23 -7 33t-22 10q-14 0 -22 -9.5t-8 -33.5v-266q0 -25 8 -34.5t22 -9.5zM152 545l-97 111
h90l46 -45l45 45h88l-98 -111h-74z" />
    <glyph glyph-name="uni01D3" unicode="&#x1d3;" horiz-adv-x="404" 
d="M202 -12q-38 0 -69 5.5t-53.5 21.5t-35 49.5t-12.5 90.5v436h139v-476q0 -16 4 -25.5t11 -13t16 -3.5t16.5 3.5t11.5 13t4 25.5v476h138v-435q0 -57 -12 -91t-34.5 -50t-54 -21.5t-69.5 -5.5zM165 631l-98 104h94l42 -37l42 36h92l-98 -103h-74z" />
    <glyph glyph-name="uni01D4" unicode="&#x1d4;" horiz-adv-x="391" 
d="M141 -7q-46 0 -70 15.5t-33 45t-9 70.5v371h136v-365q0 -12 2.5 -21t9 -14.5t18.5 -5.5q8 0 13.5 2t9.5 5t6 6v393h136v-495h-116l-11 63q-9 -30 -33.5 -50t-58.5 -20zM158 545l-97 111h90l46 -45l45 45h88l-98 -111h-74z" />
    <glyph glyph-name="uni01D5" unicode="&#x1d5;" horiz-adv-x="404" 
d="M202 -12q-38 0 -69 5.5t-53.5 21.5t-35 49.5t-12.5 90.5v436h139v-476q0 -16 4 -25.5t11 -13t16 -3.5t16.5 3.5t11.5 13t4 25.5v476h138v-435q0 -57 -12 -91t-34.5 -50t-54 -21.5t-69.5 -5.5zM137 632q-23 0 -38.5 15t-15.5 36q0 22 15.5 36.5t38.5 14.5t38 -14.5
t15 -36.5q0 -21 -15 -36t-38 -15zM267 632q-23 0 -38.5 15t-15.5 36q0 22 15.5 36.5t38.5 14.5t38 -14.5t15 -36.5q0 -21 -15 -36t-38 -15zM95 757v68h214v-68h-214z" />
    <glyph glyph-name="uni01D6" unicode="&#x1d6;" horiz-adv-x="391" 
d="M141 -7q-46 0 -70 15.5t-33 45t-9 70.5v371h136v-365q0 -12 2.5 -21t9 -14.5t18.5 -5.5q8 0 13.5 2t9.5 5t6 6v393h136v-495h-116l-11 63q-9 -30 -33.5 -50t-58.5 -20zM131 546q-23 0 -38.5 15t-15.5 36q0 22 15.5 36.5t38.5 14.5t38 -14.5t15 -36.5q0 -21 -15 -36
t-38 -15zM261 546q-23 0 -38.5 15t-15.5 36q0 22 15.5 36.5t38.5 14.5t38 -14.5t15 -36.5q0 -21 -15 -36t-38 -15zM88 670v68h214v-68h-214z" />
    <glyph glyph-name="uni01D7" unicode="&#x1d7;" horiz-adv-x="404" 
d="M202 -12q-38 0 -69 5.5t-53.5 21.5t-35 49.5t-12.5 90.5v436h139v-476q0 -16 4 -25.5t11 -13t16 -3.5t16.5 3.5t11.5 13t4 25.5v476h138v-435q0 -57 -12 -91t-34.5 -50t-54 -21.5t-69.5 -5.5zM137 632q-23 0 -38.5 15t-15.5 36q0 22 15.5 36.5t38.5 14.5t38 -14.5
t15 -36.5q0 -21 -15 -36t-38 -15zM267 632q-23 0 -38.5 15t-15.5 36q0 22 15.5 36.5t38.5 14.5t38 -14.5t15 -36.5q0 -21 -15 -36t-38 -15zM137 751l78 98h122l-124 -98h-76z" />
    <glyph glyph-name="uni01D8" unicode="&#x1d8;" horiz-adv-x="391" 
d="M141 -7q-46 0 -70 15.5t-33 45t-9 70.5v371h136v-365q0 -12 2.5 -21t9 -14.5t18.5 -5.5q8 0 13.5 2t9.5 5t6 6v393h136v-495h-116l-11 63q-9 -30 -33.5 -50t-58.5 -20zM131 546q-23 0 -38.5 15t-15.5 36q0 22 15.5 36.5t38.5 14.5t38 -14.5t15 -36.5q0 -21 -15 -36
t-38 -15zM261 546q-23 0 -38.5 15t-15.5 36q0 22 15.5 36.5t38.5 14.5t38 -14.5t15 -36.5q0 -21 -15 -36t-38 -15zM149 661l58 103h120l-101 -103h-77z" />
    <glyph glyph-name="uni01D9" unicode="&#x1d9;" horiz-adv-x="404" 
d="M202 -12q-38 0 -69 5.5t-53.5 21.5t-35 49.5t-12.5 90.5v436h139v-476q0 -16 4 -25.5t11 -13t16 -3.5t16.5 3.5t11.5 13t4 25.5v476h138v-435q0 -57 -12 -91t-34.5 -50t-54 -21.5t-69.5 -5.5zM137 632q-23 0 -38.5 15t-15.5 36q0 22 15.5 36.5t38.5 14.5t38 -14.5
t15 -36.5q0 -21 -15 -36t-38 -15zM267 632q-23 0 -38.5 15t-15.5 36q0 22 15.5 36.5t38.5 14.5t38 -14.5t15 -36.5q0 -21 -15 -36t-38 -15zM165 747l-98 104h94l42 -37l42 36h92l-98 -103h-74z" />
    <glyph glyph-name="uni01DA" unicode="&#x1da;" horiz-adv-x="391" 
d="M141 -7q-46 0 -70 15.5t-33 45t-9 70.5v371h136v-365q0 -12 2.5 -21t9 -14.5t18.5 -5.5q8 0 13.5 2t9.5 5t6 6v393h136v-495h-116l-11 63q-9 -30 -33.5 -50t-58.5 -20zM131 546q-23 0 -38.5 15t-15.5 36q0 22 15.5 36.5t38.5 14.5t38 -14.5t15 -36.5q0 -21 -15 -36
t-38 -15zM261 546q-23 0 -38.5 15t-15.5 36q0 22 15.5 36.5t38.5 14.5t38 -14.5t15 -36.5q0 -21 -15 -36t-38 -15zM158 657l-97 111h90l46 -45l45 45h88l-98 -111h-74z" />
    <glyph glyph-name="uni01DB" unicode="&#x1db;" horiz-adv-x="404" 
d="M202 -12q-38 0 -69 5.5t-53.5 21.5t-35 49.5t-12.5 90.5v436h139v-476q0 -16 4 -25.5t11 -13t16 -3.5t16.5 3.5t11.5 13t4 25.5v476h138v-435q0 -57 -12 -91t-34.5 -50t-54 -21.5t-69.5 -5.5zM137 632q-23 0 -38.5 15t-15.5 36q0 22 15.5 36.5t38.5 14.5t38 -14.5
t15 -36.5q0 -21 -15 -36t-38 -15zM267 632q-23 0 -38.5 15t-15.5 36q0 22 15.5 36.5t38.5 14.5t38 -14.5t15 -36.5q0 -21 -15 -36t-38 -15zM181 751l-115 94h125l74 -94h-84z" />
    <glyph glyph-name="uni01DC" unicode="&#x1dc;" horiz-adv-x="391" 
d="M141 -7q-46 0 -70 15.5t-33 45t-9 70.5v371h136v-365q0 -12 2.5 -21t9 -14.5t18.5 -5.5q8 0 13.5 2t9.5 5t6 6v393h136v-495h-116l-11 63q-9 -30 -33.5 -50t-58.5 -20zM131 546q-23 0 -38.5 15t-15.5 36q0 22 15.5 36.5t38.5 14.5t38 -14.5t15 -36.5q0 -21 -15 -36
t-38 -15zM261 546q-23 0 -38.5 15t-15.5 36q0 22 15.5 36.5t38.5 14.5t38 -14.5t15 -36.5q0 -21 -15 -36t-38 -15zM171 661l-101 103h121l57 -103h-77z" />
    <glyph glyph-name="Gcaron" unicode="&#x1e6;" horiz-adv-x="397" 
d="M157 -10q-32 0 -61.5 11t-49 45t-19.5 100v318q0 51 21.5 80.5t59.5 41.5t90 12q51 0 90 -12.5t61.5 -41.5t22.5 -80v-87h-135v95q0 18 -4.5 27t-12 12.5t-19.5 3.5q-10 0 -18 -3.5t-12.5 -12.5t-4.5 -27v-360q0 -17 4.5 -27t12.5 -13t18 -3q17 0 26.5 10t9.5 33v114h-36
v78h171v-304h-105l-7 42q0 -1 -1 -2.5t-2 -2.5q-8 -16 -31.5 -31.5t-68.5 -15.5zM162 631l-98 104h94l42 -37l42 36h92l-98 -103h-74z" />
    <glyph glyph-name="gcaron" unicode="&#x1e7;" horiz-adv-x="384" 
d="M195 -120q-16 0 -38 1.5t-43.5 3t-37 3.5t-18.5 3v71q14 -2 41.5 -4.5t45.5 -2.5q17 0 30.5 3t23 9.5t14.5 19t5 30.5v72q-4 -10 -12 -24t-25.5 -25t-52.5 -11q-25 0 -44.5 6.5t-32.5 23.5t-20 48t-7 80v192q0 61 27 93.5t79 32.5q34 0 53 -8.5t29.5 -23t17.5 -33.5
l-18 -3l21 58h121v-408q0 -34 -4.5 -70.5t-20 -67.5t-47.5 -50t-87 -19zM189 109q11 0 17.5 5.5t9 16.5t2.5 25v246q-2 3 -5.5 6t-9 5t-15.5 2q-13 0 -20.5 -9t-7.5 -33v-223q0 -13 2.5 -21t7 -12t9.5 -6t10 -2zM155 545l-97 111h90l46 -45l45 45h88l-98 -111h-74z" />
    <glyph glyph-name="uni01EA" unicode="&#x1ea;" horiz-adv-x="399" 
d="M198 -12q-51 0 -89.5 12.5t-60 50.5t-21.5 114v301q0 51 21.5 80t60 41.5t89.5 12.5t90 -12.5t61.5 -41.5t22.5 -80v-300q0 -77 -22.5 -115t-61.5 -50.5t-90 -12.5zM198 69q10 0 18.5 4t12.5 13.5t4 25.5v360q0 15 -4 25t-12.5 14t-18.5 4t-18 -4t-12.5 -14t-4.5 -25
v-360q0 -16 4.5 -25.5t12.5 -13.5t18 -4zM215 -148q-40 0 -64 20.5t-24 45.5q0 28 23.5 53.5t61.5 30.5l53 -2q-27 -8 -39.5 -26.5t-12.5 -36.5t12.5 -28t25.5 -10q7 0 12 1.5t7 2.5l16 -34q-6 -3 -21.5 -10t-49.5 -7z" />
    <glyph glyph-name="uni01EB" unicode="&#x1eb;" horiz-adv-x="379" 
d="M190 -8q-52 0 -89 12t-57 48.5t-20 110.5v201q0 79 42.5 109.5t123.5 30.5t123 -30t42 -110v-200q0 -75 -19.5 -111.5t-56.5 -48.5t-89 -12zM190 71q14 0 21.5 9.5t7.5 34.5v266q0 23 -7 33t-22 10q-14 0 -22 -9.5t-8 -33.5v-266q0 -25 8 -34.5t22 -9.5zM202 -148
q-40 0 -64 20.5t-24 45.5q0 28 23.5 53.5t61.5 30.5l53 -2q-27 -8 -39.5 -26.5t-12.5 -36.5t12.5 -28t25.5 -10q7 0 12 1.5t7 2.5l16 -34q-6 -3 -21.5 -10t-49.5 -7z" />
    <glyph glyph-name="Aringacute" unicode="&#x1fa;" horiz-adv-x="401" 
d="M6 0l94 591h203l92 -591h-155l-13 97h-60l-11 -97h-150zM168 165h59l-29 311zM201 593q-39 0 -64.5 24.5t-25.5 59.5q0 37 25.5 61.5t64.5 24.5q37 0 63.5 -25t26.5 -61q0 -35 -27 -59.5t-63 -24.5zM201 646q15 0 24.5 9t9.5 22q0 16 -9.5 25t-24.5 9t-25 -9t-10 -25
q0 -13 10 -22t25 -9zM161 786l78 98h122l-124 -98h-76z" />
    <glyph glyph-name="aringacute" unicode="&#x1fb;" 
d="M119 -8q-27 0 -49.5 7.5t-36 29t-13.5 63.5v74q0 45 26.5 73.5t87.5 49.5q30 12 46.5 20.5t23.5 22t7 38.5v30q0 11 -3.5 18t-10 11t-15.5 4q-17 0 -23 -15t-6 -53v-42h-123v55q0 37 11 65.5t43.5 45t97.5 16.5q66 0 102 -10.5t50.5 -36t14.5 -69.5v-389h-136v52
q-7 -27 -34.5 -43.5t-59.5 -16.5zM179 81q19 0 25 15.5t6 46.5v113q-3 -7 -13.5 -12.5t-19.5 -12.5q-13 -10 -19.5 -20t-6.5 -29v-56q0 -15 3 -25t9 -15t16 -5zM191 540q-39 0 -64.5 24.5t-25.5 59.5q0 37 25.5 61.5t64.5 24.5q37 0 63.5 -25t26.5 -61q0 -35 -27 -59.5
t-63 -24.5zM191 593q15 0 24.5 9t9.5 22q0 16 -9.5 25t-24.5 9t-25 -9t-10 -25q0 -13 10 -22t25 -9zM145 734l58 103h120l-101 -103h-77z" />
    <glyph glyph-name="AEacute" unicode="&#x1fc;" horiz-adv-x="559" 
d="M-2 0l167 591h364v-97h-160l2 -136h143v-109h-141l2 -154h165v-95h-318l2 97h-53l-23 -97h-150zM181 165h51l14 289l2 22l-4 -22zM285 635l78 98h122l-124 -98h-76z" />
    <glyph glyph-name="aeacute" unicode="&#x1fd;" horiz-adv-x="562" 
d="M119 -6q-12 0 -29 1.5t-33 10t-26.5 29t-10.5 58.5v74q0 51 30.5 77t79.5 44q30 11 47.5 19t25.5 22t8 39v32q0 11 -3.5 18t-10 11t-15.5 4q-17 0 -23 -15t-6 -53v-42h-123v55q0 37 11 65.5t43.5 45t97.5 16.5q55 0 86 -13.5t43 -39.5t12 -63v-380l-83 70
q-17 -49 -51 -67t-70 -18zM179 81q19 0 25 15.5t6 46.5v113q-3 -7 -14 -12.5t-20 -13.5q-12 -10 -18.5 -19.5t-6.5 -27.5v-56q0 -15 3 -25.5t9 -15.5t16 -5zM378 -2q-35 0 -62.5 4.5t-46.5 19.5t-29 48t-10 89v216q0 56 38 92t110 36q81 0 123 -27.5t42 -100.5v-138h-194
v-136q0 -15 3 -24.5t9.5 -13t16.5 -3.5t16.5 4t9.5 13.5t3 24.5v84h136v-25q0 -57 -11 -90t-32.5 -48.5t-52 -20t-69.5 -4.5zM349 297h58v95q0 22 -6.5 31.5t-22.5 9.5q-15 0 -22 -9.5t-7 -31.5v-95zM255 549l58 103h120l-101 -103h-77z" />
    <glyph glyph-name="Oslashacute" unicode="&#x1fe;" horiz-adv-x="413" 
d="M12 -36l336 664h60l-336 -664h-60zM206 -12q-51 0 -90.5 12.5t-62 50.5t-22.5 114v301q0 51 22.5 80t62 41.5t91.5 12.5t90 -12.5t58.5 -41.5t20.5 -80v-300q0 -77 -20.5 -115t-58.5 -50.5t-91 -12.5zM207 69q9 0 16 3t10.5 13t3.5 27v360q0 18 -3.5 27t-10.5 12.5
t-16 3.5q-10 0 -17 -3.5t-10.5 -12.5t-3.5 -27v-360q0 -17 3.5 -27t10.5 -13t17 -3zM140 635l78 98h122l-124 -98h-76z" />
    <glyph glyph-name="oslashacute" unicode="&#x1ff;" horiz-adv-x="388" 
d="M28 -41l276 563h49l-277 -563h-48zM190 -8q-54 0 -91 13t-56 49.5t-19 108.5v201q0 51 18 81.5t55 44t93 13.5t92.5 -13.5t54.5 -44t18 -81.5v-200q0 -73 -19 -109.5t-56 -49.5t-90 -13zM190 71q11 0 17.5 5t9 15t2.5 24v266q0 14 -2.5 23.5t-9 14.5t-17.5 5
q-12 0 -18.5 -5t-9 -14.5t-2.5 -23.5v-266q0 -14 2.5 -24t9 -15t18.5 -5zM143 549l58 103h120l-101 -103h-77z" />
    <glyph glyph-name="uni0200" unicode="&#x200;" horiz-adv-x="401" 
d="M6 0l94 591h203l92 -591h-155l-13 97h-60l-11 -97h-150zM168 165h59l-29 311zM279 645h-52l-63 103h103zM175 645h-61l-71 103h103z" />
    <glyph glyph-name="uni0201" unicode="&#x201;" 
d="M119 -8q-27 0 -49.5 7.5t-36 29t-13.5 63.5v74q0 45 26.5 73.5t87.5 49.5q30 12 46.5 20.5t23.5 22t7 38.5v30q0 11 -3.5 18t-10 11t-15.5 4q-17 0 -23 -15t-6 -53v-42h-123v55q0 37 11 65.5t43.5 45t97.5 16.5q66 0 102 -10.5t50.5 -36t14.5 -69.5v-389h-136v52
q-7 -27 -34.5 -43.5t-59.5 -16.5zM179 81q19 0 25 15.5t6 46.5v113q-3 -7 -13.5 -12.5t-19.5 -12.5q-13 -10 -19.5 -20t-6.5 -29v-56q0 -15 3 -25t9 -15t16 -5zM269 549h-52l-63 103h103zM165 549h-61l-71 103h103z" />
    <glyph glyph-name="uni0202" unicode="&#x202;" horiz-adv-x="401" 
d="M203 749q50 0 75 -17.5t33.5 -41.5t8.5 -45h-72q-1 21 -15 31t-31 10q-18 0 -32 -9.5t-15 -31.5h-74q1 28 13 52t39 38t70 14zM6 0l94 591h203l92 -591h-155l-13 97h-60l-11 -97h-150zM168 165h59l-29 311z" />
    <glyph glyph-name="uni0203" unicode="&#x203;" 
d="M193 653q51 0 76 -17.5t33.5 -41.5t8.5 -45h-73q0 21 -14 31t-32 10t-31.5 -9.5t-15.5 -31.5h-73q0 28 12.5 52t39 38t69.5 14zM119 -8q-27 0 -49.5 7.5t-36 29t-13.5 63.5v74q0 45 26.5 73.5t87.5 49.5q30 12 46.5 20.5t23.5 22t7 38.5v30q0 11 -3.5 18t-10 11t-15.5 4
q-17 0 -23 -15t-6 -53v-42h-123v55q0 37 11 65.5t43.5 45t97.5 16.5q66 0 102 -10.5t50.5 -36t14.5 -69.5v-389h-136v52q-7 -27 -34.5 -43.5t-59.5 -16.5zM179 81q19 0 25 15.5t6 46.5v113q-3 -7 -13.5 -12.5t-19.5 -12.5q-13 -10 -19.5 -20t-6.5 -29v-56q0 -15 3 -25t9 -15
t16 -5z" />
    <glyph glyph-name="uni0204" unicode="&#x204;" horiz-adv-x="331" 
d="M33 0v591h280v-97h-135v-136h118v-109h-118v-154h135v-95h-280zM250 645h-52l-63 103h103zM146 645h-61l-71 103h103z" />
    <glyph glyph-name="uni0205" unicode="&#x205;" 
d="M190 -8q-52 0 -89 11.5t-57 48t-20 111.5v212q0 75 42.5 102.5t123.5 27.5q80 0 122 -27.5t42 -102.5v-138h-194v-132q0 -24 7.5 -33t22.5 -9t21.5 9t6.5 33v84h136v-25q0 -76 -19.5 -112.5t-56 -48t-88.5 -11.5zM160 297h58v86q0 23 -6.5 32t-21.5 9t-22.5 -9t-7.5 -32
v-86zM265 549h-52l-63 103h103zM161 549h-61l-71 103h103z" />
    <glyph glyph-name="uni0206" unicode="&#x206;" horiz-adv-x="331" 
d="M174 749q50 0 75 -17.5t33.5 -41.5t8.5 -45h-72q-1 21 -14.5 31t-31.5 10t-32 -9.5t-15 -31.5h-74q1 28 13.5 52t38.5 38t70 14zM33 0v591h280v-97h-135v-136h118v-109h-118v-154h135v-95h-280z" />
    <glyph glyph-name="uni0207" unicode="&#x207;" 
d="M189 653q51 0 76 -17.5t33.5 -41.5t8.5 -45h-73q0 21 -14 31t-32 10t-31.5 -9.5t-15.5 -31.5h-73q0 28 12.5 52t39 38t69.5 14zM190 -8q-52 0 -89 11.5t-57 48t-20 111.5v212q0 75 42.5 102.5t123.5 27.5q80 0 122 -27.5t42 -102.5v-138h-194v-132q0 -24 7.5 -33t22.5 -9
t21.5 9t6.5 33v84h136v-25q0 -76 -19.5 -112.5t-56 -48t-88.5 -11.5zM160 297h58v86q0 23 -6.5 32t-21.5 9t-22.5 -9t-7.5 -32v-86z" />
    <glyph glyph-name="uni0208" unicode="&#x208;" horiz-adv-x="205" 
d="M33 0v591h139v-591h-139zM181 645h-52l-63 103h103zM77 645h-61l-71 103h103z" />
    <glyph glyph-name="uni0209" unicode="&#x209;" horiz-adv-x="198" 
d="M31 0v495h136v-495h-136zM177 549h-52l-63 103h103zM73 549h-61l-71 103h103z" />
    <glyph glyph-name="uni020A" unicode="&#x20a;" horiz-adv-x="205" 
d="M104 749q51 0 76 -17.5t33.5 -41.5t8.5 -45h-72q-1 21 -15 31t-31 10q-18 0 -32 -9.5t-16 -31.5h-73q0 28 12.5 52t39 38t69.5 14zM33 0v591h139v-591h-139z" />
    <glyph glyph-name="uni020B" unicode="&#x20b;" horiz-adv-x="198" 
d="M101 653q50 0 75 -17.5t33.5 -41.5t8.5 -45h-72q-1 21 -15 31t-31 10q-18 0 -32 -9.5t-15 -31.5h-74q1 28 13 52t39 38t70 14zM31 0v495h136v-495h-136z" />
    <glyph glyph-name="uni020C" unicode="&#x20c;" horiz-adv-x="399" 
d="M198 -12q-51 0 -89.5 12.5t-60 50.5t-21.5 114v301q0 51 21.5 80t60 41.5t89.5 12.5t90 -12.5t61.5 -41.5t22.5 -80v-300q0 -77 -22.5 -115t-61.5 -50.5t-90 -12.5zM198 69q10 0 18.5 4t12.5 13.5t4 25.5v360q0 15 -4 25t-12.5 14t-18.5 4t-18 -4t-12.5 -14t-4.5 -25
v-360q0 -16 4.5 -25.5t12.5 -13.5t18 -4zM278 645h-52l-63 103h103zM174 645h-61l-71 103h103z" />
    <glyph glyph-name="uni020D" unicode="&#x20d;" horiz-adv-x="379" 
d="M190 -8q-52 0 -89 12t-57 48.5t-20 110.5v201q0 79 42.5 109.5t123.5 30.5t123 -30t42 -110v-200q0 -75 -19.5 -111.5t-56.5 -48.5t-89 -12zM190 71q14 0 21.5 9.5t7.5 34.5v266q0 23 -7 33t-22 10q-14 0 -22 -9.5t-8 -33.5v-266q0 -25 8 -34.5t22 -9.5zM267 549h-52
l-63 103h103zM163 549h-61l-71 103h103z" />
    <glyph glyph-name="uni020E" unicode="&#x20e;" horiz-adv-x="399" 
d="M202 749q50 0 75 -17.5t33.5 -41.5t8.5 -45h-72q-1 21 -15 31t-31 10q-18 0 -32 -9.5t-15 -31.5h-74q1 28 13 52t39 38t70 14zM198 -12q-51 0 -89.5 12.5t-60 50.5t-21.5 114v301q0 51 21.5 80t60 41.5t89.5 12.5t90 -12.5t61.5 -41.5t22.5 -80v-300q0 -77 -22.5 -115
t-61.5 -50.5t-90 -12.5zM198 69q10 0 18.5 4t12.5 13.5t4 25.5v360q0 15 -4 25t-12.5 14t-18.5 4t-18 -4t-12.5 -14t-4.5 -25v-360q0 -16 4.5 -25.5t12.5 -13.5t18 -4z" />
    <glyph glyph-name="uni020F" unicode="&#x20f;" horiz-adv-x="379" 
d="M191 653q51 0 76 -17.5t33.5 -41.5t8.5 -45h-73q0 21 -14 31t-32 10t-31.5 -9.5t-15.5 -31.5h-73q0 28 12.5 52t39 38t69.5 14zM190 -8q-52 0 -89 12t-57 48.5t-20 110.5v201q0 79 42.5 109.5t123.5 30.5t123 -30t42 -110v-200q0 -75 -19.5 -111.5t-56.5 -48.5t-89 -12z
M190 71q14 0 21.5 9.5t7.5 34.5v266q0 23 -7 33t-22 10q-14 0 -22 -9.5t-8 -33.5v-266q0 -25 8 -34.5t22 -9.5z" />
    <glyph glyph-name="uni0210" unicode="&#x210;" horiz-adv-x="422" 
d="M33 0v591h229q62 0 92 -27.5t30 -72.5v-92q0 -44 -22.5 -78t-75.5 -39v-2q34 -6 48 -22.5t24 -53.5l54 -204h-154l-39 195q-5 22 -10 35.5t-14 13.5h-17v-244h-145zM178 341h31q20 0 29.5 13t9.5 43v68q0 30 -8 41t-26 11h-36v-176zM289 645h-52l-63 103h103zM185 645
h-61l-71 103h103z" />
    <glyph glyph-name="uni0211" unicode="&#x211;" horiz-adv-x="293" 
d="M31 0v495h116l11 -62q7 20 22.5 34t33.5 21q34 17 75 8v-104q-1 1 -16 2.5t-34.5 0t-32.5 -11.5q-21 -11 -30 -33t-9 -52v-298h-136zM244 549h-52l-63 103h103zM140 549h-61l-71 103h103z" />
    <glyph glyph-name="uni0212" unicode="&#x212;" horiz-adv-x="422" 
d="M213 749q50 0 75 -17.5t33.5 -41.5t8.5 -45h-72q-1 21 -15 31t-31 10q-18 0 -32 -9.5t-15 -31.5h-74q1 28 13 52t39 38t70 14zM33 0v591h229q62 0 92 -27.5t30 -72.5v-92q0 -44 -22.5 -78t-75.5 -39v-2q34 -6 48 -22.5t24 -53.5l54 -204h-154l-39 195q-5 22 -10 35.5
t-14 13.5h-17v-244h-145zM178 341h31q20 0 29.5 13t9.5 43v68q0 30 -8 41t-26 11h-36v-176z" />
    <glyph glyph-name="uni0213" unicode="&#x213;" horiz-adv-x="293" 
d="M168 653q51 0 76 -17.5t33.5 -41.5t8.5 -45h-73q0 21 -14 31t-32 10t-31.5 -9.5t-15.5 -31.5h-73q0 28 12.5 52t38.5 38t70 14zM31 0v495h116l11 -62q7 20 22.5 34t33.5 21q34 17 75 8v-104q-1 1 -16 2.5t-34.5 0t-32.5 -11.5q-21 -11 -30 -33t-9 -52v-298h-136z" />
    <glyph glyph-name="uni0214" unicode="&#x214;" horiz-adv-x="404" 
d="M202 -12q-38 0 -69 5.5t-53.5 21.5t-35 49.5t-12.5 90.5v436h139v-476q0 -16 4 -25.5t11 -13t16 -3.5t16.5 3.5t11.5 13t4 25.5v476h138v-435q0 -57 -12 -91t-34.5 -50t-54 -21.5t-69.5 -5.5zM280 645h-52l-63 103h103zM176 645h-61l-71 103h103z" />
    <glyph glyph-name="uni0215" unicode="&#x215;" horiz-adv-x="391" 
d="M141 -7q-46 0 -70 15.5t-33 45t-9 70.5v371h136v-365q0 -12 2.5 -21t9 -14.5t18.5 -5.5q8 0 13.5 2t9.5 5t6 6v393h136v-495h-116l-11 63q-9 -30 -33.5 -50t-58.5 -20zM273 549h-52l-63 103h103zM169 549h-61l-71 103h103z" />
    <glyph glyph-name="uni0216" unicode="&#x216;" horiz-adv-x="404" 
d="M204 749q51 0 75.5 -17.5t33 -41.5t9.5 -45h-73q-1 21 -14.5 31t-31.5 10t-32 -9.5t-15 -31.5h-73q0 28 12.5 52t39 38t69.5 14zM202 -12q-38 0 -69 5.5t-53.5 21.5t-35 49.5t-12.5 90.5v436h139v-476q0 -16 4 -25.5t11 -13t16 -3.5t16.5 3.5t11.5 13t4 25.5v476h138
v-435q0 -57 -12 -91t-34.5 -50t-54 -21.5t-69.5 -5.5z" />
    <glyph glyph-name="uni0217" unicode="&#x217;" horiz-adv-x="391" 
d="M197 653q51 0 76 -17.5t33.5 -41.5t8.5 -45h-73q0 21 -14 31t-32 10t-31.5 -9.5t-15.5 -31.5h-73q0 28 12.5 52t39 38t69.5 14zM141 -7q-46 0 -70 15.5t-33 45t-9 70.5v371h136v-365q0 -12 2.5 -21t9 -14.5t18.5 -5.5q8 0 13.5 2t9.5 5t6 6v393h136v-495h-116l-11 63
q-9 -30 -33.5 -50t-58.5 -20z" />
    <glyph glyph-name="uni0218" unicode="&#x218;" horiz-adv-x="398" 
d="M196 -8q-56 0 -96 15t-60.5 53t-20.5 109v36h72.5h72.5v-48q0 -32 4 -48.5t11.5 -22.5t18.5 -6q17 0 25.5 13.5t8.5 53.5q0 35 -10.5 51.5t-34.5 27.5t-64 27q-36 17 -58 39t-31.5 55t-9.5 78q0 61 16 98t54 53.5t105 16.5q85 0 129 -35.5t44 -106.5v-73h-68.5h-69.5v31
q0 42 -6 58t-28 16q-19 0 -26 -12.5t-7 -40.5q0 -32 12.5 -48.5t32.5 -25t42 -16.5q44 -17 71.5 -34.5t40.5 -48.5t13 -89q0 -66 -22 -104.5t-63.5 -55t-97.5 -16.5zM139 -201q16 23 24.5 41.5t8.5 30.5q0 8 -7.5 13.5t-15 13.5t-7.5 22q0 17 15.5 30.5t40.5 13.5
q26 0 42.5 -14.5t16.5 -35.5q0 -15 -10 -36t-24 -42t-29 -37h-55z" />
    <glyph glyph-name="uni0219" unicode="&#x219;" horiz-adv-x="378" 
d="M186 -8q-66 0 -102.5 16.5t-50.5 51t-14 85.5v36h136v-66q0 -26 6 -38t24 -12q15 0 21.5 10t6.5 28v42q0 25 -9.5 37.5t-28.5 20.5t-46 19q-24 10 -46.5 23.5t-37 36.5t-14.5 59v28q0 67 36 100.5t131 33.5q63 0 98 -15.5t49 -48.5t14 -82v-34h-132v58q0 27 -6 38.5
t-22 11.5q-17 0 -23 -10.5t-6 -25.5v-41q0 -23 14 -36t35.5 -20t42.5 -15q25 -9 47 -22t36 -35t14 -57v-33q0 -47 -16 -79t-53 -48.5t-104 -16.5zM128 -201q16 23 24.5 41.5t8.5 30.5q0 8 -7.5 13.5t-15 13.5t-7.5 22q0 17 15.5 30.5t40.5 13.5q26 0 42.5 -14.5t16.5 -35.5
q0 -15 -10 -36t-24 -42t-29 -37h-55z" />
    <glyph glyph-name="uni021A" unicode="&#x21a;" horiz-adv-x="332" 
d="M97 0v494h-88v97h315v-97h-89v-494h-138zM106 -201q16 23 24.5 41.5t8.5 30.5q0 8 -7.5 13.5t-15 13.5t-7.5 22q0 17 15.5 30.5t40.5 13.5q26 0 42.5 -14.5t16.5 -35.5q0 -15 -10 -36t-24 -42t-29 -37h-55z" />
    <glyph glyph-name="uni021B" unicode="&#x21b;" horiz-adv-x="292" 
d="M194 -4q-24 0 -48.5 4t-45 15.5t-33 34t-12.5 61.5v305h-48v67l60 12l19 91h105v-91h89v-79h-89v-281q0 -18 7 -33.5t33 -15.5q13 0 30 1.5t19 1.5v-81q-2 0 -28.5 -6t-57.5 -6zM100 -201q16 23 24.5 41.5t8.5 30.5q0 8 -7.5 13.5t-15 13.5t-7.5 22q0 17 15.5 30.5
t40.5 13.5q26 0 42.5 -14.5t16.5 -35.5q0 -15 -10 -36t-24 -42t-29 -37h-55z" />
    <glyph glyph-name="uni022A" unicode="&#x22a;" horiz-adv-x="399" 
d="M198 -12q-51 0 -89.5 12.5t-60 50.5t-21.5 114v301q0 51 21.5 80t60 41.5t89.5 12.5t90 -12.5t61.5 -41.5t22.5 -80v-300q0 -77 -22.5 -115t-61.5 -50.5t-90 -12.5zM198 69q10 0 18.5 4t12.5 13.5t4 25.5v360q0 15 -4 25t-12.5 14t-18.5 4t-18 -4t-12.5 -14t-4.5 -25
v-360q0 -16 4.5 -25.5t12.5 -13.5t18 -4zM135 632q-23 0 -38.5 15t-15.5 36q0 22 15.5 36.5t38.5 14.5t38 -14.5t15 -36.5q0 -21 -15 -36t-38 -15zM265 632q-23 0 -38.5 15t-15.5 36q0 22 15.5 36.5t38.5 14.5t38 -14.5t15 -36.5q0 -21 -15 -36t-38 -15zM93 760v68h214v-68
h-214z" />
    <glyph glyph-name="uni022B" unicode="&#x22b;" horiz-adv-x="379" 
d="M190 -8q-52 0 -89 12t-57 48.5t-20 110.5v201q0 79 42.5 109.5t123.5 30.5t123 -30t42 -110v-200q0 -75 -19.5 -111.5t-56.5 -48.5t-89 -12zM190 71q14 0 21.5 9.5t7.5 34.5v266q0 23 -7 33t-22 10q-14 0 -22 -9.5t-8 -33.5v-266q0 -25 8 -34.5t22 -9.5zM125 546
q-23 0 -38.5 15t-15.5 36q0 22 15.5 36.5t38.5 14.5t38 -14.5t15 -36.5q0 -21 -15 -36t-38 -15zM255 546q-23 0 -38.5 15t-15.5 36q0 22 15.5 36.5t38.5 14.5t38 -14.5t15 -36.5q0 -21 -15 -36t-38 -15zM82 670v68h214v-68h-214z" />
    <glyph glyph-name="uni022C" unicode="&#x22c;" horiz-adv-x="399" 
d="M198 -12q-51 0 -89.5 12.5t-60 50.5t-21.5 114v301q0 51 21.5 80t60 41.5t89.5 12.5t90 -12.5t61.5 -41.5t22.5 -80v-300q0 -77 -22.5 -115t-61.5 -50.5t-90 -12.5zM198 69q10 0 18.5 4t12.5 13.5t4 25.5v360q0 15 -4 25t-12.5 14t-18.5 4t-18 -4t-12.5 -14t-4.5 -25
v-360q0 -16 4.5 -25.5t12.5 -13.5t18 -4zM243 636q-16 0 -30 6.5t-28 14.5q-11 6 -22.5 11t-23.5 5q-13 0 -20 -10t-8 -26h-38q0 44 18.5 70.5t49.5 26.5q17 0 31.5 -5.5t26.5 -12.5q12 -6 23 -11t22 -5q15 0 22 9t9 22h42q-1 -31 -12.5 -52t-28 -32t-33.5 -11zM93 756v68
h214v-68h-214z" />
    <glyph glyph-name="uni022D" unicode="&#x22d;" horiz-adv-x="379" 
d="M190 -8q-52 0 -89 12t-57 48.5t-20 110.5v201q0 79 42.5 109.5t123.5 30.5t123 -30t42 -110v-200q0 -75 -19.5 -111.5t-56.5 -48.5t-89 -12zM190 71q14 0 21.5 9.5t7.5 34.5v266q0 23 -7 33t-22 10q-14 0 -22 -9.5t-8 -33.5v-266q0 -25 8 -34.5t22 -9.5zM237 549
q-16 0 -30 6.5t-28 14.5q-11 6 -22.5 11t-23.5 5q-13 0 -20 -10t-8 -26h-38q0 44 18.5 70.5t49.5 26.5q17 0 31.5 -5.5t26.5 -12.5q12 -6 23 -11t22 -5q15 0 22 9t9 22h42q-1 -31 -12.5 -52t-28 -32t-33.5 -11zM82 665v68h214v-68h-214z" />
    <glyph glyph-name="uni0230" unicode="&#x230;" horiz-adv-x="399" 
d="M198 -12q-51 0 -89.5 12.5t-60 50.5t-21.5 114v301q0 51 21.5 80t60 41.5t89.5 12.5t90 -12.5t61.5 -41.5t22.5 -80v-300q0 -77 -22.5 -115t-61.5 -50.5t-90 -12.5zM198 69q10 0 18.5 4t12.5 13.5t4 25.5v360q0 15 -4 25t-12.5 14t-18.5 4t-18 -4t-12.5 -14t-4.5 -25
v-360q0 -16 4.5 -25.5t12.5 -13.5t18 -4zM199 634q-25 0 -43.5 17.5t-18.5 42.5t18.5 42.5t43.5 17.5q26 0 44.5 -17.5t18.5 -42.5t-18.5 -42.5t-44.5 -17.5zM92 785v68h214v-68h-214z" />
    <glyph glyph-name="uni0231" unicode="&#x231;" horiz-adv-x="379" 
d="M190 -8q-52 0 -89 12t-57 48.5t-20 110.5v201q0 79 42.5 109.5t123.5 30.5t123 -30t42 -110v-200q0 -75 -19.5 -111.5t-56.5 -48.5t-89 -12zM190 71q14 0 21.5 9.5t7.5 34.5v266q0 23 -7 33t-22 10q-14 0 -22 -9.5t-8 -33.5v-266q0 -25 8 -34.5t22 -9.5zM189 547
q-25 0 -43.5 17.5t-18.5 42.5t18.5 42.5t43.5 17.5q26 0 44.5 -17.5t18.5 -42.5t-18.5 -42.5t-44.5 -17.5zM82 692v68h214v-68h-214z" />
    <glyph glyph-name="uni0232" unicode="&#x232;" horiz-adv-x="377" 
d="M117 0v248l-111 343h138l41 -149l8 -45l8 45l43 149h127l-115 -351v-240h-139zM87 644v68h214v-68h-214z" />
    <glyph glyph-name="uni0233" unicode="&#x233;" horiz-adv-x="362" 
d="M113 -116q-31 0 -61 4.5t-47 8.5v71q7 -2 18.5 -4t25.5 -2q12 0 27 4t19 25q1 8 1.5 17t-2.5 21l-96 466h141l47 -367h2l48 367h129l-91 -442q-18 -91 -57 -130t-104 -39zM74 558v68h214v-68h-214z" />
    <glyph glyph-name="uni0237" unicode="&#x237;" horiz-adv-x="194" 
d="M-21 -113q-8 1 -23 2t-19 2v71q9 0 22.5 0.5t20.5 1.5q26 1 38.5 15.5t12.5 34.5v481h136v-440q0 -73 -27 -110.5t-69.5 -49.5t-91.5 -8z" />
    <glyph glyph-name="uni0259" unicode="&#x259;" 
d="M183 503q53 0 90 -11.5t56.5 -47.5t19.5 -112v-212q0 -74 -42 -102t-123 -28q-80 0 -122.5 28t-42.5 102v138h194v132q0 24 -6.5 33t-22.5 9q-15 0 -22 -9t-7 -33v-84h-136v25q0 76 19.5 112.5t56.5 48t88 11.5zM213 198h-58v-86q0 -23 7 -32t22 -9q16 0 22.5 9t6.5 32
v86z" />
    <glyph glyph-name="uni02B9" unicode="&#x2b9;" horiz-adv-x="119" 
d="M59 403h-59l30 169h89z" />
    <glyph glyph-name="uni02BA" unicode="&#x2ba;" horiz-adv-x="245" 
d="M185 403h-59l30 169h89zM59 403h-59l30 169h89z" />
    <glyph glyph-name="uni02BC" unicode="&#x2bc;" horiz-adv-x="141" 
d="M70 370h-70l35 202h106z" />
    <glyph glyph-name="circumflex" unicode="&#x2c6;" horiz-adv-x="289" 
d="M10 545l97 111h74l98 -111h-88l-46 46l-45 -46h-90z" />
    <glyph glyph-name="caron" unicode="&#x2c7;" horiz-adv-x="300" 
d="M98 545l-97 111h90l46 -45l45 45h88l-98 -111h-74z" />
    <glyph glyph-name="breve" unicode="&#x2d8;" horiz-adv-x="273" 
d="M134 550q-49 0 -74.5 18t-34 42.5t-8.5 43.5h72q1 -20 15 -30t31 -10q19 0 32.5 9.5t14.5 30.5h74q-1 -28 -13 -51.5t-38.5 -38t-70.5 -14.5z" />
    <glyph glyph-name="dotaccent" unicode="&#x2d9;" horiz-adv-x="127" 
d="M68 547q-25 0 -43.5 17.5t-18.5 42.5t18.5 42.5t43.5 17.5q26 0 44.5 -17.5t18.5 -42.5t-18.5 -42.5t-44.5 -17.5z" />
    <glyph glyph-name="ring" unicode="&#x2da;" horiz-adv-x="218" 
d="M109 540q-39 0 -64.5 24.5t-25.5 59.5q0 37 25.5 61.5t64.5 24.5q37 0 63.5 -25t26.5 -61q0 -35 -27 -59.5t-63 -24.5zM109 593q15 0 24.5 9t9.5 22q0 16 -9.5 25t-24.5 9t-25 -9t-10 -25q0 -13 10 -22t25 -9z" />
    <glyph glyph-name="ogonek" unicode="&#x2db;" horiz-adv-x="235" 
d="M95 -147q-40 0 -64 20.5t-24 45.5q0 28 23.5 53.5t61.5 30.5l53 -2q-27 -8 -39.5 -26.5t-12.5 -36.5t12.5 -28t25.5 -10q7 0 12 1.5t7 2.5l16 -34q-6 -3 -21.5 -10t-49.5 -7z" />
    <glyph glyph-name="tilde" unicode="&#x2dc;" horiz-adv-x="272" 
d="M180 549q-16 0 -30 6.5t-28 14.5q-11 6 -22.5 11t-23.5 5q-13 0 -20 -10t-8 -26h-38q0 44 18.5 70.5t49.5 26.5q17 0 31.5 -5.5t26.5 -12.5q12 -6 23 -11t22 -5q15 0 22 9t9 22h42q-1 -31 -12.5 -52t-28 -32t-33.5 -11z" />
    <glyph glyph-name="hungarumlaut" unicode="&#x2dd;" horiz-adv-x="236" 
d="M0 549l12 103h103l-63 -103h-52zM104 549l29 103h103l-71 -103h-61z" />
    <glyph glyph-name="gravecomb" unicode="&#x300;" horiz-adv-x="0" 
d="M109 549l-101 103h121l57 -103h-77z" />
    <glyph glyph-name="acutecomb" unicode="&#x301;" horiz-adv-x="0" 
d="M0 549l58 103h120l-101 -103h-77z" />
    <glyph glyph-name="uni0302" unicode="&#x302;" horiz-adv-x="0" 
d="M10 545l97 111h74l98 -111h-88l-46 46l-45 -46h-90z" />
    <glyph glyph-name="tildecomb" unicode="&#x303;" horiz-adv-x="0" 
d="M180 549q-16 0 -30 6.5t-28 14.5q-11 6 -22.5 11t-23.5 5q-13 0 -20 -10t-8 -26h-38q0 44 18.5 70.5t49.5 26.5q17 0 31.5 -5.5t26.5 -12.5q12 -6 23 -11t22 -5q15 0 22 9t9 22h42q-1 -31 -12.5 -52t-28 -32t-33.5 -11z" />
    <glyph glyph-name="uni0304" unicode="&#x304;" horiz-adv-x="0" 
d="M10 558v68h214v-68h-214z" />
    <glyph glyph-name="uni0306" unicode="&#x306;" horiz-adv-x="0" 
d="M134 550q-49 0 -74.5 18t-34 42.5t-8.5 43.5h72q1 -20 15 -30t31 -10q19 0 32.5 9.5t14.5 30.5h74q-1 -28 -13 -51.5t-38.5 -38t-70.5 -14.5z" />
    <glyph glyph-name="uni0307" unicode="&#x307;" horiz-adv-x="0" 
d="M68 547q-25 0 -43.5 17.5t-18.5 42.5t18.5 42.5t43.5 17.5q26 0 44.5 -17.5t18.5 -42.5t-18.5 -42.5t-44.5 -17.5z" />
    <glyph glyph-name="uni0308" unicode="&#x308;" horiz-adv-x="0" 
d="M54 546q-23 0 -38.5 15t-15.5 36q0 22 15.5 36.5t38.5 14.5t38 -14.5t15 -36.5q0 -21 -15 -36t-38 -15zM184 546q-23 0 -38.5 15t-15.5 36q0 22 15.5 36.5t38.5 14.5t38 -14.5t15 -36.5q0 -21 -15 -36t-38 -15z" />
    <glyph glyph-name="hookabovecomb" unicode="&#x309;" horiz-adv-x="0" 
d="M58 549v11q0 15 10.5 22.5t20.5 14.5t10 18v6q0 7 -3 14t-11 7q-14 0 -15 -21l-59 9q2 30 22 45t58 15q42 0 63.5 -11.5t21.5 -54.5v-4q0 -23 -11.5 -31.5t-23 -13t-11.5 -16.5v-10h-72z" />
    <glyph glyph-name="uni030A" unicode="&#x30a;" horiz-adv-x="0" 
d="M109 540q-39 0 -64.5 24.5t-25.5 59.5q0 37 25.5 61.5t64.5 24.5q37 0 63.5 -25t26.5 -61q0 -35 -27 -59.5t-63 -24.5zM109 593q15 0 24.5 9t9.5 22q0 16 -9.5 25t-24.5 9t-25 -9t-10 -25q0 -13 10 -22t25 -9z" />
    <glyph glyph-name="uni030B" unicode="&#x30b;" horiz-adv-x="0" 
d="M0 549l12 103h103l-63 -103h-52zM104 549l29 103h103l-71 -103h-61z" />
    <glyph glyph-name="uni030C" unicode="&#x30c;" horiz-adv-x="0" 
d="M98 545l-97 111h90l46 -45l45 45h88l-98 -111h-74z" />
    <glyph glyph-name="uni030F" unicode="&#x30f;" horiz-adv-x="0" 
d="M236 549h-52l-63 103h103zM132 549h-61l-71 103h103z" />
    <glyph glyph-name="uni0311" unicode="&#x311;" horiz-adv-x="0" 
d="M122 653q51 0 75.5 -17.5t33 -41.5t9.5 -45h-73q-1 21 -14.5 31t-31.5 10t-32 -9.5t-15 -31.5h-73q0 28 12.5 52t39 38t69.5 14z" />
    <glyph glyph-name="uni0312" unicode="&#x312;" horiz-adv-x="0" 
d="M117 707q-15 -23 -24 -41.5t-9 -29.5q0 -8 8 -13.5t15 -13.5t7 -23q0 -16 -15.5 -29.5t-40.5 -13.5q-26 0 -42.5 14t-16.5 36q0 15 10 36t25 42t29 36h54z" />
    <glyph glyph-name="uni031B" unicode="&#x31b;" horiz-adv-x="0" 
d="M11 435l-1 59h19q44 0 44 46v20h88v-19q0 -58 -37.5 -82t-112.5 -24z" />
    <glyph glyph-name="dotbelowcomb" unicode="&#x323;" horiz-adv-x="0" 
d="M64 -139q-23 0 -38.5 15.5t-15.5 36.5q0 22 15.5 37.5t38.5 15.5q22 0 38.5 -15.5t16.5 -37.5q0 -21 -16.5 -36.5t-38.5 -15.5z" />
    <glyph glyph-name="uni0324" unicode="&#x324;" horiz-adv-x="0" 
d="M54 -137q-23 0 -38.5 15t-15.5 36q0 22 15.5 36.5t38.5 14.5t38 -14.5t15 -36.5q0 -21 -15 -36t-38 -15zM184 -137q-23 0 -38.5 15t-15.5 36q0 22 15.5 36.5t38.5 14.5t38 -14.5t15 -36.5q0 -21 -15 -36t-38 -15z" />
    <glyph glyph-name="uni0326" unicode="&#x326;" horiz-adv-x="0" 
d="M0 -201q16 23 24.5 41.5t8.5 30.5q0 8 -7.5 13.5t-15 13.5t-7.5 22q0 17 15.5 30.5t40.5 13.5q26 0 42.5 -14.5t16.5 -35.5q0 -15 -10 -36t-24 -42t-29 -37h-55z" />
    <glyph glyph-name="uni0327" unicode="&#x327;" horiz-adv-x="0" 
d="M63 -168q-21 0 -38.5 8t-24.5 12l16 42q7 -6 19.5 -10.5t21.5 -4.5q14 0 22 7t8 20q0 9 -6 13.5t-14 4.5q-6 0 -10.5 -2t-7.5 -5l-36 20l31 63h50l-26 -53l-7 4q6 3 16 6.5t23 3.5q29 0 45 -18.5t16 -39.5q0 -29 -25.5 -50t-72.5 -21z" />
    <glyph glyph-name="uni0328" unicode="&#x328;" horiz-adv-x="0" 
d="M95 -147q-40 0 -64 20.5t-24 45.5q0 28 23.5 53.5t61.5 30.5l53 -2q-27 -8 -39.5 -26.5t-12.5 -36.5t12.5 -28t25.5 -10q7 0 12 1.5t7 2.5l16 -34q-6 -3 -21.5 -10t-49.5 -7z" />
    <glyph glyph-name="uni032E" unicode="&#x32e;" horiz-adv-x="0" 
d="M117 -138q-49 0 -74.5 18t-34 42.5t-8.5 43.5h72q1 -20 15 -30t31 -10q19 0 32.5 9.5t14.5 30.5h74q-1 -28 -13 -51.5t-38.5 -38t-70.5 -14.5z" />
    <glyph glyph-name="uni0331" unicode="&#x331;" horiz-adv-x="0" 
d="M0 -99v68h214v-68h-214z" />
    <glyph glyph-name="uni0335" unicode="&#x335;" horiz-adv-x="0" 
d="M0 213v68h214v-68h-214z" />
    <glyph glyph-name="uni0394" unicode="&#x394;" horiz-adv-x="567" 
d="M24 0l192 585h140l187 -585h-519zM184 104h192l-96 318z" />
    <glyph glyph-name="uni03A9" unicode="&#x3a9;" horiz-adv-x="600" 
d="M38 0v100l151 -4l-25 15q-29 22 -53 49.5t-38 66t-14 91.5q0 50 12.5 95t42.5 79t80.5 53.5t126.5 19.5t126 -20t78.5 -54t41 -77t12.5 -88q0 -57 -15.5 -97t-39.5 -68t-52 -50l-25 -15l152 4v-100h-246v80q26 22 44.5 44.5t30 47.5t16.5 54.5t5 66.5q0 51 -11 93
t-39.5 67t-78.5 25t-79 -25t-41 -67t-12 -96q0 -32 5 -61.5t16.5 -56t30 -49.5t45.5 -43v-80h-247z" />
    <glyph glyph-name="uni03BC" unicode="&#x3bc;" horiz-adv-x="391" 
d="M203 24q-11 -6 -20 -9.5t-18 -5.5v-55q0 -17 2.5 -35.5t17.5 -35.5h-136q-15 23 -17.5 46.5t-2.5 47.5v518h136v-365q0 -12 2.5 -21t9 -14.5t18.5 -5.5q8 0 13.5 2t9.5 5t6 6v393h136v-205.5v-205.5q0 -20 6.5 -46.5t16.5 -37.5h-63.5h-63.5q-11 16 -15.5 31.5t-7.5 31.5
q-3 -12 -10.5 -22t-19.5 -17z" />
    <glyph glyph-name="pi" unicode="&#x3c0;" horiz-adv-x="600" 
d="M64 0q13 44 24 94.5t20 104t13.5 105t4.5 97.5q-24 0 -46.5 -5t-45.5 -13v81q8 5 19 8.5t24 7.5q21 6 51.5 10.5t72.5 4.5h350v-92h-64v-403h-138v403h-93q-1 -51 -6 -109t-11.5 -113.5t-13.5 -102.5t-12 -78h-149z" />
    <glyph glyph-name="uni0400" unicode="&#x400;" horiz-adv-x="331" 
d="M33 0v591h280v-97h-135v-136h118v-109h-118v-154h135v-95h-280zM153 635l-115 94h125l74 -94h-84z" />
    <glyph glyph-name="uni0401" unicode="&#x401;" horiz-adv-x="331" 
d="M33 0v591h280v-97h-135v-136h118v-109h-118v-154h135v-95h-280zM110 632q-23 0 -38.5 15t-15.5 36q0 22 15.5 36.5t38.5 14.5t38 -14.5t15 -36.5q0 -21 -15 -36t-38 -15zM240 632q-23 0 -38.5 15t-15.5 36q0 22 15.5 36.5t38.5 14.5t38 -14.5t15 -36.5q0 -21 -15 -36
t-38 -15z" />
    <glyph glyph-name="uni0402" unicode="&#x402;" horiz-adv-x="472" 
d="M98 0v494h-89v97h317v-97h-89v-127q9 16 35.5 29.5t62.5 13.5q30 0 55.5 -9t41.5 -33.5t16 -72.5v-137q0 -57 -10.5 -89t-29 -47t-43 -18.5t-53.5 -3.5q-12 0 -28.5 4t-25.5 8v60q5 -1 11.5 -1h11.5q16 0 23.5 11.5t7.5 37.5v164q0 22 -7.5 32t-29.5 10q-17 0 -25 -5.5
t-13 -13.5v-307h-139z" />
    <glyph glyph-name="uni0403" unicode="&#x403;" horiz-adv-x="321" 
d="M33 0v591h280v-97h-135v-494h-145zM99 635l78 98h122l-124 -98h-76z" />
    <glyph glyph-name="uni0404" unicode="&#x404;" horiz-adv-x="394" 
d="M200 -12q-52 0 -91.5 12.5t-62 50.5t-22.5 114v300q0 52 22.5 81t62 41.5t91.5 12.5q53 0 90.5 -12.5t58.5 -42t21 -80.5v-89h-139v93q0 18 -4 27t-11 12t-16 3q-10 0 -17 -3t-10.5 -12.5t-3.5 -26.5v-138h124v-92h-124v-125q0 -17 3.5 -26.5t11 -13t16.5 -3.5t16 3.5
t11 13t4 26.5v79h139v-27q0 -77 -21 -115t-59 -50.5t-90 -12.5z" />
    <glyph glyph-name="uni0405" unicode="&#x405;" horiz-adv-x="398" 
d="M196 -8q-56 0 -96 15t-60.5 53t-20.5 109v36h72.5h72.5v-48q0 -32 4 -48.5t11.5 -22.5t18.5 -6q17 0 25.5 13.5t8.5 53.5q0 35 -10.5 51.5t-34.5 27.5t-64 27q-36 17 -58 39t-31.5 55t-9.5 78q0 61 16 98t54 53.5t105 16.5q85 0 129 -35.5t44 -106.5v-73h-68.5h-69.5v31
q0 42 -6 58t-28 16q-19 0 -26 -12.5t-7 -40.5q0 -32 12.5 -48.5t32.5 -25t42 -16.5q44 -17 71.5 -34.5t40.5 -48.5t13 -89q0 -66 -22 -104.5t-63.5 -55t-97.5 -16.5z" />
    <glyph glyph-name="uni0406" unicode="&#x406;" horiz-adv-x="205" 
d="M33 0v591h139v-591h-139z" />
    <glyph glyph-name="uni0407" unicode="&#x407;" horiz-adv-x="205" 
d="M33 0v591h139v-591h-139zM38 632q-23 0 -38.5 15t-15.5 36q0 22 15.5 36.5t38.5 14.5t38 -14.5t15 -36.5q0 -21 -15 -36t-38 -15zM168 632q-23 0 -38.5 15t-15.5 36q0 22 15.5 36.5t38.5 14.5t38 -14.5t15 -36.5q0 -21 -15 -36t-38 -15z" />
    <glyph glyph-name="uni0408" unicode="&#x408;" horiz-adv-x="254" 
d="M57 -1h-26t-26 1v95h30q30 -1 39.5 9.5t9.5 40.5v446h138v-438q0 -60 -16.5 -94t-52.5 -47t-96 -13z" />
    <glyph glyph-name="uni0409" unicode="&#x409;" horiz-adv-x="650" 
d="M7 0v70q19 0 36 23t19 53l32 445h334v-591h-139v494h-59l-30 -383q-2 -19 -4 -38.5t-11 -36t-29.5 -26.5t-58.5 -10h-90zM429 71h31q13 0 19 6.5t8 26t2 59.5v129q0 21 -2 34.5t-8 20t-20 6.5h-30v-282zM289 0v591h136v-155h84q28 0 54 -9t42 -33t16 -73v-163
q0 -54 -9.5 -85.5t-27.5 -47t-42 -20.5t-54 -5h-199z" />
    <glyph glyph-name="uni040A" unicode="&#x40a;" horiz-adv-x="596" 
d="M33 0v591h139v-235h65v235h139v-155h83q28 0 54 -9t42.5 -33t16.5 -73v-163q0 -54 -10 -85.5t-28 -47t-42 -20.5t-54 -5h-201v253h-65v-253h-139zM376 71h31q12 0 18.5 6.5t8.5 25.5t2 56v108q0 35 -2 54t-8 25.5t-20 6.5h-30v-282z" />
    <glyph glyph-name="uni040B" unicode="&#x40b;" horiz-adv-x="460" 
d="M97 0v494h-90v97h318v-97h-90v-90q9 10 32.5 19.5t51.5 9.5q46 0 70.5 -15t33 -44.5t8.5 -72.5v-301h-136v301q0 13 -2.5 22t-9 14t-18.5 5q-10 0 -18 -4t-12 -9v-329h-138z" />
    <glyph glyph-name="uni040C" unicode="&#x40c;" horiz-adv-x="448" 
d="M33 0v591h139v-252h37l85 252h148l-107 -284l110 -307h-150l-80 248h-43v-248h-139zM163 635l78 98h122l-124 -98h-76z" />
    <glyph glyph-name="uni040D" unicode="&#x40d;" horiz-adv-x="404" 
d="M33 0v591h122v-315l96 315h120v-591h-121v288l-97 -288h-120zM181 635l-115 94h125l74 -94h-84z" />
    <glyph glyph-name="uni040E" unicode="&#x40e;" horiz-adv-x="378" 
d="M123 -18q-31 0 -60.5 4.5t-46.5 9.5v70q7 -2 17 -3.5t20 -1.5q16 0 31 4t17 25q2 10 0.5 20t-3.5 27l-92 454h140l47 -361h2l48 361h129l-90 -440q-19 -92 -55 -130.5t-104 -38.5zM187 631q-49 0 -74.5 18t-34 42.5t-8.5 43.5h72q1 -20 15 -30t31 -10q19 0 32.5 9.5
t14.5 30.5h74q-1 -28 -13 -51.5t-38.5 -38t-70.5 -14.5z" />
    <glyph glyph-name="uni040F" unicode="&#x40f;" horiz-adv-x="418" 
d="M165 -99v99h-132v591h145v-494h63v494h144v-591h-132v-99h-88z" />
    <glyph glyph-name="uni0410" unicode="&#x410;" horiz-adv-x="401" 
d="M6 0l94 591h203l92 -591h-155l-13 97h-60l-11 -97h-150zM168 165h59l-29 311z" />
    <glyph glyph-name="uni0411" unicode="&#x411;" horiz-adv-x="390" 
d="M33 0v591h301v-97h-165v-58h83q29 0 54.5 -9t42 -33t16.5 -73v-163q0 -54 -9.5 -85.5t-27.5 -47t-42.5 -20.5t-53.5 -5h-199zM200 71q11 0 17.5 4.5t9 14.5t2.5 25v194q0 15 -2.5 24.5t-8.5 14.5t-18 5h-31v-282h31z" />
    <glyph glyph-name="uni0412" unicode="&#x412;" horiz-adv-x="403" 
d="M33 0v591h222q59 0 88 -27.5t29 -72.5v-66q0 -26 -7.5 -47.5t-22.5 -35.5q-11 -11 -27 -17t-32 -8v-1q15 0 29.5 -4t30.5 -16q17 -13 27.5 -36t10.5 -57v-79q0 -48 -16.5 -75t-48 -38t-75.5 -11h-208zM172 71h37q10 0 17 5t11 18.5t4 37.5v67q0 36 -9 47t-26 11h-34v-186
zM172 344h32q15 0 25 13.5t10 51.5v56q0 29 -8 40.5t-22 11.5h-37v-173z" />
    <glyph glyph-name="uni0413" unicode="&#x413;" horiz-adv-x="321" 
d="M33 0v591h280v-97h-135v-494h-145z" />
    <glyph glyph-name="uni0414" unicode="&#x414;" horiz-adv-x="615" 
d="M18 -116v204h56q18 2 34 24.5t20 54.5q5 35 10.5 81.5t10.5 96.5t9 97.5t6.5 86.5t3.5 62h322v-503h105v-204h-113v89h-351v-89h-113zM237 88h117v406h-57q-7 -78 -13.5 -156t-13.5 -156q-3 -28 -10 -56.5t-23 -37.5z" />
    <glyph glyph-name="uni0415" unicode="&#x415;" horiz-adv-x="331" 
d="M33 0v591h280v-97h-135v-136h118v-109h-118v-154h135v-95h-280z" />
    <glyph glyph-name="uni0416" unicode="&#x416;" horiz-adv-x="669" 
d="M9 0l114 307l-111 284h159l68 -246h24v246h139v-246h28l67 246h160l-111 -284l113 -307h-154l-75 270h-28v-270h-139v270h-24l-75 -270h-155z" />
    <glyph glyph-name="uni0417" unicode="&#x417;" horiz-adv-x="383" 
d="M189 -6q-59 0 -98 16.5t-58.5 49t-19.5 78.5v72h139v-30q0 -44 7 -66t29 -22q19 0 26.5 18t7.5 46v58q0 28 -19.5 38t-59.5 11h-43v74h44q18 0 32.5 3.5t23.5 10.5q13 7 17.5 17t4.5 22v43q0 26 -7.5 44t-26.5 18q-23 0 -29 -22t-6 -64v-19h-139v61q0 70 43.5 106
t131.5 36q95 0 136 -31.5t41 -98.5v-52q0 -50 -25.5 -81t-76.5 -34q49 -2 75.5 -31.5t26.5 -80.5v-46q0 -52 -18 -83.5t-56.5 -46t-102.5 -14.5z" />
    <glyph glyph-name="uni0418" unicode="&#x418;" horiz-adv-x="404" 
d="M33 0v591h122v-315l96 315h120v-591h-121v288l-97 -288h-120z" />
    <glyph glyph-name="uni0419" unicode="&#x419;" horiz-adv-x="404" 
d="M33 0v591h122v-315l96 315h120v-591h-121v288l-97 -288h-120zM200 631q-49 0 -74.5 18t-34 42.5t-8.5 43.5h72q1 -20 15 -30t31 -10q19 0 32.5 9.5t14.5 30.5h74q-1 -28 -13 -51.5t-38.5 -38t-70.5 -14.5z" />
    <glyph glyph-name="uni041A" unicode="&#x41a;" horiz-adv-x="448" 
d="M33 0v591h139v-252h37l85 252h148l-107 -284l110 -307h-150l-80 248h-43v-248h-139z" />
    <glyph glyph-name="uni041B" unicode="&#x41b;" horiz-adv-x="457" 
d="M7 0v70q19 0 36 23t19 53l32 445h334v-591h-139v494h-59l-30 -383q-2 -19 -4 -38.5t-11 -36t-29.5 -26.5t-58.5 -10h-90z" />
    <glyph glyph-name="uni041C" unicode="&#x41c;" horiz-adv-x="538" 
d="M33 0v591h175l61 -340l62 340h174v-591h-122v426l-67 -426h-94l-67 426v-426h-122z" />
    <glyph glyph-name="uni041D" unicode="&#x41d;" horiz-adv-x="408" 
d="M33 0v591h139v-235h65v235h138v-591h-138v253h-65v-253h-139z" />
    <glyph glyph-name="uni041E" unicode="&#x41e;" horiz-adv-x="399" 
d="M198 -12q-51 0 -89.5 12.5t-60 50.5t-21.5 114v301q0 51 21.5 80t60 41.5t89.5 12.5t90 -12.5t61.5 -41.5t22.5 -80v-300q0 -77 -22.5 -115t-61.5 -50.5t-90 -12.5zM198 69q10 0 18.5 4t12.5 13.5t4 25.5v360q0 15 -4 25t-12.5 14t-18.5 4t-18 -4t-12.5 -14t-4.5 -25
v-360q0 -16 4.5 -25.5t12.5 -13.5t18 -4z" />
    <glyph glyph-name="uni041F" unicode="&#x41f;" horiz-adv-x="415" 
d="M33 0v591h349v-591h-145v494h-59v-494h-145z" />
    <glyph glyph-name="uni0420" unicode="&#x420;" horiz-adv-x="396" 
d="M33 0v591h222q62 0 92 -27.5t30 -72.5v-101q0 -42 -10 -78.5t-35.5 -58.5t-73.5 -22h-80v-231h-145zM178 306h28q17 0 25 22t8 77v24q0 48 -6 68t-22 20h-33v-211z" />
    <glyph glyph-name="uni0421" unicode="&#x421;" horiz-adv-x="396" 
d="M202 -12q-52 0 -91 12.5t-61.5 50.5t-22.5 114v301q0 51 22.5 80t62 41.5t90.5 12.5q53 0 91 -12.5t58.5 -41.5t20.5 -80v-131h-139v137q0 18 -4 27t-10.5 12.5t-16.5 3.5q-9 0 -16 -3.5t-11 -12.5t-4 -27v-360q0 -17 4 -27t11 -13t16 -3q10 0 16.5 3t10.5 13t4 27v127
h139v-73q0 -77 -20.5 -115t-58.5 -50.5t-91 -12.5z" />
    <glyph glyph-name="uni0422" unicode="&#x422;" horiz-adv-x="332" 
d="M97 0v494h-88v97h315v-97h-89v-494h-138z" />
    <glyph glyph-name="uni0423" unicode="&#x423;" horiz-adv-x="378" 
d="M123 -18q-31 0 -60.5 4.5t-46.5 9.5v70q7 -2 17 -3.5t20 -1.5q16 0 31 4t17 25q2 10 0.5 20t-3.5 27l-92 454h140l47 -361h2l48 361h129l-90 -440q-19 -92 -55 -130.5t-104 -38.5z" />
    <glyph glyph-name="uni0424" unicode="&#x424;" horiz-adv-x="548" 
d="M206 -33v107h-38q-71 0 -109.5 27.5t-38.5 99.5v200q0 49 30.5 77.5t97.5 28.5h58v84h136v-84h58q67 0 97.5 -28.5t30.5 -78.5v-199q0 -73 -39 -100t-109 -27h-38v-107h-136zM191 144h15v143.5v142.5h-15q-16 0 -24 -10t-8 -34v-198q0 -24 8 -34t24 -10zM342 144h15
q15 0 24 9.5t9 35.5v196q0 26 -9 35.5t-24 9.5h-15v-142.5v-143.5z" />
    <glyph glyph-name="uni0425" unicode="&#x425;" horiz-adv-x="386" 
d="M8 0l83 306l-80 285h138l43 -175l40 175h147l-81 -286l79 -305h-139l-44 174l-39 -174h-147z" />
    <glyph glyph-name="uni0426" unicode="&#x426;" horiz-adv-x="482" 
d="M350 -95v95h-317v591h145v-494h64v494h145v-530h72v-156h-109z" />
    <glyph glyph-name="uni0427" unicode="&#x427;" horiz-adv-x="393" 
d="M222 0v160q-9 -9 -33.5 -17.5t-51.5 -8.5q-45 0 -69.5 15t-33.5 45t-9 72v325h136v-325q0 -20 7 -30t23 -10q11 0 19 2.5t12 5.5v357h138v-591h-138z" />
    <glyph glyph-name="uni0428" unicode="&#x428;" horiz-adv-x="628" 
d="M33 0v591h145v-494h64v494h144v-494h65v494h144v-591h-562z" />
    <glyph glyph-name="uni0429" unicode="&#x429;" horiz-adv-x="690" 
d="M558 -95v95h-525v591h145v-494h64v494h144v-494h65v494h144v-530h72v-156h-109z" />
    <glyph glyph-name="uni042A" unicode="&#x42a;" horiz-adv-x="419" 
d="M58 0v494h-52v97h188v-155h83q29 0 54.5 -9t42 -33t16.5 -73v-163q0 -54 -9.5 -85.5t-27.5 -47t-42.5 -20.5t-54.5 -5h-198zM194 71h32q12 0 18 6.5t8 26t2 59.5v129q0 21 -1.5 34.5t-8 20t-19.5 6.5h-31v-282z" />
    <glyph glyph-name="uni042B" unicode="&#x42b;" horiz-adv-x="587" 
d="M33 0v591h136v-155h83q29 0 54.5 -9t42 -33t16.5 -73v-163q0 -54 -9.5 -85.5t-27.5 -47t-42.5 -20.5t-53.5 -5h-199zM169 71h32q12 0 18 6.5t8 26t2 59.5v129q0 21 -1.5 34.5t-8 20t-19.5 6.5h-31v-282zM420 0v591h139v-591h-139z" />
    <glyph glyph-name="uni042C" unicode="&#x42c;" horiz-adv-x="394" 
d="M33 0v591h136v-155h83q29 0 54.5 -9t42 -33t16.5 -73v-163q0 -54 -9.5 -85.5t-27.5 -47t-42.5 -20.5t-53.5 -5h-199zM169 71h32q12 0 18 6.5t8 26t2 59.5v129q0 21 -1.5 34.5t-8 20t-19.5 6.5h-31v-282z" />
    <glyph glyph-name="uni042D" unicode="&#x42d;" horiz-adv-x="398" 
d="M194 -12q-52 0 -90.5 12.5t-59 50.5t-20.5 115v27h139v-79q0 -17 4 -26.5t11.5 -13t15.5 -3.5q10 0 17 3.5t10.5 13t3.5 26.5v125h-124v92h124v138q0 17 -3.5 26.5t-10.5 12.5t-17 3q-8 0 -15.5 -3t-11.5 -12t-4 -27v-93h-139v89q0 51 20.5 80.5t59 42t90.5 12.5
q53 0 92 -12.5t61.5 -41.5t22.5 -81v-300q0 -76 -22.5 -114t-61.5 -50.5t-92 -12.5z" />
    <glyph glyph-name="uni042E" unicode="&#x42e;" horiz-adv-x="599" 
d="M400 -12q-51 0 -90.5 12.5t-62 50.5t-22.5 114v88h-58v-253h-138v591h138v-235h58v109q0 52 22.5 81t62 41.5t91.5 12.5q53 0 90.5 -12.5t58 -41.5t20.5 -81v-299q0 -77 -20.5 -115t-58.5 -50.5t-91 -12.5zM401 69q9 0 16 3t11 12.5t4 26.5v362q0 17 -4 26t-11 12.5
t-16 3.5t-16.5 -3.5t-11 -12.5t-3.5 -26v-362q0 -17 3.5 -26.5t11 -12.5t16.5 -3z" />
    <glyph glyph-name="uni042F" unicode="&#x42f;" horiz-adv-x="422" 
d="M389 0h-145v244h-17q-9 0 -14.5 -13.5t-9.5 -35.5l-39 -195h-154l54 204q10 37 24 53.5t48 22.5v2q-53 5 -75.5 39t-22.5 78v92q0 45 30 72.5t92 27.5h229v-591zM244 341v176h-36q-18 0 -26 -11t-8 -41v-68q0 -30 9.5 -43t29.5 -13h31z" />
    <glyph glyph-name="uni0430" unicode="&#x430;" 
d="M119 -8q-27 0 -49.5 7.5t-36 29t-13.5 63.5v74q0 45 26.5 73.5t87.5 49.5q30 12 46.5 20.5t23.5 22t7 38.5v30q0 11 -3.5 18t-10 11t-15.5 4q-17 0 -23 -15t-6 -53v-42h-123v55q0 37 11 65.5t43.5 45t97.5 16.5q66 0 102 -10.5t50.5 -36t14.5 -69.5v-389h-136v52
q-7 -27 -34.5 -43.5t-59.5 -16.5zM179 81q19 0 25 15.5t6 46.5v113q-3 -7 -13.5 -12.5t-19.5 -12.5q-13 -10 -19.5 -20t-6.5 -29v-56q0 -15 3 -25t9 -15t16 -5z" />
    <glyph glyph-name="uni0431" unicode="&#x431;" horiz-adv-x="381" 
d="M184 -7q-44 0 -80 9.5t-57.5 35.5t-21.5 76l-1 350q0 51 8 87.5t31 56t69 19.5q20 0 52 3t65 7t55.5 9t23.5 9v-52q0 -19 -16 -34t-58 -16h-11q-38 0 -55.5 -9t-22 -24.5t-5.5 -36.5v-32q9 15 27.5 29.5t55.5 14.5q29 0 55 -9t42 -33.5t16 -73.5v-228q0 -53 -10.5 -85
t-31.5 -47.5t-53 -20.5t-77 -5zM190 72q13 0 19 5t9 15t3 24v252q0 15 -3 24.5t-9 14t-18 4.5q-10 0 -15.5 -3t-9.5 -8.5t-5 -12.5t-1 -17v-254q0 -14 3 -24t9.5 -15t17.5 -5z" />
    <glyph glyph-name="uni0432" unicode="&#x432;" horiz-adv-x="414" 
d="M29 0v495h220q63 0 92.5 -27t29.5 -74v-33q0 -43 -21.5 -72.5t-68.5 -33.5v-1q44 0 74 -27t30 -86v-17q0 -47 -17.5 -74.5t-50 -38.5t-77.5 -11h-211zM173 67h31q10 0 16.5 4.5t10 15t3.5 29.5v49q0 13 -3 21.5t-10 12.5t-19 4h-29v-136zM173 293h29q16 0 24 12t8 40v44
q0 15 -7 23.5t-22 8.5h-32v-128z" />
    <glyph glyph-name="uni0433" unicode="&#x433;" horiz-adv-x="298" 
d="M29 0v495h258v-97h-114v-398h-144z" />
    <glyph glyph-name="uni0434" unicode="&#x434;" horiz-adv-x="555" 
d="M17 -116v195h31q11 2 26 12t28 31.5t16 57.5l37 315h304v-416h79v-195h-112v89h-297v-89h-112zM221 79h94v319h-37l-27 -216q-4 -30 -10 -62t-20 -41z" />
    <glyph glyph-name="uni0435" unicode="&#x435;" 
d="M190 -8q-52 0 -89 11.5t-57 48t-20 111.5v212q0 75 42.5 102.5t123.5 27.5q80 0 122 -27.5t42 -102.5v-138h-194v-132q0 -24 7.5 -33t22.5 -9t21.5 9t6.5 33v84h136v-25q0 -76 -19.5 -112.5t-56 -48t-88.5 -11.5zM160 297h58v86q0 23 -6.5 32t-21.5 9t-22.5 -9t-7.5 -32
v-86z" />
    <glyph glyph-name="uni0436" unicode="&#x436;" horiz-adv-x="651" 
d="M15 0l97 263l-99 232h134l74 -201h37v201h136v-201h35l75 201h135l-100 -232l98 -263h-150l-62 213h-31v-213h-136v213h-31l-62 -213h-150z" />
    <glyph glyph-name="uni0437" unicode="&#x437;" horiz-adv-x="395" 
d="M187 1q-77 0 -114.5 31t-37.5 90v60h120v-25q0 -37 8 -54t28 -17q18 0 28 14t10 37v50q0 23 -17.5 30.5t-52.5 7.5h-53v63h42q15 0 31 3t24 9q11 6 18 15t7 28v45q0 17 -10 29.5t-26 12.5q-20 0 -28 -19t-8 -50v-28h-120v50q0 60 37.5 89.5t113.5 29.5q93 0 132.5 -26.5
t39.5 -83.5v-43q0 -40 -24 -66.5t-75 -29.5q47 -1 73.5 -25t26.5 -68v-37q0 -67 -41 -94.5t-132 -27.5z" />
    <glyph glyph-name="uni0438" unicode="&#x438;" horiz-adv-x="386" 
d="M29 0v495h119v-252l92 252h118v-495h-119v285q-25 -72 -50 -143t-52 -142h-108z" />
    <glyph glyph-name="uni0439" unicode="&#x439;" horiz-adv-x="386" 
d="M29 0v495h119v-252l92 252h118v-495h-119v285q-25 -72 -50 -143t-52 -142h-108zM191 545q-49 0 -74.5 18t-34 42.5t-8.5 43.5h72q1 -20 15 -30t31 -10q19 0 32.5 9.5t14.5 30.5h74q-1 -28 -13 -51.5t-38.5 -38t-70.5 -14.5z" />
    <glyph glyph-name="uni043A" unicode="&#x43a;" horiz-adv-x="420" 
d="M29 0v495h136v-152q27 49 64 84t81 52.5t89 11.5v-89q-24 -4 -41.5 -15t-30.5 -24q-7 -7 -13.5 -16t-11.5 -18l95 -329h-157l-59 178q-4 -6 -8 -14t-8 -14v-150h-136z" />
    <glyph glyph-name="uni043B" unicode="&#x43b;" horiz-adv-x="454" 
d="M12 0v70q18 0 35 23t19 53l31 349h328v-495h-138v399h-53l-29 -288q-2 -17 -4.5 -36.5t-11.5 -36.5t-29.5 -27.5t-58.5 -10.5h-89z" />
    <glyph glyph-name="uni043C" unicode="&#x43c;" horiz-adv-x="515" 
d="M29 0v495h169l60 -326l59 326h169v-495h-109v331l-74 -331h-91l-74 331v-331h-109z" />
    <glyph glyph-name="uni043D" unicode="&#x43d;" horiz-adv-x="389" 
d="M29 0v495h136v-188h61v188h135v-495h-135v204h-61v-204h-136z" />
    <glyph glyph-name="uni043E" unicode="&#x43e;" horiz-adv-x="379" 
d="M190 -8q-52 0 -89 12t-57 48.5t-20 110.5v201q0 79 42.5 109.5t123.5 30.5t123 -30t42 -110v-200q0 -75 -19.5 -111.5t-56.5 -48.5t-89 -12zM190 71q14 0 21.5 9.5t7.5 34.5v266q0 23 -7 33t-22 10q-14 0 -22 -9.5t-8 -33.5v-266q0 -25 8 -34.5t22 -9.5z" />
    <glyph glyph-name="uni043F" unicode="&#x43f;" horiz-adv-x="390" 
d="M29 0v495h332v-495h-136v398h-60v-398h-136z" />
    <glyph glyph-name="uni0440" unicode="&#x440;" horiz-adv-x="386" 
d="M31 -116v611h135v-37q10 16 27 30.5t56 14.5q30 0 55 -9.5t41 -34t16 -71.5v-238q0 -61 -13.5 -95t-38.5 -47.5t-59 -13.5q-35 0 -54 12.5t-29 29.5v-152h-136zM196 70q9 0 14.5 2.5t9 8.5t4.5 13.5t1 18.5v263q0 11 -1 19t-4.5 13.5t-9 8.5t-14.5 3q-8 0 -13.5 -2.5
t-9 -6.5t-5 -8.5t-1.5 -8.5v-282q0 -14 2.5 -24t9 -14t17.5 -4z" />
    <glyph glyph-name="uni0441" unicode="&#x441;" 
d="M190 -8q-52 0 -89 11t-57 47t-20 109v207q0 79 42.5 108t123.5 29q80 0 122 -27.5t42 -100.5v-76h-136v84q0 23 -6.5 32t-21.5 9t-22.5 -9t-7.5 -32v-270q0 -23 7.5 -32.5t22.5 -9.5t21.5 9t6.5 33v94h136v-47q0 -74 -19.5 -110t-56 -47t-88.5 -11z" />
    <glyph glyph-name="uni0442" unicode="&#x442;" horiz-adv-x="332" 
d="M97 0v398h-90v97h318v-97h-90v-398h-138z" />
    <glyph glyph-name="uni0443" unicode="&#x443;" horiz-adv-x="362" 
d="M113 -116q-31 0 -61 4.5t-47 8.5v71q7 -2 18.5 -4t25.5 -2q12 0 27 4t19 25q1 8 1.5 17t-2.5 21l-96 466h141l47 -367h2l48 367h129l-91 -442q-18 -91 -57 -130t-104 -39z" />
    <glyph glyph-name="uni0444" unicode="&#x444;" horiz-adv-x="591" 
d="M229 -115v116q-15 -3 -33.5 -5.5t-39.5 -2.5q-78 0 -105 37.5t-27 105.5v196q0 42 11 72t39.5 46t83.5 16q24 0 43.5 -3.5t27.5 -9.5v138h135v-138q6 6 26.5 9.5t41.5 3.5q54 0 83.5 -16t40 -46t10.5 -72v-196q0 -68 -27 -105.5t-104 -37.5q-20 0 -38 2.5t-33 5.5v-116
h-135zM190 64q11 0 20 4t14.5 12.5t5.5 19.5v238q0 21 -3.5 33.5t-12 18t-23.5 5.5q-14 0 -20 -5.5t-8 -19.5t-2 -39v-223q0 -15 3 -25t9.5 -14.5t16.5 -4.5zM404 64q11 0 17 4.5t9 15t3 24.5v223q0 24 -1.5 37.5t-7.5 20.5t-20 7t-23 -5.5t-13 -17.5t-4 -33v-232
q0 -14 5 -24t14 -15t21 -5z" />
    <glyph glyph-name="uni0445" unicode="&#x445;" horiz-adv-x="357" 
d="M-2 0l94 256l-77 239h130l38 -138l49 138h125l-87 -239l82 -256h-129l-41 143l-51 -143h-133z" />
    <glyph glyph-name="uni0446" unicode="&#x446;" horiz-adv-x="451" 
d="M327 -94v94h-298v495h136v-398h60v398h136v-434h75v-155h-109z" />
    <glyph glyph-name="uni0447" unicode="&#x447;" horiz-adv-x="381" 
d="M225 0v158q-5 -33 -32 -51.5t-60 -18.5q-44 0 -68 15t-33 45t-9 72v275h136v-275q0 -20 6.5 -30.5t21.5 -10.5q10 0 17.5 4.5t11.5 9.5v302h136v-495h-127z" />
    <glyph glyph-name="uni0448" unicode="&#x448;" horiz-adv-x="573" 
d="M29 0v495h136v-398h54v398h136v-398h54v398h136v-495h-516z" />
    <glyph glyph-name="uni0449" unicode="&#x449;" horiz-adv-x="636" 
d="M511 -94v94h-482v495h136v-398h54v398h136v-398h54v398h136v-434h75v-155h-109z" />
    <glyph glyph-name="uni044A" unicode="&#x44a;" horiz-adv-x="425" 
d="M64 0v415h-52v80h188v-155h83q29 0 54.5 -9t42 -33t16.5 -73v-67q0 -54 -10 -85.5t-27.5 -47t-42 -20.5t-54.5 -5h-198zM200 70h30q14 0 20 5t8 15t2 25v90q0 18 -1.5 29.5t-8 17t-20.5 5.5h-30v-187z" />
    <glyph glyph-name="uni044B" unicode="&#x44b;" horiz-adv-x="584" 
d="M26 0v495h136v-155h83q30 0 55.5 -9t41.5 -33.5t16 -72.5v-63q0 -54 -9.5 -86.5t-27 -48.5t-42 -21.5t-55.5 -5.5h-198zM162 70h31q13 0 19 5t8 15t2 25v90q0 18 -1.5 29.5t-8 17t-19.5 5.5h-31v-187zM418 0v495h136v-495h-136z" />
    <glyph glyph-name="uni044C" unicode="&#x44c;" horiz-adv-x="387" 
d="M26 0v495h136v-155h83q30 0 55.5 -9t41.5 -33.5t16 -72.5v-63q0 -54 -9.5 -86.5t-27 -48.5t-42 -21.5t-55.5 -5.5h-198zM162 70h31q13 0 19 5t8 15t2 25v90q0 18 -1.5 29.5t-8 17t-19.5 5.5h-31v-187z" />
    <glyph glyph-name="uni044D" unicode="&#x44d;" horiz-adv-x="389" 
d="M195 -11q-54 0 -91 12.5t-56 49.5t-19 110v14h136v-72q0 -14 2.5 -24t9 -15t18.5 -5q13 0 19 5t8.5 15t2.5 24v114h-140v86h140v85q0 15 -2.5 25t-8.5 14.5t-19 4.5q-12 0 -18.5 -4.5t-9 -14.5t-2.5 -25v-42h-136v26q0 48 18 76.5t55 41.5t93 13q43 0 73.5 -7.5t51 -23
t31 -40.5t10.5 -60v-212q0 -54 -10.5 -88t-31.5 -52t-52 -24.5t-72 -6.5z" />
    <glyph glyph-name="uni044E" unicode="&#x44e;" horiz-adv-x="595" 
d="M403 -11q-54 0 -91 12.5t-56 49.5t-19 109v213q0 47 18 75.5t55 41.5t93 13t92.5 -13t54.5 -41.5t18 -75.5v-212q0 -73 -19 -110t-56 -49.5t-90 -12.5zM29 0v495h136v-188h119v-103h-119v-204h-136zM403 59q11 0 17.5 5t9 15t2.5 24v286q0 15 -2.5 24.5t-9 14t-17.5 4.5
q-12 0 -18.5 -4.5t-9 -14t-2.5 -24.5v-286q0 -14 2.5 -24t9 -15t18.5 -5z" />
    <glyph glyph-name="uni044F" unicode="&#x44f;" horiz-adv-x="416" 
d="M12 0l56 159q14 36 29 48.5t35 14.5q-44 5 -65 29t-21 80v35q0 64 30 96.5t93 32.5h218v-495h-144v208l-19 -22q-11 -27 -20 -56t-18 -62l-20 -68h-154zM218 260h25v161h-32q-16 0 -21.5 -21t-5.5 -45v-16q0 -47 9.5 -63t24.5 -16z" />
    <glyph glyph-name="uni0450" unicode="&#x450;" 
d="M190 -8q-52 0 -89 11.5t-57 48t-20 111.5v212q0 75 42.5 102.5t123.5 27.5q80 0 122 -27.5t42 -102.5v-138h-194v-132q0 -24 7.5 -33t22.5 -9t21.5 9t6.5 33v84h136v-25q0 -76 -19.5 -112.5t-56 -48t-88.5 -11.5zM160 297h58v86q0 23 -6.5 32t-21.5 9t-22.5 -9t-7.5 -32
v-86zM163 549l-101 103h121l57 -103h-77z" />
    <glyph glyph-name="uni0451" unicode="&#x451;" 
d="M190 -8q-52 0 -89 11.5t-57 48t-20 111.5v212q0 75 42.5 102.5t123.5 27.5q80 0 122 -27.5t42 -102.5v-138h-194v-132q0 -24 7.5 -33t22.5 -9t21.5 9t6.5 33v84h136v-25q0 -76 -19.5 -112.5t-56 -48t-88.5 -11.5zM160 297h58v86q0 23 -6.5 32t-21.5 9t-22.5 -9t-7.5 -32
v-86zM123 546q-23 0 -38.5 15t-15.5 36q0 22 15.5 36.5t38.5 14.5t38 -14.5t15 -36.5q0 -21 -15 -36t-38 -15zM253 546q-23 0 -38.5 15t-15.5 36q0 22 15.5 36.5t38.5 14.5t38 -14.5t15 -36.5q0 -21 -15 -36t-38 -15z" />
    <glyph glyph-name="uni0452" unicode="&#x452;" horiz-adv-x="439" 
d="M305 -91q-25 0 -42.5 4t-28.5 8l3 62q3 -2 6.5 -3t8.5 -1q14 0 20 11.5t6 35.5v261q-1 21 -7.5 30.5t-22.5 9.5q-9 0 -14.5 -3t-8 -8t-4.5 -10t-3 -11v-295h-139v484h-72v72h72v74h139v-74h87v-72h-87v-117q9 16 28 29.5t55 13.5q29 0 54.5 -8.5t42 -33t16.5 -73.5v-232
q0 -46 -8 -75.5t-22 -47t-33.5 -24.5t-45.5 -7z" />
    <glyph glyph-name="uni0453" unicode="&#x453;" horiz-adv-x="298" 
d="M29 0v495h258v-97h-114v-398h-144zM103 549l58 103h120l-101 -103h-77z" />
    <glyph glyph-name="uni0454" unicode="&#x454;" horiz-adv-x="389" 
d="M195 -11q-41 0 -72 6.5t-52 24.5t-31.5 52t-10.5 88v212q0 35 10 60t30.5 40.5t51.5 23t74 7.5q56 0 93 -13t55 -41.5t18 -76.5v-26h-136v42q0 15 -2.5 25t-9 14.5t-18.5 4.5t-19 -4.5t-9 -14.5t-2 -25v-85h140v-86h-140v-114q0 -14 2 -24t9 -15t19 -5t18.5 5t9 15
t2.5 24v72h136v-14q0 -73 -19 -110t-56 -49.5t-91 -12.5z" />
    <glyph glyph-name="uni0455" unicode="&#x455;" horiz-adv-x="378" 
d="M186 -8q-66 0 -102.5 16.5t-50.5 51t-14 85.5v36h136v-66q0 -26 6 -38t24 -12q15 0 21.5 10t6.5 28v42q0 25 -9.5 37.5t-28.5 20.5t-46 19q-24 10 -46.5 23.5t-37 36.5t-14.5 59v28q0 67 36 100.5t131 33.5q63 0 98 -15.5t49 -48.5t14 -82v-34h-132v58q0 27 -6 38.5
t-22 11.5q-17 0 -23 -10.5t-6 -25.5v-41q0 -23 14 -36t35.5 -20t42.5 -15q25 -9 47 -22t36 -35t14 -57v-33q0 -47 -16 -79t-53 -48.5t-104 -16.5z" />
    <glyph glyph-name="uni0456" unicode="&#x456;" horiz-adv-x="198" 
d="M31 0v495h136v-495h-136zM98 547q-25 0 -43.5 17.5t-18.5 42.5t18.5 42.5t43.5 17.5q26 0 44.5 -17.5t18.5 -42.5t-18.5 -42.5t-44.5 -17.5z" />
    <glyph glyph-name="uni0457" unicode="&#x457;" horiz-adv-x="198" 
d="M31 0v495h136v-495h-136zM34 546q-23 0 -38.5 15t-15.5 36q0 22 15.5 36.5t38.5 14.5t38 -14.5t15 -36.5q0 -21 -15 -36t-38 -15zM164 546q-23 0 -38.5 15t-15.5 36q0 22 15.5 36.5t38.5 14.5t38 -14.5t15 -36.5q0 -21 -15 -36t-38 -15z" />
    <glyph glyph-name="uni0458" unicode="&#x458;" horiz-adv-x="194" 
d="M-21 -113q-8 1 -23 2t-19 2v71q9 0 22.5 0.5t20.5 1.5q26 1 38.5 15.5t12.5 34.5v481h136v-440q0 -73 -27 -110.5t-69.5 -49.5t-91.5 -8zM97 547q-25 0 -43.5 17.5t-18.5 42.5t18.5 42.5t43.5 17.5q26 0 44.5 -17.5t18.5 -42.5t-18.5 -42.5t-44.5 -17.5z" />
    <glyph glyph-name="uni0459" unicode="&#x459;" horiz-adv-x="650" 
d="M12 0v70q18 0 35 23t19 53l31 349h328v-155h83q30 0 55.5 -9t41.5 -33.5t16 -72.5v-63q0 -54 -9.5 -86.5t-27 -48.5t-42 -21.5t-54.5 -5.5h-201v399h-53l-29 -288q-2 -17 -4.5 -36.5t-11.5 -36.5t-29.5 -27.5t-58.5 -10.5h-89zM425 70h31q13 0 19 5t8 15t2 25v90
q0 18 -1.5 29.5t-8 17t-19.5 5.5h-31v-187z" />
    <glyph glyph-name="uni045A" unicode="&#x45a;" horiz-adv-x="585" 
d="M29 0v495h136v-188h61v188h135v-155h83q29 0 54.5 -9t42 -33.5t16.5 -72.5v-63q0 -54 -9.5 -86.5t-27 -48.5t-42 -21.5t-55.5 -5.5h-197v204h-61v-204h-136zM361 70h30q14 0 20 5t8 15t2 25v90q0 18 -2 29.5t-8 17t-20 5.5h-30v-187z" />
    <glyph glyph-name="uni045B" unicode="&#x45b;" horiz-adv-x="441" 
d="M78 0v484h-62v72h62v74h139v-74h125v-72h-125v-116q9 17 28 30.5t55 13.5q29 0 54.5 -9t42 -33.5t16.5 -72.5v-297h-137v285q0 15 -2.5 24.5t-8.5 14t-18 4.5q-8 0 -14 -3t-8.5 -8t-4.5 -10t-3 -11v-296h-139z" />
    <glyph glyph-name="uni045C" unicode="&#x45c;" horiz-adv-x="420" 
d="M29 0v495h136v-152q27 49 64 84t81 52.5t89 11.5v-89q-24 -4 -41.5 -15t-30.5 -24q-7 -7 -13.5 -16t-11.5 -18l95 -329h-157l-59 178q-4 -6 -8 -14t-8 -14v-150h-136zM164 549l58 103h120l-101 -103h-77z" />
    <glyph glyph-name="uni045D" unicode="&#x45d;" horiz-adv-x="386" 
d="M29 0v495h119v-252l92 252h118v-495h-119v285q-25 -72 -50 -143t-52 -142h-108zM170 549l-101 103h121l57 -103h-77z" />
    <glyph glyph-name="uni045E" unicode="&#x45e;" horiz-adv-x="362" 
d="M113 -116q-31 0 -61 4.5t-47 8.5v71q7 -2 18.5 -4t25.5 -2q12 0 27 4t19 25q1 8 1.5 17t-2.5 21l-96 466h141l47 -367h2l48 367h129l-91 -442q-18 -91 -57 -130t-104 -39zM179 545q-49 0 -74.5 18t-34 42.5t-8.5 43.5h72q1 -20 15 -30t31 -10q19 0 32.5 9.5t14.5 30.5h74
q-1 -28 -13 -51.5t-38.5 -38t-70.5 -14.5z" />
    <glyph glyph-name="uni045F" unicode="&#x45f;" horiz-adv-x="390" 
d="M145 -101v101h-116v495h136v-398h60v398h136v-495h-118v-101h-98z" />
    <glyph glyph-name="uni0462" unicode="&#x462;" horiz-adv-x="445" 
d="M84 0v591h136v-155h83q29 0 54.5 -9t42 -33t16.5 -73v-163q0 -54 -10 -85.5t-27.5 -47t-42 -20.5t-54.5 -5h-198zM220 71h31q13 0 19 6.5t8 26t2 59.5v129q0 21 -1.5 34.5t-8 20t-20.5 6.5h-30v-282zM16 487v65h319v-65h-319z" />
    <glyph glyph-name="uni0463" unicode="&#x463;" horiz-adv-x="426" 
d="M65 0v495h136v-155h84q29 0 54.5 -9t41.5 -33.5t16 -72.5v-63q0 -54 -9.5 -86.5t-27 -48.5t-42 -21.5t-54.5 -5.5h-199zM201 70h31q13 0 19.5 5t8 15t1.5 25v90q0 18 -1.5 29.5t-7.5 17t-20 5.5h-31v-187zM6 383v61h301v-61h-301z" />
    <glyph glyph-name="uni046A" unicode="&#x46a;" horiz-adv-x="660" 
d="M24 0l57 249q5 23 16 42t28 30.5t40 12.5l49 2l-192 161v94h610v-94l-191 -160l55 -4q23 0 39.5 -11.5t27.5 -30t17 -42.5l56 -249h-154l-40 224q-4 21 -9 40.5t-13 36.5h-17v-301h-145l-1 301h-17q-9 -15 -13.5 -34t-8.5 -38l-40 -229h-154zM327 385l146 112h-291z" />
    <glyph glyph-name="uni046B" unicode="&#x46b;" horiz-adv-x="660" 
d="M23 0l48 209q11 31 28.5 50.5t38.5 20.5l45 1l-161 135v79h511v-79l-160 -134l49 -2q15 -1 27 -9.5t22 -24.5t18 -37l47 -209h-129l-34 188q-1 8 -4.5 16t-8.5 13l-19 35v-252h-122l-1 252l-17 -27q-5 -6 -8 -15l-6 -18l-35 -192h-129zM277 323l122 93h-243z" />
    <glyph glyph-name="Wgrave" unicode="&#x1e80;" horiz-adv-x="618" 
d="M98 0l-87 591h143l48 -415l49 415h116l49 -415l48 415h144l-88 -591h-162l-49 299l-49 -299h-162zM288 635l-115 94h125l74 -94h-84z" />
    <glyph glyph-name="wgrave" unicode="&#x1e81;" horiz-adv-x="602" 
d="M103 0l-101 495h130l51 -333l52 333h132l59 -333l44 333h129l-100 -495h-157l-42 235l-40 -235h-157zM277 549l-101 103h121l57 -103h-77z" />
    <glyph glyph-name="Wacute" unicode="&#x1e82;" horiz-adv-x="618" 
d="M98 0l-87 591h143l48 -415l49 415h116l49 -415l48 415h144l-88 -591h-162l-49 299l-49 -299h-162zM244 635l78 98h122l-124 -98h-76z" />
    <glyph glyph-name="wacute" unicode="&#x1e83;" horiz-adv-x="602" 
d="M103 0l-101 495h130l51 -333l52 333h132l59 -333l44 333h129l-100 -495h-157l-42 235l-40 -235h-157zM254 549l58 103h120l-101 -103h-77z" />
    <glyph glyph-name="Wdieresis" unicode="&#x1e84;" horiz-adv-x="618" 
d="M98 0l-87 591h143l48 -415l49 415h116l49 -415l48 415h144l-88 -591h-162l-49 299l-49 -299h-162zM245 632q-23 0 -38.5 15t-15.5 36q0 22 15.5 36.5t38.5 14.5t38 -14.5t15 -36.5q0 -21 -15 -36t-38 -15zM375 632q-23 0 -38.5 15t-15.5 36q0 22 15.5 36.5t38.5 14.5
t38 -14.5t15 -36.5q0 -21 -15 -36t-38 -15z" />
    <glyph glyph-name="wdieresis" unicode="&#x1e85;" horiz-adv-x="602" 
d="M103 0l-101 495h130l51 -333l52 333h132l59 -333l44 333h129l-100 -495h-157l-42 235l-40 -235h-157zM236 546q-23 0 -38.5 15t-15.5 36q0 22 15.5 36.5t38.5 14.5t38 -14.5t15 -36.5q0 -21 -15 -36t-38 -15zM366 546q-23 0 -38.5 15t-15.5 36q0 22 15.5 36.5t38.5 14.5
t38 -14.5t15 -36.5q0 -21 -15 -36t-38 -15z" />
    <glyph glyph-name="uni1E9E" unicode="&#x1e9e;" horiz-adv-x="476" 
d="M60 -30v576q0 21 13 31.5t53 14t119 3.5q92 0 140.5 -21.5t48.5 -76.5v-59q0 -42 -25 -68t-55 -28v-4q23 -2 45 -13t37 -31t15 -50v-123q0 -52 -22 -78t-62 -34.5t-94 -8.5h-49v69h29q20 0 30 8t14 31t4 69v62q0 19 -4 32t-15.5 20.5t-35.5 7.5h-22l1 70h40q22 0 28.5 18
t6.5 50v18q0 41 -8.5 58.5t-43.5 17.5q-23 0 -34 -1.5t-14.5 -6t-3.5 -13.5l1 -540h-137z" />
    <glyph glyph-name="uni1EA0" unicode="&#x1ea0;" horiz-adv-x="401" 
d="M6 0l94 591h203l92 -591h-155l-13 97h-60l-11 -97h-150zM168 165h59l-29 311zM201 -139q-23 0 -38.5 15.5t-15.5 36.5q0 22 15.5 37.5t38.5 15.5q22 0 38.5 -15.5t16.5 -37.5q0 -21 -16.5 -36.5t-38.5 -15.5z" />
    <glyph glyph-name="uni1EA1" unicode="&#x1ea1;" 
d="M119 -8q-27 0 -49.5 7.5t-36 29t-13.5 63.5v74q0 45 26.5 73.5t87.5 49.5q30 12 46.5 20.5t23.5 22t7 38.5v30q0 11 -3.5 18t-10 11t-15.5 4q-17 0 -23 -15t-6 -53v-42h-123v55q0 37 11 65.5t43.5 45t97.5 16.5q66 0 102 -10.5t50.5 -36t14.5 -69.5v-389h-136v52
q-7 -27 -34.5 -43.5t-59.5 -16.5zM179 81q19 0 25 15.5t6 46.5v113q-3 -7 -13.5 -12.5t-19.5 -12.5q-13 -10 -19.5 -20t-6.5 -29v-56q0 -15 3 -25t9 -15t16 -5zM187 -139q-23 0 -38.5 15.5t-15.5 36.5q0 22 15.5 37.5t38.5 15.5q22 0 38.5 -15.5t16.5 -37.5
q0 -21 -16.5 -36.5t-38.5 -15.5z" />
    <glyph glyph-name="uni1EA2" unicode="&#x1ea2;" horiz-adv-x="401" 
d="M6 0l94 591h203l92 -591h-155l-13 97h-60l-11 -97h-150zM168 165h59l-29 311zM162 627v11q0 15 10.5 22.5t20.5 14.5t10 18v6q0 7 -3 14t-11 7q-14 0 -15 -21l-59 9q2 30 22 45t58 15q42 0 63.5 -11.5t21.5 -54.5v-4q0 -23 -11.5 -31.5t-23 -13t-11.5 -16.5v-10h-72z" />
    <glyph glyph-name="uni1EA3" unicode="&#x1ea3;" 
d="M119 -8q-27 0 -49.5 7.5t-36 29t-13.5 63.5v74q0 45 26.5 73.5t87.5 49.5q30 12 46.5 20.5t23.5 22t7 38.5v30q0 11 -3.5 18t-10 11t-15.5 4q-17 0 -23 -15t-6 -53v-42h-123v55q0 37 11 65.5t43.5 45t97.5 16.5q66 0 102 -10.5t50.5 -36t14.5 -69.5v-389h-136v52
q-7 -27 -34.5 -43.5t-59.5 -16.5zM179 81q19 0 25 15.5t6 46.5v113q-3 -7 -13.5 -12.5t-19.5 -12.5q-13 -10 -19.5 -20t-6.5 -29v-56q0 -15 3 -25t9 -15t16 -5zM154 549v11q0 15 10.5 22.5t20.5 14.5t10 18v6q0 7 -3 14t-11 7q-14 0 -15 -21l-59 9q2 30 22 45t58 15
q42 0 63.5 -11.5t21.5 -54.5v-4q0 -23 -11.5 -31.5t-23 -13t-11.5 -16.5v-10h-72z" />
    <glyph glyph-name="uni1EA4" unicode="&#x1ea4;" horiz-adv-x="401" 
d="M6 0l94 591h203l92 -591h-155l-13 97h-60l-11 -97h-150zM168 165h59l-29 311zM93 625l72 88h70l73 -88h-77l-30 34l-29 -34h-79zM307 686l41 78h117l-81 -78h-77z" />
    <glyph glyph-name="uni1EA5" unicode="&#x1ea5;" 
d="M119 -8q-27 0 -49.5 7.5t-36 29t-13.5 63.5v74q0 45 26.5 73.5t87.5 49.5q30 12 46.5 20.5t23.5 22t7 38.5v30q0 11 -3.5 18t-10 11t-15.5 4q-17 0 -23 -15t-6 -53v-42h-123v55q0 37 11 65.5t43.5 45t97.5 16.5q66 0 102 -10.5t50.5 -36t14.5 -69.5v-389h-136v52
q-7 -27 -34.5 -43.5t-59.5 -16.5zM179 81q19 0 25 15.5t6 46.5v113q-3 -7 -13.5 -12.5t-19.5 -12.5q-13 -10 -19.5 -20t-6.5 -29v-56q0 -15 3 -25t9 -15t16 -5zM57 545l97 111h74l98 -111h-88l-46 46l-45 -46h-90zM327 604l58 103h120l-101 -103h-77z" />
    <glyph glyph-name="uni1EA6" unicode="&#x1ea6;" horiz-adv-x="401" 
d="M6 0l94 591h203l92 -591h-155l-13 97h-60l-11 -97h-150zM168 165h59l-29 311zM93 625l72 88h70l73 -88h-77l-30 34l-29 -34h-79zM332 684l-81 78h117l41 -78h-77z" />
    <glyph glyph-name="uni1EA7" unicode="&#x1ea7;" 
d="M119 -8q-27 0 -49.5 7.5t-36 29t-13.5 63.5v74q0 45 26.5 73.5t87.5 49.5q30 12 46.5 20.5t23.5 22t7 38.5v30q0 11 -3.5 18t-10 11t-15.5 4q-17 0 -23 -15t-6 -53v-42h-123v55q0 37 11 65.5t43.5 45t97.5 16.5q66 0 102 -10.5t50.5 -36t14.5 -69.5v-389h-136v52
q-7 -27 -34.5 -43.5t-59.5 -16.5zM179 81q19 0 25 15.5t6 46.5v113q-3 -7 -13.5 -12.5t-19.5 -12.5q-13 -10 -19.5 -20t-6.5 -29v-56q0 -15 3 -25t9 -15t16 -5zM57 545l97 111h74l98 -111h-88l-46 46l-45 -46h-90zM350 604l-101 103h121l57 -103h-77z" />
    <glyph glyph-name="uni1EA8" unicode="&#x1ea8;" horiz-adv-x="401" 
d="M6 0l94 591h203l92 -591h-155l-13 97h-60l-11 -97h-150zM168 165h59l-29 311zM93 625l72 88h70l73 -88h-77l-30 34l-29 -34h-79zM307 679v5q0 10 8 16t16.5 10.5t8.5 11.5v5q0 7 -2.5 9.5t-5.5 2.5q-8 0 -9 -12l-53 7q2 24 17 37t50 13q40 0 56 -9.5t16 -43.5v-4
q0 -16 -7.5 -22t-15.5 -9t-8 -11v-6h-71z" />
    <glyph glyph-name="uni1EA9" unicode="&#x1ea9;" 
d="M119 -8q-27 0 -49.5 7.5t-36 29t-13.5 63.5v74q0 45 26.5 73.5t87.5 49.5q30 12 46.5 20.5t23.5 22t7 38.5v30q0 11 -3.5 18t-10 11t-15.5 4q-17 0 -23 -15t-6 -53v-42h-123v55q0 37 11 65.5t43.5 45t97.5 16.5q66 0 102 -10.5t50.5 -36t14.5 -69.5v-389h-136v52
q-7 -27 -34.5 -43.5t-59.5 -16.5zM179 81q19 0 25 15.5t6 46.5v113q-3 -7 -13.5 -12.5t-19.5 -12.5q-13 -10 -19.5 -20t-6.5 -29v-56q0 -15 3 -25t9 -15t16 -5zM57 545l97 111h74l98 -111h-88l-46 46l-45 -46h-90zM336 604v11q0 15 10.5 22.5t20.5 14.5t10 18v6q0 7 -3 14
t-11 7q-14 0 -15 -21l-59 9q2 30 22 45t58 15q42 0 63.5 -11.5t21.5 -54.5v-4q0 -23 -11.5 -31.5t-23 -13t-11.5 -16.5v-10h-72z" />
    <glyph glyph-name="uni1EAA" unicode="&#x1eaa;" horiz-adv-x="401" 
d="M6 0l94 591h203l92 -591h-155l-13 97h-60l-11 -97h-150zM168 165h59l-29 311zM93 625l72 88h70l73 -88h-77l-30 34l-29 -34h-79zM238 732q-13 0 -24.5 5t-21.5 10t-18.5 7.5t-16.5 2.5q-9 0 -14 -7.5t-5 -16.5h-33q-1 37 14 60t40 23q12 0 24 -3t22 -9q9 -4 17 -7.5
t17 -3.5q12 0 16 7t5 14h38q1 -27 -9.5 -45.5t-24.5 -27.5t-26 -9z" />
    <glyph glyph-name="uni1EAB" unicode="&#x1eab;" 
d="M119 -8q-27 0 -49.5 7.5t-36 29t-13.5 63.5v74q0 45 26.5 73.5t87.5 49.5q30 12 46.5 20.5t23.5 22t7 38.5v30q0 11 -3.5 18t-10 11t-15.5 4q-17 0 -23 -15t-6 -53v-42h-123v55q0 37 11 65.5t43.5 45t97.5 16.5q66 0 102 -10.5t50.5 -36t14.5 -69.5v-389h-136v52
q-7 -27 -34.5 -43.5t-59.5 -16.5zM179 81q19 0 25 15.5t6 46.5v113q-3 -7 -13.5 -12.5t-19.5 -12.5q-13 -10 -19.5 -20t-6.5 -29v-56q0 -15 3 -25t9 -15t16 -5zM57 545l97 111h74l98 -111h-88l-46 46l-45 -46h-90zM240 680q-16 0 -30 6.5t-28 14.5q-11 6 -22.5 11t-23.5 5
q-13 0 -20 -10t-8 -26h-38q0 44 18.5 70.5t49.5 26.5q17 0 31.5 -5.5t26.5 -12.5q12 -6 23 -11t22 -5q15 0 22 9t9 22h42q-1 -31 -12.5 -52t-28 -32t-33.5 -11z" />
    <glyph glyph-name="uni1EAC" unicode="&#x1eac;" horiz-adv-x="401" 
d="M6 0l94 591h203l92 -591h-155l-13 97h-60l-11 -97h-150zM168 165h59l-29 311zM201 -139q-23 0 -38.5 15.5t-15.5 36.5q0 22 15.5 37.5t38.5 15.5q22 0 38.5 -15.5t16.5 -37.5q0 -21 -16.5 -36.5t-38.5 -15.5zM64 631l99 105h74l100 -104h-93l-43 37l-43 -38h-94z" />
    <glyph glyph-name="uni1EAD" unicode="&#x1ead;" 
d="M119 -8q-27 0 -49.5 7.5t-36 29t-13.5 63.5v74q0 45 26.5 73.5t87.5 49.5q30 12 46.5 20.5t23.5 22t7 38.5v30q0 11 -3.5 18t-10 11t-15.5 4q-17 0 -23 -15t-6 -53v-42h-123v55q0 37 11 65.5t43.5 45t97.5 16.5q66 0 102 -10.5t50.5 -36t14.5 -69.5v-389h-136v52
q-7 -27 -34.5 -43.5t-59.5 -16.5zM179 81q19 0 25 15.5t6 46.5v113q-3 -7 -13.5 -12.5t-19.5 -12.5q-13 -10 -19.5 -20t-6.5 -29v-56q0 -15 3 -25t9 -15t16 -5zM187 -139q-23 0 -38.5 15.5t-15.5 36.5q0 22 15.5 37.5t38.5 15.5q22 0 38.5 -15.5t16.5 -37.5
q0 -21 -16.5 -36.5t-38.5 -15.5zM57 545l97 111h74l98 -111h-88l-46 46l-45 -46h-90z" />
    <glyph glyph-name="uni1EAE" unicode="&#x1eae;" horiz-adv-x="401" 
d="M6 0l94 591h203l92 -591h-155l-13 97h-60l-11 -97h-150zM168 165h59l-29 311zM200 625q-41 0 -61 14.5t-26 33.5t-6 34h71q-2 -9 6.5 -14.5t16.5 -5.5t16.5 5t7.5 15h72q0 -36 -22.5 -59t-74.5 -23zM154 728l41 78h117l-81 -78h-77z" />
    <glyph glyph-name="uni1EAF" unicode="&#x1eaf;" 
d="M119 -8q-27 0 -49.5 7.5t-36 29t-13.5 63.5v74q0 45 26.5 73.5t87.5 49.5q30 12 46.5 20.5t23.5 22t7 38.5v30q0 11 -3.5 18t-10 11t-15.5 4q-17 0 -23 -15t-6 -53v-42h-123v55q0 37 11 65.5t43.5 45t97.5 16.5q66 0 102 -10.5t50.5 -36t14.5 -69.5v-389h-136v52
q-7 -27 -34.5 -43.5t-59.5 -16.5zM179 81q19 0 25 15.5t6 46.5v113q-3 -7 -13.5 -12.5t-19.5 -12.5q-13 -10 -19.5 -20t-6.5 -29v-56q0 -15 3 -25t9 -15t16 -5zM189 545q-49 0 -74.5 18t-34 42.5t-8.5 43.5h72q1 -20 15 -30t31 -10q19 0 32.5 9.5t14.5 30.5h74
q-1 -28 -13 -51.5t-38.5 -38t-70.5 -14.5zM144 673l58 103h120l-101 -103h-77z" />
    <glyph glyph-name="uni1EB0" unicode="&#x1eb0;" horiz-adv-x="401" 
d="M6 0l94 591h203l92 -591h-155l-13 97h-60l-11 -97h-150zM168 165h59l-29 311zM199 625q-41 0 -61 14.5t-25.5 33.5t-5.5 34h70q-1 -11 7.5 -15.5t15.5 -4.5q9 0 17 5t8 15h71q1 -36 -22 -59t-75 -23zM180 728l-81 78h117l41 -78h-77z" />
    <glyph glyph-name="uni1EB1" unicode="&#x1eb1;" 
d="M119 -8q-27 0 -49.5 7.5t-36 29t-13.5 63.5v74q0 45 26.5 73.5t87.5 49.5q30 12 46.5 20.5t23.5 22t7 38.5v30q0 11 -3.5 18t-10 11t-15.5 4q-17 0 -23 -15t-6 -53v-42h-123v55q0 37 11 65.5t43.5 45t97.5 16.5q66 0 102 -10.5t50.5 -36t14.5 -69.5v-389h-136v52
q-7 -27 -34.5 -43.5t-59.5 -16.5zM179 81q19 0 25 15.5t6 46.5v113q-3 -7 -13.5 -12.5t-19.5 -12.5q-13 -10 -19.5 -20t-6.5 -29v-56q0 -15 3 -25t9 -15t16 -5zM189 545q-49 0 -74.5 18t-34 42.5t-8.5 43.5h72q1 -20 15 -30t31 -10q19 0 32.5 9.5t14.5 30.5h74
q-1 -28 -13 -51.5t-38.5 -38t-70.5 -14.5zM167 673l-101 103h121l57 -103h-77z" />
    <glyph glyph-name="uni1EB2" unicode="&#x1eb2;" horiz-adv-x="401" 
d="M6 0l94 591h203l92 -591h-155l-13 97h-60l-11 -97h-150zM168 165h59l-29 311zM200 625q-41 0 -61 14.5t-26 33.5t-6 34h71q-2 -9 6.5 -14.5t16.5 -5.5t16.5 5t7.5 15h72q0 -36 -22.5 -59t-74.5 -23zM164 727v5q0 11 8.5 16.5t16.5 10t8 11.5v5q0 8 -2.5 10t-5.5 2t-6 -3
t-3 -9l-53 7q1 24 16.5 37t50.5 13q41 0 56.5 -9.5t15.5 -43.5v-4q0 -16 -7.5 -22t-15.5 -9t-8 -11v-6h-71z" />
    <glyph glyph-name="uni1EB3" unicode="&#x1eb3;" 
d="M119 -8q-27 0 -49.5 7.5t-36 29t-13.5 63.5v74q0 45 26.5 73.5t87.5 49.5q30 12 46.5 20.5t23.5 22t7 38.5v30q0 11 -3.5 18t-10 11t-15.5 4q-17 0 -23 -15t-6 -53v-42h-123v55q0 37 11 65.5t43.5 45t97.5 16.5q66 0 102 -10.5t50.5 -36t14.5 -69.5v-389h-136v52
q-7 -27 -34.5 -43.5t-59.5 -16.5zM179 81q19 0 25 15.5t6 46.5v113q-3 -7 -13.5 -12.5t-19.5 -12.5q-13 -10 -19.5 -20t-6.5 -29v-56q0 -15 3 -25t9 -15t16 -5zM189 545q-49 0 -74.5 18t-34 42.5t-8.5 43.5h72q1 -20 15 -30t31 -10q19 0 32.5 9.5t14.5 30.5h74
q-1 -28 -13 -51.5t-38.5 -38t-70.5 -14.5zM153 673v11q0 15 10.5 22.5t20.5 14.5t10 18v6q0 7 -3 14t-11 7q-14 0 -15 -21l-59 9q2 30 22 45t58 15q42 0 63.5 -11.5t21.5 -54.5v-4q0 -23 -11.5 -31.5t-23 -13t-11.5 -16.5v-10h-72z" />
    <glyph glyph-name="uni1EB4" unicode="&#x1eb4;" horiz-adv-x="401" 
d="M6 0l94 591h203l92 -591h-155l-13 97h-60l-11 -97h-150zM168 165h59l-29 311zM199 625q-41 0 -61 14.5t-26 33.5t-6 34h71q-1 -9 7 -14.5t16 -5.5q9 0 17 5t8 15h71q1 -36 -22.5 -59t-74.5 -23zM238 723q-13 0 -24.5 5t-23.5 12q-9 4 -16 7t-18 3q-9 0 -13.5 -8t-4.5 -18
h-34q-1 38 14.5 61.5t39.5 23.5q12 0 24 -3.5t21 -8.5q11 -4 19 -8t17 -4q11 0 15 6.5t5 14.5h39q0 -27 -10.5 -46t-24 -28t-25.5 -9z" />
    <glyph glyph-name="uni1EB5" unicode="&#x1eb5;" 
d="M119 -8q-27 0 -49.5 7.5t-36 29t-13.5 63.5v74q0 45 26.5 73.5t87.5 49.5q30 12 46.5 20.5t23.5 22t7 38.5v30q0 11 -3.5 18t-10 11t-15.5 4q-17 0 -23 -15t-6 -53v-42h-123v55q0 37 11 65.5t43.5 45t97.5 16.5q66 0 102 -10.5t50.5 -36t14.5 -69.5v-389h-136v52
q-7 -27 -34.5 -43.5t-59.5 -16.5zM179 81q19 0 25 15.5t6 46.5v113q-3 -7 -13.5 -12.5t-19.5 -12.5q-13 -10 -19.5 -20t-6.5 -29v-56q0 -15 3 -25t9 -15t16 -5zM189 545q-49 0 -74.5 18t-34 42.5t-8.5 43.5h72q1 -20 15 -30t31 -10q19 0 32.5 9.5t14.5 30.5h74
q-1 -28 -13 -51.5t-38.5 -38t-70.5 -14.5zM239 673q-16 0 -30 6.5t-28 14.5q-11 6 -22.5 11t-23.5 5q-13 0 -20 -10t-8 -26h-38q0 44 18.5 70.5t49.5 26.5q17 0 31.5 -5.5t26.5 -12.5q12 -6 23 -11t22 -5q15 0 22 9t9 22h42q-1 -31 -12.5 -52t-28 -32t-33.5 -11z" />
    <glyph glyph-name="uni1EB6" unicode="&#x1eb6;" horiz-adv-x="401" 
d="M6 0l94 591h203l92 -591h-155l-13 97h-60l-11 -97h-150zM168 165h59l-29 311zM201 -139q-23 0 -38.5 15.5t-15.5 36.5q0 22 15.5 37.5t38.5 15.5q22 0 38.5 -15.5t16.5 -37.5q0 -21 -16.5 -36.5t-38.5 -15.5zM199 631q-49 0 -74.5 18t-34 42.5t-8.5 43.5h72q1 -20 15 -30
t31 -10q19 0 32.5 9.5t14.5 30.5h74q-1 -28 -13 -51.5t-38.5 -38t-70.5 -14.5z" />
    <glyph glyph-name="uni1EB7" unicode="&#x1eb7;" 
d="M119 -8q-27 0 -49.5 7.5t-36 29t-13.5 63.5v74q0 45 26.5 73.5t87.5 49.5q30 12 46.5 20.5t23.5 22t7 38.5v30q0 11 -3.5 18t-10 11t-15.5 4q-17 0 -23 -15t-6 -53v-42h-123v55q0 37 11 65.5t43.5 45t97.5 16.5q66 0 102 -10.5t50.5 -36t14.5 -69.5v-389h-136v52
q-7 -27 -34.5 -43.5t-59.5 -16.5zM179 81q19 0 25 15.5t6 46.5v113q-3 -7 -13.5 -12.5t-19.5 -12.5q-13 -10 -19.5 -20t-6.5 -29v-56q0 -15 3 -25t9 -15t16 -5zM187 -139q-23 0 -38.5 15.5t-15.5 36.5q0 22 15.5 37.5t38.5 15.5q22 0 38.5 -15.5t16.5 -37.5
q0 -21 -16.5 -36.5t-38.5 -15.5zM189 545q-49 0 -74.5 18t-34 42.5t-8.5 43.5h72q1 -20 15 -30t31 -10q19 0 32.5 9.5t14.5 30.5h74q-1 -28 -13 -51.5t-38.5 -38t-70.5 -14.5z" />
    <glyph glyph-name="uni1EB8" unicode="&#x1eb8;" horiz-adv-x="331" 
d="M33 0v591h280v-97h-135v-136h118v-109h-118v-154h135v-95h-280zM170 -139q-23 0 -38.5 15.5t-15.5 36.5q0 22 15.5 37.5t38.5 15.5q22 0 38.5 -15.5t16.5 -37.5q0 -21 -16.5 -36.5t-38.5 -15.5z" />
    <glyph glyph-name="uni1EB9" unicode="&#x1eb9;" 
d="M190 -8q-52 0 -89 11.5t-57 48t-20 111.5v212q0 75 42.5 102.5t123.5 27.5q80 0 122 -27.5t42 -102.5v-138h-194v-132q0 -24 7.5 -33t22.5 -9t21.5 9t6.5 33v84h136v-25q0 -76 -19.5 -112.5t-56 -48t-88.5 -11.5zM160 297h58v86q0 23 -6.5 32t-21.5 9t-22.5 -9t-7.5 -32
v-86zM187 -139q-23 0 -38.5 15.5t-15.5 36.5q0 22 15.5 37.5t38.5 15.5q22 0 38.5 -15.5t16.5 -37.5q0 -21 -16.5 -36.5t-38.5 -15.5z" />
    <glyph glyph-name="uni1EBA" unicode="&#x1eba;" horiz-adv-x="331" 
d="M33 0v591h280v-97h-135v-136h118v-109h-118v-154h135v-95h-280zM133 627v11q0 15 10.5 22.5t20.5 14.5t10 18v6q0 7 -3 14t-11 7q-14 0 -15 -21l-59 9q2 30 22 45t58 15q42 0 63.5 -11.5t21.5 -54.5v-4q0 -23 -11.5 -31.5t-23 -13t-11.5 -16.5v-10h-72z" />
    <glyph glyph-name="uni1EBB" unicode="&#x1ebb;" 
d="M190 -8q-52 0 -89 11.5t-57 48t-20 111.5v212q0 75 42.5 102.5t123.5 27.5q80 0 122 -27.5t42 -102.5v-138h-194v-132q0 -24 7.5 -33t22.5 -9t21.5 9t6.5 33v84h136v-25q0 -76 -19.5 -112.5t-56 -48t-88.5 -11.5zM160 297h58v86q0 23 -6.5 32t-21.5 9t-22.5 -9t-7.5 -32
v-86zM150 549v11q0 15 10.5 22.5t20.5 14.5t10 18v6q0 7 -3 14t-11 7q-14 0 -15 -21l-59 9q2 30 22 45t58 15q42 0 63.5 -11.5t21.5 -54.5v-4q0 -23 -11.5 -31.5t-23 -13t-11.5 -16.5v-10h-72z" />
    <glyph glyph-name="uni1EBC" unicode="&#x1ebc;" horiz-adv-x="331" 
d="M33 0v591h280v-97h-135v-136h118v-109h-118v-154h135v-95h-280zM216 636q-16 0 -30 6.5t-28 14.5q-11 6 -22.5 11t-23.5 5q-13 0 -20 -10t-8 -26h-38q0 44 18.5 70.5t49.5 26.5q17 0 31.5 -5.5t26.5 -12.5q12 -6 23 -11t22 -5q15 0 22 9t9 22h42q-1 -31 -12.5 -52
t-28 -32t-33.5 -11z" />
    <glyph glyph-name="uni1EBD" unicode="&#x1ebd;" 
d="M190 -8q-52 0 -89 11.5t-57 48t-20 111.5v212q0 75 42.5 102.5t123.5 27.5q80 0 122 -27.5t42 -102.5v-138h-194v-132q0 -24 7.5 -33t22.5 -9t21.5 9t6.5 33v84h136v-25q0 -76 -19.5 -112.5t-56 -48t-88.5 -11.5zM160 297h58v86q0 23 -6.5 32t-21.5 9t-22.5 -9t-7.5 -32
v-86zM235 549q-16 0 -30 6.5t-28 14.5q-11 6 -22.5 11t-23.5 5q-13 0 -20 -10t-8 -26h-38q0 44 18.5 70.5t49.5 26.5q17 0 31.5 -5.5t26.5 -12.5q12 -6 23 -11t22 -5q15 0 22 9t9 22h42q-1 -31 -12.5 -52t-28 -32t-33.5 -11z" />
    <glyph glyph-name="uni1EBE" unicode="&#x1ebe;" horiz-adv-x="331" 
d="M33 0v591h280v-97h-135v-136h118v-109h-118v-154h135v-95h-280zM65 625l72 88h70l73 -88h-77l-30 34l-29 -34h-79zM279 686l41 78h117l-81 -78h-77z" />
    <glyph glyph-name="uni1EBF" unicode="&#x1ebf;" 
d="M190 -8q-52 0 -89 11.5t-57 48t-20 111.5v212q0 75 42.5 102.5t123.5 27.5q80 0 122 -27.5t42 -102.5v-138h-194v-132q0 -24 7.5 -33t22.5 -9t21.5 9t6.5 33v84h136v-25q0 -76 -19.5 -112.5t-56 -48t-88.5 -11.5zM160 297h58v86q0 23 -6.5 32t-21.5 9t-22.5 -9t-7.5 -32
v-86zM53 545l97 111h74l98 -111h-88l-46 46l-45 -46h-90zM323 604l58 103h120l-101 -103h-77z" />
    <glyph glyph-name="uni1EC0" unicode="&#x1ec0;" horiz-adv-x="331" 
d="M33 0v591h280v-97h-135v-136h118v-109h-118v-154h135v-95h-280zM65 625l72 88h70l73 -88h-77l-30 34l-29 -34h-79zM304 684l-81 78h117l41 -78h-77z" />
    <glyph glyph-name="uni1EC1" unicode="&#x1ec1;" 
d="M190 -8q-52 0 -89 11.5t-57 48t-20 111.5v212q0 75 42.5 102.5t123.5 27.5q80 0 122 -27.5t42 -102.5v-138h-194v-132q0 -24 7.5 -33t22.5 -9t21.5 9t6.5 33v84h136v-25q0 -76 -19.5 -112.5t-56 -48t-88.5 -11.5zM160 297h58v86q0 23 -6.5 32t-21.5 9t-22.5 -9t-7.5 -32
v-86zM53 545l97 111h74l98 -111h-88l-46 46l-45 -46h-90zM346 604l-101 103h121l57 -103h-77z" />
    <glyph glyph-name="uni1EC2" unicode="&#x1ec2;" horiz-adv-x="331" 
d="M33 0v591h280v-97h-135v-136h118v-109h-118v-154h135v-95h-280zM65 625l72 88h70l73 -88h-77l-30 34l-29 -34h-79zM279 679v5q0 10 8 16t16.5 10.5t8.5 11.5v5q0 7 -2.5 9.5t-5.5 2.5q-8 0 -9 -12l-53 7q2 24 17 37t50 13q40 0 56 -9.5t16 -43.5v-4q0 -16 -7.5 -22
t-15.5 -9t-8 -11v-6h-71z" />
    <glyph glyph-name="uni1EC3" unicode="&#x1ec3;" 
d="M190 -8q-52 0 -89 11.5t-57 48t-20 111.5v212q0 75 42.5 102.5t123.5 27.5q80 0 122 -27.5t42 -102.5v-138h-194v-132q0 -24 7.5 -33t22.5 -9t21.5 9t6.5 33v84h136v-25q0 -76 -19.5 -112.5t-56 -48t-88.5 -11.5zM160 297h58v86q0 23 -6.5 32t-21.5 9t-22.5 -9t-7.5 -32
v-86zM53 545l97 111h74l98 -111h-88l-46 46l-45 -46h-90zM332 604v11q0 15 10.5 22.5t20.5 14.5t10 18v6q0 7 -3 14t-11 7q-14 0 -15 -21l-59 9q2 30 22 45t58 15q42 0 63.5 -11.5t21.5 -54.5v-4q0 -23 -11.5 -31.5t-23 -13t-11.5 -16.5v-10h-72z" />
    <glyph glyph-name="uni1EC4" unicode="&#x1ec4;" horiz-adv-x="331" 
d="M33 0v591h280v-97h-135v-136h118v-109h-118v-154h135v-95h-280zM65 625l72 88h70l73 -88h-77l-30 34l-29 -34h-79zM210 732q-13 0 -24.5 5t-21.5 10t-18.5 7.5t-16.5 2.5q-9 0 -14 -7.5t-5 -16.5h-33q-1 37 14 60t40 23q12 0 24 -3t22 -9q9 -4 17 -7.5t17 -3.5q12 0 16 7
t5 14h38q1 -27 -9.5 -45.5t-24.5 -27.5t-26 -9z" />
    <glyph glyph-name="uni1EC5" unicode="&#x1ec5;" 
d="M190 -8q-52 0 -89 11.5t-57 48t-20 111.5v212q0 75 42.5 102.5t123.5 27.5q80 0 122 -27.5t42 -102.5v-138h-194v-132q0 -24 7.5 -33t22.5 -9t21.5 9t6.5 33v84h136v-25q0 -76 -19.5 -112.5t-56 -48t-88.5 -11.5zM160 297h58v86q0 23 -6.5 32t-21.5 9t-22.5 -9t-7.5 -32
v-86zM53 545l97 111h74l98 -111h-88l-46 46l-45 -46h-90zM236 680q-16 0 -30 6.5t-28 14.5q-11 6 -22.5 11t-23.5 5q-13 0 -20 -10t-8 -26h-38q0 44 18.5 70.5t49.5 26.5q17 0 31.5 -5.5t26.5 -12.5q12 -6 23 -11t22 -5q15 0 22 9t9 22h42q-1 -31 -12.5 -52t-28 -32
t-33.5 -11z" />
    <glyph glyph-name="uni1EC6" unicode="&#x1ec6;" horiz-adv-x="331" 
d="M33 0v591h280v-97h-135v-136h118v-109h-118v-154h135v-95h-280zM170 -139q-23 0 -38.5 15.5t-15.5 36.5q0 22 15.5 37.5t38.5 15.5q22 0 38.5 -15.5t16.5 -37.5q0 -21 -16.5 -36.5t-38.5 -15.5zM36 631l99 105h74l100 -104h-93l-43 37l-43 -38h-94z" />
    <glyph glyph-name="uni1EC7" unicode="&#x1ec7;" 
d="M190 -8q-52 0 -89 11.5t-57 48t-20 111.5v212q0 75 42.5 102.5t123.5 27.5q80 0 122 -27.5t42 -102.5v-138h-194v-132q0 -24 7.5 -33t22.5 -9t21.5 9t6.5 33v84h136v-25q0 -76 -19.5 -112.5t-56 -48t-88.5 -11.5zM160 297h58v86q0 23 -6.5 32t-21.5 9t-22.5 -9t-7.5 -32
v-86zM187 -139q-23 0 -38.5 15.5t-15.5 36.5q0 22 15.5 37.5t38.5 15.5q22 0 38.5 -15.5t16.5 -37.5q0 -21 -16.5 -36.5t-38.5 -15.5zM53 545l97 111h74l98 -111h-88l-46 46l-45 -46h-90z" />
    <glyph glyph-name="uni1EC8" unicode="&#x1ec8;" horiz-adv-x="205" 
d="M33 0v591h139v-591h-139zM64 627v11q0 15 10.5 22.5t20.5 14.5t10 18v6q0 7 -3 14t-11 7q-14 0 -15 -21l-59 9q2 30 22 45t58 15q42 0 63.5 -11.5t21.5 -54.5v-4q0 -23 -11.5 -31.5t-23 -13t-11.5 -16.5v-10h-72z" />
    <glyph glyph-name="uni1EC9" unicode="&#x1ec9;" horiz-adv-x="198" 
d="M31 0v495h136v-495h-136zM61 549v11q0 15 10.5 22.5t20.5 14.5t10 18v6q0 7 -3 14t-11 7q-14 0 -15 -21l-59 9q2 30 22 45t58 15q42 0 63.5 -11.5t21.5 -54.5v-4q0 -23 -11.5 -31.5t-23 -13t-11.5 -16.5v-10h-72z" />
    <glyph glyph-name="uni1ECA" unicode="&#x1eca;" horiz-adv-x="205" 
d="M33 0v591h139v-591h-139zM102 -139q-23 0 -38.5 15.5t-15.5 36.5q0 22 15.5 37.5t38.5 15.5q22 0 38.5 -15.5t16.5 -37.5q0 -21 -16.5 -36.5t-38.5 -15.5z" />
    <glyph glyph-name="uni1ECB" unicode="&#x1ecb;" horiz-adv-x="198" 
d="M31 0v495h136v-495h-136zM98 547q-25 0 -43.5 17.5t-18.5 42.5t18.5 42.5t43.5 17.5q26 0 44.5 -17.5t18.5 -42.5t-18.5 -42.5t-44.5 -17.5zM100 -139q-23 0 -38.5 15.5t-15.5 36.5q0 22 15.5 37.5t38.5 15.5q22 0 38.5 -15.5t16.5 -37.5q0 -21 -16.5 -36.5t-38.5 -15.5z
" />
    <glyph glyph-name="uni1ECC" unicode="&#x1ecc;" horiz-adv-x="399" 
d="M198 -12q-51 0 -89.5 12.5t-60 50.5t-21.5 114v301q0 51 21.5 80t60 41.5t89.5 12.5t90 -12.5t61.5 -41.5t22.5 -80v-300q0 -77 -22.5 -115t-61.5 -50.5t-90 -12.5zM198 69q10 0 18.5 4t12.5 13.5t4 25.5v360q0 15 -4 25t-12.5 14t-18.5 4t-18 -4t-12.5 -14t-4.5 -25
v-360q0 -16 4.5 -25.5t12.5 -13.5t18 -4zM200 -139q-23 0 -38.5 15.5t-15.5 36.5q0 22 15.5 37.5t38.5 15.5q22 0 38.5 -15.5t16.5 -37.5q0 -21 -16.5 -36.5t-38.5 -15.5z" />
    <glyph glyph-name="uni1ECD" unicode="&#x1ecd;" horiz-adv-x="379" 
d="M190 -8q-52 0 -89 12t-57 48.5t-20 110.5v201q0 79 42.5 109.5t123.5 30.5t123 -30t42 -110v-200q0 -75 -19.5 -111.5t-56.5 -48.5t-89 -12zM190 71q14 0 21.5 9.5t7.5 34.5v266q0 23 -7 33t-22 10q-14 0 -22 -9.5t-8 -33.5v-266q0 -25 8 -34.5t22 -9.5zM189 -139
q-23 0 -38.5 15.5t-15.5 36.5q0 22 15.5 37.5t38.5 15.5q22 0 38.5 -15.5t16.5 -37.5q0 -21 -16.5 -36.5t-38.5 -15.5z" />
    <glyph glyph-name="uni1ECE" unicode="&#x1ece;" horiz-adv-x="399" 
d="M198 -12q-51 0 -89.5 12.5t-60 50.5t-21.5 114v301q0 51 21.5 80t60 41.5t89.5 12.5t90 -12.5t61.5 -41.5t22.5 -80v-300q0 -77 -22.5 -115t-61.5 -50.5t-90 -12.5zM198 69q10 0 18.5 4t12.5 13.5t4 25.5v360q0 15 -4 25t-12.5 14t-18.5 4t-18 -4t-12.5 -14t-4.5 -25
v-360q0 -16 4.5 -25.5t12.5 -13.5t18 -4zM161 627v11q0 15 10.5 22.5t20.5 14.5t10 18v6q0 7 -3 14t-11 7q-14 0 -15 -21l-59 9q2 30 22 45t58 15q42 0 63.5 -11.5t21.5 -54.5v-4q0 -23 -11.5 -31.5t-23 -13t-11.5 -16.5v-10h-72z" />
    <glyph glyph-name="uni1ECF" unicode="&#x1ecf;" horiz-adv-x="379" 
d="M190 -8q-52 0 -89 12t-57 48.5t-20 110.5v201q0 79 42.5 109.5t123.5 30.5t123 -30t42 -110v-200q0 -75 -19.5 -111.5t-56.5 -48.5t-89 -12zM190 71q14 0 21.5 9.5t7.5 34.5v266q0 23 -7 33t-22 10q-14 0 -22 -9.5t-8 -33.5v-266q0 -25 8 -34.5t22 -9.5zM152 549v11
q0 15 10.5 22.5t20.5 14.5t10 18v6q0 7 -3 14t-11 7q-14 0 -15 -21l-59 9q2 30 22 45t58 15q42 0 63.5 -11.5t21.5 -54.5v-4q0 -23 -11.5 -31.5t-23 -13t-11.5 -16.5v-10h-72z" />
    <glyph glyph-name="uni1ED0" unicode="&#x1ed0;" horiz-adv-x="399" 
d="M198 -12q-51 0 -89.5 12.5t-60 50.5t-21.5 114v301q0 51 21.5 80t60 41.5t89.5 12.5t90 -12.5t61.5 -41.5t22.5 -80v-300q0 -77 -22.5 -115t-61.5 -50.5t-90 -12.5zM198 69q10 0 18.5 4t12.5 13.5t4 25.5v360q0 15 -4 25t-12.5 14t-18.5 4t-18 -4t-12.5 -14t-4.5 -25
v-360q0 -16 4.5 -25.5t12.5 -13.5t18 -4zM92 625l72 88h70l73 -88h-77l-30 34l-29 -34h-79zM306 686l41 78h117l-81 -78h-77z" />
    <glyph glyph-name="uni1ED1" unicode="&#x1ed1;" horiz-adv-x="379" 
d="M190 -8q-52 0 -89 12t-57 48.5t-20 110.5v201q0 79 42.5 109.5t123.5 30.5t123 -30t42 -110v-200q0 -75 -19.5 -111.5t-56.5 -48.5t-89 -12zM190 71q14 0 21.5 9.5t7.5 34.5v266q0 23 -7 33t-22 10q-14 0 -22 -9.5t-8 -33.5v-266q0 -25 8 -34.5t22 -9.5zM55 545l97 111
h74l98 -111h-88l-46 46l-45 -46h-90zM325 604l58 103h120l-101 -103h-77z" />
    <glyph glyph-name="uni1ED2" unicode="&#x1ed2;" horiz-adv-x="399" 
d="M198 -12q-51 0 -89.5 12.5t-60 50.5t-21.5 114v301q0 51 21.5 80t60 41.5t89.5 12.5t90 -12.5t61.5 -41.5t22.5 -80v-300q0 -77 -22.5 -115t-61.5 -50.5t-90 -12.5zM198 69q10 0 18.5 4t12.5 13.5t4 25.5v360q0 15 -4 25t-12.5 14t-18.5 4t-18 -4t-12.5 -14t-4.5 -25
v-360q0 -16 4.5 -25.5t12.5 -13.5t18 -4zM92 625l72 88h70l73 -88h-77l-30 34l-29 -34h-79zM331 684l-81 78h117l41 -78h-77z" />
    <glyph glyph-name="uni1ED3" unicode="&#x1ed3;" horiz-adv-x="379" 
d="M190 -8q-52 0 -89 12t-57 48.5t-20 110.5v201q0 79 42.5 109.5t123.5 30.5t123 -30t42 -110v-200q0 -75 -19.5 -111.5t-56.5 -48.5t-89 -12zM190 71q14 0 21.5 9.5t7.5 34.5v266q0 23 -7 33t-22 10q-14 0 -22 -9.5t-8 -33.5v-266q0 -25 8 -34.5t22 -9.5zM55 545l97 111
h74l98 -111h-88l-46 46l-45 -46h-90zM348 604l-101 103h121l57 -103h-77z" />
    <glyph glyph-name="uni1ED4" unicode="&#x1ed4;" horiz-adv-x="399" 
d="M198 -12q-51 0 -89.5 12.5t-60 50.5t-21.5 114v301q0 51 21.5 80t60 41.5t89.5 12.5t90 -12.5t61.5 -41.5t22.5 -80v-300q0 -77 -22.5 -115t-61.5 -50.5t-90 -12.5zM198 69q10 0 18.5 4t12.5 13.5t4 25.5v360q0 15 -4 25t-12.5 14t-18.5 4t-18 -4t-12.5 -14t-4.5 -25
v-360q0 -16 4.5 -25.5t12.5 -13.5t18 -4zM92 625l72 88h70l73 -88h-77l-30 34l-29 -34h-79zM306 679v5q0 10 8 16t16.5 10.5t8.5 11.5v5q0 7 -2.5 9.5t-5.5 2.5q-8 0 -9 -12l-53 7q2 24 17 37t50 13q40 0 56 -9.5t16 -43.5v-4q0 -16 -7.5 -22t-15.5 -9t-8 -11v-6h-71z" />
    <glyph glyph-name="uni1ED5" unicode="&#x1ed5;" horiz-adv-x="379" 
d="M190 -8q-52 0 -89 12t-57 48.5t-20 110.5v201q0 79 42.5 109.5t123.5 30.5t123 -30t42 -110v-200q0 -75 -19.5 -111.5t-56.5 -48.5t-89 -12zM190 71q14 0 21.5 9.5t7.5 34.5v266q0 23 -7 33t-22 10q-14 0 -22 -9.5t-8 -33.5v-266q0 -25 8 -34.5t22 -9.5zM55 545l97 111
h74l98 -111h-88l-46 46l-45 -46h-90zM334 604v11q0 15 10.5 22.5t20.5 14.5t10 18v6q0 7 -3 14t-11 7q-14 0 -15 -21l-59 9q2 30 22 45t58 15q42 0 63.5 -11.5t21.5 -54.5v-4q0 -23 -11.5 -31.5t-23 -13t-11.5 -16.5v-10h-72z" />
    <glyph glyph-name="uni1ED6" unicode="&#x1ed6;" horiz-adv-x="399" 
d="M198 -12q-51 0 -89.5 12.5t-60 50.5t-21.5 114v301q0 51 21.5 80t60 41.5t89.5 12.5t90 -12.5t61.5 -41.5t22.5 -80v-300q0 -77 -22.5 -115t-61.5 -50.5t-90 -12.5zM198 69q10 0 18.5 4t12.5 13.5t4 25.5v360q0 15 -4 25t-12.5 14t-18.5 4t-18 -4t-12.5 -14t-4.5 -25
v-360q0 -16 4.5 -25.5t12.5 -13.5t18 -4zM92 625l72 88h70l73 -88h-77l-30 34l-29 -34h-79zM237 732q-13 0 -24.5 5t-21.5 10t-18.5 7.5t-16.5 2.5q-9 0 -14 -7.5t-5 -16.5h-33q-1 37 14 60t40 23q12 0 24 -3t22 -9q9 -4 17 -7.5t17 -3.5q12 0 16 7t5 14h38
q1 -27 -9.5 -45.5t-24.5 -27.5t-26 -9z" />
    <glyph glyph-name="uni1ED7" unicode="&#x1ed7;" horiz-adv-x="379" 
d="M190 -8q-52 0 -89 12t-57 48.5t-20 110.5v201q0 79 42.5 109.5t123.5 30.5t123 -30t42 -110v-200q0 -75 -19.5 -111.5t-56.5 -48.5t-89 -12zM190 71q14 0 21.5 9.5t7.5 34.5v266q0 23 -7 33t-22 10q-14 0 -22 -9.5t-8 -33.5v-266q0 -25 8 -34.5t22 -9.5zM55 545l97 111
h74l98 -111h-88l-46 46l-45 -46h-90zM238 680q-16 0 -30 6.5t-28 14.5q-11 6 -22.5 11t-23.5 5q-13 0 -20 -10t-8 -26h-38q0 44 18.5 70.5t49.5 26.5q17 0 31.5 -5.5t26.5 -12.5q12 -6 23 -11t22 -5q15 0 22 9t9 22h42q-1 -31 -12.5 -52t-28 -32t-33.5 -11z" />
    <glyph glyph-name="uni1ED8" unicode="&#x1ed8;" horiz-adv-x="399" 
d="M198 -12q-51 0 -89.5 12.5t-60 50.5t-21.5 114v301q0 51 21.5 80t60 41.5t89.5 12.5t90 -12.5t61.5 -41.5t22.5 -80v-300q0 -77 -22.5 -115t-61.5 -50.5t-90 -12.5zM198 69q10 0 18.5 4t12.5 13.5t4 25.5v360q0 15 -4 25t-12.5 14t-18.5 4t-18 -4t-12.5 -14t-4.5 -25
v-360q0 -16 4.5 -25.5t12.5 -13.5t18 -4zM200 -139q-23 0 -38.5 15.5t-15.5 36.5q0 22 15.5 37.5t38.5 15.5q22 0 38.5 -15.5t16.5 -37.5q0 -21 -16.5 -36.5t-38.5 -15.5zM63 631l99 105h74l100 -104h-93l-43 37l-43 -38h-94z" />
    <glyph glyph-name="uni1ED9" unicode="&#x1ed9;" horiz-adv-x="379" 
d="M190 -8q-52 0 -89 12t-57 48.5t-20 110.5v201q0 79 42.5 109.5t123.5 30.5t123 -30t42 -110v-200q0 -75 -19.5 -111.5t-56.5 -48.5t-89 -12zM190 71q14 0 21.5 9.5t7.5 34.5v266q0 23 -7 33t-22 10q-14 0 -22 -9.5t-8 -33.5v-266q0 -25 8 -34.5t22 -9.5zM189 -139
q-23 0 -38.5 15.5t-15.5 36.5q0 22 15.5 37.5t38.5 15.5q22 0 38.5 -15.5t16.5 -37.5q0 -21 -16.5 -36.5t-38.5 -15.5zM55 545l97 111h74l98 -111h-88l-46 46l-45 -46h-90z" />
    <glyph glyph-name="uni1EDA" unicode="&#x1eda;" horiz-adv-x="399" 
d="M198 -12q-51 0 -89.5 12.5t-60 50.5t-21.5 114v301q0 51 21.5 80t60 41.5t89.5 12.5t90 -12.5t61.5 -41.5t22.5 -80v-300q0 -77 -22.5 -115t-61.5 -50.5t-90 -12.5zM198 69q10 0 18.5 4t12.5 13.5t4 25.5v360q0 15 -4 25t-12.5 14t-18.5 4t-18 -4t-12.5 -14t-4.5 -25
v-360q0 -16 4.5 -25.5t12.5 -13.5t18 -4zM245 532l-1 59h19q44 0 44 46v20h88v-19q0 -58 -37.5 -82t-112.5 -24zM134 635l78 98h122l-124 -98h-76z" />
    <glyph glyph-name="uni1EDB" unicode="&#x1edb;" horiz-adv-x="379" 
d="M190 -8q-52 0 -89 12t-57 48.5t-20 110.5v201q0 79 42.5 109.5t123.5 30.5t123 -30t42 -110v-200q0 -75 -19.5 -111.5t-56.5 -48.5t-89 -12zM190 71q14 0 21.5 9.5t7.5 34.5v266q0 23 -7 33t-22 10q-14 0 -22 -9.5t-8 -33.5v-266q0 -25 8 -34.5t22 -9.5zM240 435l-1 59
h19q44 0 44 46v20h88v-19q0 -58 -37.5 -82t-112.5 -24zM143 549l58 103h120l-101 -103h-77z" />
    <glyph glyph-name="uni1EDC" unicode="&#x1edc;" horiz-adv-x="399" 
d="M198 -12q-51 0 -89.5 12.5t-60 50.5t-21.5 114v301q0 51 21.5 80t60 41.5t89.5 12.5t90 -12.5t61.5 -41.5t22.5 -80v-300q0 -77 -22.5 -115t-61.5 -50.5t-90 -12.5zM198 69q10 0 18.5 4t12.5 13.5t4 25.5v360q0 15 -4 25t-12.5 14t-18.5 4t-18 -4t-12.5 -14t-4.5 -25
v-360q0 -16 4.5 -25.5t12.5 -13.5t18 -4zM245 532l-1 59h19q44 0 44 46v20h88v-19q0 -58 -37.5 -82t-112.5 -24zM178 635l-115 94h125l74 -94h-84z" />
    <glyph glyph-name="uni1EDD" unicode="&#x1edd;" horiz-adv-x="379" 
d="M190 -8q-52 0 -89 12t-57 48.5t-20 110.5v201q0 79 42.5 109.5t123.5 30.5t123 -30t42 -110v-200q0 -75 -19.5 -111.5t-56.5 -48.5t-89 -12zM190 71q14 0 21.5 9.5t7.5 34.5v266q0 23 -7 33t-22 10q-14 0 -22 -9.5t-8 -33.5v-266q0 -25 8 -34.5t22 -9.5zM240 435l-1 59
h19q44 0 44 46v20h88v-19q0 -58 -37.5 -82t-112.5 -24zM166 549l-101 103h121l57 -103h-77z" />
    <glyph glyph-name="uni1EDE" unicode="&#x1ede;" horiz-adv-x="399" 
d="M198 -12q-51 0 -89.5 12.5t-60 50.5t-21.5 114v301q0 51 21.5 80t60 41.5t89.5 12.5t90 -12.5t61.5 -41.5t22.5 -80v-300q0 -77 -22.5 -115t-61.5 -50.5t-90 -12.5zM198 69q10 0 18.5 4t12.5 13.5t4 25.5v360q0 15 -4 25t-12.5 14t-18.5 4t-18 -4t-12.5 -14t-4.5 -25
v-360q0 -16 4.5 -25.5t12.5 -13.5t18 -4zM245 532l-1 59h19q44 0 44 46v20h88v-19q0 -58 -37.5 -82t-112.5 -24zM161 627v11q0 15 10.5 22.5t20.5 14.5t10 18v6q0 7 -3 14t-11 7q-14 0 -15 -21l-59 9q2 30 22 45t58 15q42 0 63.5 -11.5t21.5 -54.5v-4q0 -23 -11.5 -31.5
t-23 -13t-11.5 -16.5v-10h-72z" />
    <glyph glyph-name="uni1EDF" unicode="&#x1edf;" horiz-adv-x="379" 
d="M190 -8q-52 0 -89 12t-57 48.5t-20 110.5v201q0 79 42.5 109.5t123.5 30.5t123 -30t42 -110v-200q0 -75 -19.5 -111.5t-56.5 -48.5t-89 -12zM190 71q14 0 21.5 9.5t7.5 34.5v266q0 23 -7 33t-22 10q-14 0 -22 -9.5t-8 -33.5v-266q0 -25 8 -34.5t22 -9.5zM240 435l-1 59
h19q44 0 44 46v20h88v-19q0 -58 -37.5 -82t-112.5 -24zM152 549v11q0 15 10.5 22.5t20.5 14.5t10 18v6q0 7 -3 14t-11 7q-14 0 -15 -21l-59 9q2 30 22 45t58 15q42 0 63.5 -11.5t21.5 -54.5v-4q0 -23 -11.5 -31.5t-23 -13t-11.5 -16.5v-10h-72z" />
    <glyph glyph-name="uni1EE0" unicode="&#x1ee0;" horiz-adv-x="399" 
d="M198 -12q-51 0 -89.5 12.5t-60 50.5t-21.5 114v301q0 51 21.5 80t60 41.5t89.5 12.5t90 -12.5t61.5 -41.5t22.5 -80v-300q0 -77 -22.5 -115t-61.5 -50.5t-90 -12.5zM198 69q10 0 18.5 4t12.5 13.5t4 25.5v360q0 15 -4 25t-12.5 14t-18.5 4t-18 -4t-12.5 -14t-4.5 -25
v-360q0 -16 4.5 -25.5t12.5 -13.5t18 -4zM245 532l-1 59h19q44 0 44 46v20h88v-19q0 -58 -37.5 -82t-112.5 -24zM243 636q-16 0 -30 6.5t-28 14.5q-11 6 -22.5 11t-23.5 5q-13 0 -20 -10t-8 -26h-38q0 44 18.5 70.5t49.5 26.5q17 0 31.5 -5.5t26.5 -12.5q12 -6 23 -11t22 -5
q15 0 22 9t9 22h42q-1 -31 -12.5 -52t-28 -32t-33.5 -11z" />
    <glyph glyph-name="uni1EE1" unicode="&#x1ee1;" horiz-adv-x="379" 
d="M190 -8q-52 0 -89 12t-57 48.5t-20 110.5v201q0 79 42.5 109.5t123.5 30.5t123 -30t42 -110v-200q0 -75 -19.5 -111.5t-56.5 -48.5t-89 -12zM190 71q14 0 21.5 9.5t7.5 34.5v266q0 23 -7 33t-22 10q-14 0 -22 -9.5t-8 -33.5v-266q0 -25 8 -34.5t22 -9.5zM240 435l-1 59
h19q44 0 44 46v20h88v-19q0 -58 -37.5 -82t-112.5 -24zM237 549q-16 0 -30 6.5t-28 14.5q-11 6 -22.5 11t-23.5 5q-13 0 -20 -10t-8 -26h-38q0 44 18.5 70.5t49.5 26.5q17 0 31.5 -5.5t26.5 -12.5q12 -6 23 -11t22 -5q15 0 22 9t9 22h42q-1 -31 -12.5 -52t-28 -32t-33.5 -11
z" />
    <glyph glyph-name="uni1EE2" unicode="&#x1ee2;" horiz-adv-x="399" 
d="M198 -12q-51 0 -89.5 12.5t-60 50.5t-21.5 114v301q0 51 21.5 80t60 41.5t89.5 12.5t90 -12.5t61.5 -41.5t22.5 -80v-300q0 -77 -22.5 -115t-61.5 -50.5t-90 -12.5zM198 69q10 0 18.5 4t12.5 13.5t4 25.5v360q0 15 -4 25t-12.5 14t-18.5 4t-18 -4t-12.5 -14t-4.5 -25
v-360q0 -16 4.5 -25.5t12.5 -13.5t18 -4zM245 532l-1 59h19q44 0 44 46v20h88v-19q0 -58 -37.5 -82t-112.5 -24zM200 -139q-23 0 -38.5 15.5t-15.5 36.5q0 22 15.5 37.5t38.5 15.5q22 0 38.5 -15.5t16.5 -37.5q0 -21 -16.5 -36.5t-38.5 -15.5z" />
    <glyph glyph-name="uni1EE3" unicode="&#x1ee3;" horiz-adv-x="379" 
d="M190 -8q-52 0 -89 12t-57 48.5t-20 110.5v201q0 79 42.5 109.5t123.5 30.5t123 -30t42 -110v-200q0 -75 -19.5 -111.5t-56.5 -48.5t-89 -12zM190 71q14 0 21.5 9.5t7.5 34.5v266q0 23 -7 33t-22 10q-14 0 -22 -9.5t-8 -33.5v-266q0 -25 8 -34.5t22 -9.5zM240 435l-1 59
h19q44 0 44 46v20h88v-19q0 -58 -37.5 -82t-112.5 -24zM189 -139q-23 0 -38.5 15.5t-15.5 36.5q0 22 15.5 37.5t38.5 15.5q22 0 38.5 -15.5t16.5 -37.5q0 -21 -16.5 -36.5t-38.5 -15.5z" />
    <glyph glyph-name="uni1EE4" unicode="&#x1ee4;" horiz-adv-x="404" 
d="M202 -12q-38 0 -69 5.5t-53.5 21.5t-35 49.5t-12.5 90.5v436h139v-476q0 -16 4 -25.5t11 -13t16 -3.5t16.5 3.5t11.5 13t4 25.5v476h138v-435q0 -57 -12 -91t-34.5 -50t-54 -21.5t-69.5 -5.5zM202 -139q-23 0 -38.5 15.5t-15.5 36.5q0 22 15.5 37.5t38.5 15.5
q22 0 38.5 -15.5t16.5 -37.5q0 -21 -16.5 -36.5t-38.5 -15.5z" />
    <glyph glyph-name="uni1EE5" unicode="&#x1ee5;" horiz-adv-x="391" 
d="M141 -7q-46 0 -70 15.5t-33 45t-9 70.5v371h136v-365q0 -12 2.5 -21t9 -14.5t18.5 -5.5q8 0 13.5 2t9.5 5t6 6v393h136v-495h-116l-11 63q-9 -30 -33.5 -50t-58.5 -20zM195 -139q-23 0 -38.5 15.5t-15.5 36.5q0 22 15.5 37.5t38.5 15.5q22 0 38.5 -15.5t16.5 -37.5
q0 -21 -16.5 -36.5t-38.5 -15.5z" />
    <glyph glyph-name="uni1EE6" unicode="&#x1ee6;" horiz-adv-x="404" 
d="M202 -12q-38 0 -69 5.5t-53.5 21.5t-35 49.5t-12.5 90.5v436h139v-476q0 -16 4 -25.5t11 -13t16 -3.5t16.5 3.5t11.5 13t4 25.5v476h138v-435q0 -57 -12 -91t-34.5 -50t-54 -21.5t-69.5 -5.5zM163 627v11q0 15 10.5 22.5t20.5 14.5t10 18v6q0 7 -3 14t-11 7
q-14 0 -15 -21l-59 9q2 30 22 45t58 15q42 0 63.5 -11.5t21.5 -54.5v-4q0 -23 -11.5 -31.5t-23 -13t-11.5 -16.5v-10h-72z" />
    <glyph glyph-name="uni1EE7" unicode="&#x1ee7;" horiz-adv-x="391" 
d="M141 -7q-46 0 -70 15.5t-33 45t-9 70.5v371h136v-365q0 -12 2.5 -21t9 -14.5t18.5 -5.5q8 0 13.5 2t9.5 5t6 6v393h136v-495h-116l-11 63q-9 -30 -33.5 -50t-58.5 -20zM158 549v11q0 15 10.5 22.5t20.5 14.5t10 18v6q0 7 -3 14t-11 7q-14 0 -15 -21l-59 9q2 30 22 45
t58 15q42 0 63.5 -11.5t21.5 -54.5v-4q0 -23 -11.5 -31.5t-23 -13t-11.5 -16.5v-10h-72z" />
    <glyph glyph-name="uni1EE8" unicode="&#x1ee8;" horiz-adv-x="404" 
d="M202 -12q-38 0 -69 5.5t-53.5 21.5t-35 49.5t-12.5 90.5v436h139v-476q0 -16 4 -25.5t11 -13t16 -3.5t16.5 3.5t11.5 13t4 25.5v476h138v-435q0 -57 -12 -91t-34.5 -50t-54 -21.5t-69.5 -5.5zM263 532l-1 59h19q44 0 44 46v20h88v-19q0 -58 -37.5 -82t-112.5 -24z
M137 635l78 98h122l-124 -98h-76z" />
    </font>
</defs>
</svg>
