<?xml version="1.0" standalone="no"?>
<!DOCTYPE svg PUBLIC "-//W3C//DTD SVG 1.1//EN" "http://www.w3.org/Graphics/SVG/1.1/DTD/svg11.dtd" >
<svg xmlns="http://www.w3.org/2000/svg" xmlns:xlink="http://www.w3.org/1999/xlink" version="1.1">
<metadata>
Created by FontForge 20170731 at Thu May 20 10:16:17 2021
 By Aleksey,,,
Copyright (c)Ibey Design Studio. All Rights Reserveds TM
</metadata>
<defs>
<font id="HashibaRegular" horiz-adv-x="334" >
  <font-face 
    font-family="Hashiba"
    font-weight="400"
    font-stretch="normal"
    units-per-em="1000"
    panose-1="0 0 0 0 0 0 0 0 0 0"
    ascent="800"
    descent="-200"
    x-height="464"
    cap-height="861"
    bbox="-206.25 -369 788 986.143"
    underline-thickness="0"
    underline-position="0"
    unicode-range="U+000A-2122"
  />
<missing-glyph horiz-adv-x="527" 
d="M50 700h427v-700h-427v700zM78 680l185 -309l186 309h-371zM251 350l-180 300v-601zM264 329l-185 -308h370zM276 350l181 -303v605z" />
    <glyph glyph-name=".notdef" horiz-adv-x="527" 
d="M50 700h427v-700h-427v700zM78 680l185 -309l186 309h-371zM251 350l-180 300v-601zM264 329l-185 -308h370zM276 350l181 -303v605z" />
    <glyph glyph-name=".null" horiz-adv-x="0" 
 />
    <glyph glyph-name=".null" horiz-adv-x="0" 
 />
    <glyph glyph-name="nonmarkingreturn" horiz-adv-x="333" 
 />
    <glyph glyph-name="controlLF" unicode="&#xa;" horiz-adv-x="0" 
 />
    <glyph glyph-name="controlCR" unicode="&#xd;" horiz-adv-x="0" 
 />
    <glyph glyph-name="space" unicode=" " horiz-adv-x="235" 
 />
    <glyph glyph-name="exclam" unicode="!" horiz-adv-x="199" 
d="M94 90q4 0 7.5 -3.5t2.5 -7.5l-16 -84q-1 -6 -7 -6h-82q-5 0 -8 4t-3 8l16 83q1 6 7 6h83zM236 816l-140 -644l-70 53l54 524z" />
    <glyph glyph-name="quotedbl" unicode="&#x22;" horiz-adv-x="361" 
d="M167 836q5 0 7.5 -3.5t0.5 -7.5l-29 -81q-2 -5 -8 -5h-80q-4 0 -6.5 3.5t-0.5 7.5l31 86l8 22q2 6 8 5.5t8 -6.5l2 -14q2 -7 9 -7h50zM302 836q5 0 7.5 -3.5t0.5 -7.5l-29 -81q-2 -5 -8 -5h-80q-4 0 -6.5 3.5t-0.5 7.5l31 86l8 22q2 6 8 5.5t8 -6.5l2 -14q2 -7 9 -7h50z
" />
    <glyph glyph-name="numbersign" unicode="#" horiz-adv-x="636" 
d="M553 477l-18 -110h68l-48 -83h-33l-46 -281q0 -2 -2.5 -3t-4.5 1l-94 73q-2 1 -2 4l34 206h-133l-46 -281q-1 -2 -3 -3t-4 1l-95 73q-1 1 -1 4l34 206h-106q-2 0 -2.5 1.5t-0.5 2.5l46 77q1 1 2 1l66 1h8l18 110h-90q-2 0 -3 1.5t0 2.5l46 77q0 1 2 1h59l36 224q1 2 3 3
l115 51q2 1 4 -0.5t1 -3.5l-44 -274h8l125 1l37 223q0 2 2 3l115 51q2 1 4 -0.5t2 -3.5l-45 -273h83l-48 -83h-49zM421 367l18 110h-129h-5l-18 -110h134z" />
    <glyph glyph-name="dollar" unicode="$" horiz-adv-x="279" 
d="M245 609q26 -20 35 -51q1 -5 -3 -8l-46 -39l-2 -1l-22 -140q22 -41 22 -72q0 -66 -48 -98l-31 -195q-1 -2 -3 -3t-4 0l-91 73q-2 2 -1 4l17 107q-25 8 -43.5 27t-25.5 33t-11 28q-2 6 4 9l58 34q8 5 12 -3q9 -23 20 -36l18 115q-10 18 -16.5 30t-14 29.5t-11.5 35
t-4 34.5q0 39 24 67.5t59 38.5l25 157q0 2 2 3l111 51q2 1 4 -0.5t2 -3.5z" />
    <glyph glyph-name="percent" unicode="%" horiz-adv-x="662" 
d="M261 541.5q-31 5.5 -45.5 50.5t-4.5 103.5t39.5 96t60.5 32t45.5 -50.5t4.5 -103.5t-39.5 -96t-60.5 -32zM265.5 686q-6.5 -35 -4.5 -61.5t10 -28t18.5 22.5t17 59.5t5 61.5t-10 27.5t-19 -22.5t-17 -59zM380 284.5q31 -5.5 45.5 -50.5t4.5 -103.5t-39.5 -96t-60.5 -32
t-45.5 50.5t-4 103.5t39.5 96t60 32zM375.5 139.5q6.5 35.5 5 61.5t-10 27.5t-19 -22.5t-16.5 -59t-4.5 -61.5t10 -28t18.5 22.5t16.5 59.5zM502 832h110l-481 -817l-81 48z" />
    <glyph glyph-name="ampersand" unicode="&#x26;" horiz-adv-x="552" 
d="M393 435h108l-41 -99h-38q-2 -36 -10 -76t-25.5 -84.5t-42.5 -80t-64 -58.5t-86 -23q-25 0 -49.5 5t-53 19.5t-49.5 37.5t-35 63t-14 91q0 43 10.5 82.5t27 69t37 54t41 39.5t38.5 23t31 8q-3 1 -7 3.5t-15 12t-19.5 21t-15 30.5t-6.5 42q0 25 7.5 53t25.5 58t43.5 53.5
t65 38.5t86.5 15q58 0 102 -36.5t44 -92.5l-81 -52q0 17 -5.5 32t-15.5 27t-25 19t-33 7q-39 0 -71.5 -36t-32.5 -84q0 -29 16.5 -62.5t33.5 -52.5l16 -19q-4 -1 -10.5 -4t-26 -14.5t-37 -25t-39 -37t-37 -50t-26 -64.5t-10.5 -80q0 -41 25 -69.5t60 -28.5q41 0 81 61.5
t42 164.5h-79l41 99h118z" />
    <glyph glyph-name="quotesingle" unicode="'" horiz-adv-x="130" 
d="M182 836q4 0 6.5 -3.5t1.5 -7.5l-30 -81q-2 -5 -8 -5h-79q-5 0 -7 3.5t-1 7.5l31 86l8 22q2 6 8.5 5.5t7.5 -6.5l3 -14q1 -7 8 -7h51z" />
    <glyph glyph-name="parenleft" unicode="(" horiz-adv-x="258" 
d="M203 839h115l-21 -109h-21q-27 0 -47.5 -16.5t-25.5 -41.5l-93 -504q-4 -19 9.5 -34t33.5 -15h31l-20 -110h-115q-32 0 -53.5 24t-15.5 55l125 672q6 34 34 56.5t64 22.5z" />
    <glyph glyph-name="parenright" unicode=")" horiz-adv-x="260" 
d="M216 839q32 0 53 -24t16 -55l-125 -672q-6 -34 -34 -56.5t-64 -22.5h-115l20 110h22q27 0 47.5 16.5t25.5 41.5l93 503q4 19 -9.5 34.5t-34.5 15.5h-31l21 109h115z" />
    <glyph glyph-name="asterisk" unicode="*" horiz-adv-x="384" 
d="M334 747l-81 -43l66 -42l-40 -53l-66 43l-15 -85h-61l15 85l-81 -43l-21 53l81 42l-66 43l40 52l66 -42l14 85h62l-15 -85l80 42z" />
    <glyph glyph-name="plus" unicode="+" horiz-adv-x="588" 
d="M343 468l195 1l-44 -86l-164 -1l-32 -216q-1 -6 -6 -3l-78 63q-1 1 -1 3l22 153l-36 -1l-146 -1q-5 0 -3 5l40 79q1 2 3 2l58 1h97l25 173q0 2 2 2l95 44q1 1 3 -0.5t1 -3.5z" />
    <glyph glyph-name="comma" unicode="," horiz-adv-x="210" 
d="M139 89q4 0 6.5 -3.5t0.5 -7.5l-31 -86l-8 -22q-2 -6 -8.5 -5.5t-7.5 7.5l-3 13q-1 7 -8 7h-50q-5 0 -7.5 3.5t-0.5 7.5l29 81q2 5 8 5h80z" />
    <glyph glyph-name="hyphen" unicode="-" horiz-adv-x="420" 
d="M362 339q4 0 6.5 -4t1.5 -8l-30 -80q-2 -6 -7 -6h-275q-4 0 -6.5 3.5t-0.5 7.5l29 81q2 6 8 6h274z" />
    <glyph glyph-name="period" unicode="." horiz-adv-x="210" 
d="M139 89q2 0 4.5 -1.5t3 -4t-0.5 -5.5l-29 -81q-2 -5 -8 -5h-79q-5 0 -7.5 3.5t-0.5 7.5l29 81q2 5 8 5h80z" />
    <glyph glyph-name="slash" unicode="/" horiz-adv-x="682" 
d="M518 837h114l-498 -848l-84 51z" />
    <glyph glyph-name="zero" unicode="0" horiz-adv-x="453" 
d="M300 825.5q54 -9.5 90 -74t44.5 -161t-10.5 -213.5q-19 -113 -62.5 -204t-99 -138t-109 -37.5t-89.5 74t-44.5 161t9.5 213.5q20 113 63.5 203.5t98.5 138t109 38zM304 398q24 134 18 233.5t-38 104.5q-21 4 -46.5 -36.5t-49 -113.5t-38.5 -161q-24 -135 -18 -234
t37 -105q21 -3 46.5 37t49 113t39.5 162z" />
    <glyph glyph-name="one" unicode="1" horiz-adv-x="279" 
d="M254 692l-95 -601l58 2l-44 -84l-27 -1l-43 -2l-160 -6q-2 0 -3 1.5t0 3.5l41 78q1 1 3 2l63 2l87 549l-24 -11q-9 -4 -12 6l-32 86q-2 8 5 11l85 39l111 52q3 0 4.5 -1t1.5 -4l-19 -118v-4z" />
    <glyph glyph-name="two" unicode="2" horiz-adv-x="379" 
d="M252 829q26 0 50 -7t44 -21t33 -34q21 -31 21 -72q0 -80 -37 -149v-1l-10 -16l-275 -429h41h127l63 -110h-126h-96h-74l-63 109v1h1l313 488v1q12 21 20 45.5t11 49t-6 40t-32 15.5q-19 0 -37 -11.5t-30 -28.5t-21 -34t-14 -29l-4 -11l-75 50l5.5 16.5t18 37t32.5 47
t50.5 37t69.5 16.5z" />
    <glyph glyph-name="three" unicode="3" horiz-adv-x="393" 
d="M221 822q38 0 65 -13t41.5 -35.5t21.5 -48t7 -54.5q0 -40 -38 -114t-74 -110q5 -2 12.5 -6t26.5 -18.5t34 -31t27 -44.5t12 -59q0 -33 -8 -69t-28.5 -75.5t-49.5 -71t-76 -51.5t-104 -20q-44 0 -67 9q-6 3 -8 9l-30 65q-4 8 1.5 16t14.5 7q39 -2 81 -2q54 0 109 47
t55 110q0 34 -14.5 60.5t-38 42.5t-44.5 25t-43 14q-10 2 -12.5 11.5t4.5 16.5q33 34 63 69t61 85.5t31 82.5q0 25 -12.5 41t-36.5 16q-33 0 -90 -82q-5 -6 -12 -7t-13 4l-45 37q-12 9 -4 22q11 17 25 34t37.5 39t55 35.5t63.5 13.5z" />
    <glyph glyph-name="four" unicode="4" horiz-adv-x="470" 
d="M426 829l-64 -361l124 51l-29 -128l-117 -49l-24 -133l-22 -128l-15 -84l-100 79l18 101l22 115l-96 -40l-25 25l-59 60l-22 22l54 100l72 134l76 140l88 41l57 26zM242 419l36 194l-122 -229z" />
    <glyph glyph-name="five" unicode="5" horiz-adv-x="415" 
d="M254 515q18 0 38.5 -8t42 -26t36 -54.5t15.5 -85.5q2 -78 -43 -159.5t-116 -135t-140 -53.5q-12 0 -23 1t-17 2l-5 1l-61 107q36 -15 71 -15q20 0 48.5 10t60 31.5t58.5 50.5t44 72t16 91q-1 70 -63 70q-38 0 -175 -80q-8 -5 -15.5 0.5t-5.5 13.5l58 374l294 105
l-27 -138l-179 -67l-14 -137q61 30 102 30z" />
    <glyph glyph-name="six" unicode="6" horiz-adv-x="483" 
d="M358 705q-23 0 -54 -19.5t-63.5 -54t-62.5 -91.5t-47 -124q72 65 155 65q34 0 62 -12t45.5 -32t29 -46t16.5 -52t5 -53t-8 -63t-27 -77.5t-46 -76t-69.5 -57.5t-93 -23t-88 17.5t-58 42.5t-33 59t-15.5 60t-3 53q0 109 29 217.5t79 195t123 140t153 53.5q19 0 38 -6
t31.5 -15t22.5 -18t14 -15l5 -6l-62 -88l-2 2t-4.5 3.5t-8 5t-11.5 5.5t-14 5t-17 3.5t-21 1.5zM256 369q-18 0 -45 -14.5t-56.5 -45t-45.5 -65.5v-2v-1q0 -127 89 -127q54 0 99.5 55.5t45.5 111.5q0 88 -87 88z" />
    <glyph glyph-name="seven" unicode="7" horiz-adv-x="346" 
d="M362 708l-3 -7l-293 -699l-76 114l241 576l3 7l-40 -3l-178 -14l67 120l150 12l51 3l73 6l52 4h3v0z" />
    <glyph glyph-name="eight" unicode="8" horiz-adv-x="449" 
d="M466 633q0 -77 -60.5 -190t-125.5 -166q35 -69 35 -118q0 -39 -14.5 -70t-35.5 -49t-47.5 -30t-49.5 -16.5t-44 -4.5q-24 0 -48 10.5t-46 30t-35.5 54t-13.5 77.5q0 66 40.5 120t90.5 84q-31 75 -31 151q0 131 69 221t159 90q64 0 110.5 -54.5t46.5 -139.5zM144 94
q21 0 41 16t20 45q0 6 -1 12.5t-3 13.5t-3.5 12.5t-5.5 14t-6.5 13.5l-7.5 15t-7.5 14.5t-9 15.5t-9.5 16q-26 -17 -44 -48.5t-18 -73.5q0 -31 16.5 -48.5t37.5 -17.5zM181 502q0 -50 53 -142q53 60 90.5 128t37.5 127q0 18 -1.5 31t-7 26.5t-17 20.5t-29.5 7q-42 0 -84 -57
t-42 -141z" />
    <glyph glyph-name="nine" unicode="9" horiz-adv-x="472" 
d="M273 827q48 0 85.5 -17.5t58 -42.5t33.5 -58.5t16.5 -60t3.5 -52.5q0 -109 -29.5 -218t-79 -195t-122.5 -140t-153 -54q-19 0 -38 6.5t-31.5 15.5t-22.5 17.5t-14 15.5l-5 6l62 87q1 -1 3 -2.5t9.5 -6t16 -8t21.5 -6t28 -2.5q25 0 59.5 22t72.5 69.5t65 110.5
q-45 -28 -100 -28q-34 0 -63 14t-49 36.5t-33.5 50.5t-20 56t-6.5 55q0 39 8.5 82.5t27.5 87.5t45.5 79.5t66 57.5t85.5 22zM244 408q23 0 45 12t41 35t31 53q3 34 3 67q0 128 -89 128q-35 0 -61 -27.5t-37.5 -64.5t-11.5 -76q0 -35 11 -64.5t29 -46t39 -16.5z" />
    <glyph glyph-name="colon" unicode=":" horiz-adv-x="216" 
d="M139 89q2 0 4.5 -1.5t3 -4t-0.5 -5.5l-29 -81q-2 -5 -8 -5h-79q-5 0 -7.5 3.5t-0.5 7.5l29 81q2 5 8 5h80zM214 543q3 0 5.5 -2t3 -4.5t-0.5 -5.5l-29 -80q-2 -6 -8 -6h-80q-4 0 -6.5 3.5t-1.5 7.5l30 81q2 6 8 6h79z" />
    <glyph glyph-name="semicolon" unicode=";" horiz-adv-x="216" 
d="M214 543q5 0 7.5 -4t0.5 -8l-29 -80q-2 -6 -8 -6h-80q-4 0 -6.5 3.5t-1.5 7.5l30 81q2 6 8 6h79zM139 89q4 0 6.5 -3.5t0.5 -7.5l-31 -86l-8 -22q-2 -6 -8.5 -5.5t-7.5 7.5l-3 13q-1 7 -8 7h-50q-5 0 -7.5 3.5t-0.5 7.5l29 81q2 5 8 5h80z" />
    <glyph glyph-name="less" unicode="&#x3c;" horiz-adv-x="317" 
d="M266 816l-142 -404l142 -403h-113l-141 403l141 404h113z" />
    <glyph glyph-name="equal" unicode="=" horiz-adv-x="462" 
d="M334 388q3 0 5.5 -2t3.5 -4.5t0 -5.5l-33 -84q-2 -5 -9 -5h-306q-3 0 -5.5 1.5t-3.5 4t0 5.5l33 84q2 6 9 6h306zM402 584q5 0 7.5 -4t1.5 -8l-33 -84q-2 -5 -9 -5h-306q-3 0 -5.5 1.5t-3.5 4t0 5.5l33 84q2 6 9 6h306z" />
    <glyph glyph-name="greater" unicode="&#x3e;" horiz-adv-x="315" 
d="M163 816l141 -404l-141 -403h-113l142 403l-142 404h113z" />
    <glyph glyph-name="question" unicode="?" horiz-adv-x="380" 
d="M184 90q4 0 7.5 -3.5t2.5 -7.5l-16 -84q-1 -6 -7 -6h-82q-5 0 -8 4t-3 8l16 83q1 6 7 6h83zM246 839q38 0 68 -13.5t47 -34t28.5 -47.5t15.5 -50.5t4 -46.5q0 -37 -19.5 -82t-47.5 -89t-56 -89.5t-47.5 -99t-19.5 -103.5l-101 53q0 46 29 112t63.5 120t63.5 109.5
t29 83.5q0 27 -8.5 45.5t-22 26t-30.5 7.5q-39 0 -68 -43.5t-29 -141.5l-95 45q0 28 7.5 59t23.5 63t38.5 58t55.5 42t71 16z" />
    <glyph glyph-name="at" unicode="@" horiz-adv-x="505" 
d="M232 39q34 0 62 19t42 45t21.5 47t7.5 32l47 3q0 -25 -11 -56.5t-32 -62.5t-57.5 -52t-80.5 -21q-92 0 -157.5 87t-65.5 212q0 53 14 120.5t43 140.5t68.5 134t97 100.5t122.5 39.5q45 0 80 -22t56 -67.5t21 -108.5q0 -69 -18.5 -146.5t-56.5 -137.5t-84 -60q-16 0 -29 5
q-32 12 -45 46q-1 -1 -2.5 -3.5t-6.5 -9t-10 -12t-12.5 -12.5t-14 -12.5t-14 -9t-13.5 -3.5q-14 0 -27 9.5t-21 25.5t-8 34q0 19 4 47t12.5 59t19.5 57.5t27 43.5t32 17q28 0 58 -27l54 24q4 2 8 -1t3 -8l-31 -187q1 -14 8 -23t14 -9q15 0 33 23.5t33.5 61t26 91.5t10.5 109
q0 33 -6.5 60.5t-20 49t-35 33.5t-48.5 12q-23 0 -55 -22t-66.5 -64.5t-64.5 -98t-49 -130.5t-19 -153q0 -48 7 -93t22.5 -85.5t43 -65.5t63.5 -25zM282 424l9 54q-17 34 -35 34q-7 0 -15.5 -18t-15.5 -43.5t-12 -52t-4.5 -43.5t5.5 -18q11 0 28 22.5t29 44.5l11 23v-3z" />
    <glyph glyph-name="A" unicode="A" horiz-adv-x="413" 
d="M438 817l24 10l-48 -357l-19 -147l-16 -118l-28 -208l-109 81l11 74v3l-189 -73l-42 -85l-51 48l-34 33l45 83l322 600l41 17zM271 274l44 301l-180 -354z" />
    <glyph glyph-name="B" unicode="B" horiz-adv-x="539" 
d="M400 457q17 -10 33 -23.5t35.5 -35t31.5 -53t12 -67.5q0 -64 -35 -119t-90 -89.5t-118.5 -53.5t-123.5 -19l-69 4v1h-2l-93 73q-2 2 -2 4l105 650q2 2 6.5 6t19 14.5t30.5 20.5t40.5 22t50 20.5t58 14.5t64.5 6q159 0 159 -152q0 -48 -31 -110t-81 -114zM186 666
l-37 -235q9 -3 14 -3q31 0 72.5 21.5t79.5 54.5t64.5 81.5t26.5 96.5q0 58 -66 58q-69 0 -154 -74zM146 97q55 0 100 17t73 44.5t43 59t15 63.5q0 70 -60 111q-62 -36 -124 -36q-30 0 -55 9l-41 -254q30 -14 49 -14z" />
    <glyph glyph-name="C" unicode="C" horiz-adv-x="438" 
d="M216 101q21 0 35 12.5t19.5 31t7.5 31t2 22.5l120 44q0 -25 -5.5 -54.5t-20 -64t-35.5 -62t-57 -46t-81 -18.5q-51 0 -89.5 22.5t-59.5 61t-31.5 82t-10.5 91.5q0 94 10 176t33 157t58 128.5t88 85.5t120 32q71 0 108.5 -50t37.5 -161l-100 -45v8v20t-1.5 28t-5.5 29.5
t-10.5 28.5t-18 20t-26.5 8q-40 0 -79 -58t-64 -155.5t-25 -203.5q0 -201 81 -201z" />
    <glyph glyph-name="D" unicode="D" horiz-adv-x="440" 
d="M307 827q34 0 62 -16t49.5 -47.5t34 -83.5t12.5 -118q0 -60 -18.5 -134.5t-53.5 -149t-81 -137.5t-107.5 -103.5t-125.5 -41.5q-2 -2 -5 0l-6 5l-25 19l-62 50q-2 2 -1 4l105 668v3q58 40 123 63q54 19 99 19zM98 111q50 0 108.5 75.5t99 186t40.5 203.5q0 138 -66 138
q-49 0 -93 -37l-55 -350l-34 -217v1z" />
    <glyph glyph-name="E" unicode="E" horiz-adv-x="389" 
d="M441 824q2 0 3.5 -1.5t0.5 -4.5l-45 -115q0 -2 -2 -3l-214 -46l-42 -266l129 28q2 1 4 -1t0 -4l-45 -116q0 -2 -2 -2l-105 -23l-24 -156l7 1l239 53q2 0 3.5 -2t0.5 -4l-45 -115q0 -2 -2 -3l-214 -47l-10 -2q-2 -1 -4 1l-6 5l-25 19l-57 46l-5 4q-2 2 -1 4l27 170l18 119
l42 265l19 118l116 26z" />
    <glyph glyph-name="F" unicode="F" horiz-adv-x="271" 
d="M441 824q2 0 3.5 -1.5t0.5 -4.5l-45 -115q0 -2 -2 -3l-214 -46l-42 -266l129 28q2 1 4 -1t0 -4l-45 -116q0 -2 -2 -2l-105 -23l-24 -156l-13 -80l-6 -36q0 -2 -2 -3t-4 1l-6 5l-25 19l-57 46l-5 4q-2 2 -1 4l27 170l18 119l42 265l19 118l116 26z" />
    <glyph glyph-name="G" unicode="G" horiz-adv-x="437" 
d="M405 421q12 4 22.5 -4t9.5 -21q-2 -34 -7.5 -69.5t-16 -82t-28.5 -86t-42.5 -74t-61.5 -54.5t-82 -20q-84 0 -138.5 66t-54.5 166q0 53 4.5 107.5t15 113t26 111.5t39.5 100.5t54 82.5t71 55.5t89 20.5q40 0 76 -20t54 -54l-75 -91q-6 19 -24.5 29.5t-41.5 10.5
q-40 0 -79 -66.5t-63.5 -176t-24.5 -224.5q0 -41 11.5 -67t32 -37t50.5 -11q41 0 68 52t27 109l-57 -23q-6 -2 -11.5 2.5t-4.5 10.5l15 84q1 7 7 9z" />
    <glyph glyph-name="H" unicode="H" horiz-adv-x="474" 
d="M519 861q2 1 4 0t1 -4l-69 -437l-21 -134l-43 -273q0 -2 -2 -3t-4 0l-93 75q-2 1 -1 3l21 139l-210 -101l-18 -113q0 -2 -2.5 -3t-4.5 0l-81 65l-11 10q-2 1 -2 3l18 113l95 606q1 2 3 3l112 51q5 1 6 -4l-94 -597l211 101l70 446q0 2 2 3z" />
    <glyph glyph-name="I" unicode="I" horiz-adv-x="167" 
d="M211 861q5 1 6 -4l-94 -597l-21 -134l-18 -113q0 -2 -2.5 -3t-4.5 0l-81 65l-11 10q-2 1 -2 3l18 113l95 606q1 2 3 3z" />
    <glyph glyph-name="J" unicode="J" horiz-adv-x="324" 
d="M368 854q4 1 6 -4l-76 -482q-2 -11 -3 -14l-5 -36q-16 -92 -41 -162t-72 -107q-40 -32 -94 -32q-40 0 -74.5 12.5t-48 22.5t-23.5 21q-3 4 -1 8l28 80q2 4 6.5 5t7.5 -3q29 -43 78 -43q16 0 29.5 6t24.5 19.5t20 26.5t16.5 36t12.5 38t11 43t8.5 41.5t7 42t5.5 35.5
q0 1 1 3l61 388q0 2 2 3z" />
    <glyph glyph-name="K" unicode="K" horiz-adv-x="432" 
d="M397 6l5 -16q1 -2 -0.5 -3.5t-3.5 -1.5l-8 1l-31 5l-78 14q-2 0 -3 2l-2 5l-83 225l-109 -224l-3 -16q-1 -7 -6 -3l-6 5l-25 20l-62 50q-2 1 -1 3v5l113 714q0 2 2 3l113 51q2 2 4 0.5t2 -4.5l-72 -456l67 129l136 258l136 60l-221 -456l6 -17l21 -56l102 -279z" />
    <glyph glyph-name="L" unicode="L" horiz-adv-x="413" 
d="M384 194q2 1 3.5 -1t1.5 -4l-39 -118q-1 -2 -3 -3l-268 -74h-1q-2 -1 -3 1l-93 74q-2 1 -1 4l1 10l112 708q0 2 2 3l113 52q4 0 6 -5l-115 -726z" />
    <glyph glyph-name="M" unicode="M" horiz-adv-x="680" 
d="M604 855l50 -858l-100 80l-49 496l-202 -575v-1v0l-100 80v1l-9 396l-143 -477l-100 80l236 722l121 56l-3 -514l178 458z" />
    <glyph glyph-name="N" unicode="N" horiz-adv-x="452" 
d="M502 855l-142 -857v-1v0l-101 80v1l-98 427l-77 -508l-102 80l112 722l121 56l88 -518l78 462z" />
    <glyph glyph-name="O" unicode="O" horiz-adv-x="444" 
d="M298.5 846q54.5 -10 91.5 -75.5t45.5 -163.5t-10.5 -217q-20 -114 -64 -206.5t-100 -140.5t-110.5 -38.5t-91 75.5t-45.5 164t10 217q20 114 64 206t100 140.5t110.5 38.5zM303 412q24 136 18 237t-38 106q-21 4 -47 -37t-50 -115t-40 -164q-24 -136 -18 -237t39 -107
q21 -3 46.5 38t49.5 115t40 164z" />
    <glyph glyph-name="P" unicode="P" horiz-adv-x="417" 
d="M467 633q0 -31 -2.5 -65.5t-10 -79t-20 -85t-34.5 -81t-50.5 -69.5t-71 -47.5t-93.5 -18.5q-33 0 -66 14l-29 -205q-1 -2 -3 -3t-4 1l-94 74q-2 1 -1 4l100 718q1 2 3 3q52 31 118 48v0q42 11 77 11q73 0 126 -62t55 -157zM189 294q24 0 48.5 15.5t47 45.5t40 69.5
t27.5 92.5t9 110q-1 46 -25 80.5t-63 34.5q-34 0 -82 -27l-58 -410q26 -11 56 -11z" />
    <glyph glyph-name="Q" unicode="Q" horiz-adv-x="468" 
d="M433 93q6 0 9 -5t1 -10l-22 -65q-3 -9 -12 -8q-51 6 -128 58q-66 -70 -130 -58q-55 9 -91.5 75t-45.5 164t10 217q20 114 64 206t100 140.5t110.5 38.5t91.5 -75.5t45.5 -163.5t-10.5 -217q-26 -150 -91 -257q53 -35 99 -40zM303 412q24 136 18 237t-38 106
q-21 4 -47 -37t-50 -115t-40 -164q-24 -136 -18 -237t39 -107q19 -3 42 31q-6 8 -8 13q-1 5 1 9l30 56q2 5 7.5 5.5t9.5 -2.5q33 87 54 205z" />
    <glyph glyph-name="R" unicode="R" horiz-adv-x="403" 
d="M453 633q1 -40 -9 -88.5t-29.5 -98t-53.5 -94t-76 -68.5l90 -291l-142 80l-49 183h-6q-26 0 -51 4l-37 -264q-1 -2 -3 -3t-4 1l-94 74q-2 2 -1 4l100 718q1 2 3 3v0v0q10 6 31 16q44 21 87 32q41 11 77 11q29 0 54 -10t45.5 -28.5t35.5 -45t23 -61t9 -74.5zM252 389
q43 36 71 100t27 138q-1 49 -20 82t-57 33q-35 0 -82 -27l-50 -355q10 -2 15 -2q10 -2 20 -2q38 0 76 33z" />
    <glyph glyph-name="S" unicode="S" horiz-adv-x="416" 
d="M283 692q-29 0 -54 -24.5t-25 -73.5q0 -32 18.5 -70.5t44.5 -75t52.5 -74t45 -78.5t18.5 -78t-11 -72t-35 -67t-67.5 -51t-102.5 -19q-33 0 -62 11.5t-48.5 29.5t-35.5 40t-25 44t-15.5 40.5t-8.5 29.5l-2 11l99 54q0 -57 34 -101t74 -44q34 0 62 25t28 63q0 25 -19.5 62
t-48 76t-56.5 80.5t-48 90.5t-20 93q0 56 29.5 104t75 74t95.5 26q36 0 67.5 -11.5t53 -30t39 -40.5t27.5 -44.5t17 -41t9 -29.5l3 -12l-99 -45q-1 6 -2.5 14.5t-8.5 30.5t-18 38.5t-32 30.5t-48 14z" />
    <glyph glyph-name="T" unicode="T" horiz-adv-x="297" 
d="M567 863q2 1 3.5 -1t1.5 -4l-43 -116q-1 -2 -3 -3l-218 -53l-109 -691q0 -3 -2 -3.5t-4 0.5l-93 74q-2 2 -1 4l92 588l-168 -41l45 125l142 35l117 28z" />
    <glyph glyph-name="U" unicode="U" horiz-adv-x="430" 
d="M474 821q2 1 4 -0.5t2 -3.5l-73 -472l-46 -293l-5 -35q-2 -7 -7 -3l-6 5l-25 20l-62 49q-1 2 -1 4l11 70q-16 -18 -33 -35t-42.5 -39.5t-52 -36.5t-47.5 -14q-51 0 -78 35t-21 79l2 12q1 3 4 27l1 5v2l2 8v3l87 564l121 56l-98 -641q-2 -9 4 -16.5t17 -7.5q30 0 163 186
l64 417q0 2 2 3z" />
    <glyph glyph-name="V" unicode="V" horiz-adv-x="410" 
d="M393 828l92 -80l-175 -658q-2 -10 -7 -20.5t-15 -24.5t-22.5 -25t-32.5 -18t-44 -7q-22 1 -39.5 10t-29 23.5t-19 36t-11 44t-5.5 51.5l-32 588l109 80l39 -726z" />
    <glyph glyph-name="W" unicode="W" horiz-adv-x="688" 
d="M705 828l83 -80l-244 -658q-4 -13 -13 -27t-24.5 -30.5t-40 -27t-52.5 -10.5q-29 1 -47.5 14t-27.5 36.5t-11.5 50.5t-1.5 64l8 153l-83 -223q-3 -10 -9 -20.5t-17.5 -24.5t-25.5 -25t-34.5 -18t-43.5 -7q-29 1 -47.5 14t-27.5 36.5t-11.5 50.5t-1.5 64l31 588l117 80
l-38 -727l210 567l37 103l47 32l37 25l-3 -57l-6 -103l-29 -567z" />
    <glyph glyph-name="X" unicode="X" horiz-adv-x="513" 
d="M325 433l118 -287l44 -105l-48 -22l-55 -26l-43 104l-92 224l-165 -243l-65 -96l-26 29l-37 43l-14 16l65 96l190 280l-72 175l-45 109l93 73l44 -109l56 -136l122 180l66 97l52 -60l20 -22l2 -3l3 -3l-66 -96z" />
    <glyph glyph-name="Y" unicode="Y" horiz-adv-x="339" 
d="M487 717q3 -5 0 -10l-199 -387l-2 -3l-60 -116l-11 -22l-87 -168q-4 -9 -13 -4l-80 45q-9 4 -4 13l137 266l-124 402q-1 5 2 9l70 85q3 5 9 4t8 -7l108 -352l175 341q3 5 9 5t9 -5z" />
    <glyph glyph-name="Z" unicode="Z" horiz-adv-x="397" 
d="M547 851l-64 -111l-366 -633h97h128l-64 -112h-129h-96l-129 1l65 111l366 633h-256l63 111h257h128z" />
    <glyph glyph-name="bracketleft" unicode="[" horiz-adv-x="260" 
d="M159 839h161l-21 -109h-68q-15 0 -18 -15l-110 -596h83l-20 -110h-180q-7 0 -12 5.5t-3 11.5l144 778q1 7 5 13.5t10 11.5t13.5 7.5t15.5 2.5z" />
    <glyph glyph-name="backslash" unicode="\" horiz-adv-x="682" 
d="M164 837l468 -797l-84 -51l-498 848h114z" />
    <glyph glyph-name="bracketright" unicode="]" horiz-adv-x="261" 
d="M281 839q7 0 11.5 -5t3.5 -12l-144 -777q-3 -16 -15.5 -26t-28.5 -10h-161l20 110h68q16 0 19 14l110 597h-84l21 109h180z" />
    <glyph glyph-name="underscore" unicode="_" horiz-adv-x="574" 
d="M505 109q4 0 6.5 -4t1.5 -8l-31 -84q-2 -5 -8 -5h-516q-4 0 -6.5 3.5t-1.5 7.5l31 84q2 6 8 6h516z" />
    <glyph glyph-name="a" unicode="a" 
d="M322 468q7 3 13 -1.5t5 -11.5l-71 -449q-1 -8 -8 -10.5t-13 2.5l-68 54l2 15q-7 -11 -17 -23t-32 -28t-41 -16q-22 0 -42 15t-32.5 40.5t-12.5 55.5q0 40 10.5 99.5t29 119.5t47.5 102t61 42q13 0 27 -4.5t24 -11t18.5 -13t12.5 -10.5l5 -5zM209 240l14 86q-23 59 -51 59
q-10 0 -23.5 -29.5t-24 -70.5t-18.5 -84t-7.5 -70.5t9.5 -29.5q11 0 27 16.5t31.5 43t25 44.5t17.5 35z" />
    <glyph glyph-name="b" unicode="b" horiz-adv-x="316" 
d="M227 474q39 0 61 -31.5t22 -79.5q0 -40 -9 -100t-25.5 -121t-44 -104t-59.5 -43q-37 0 -78 45l-7 -50q-1 -6 -6 -2l-79 63q-2 1 -2 3l114 726q0 1 2 2l97 45q1 1 3 -0.5t1 -3.5l-61 -392q38 43 71 43zM147 89q23 0 51 110q33 122 22 174q-4 17 -13 18q-30 0 -71 -84
l-28 -184q18 -34 39 -34z" />
    <glyph glyph-name="c" unicode="c" horiz-adv-x="217" 
d="M231 437q7 -6 5 -15l-9 -54q-1 -8 -9 -9.5t-13 5.5q-16 28 -34 28q-25 0 -47.5 -110t-22.5 -166q0 -42 62 -21q6 2 11 -2.5t4 -10.5l-10 -60q-1 -7 -7 -9q-25 -11 -62 -11q-35 0 -63 34.5t-28 79.5q0 62 20 158.5t52 152.5q27 47 71 47q40 0 80 -37z" />
    <glyph glyph-name="d" unicode="d" horiz-adv-x="332" 
d="M392 827q2 1 3.5 -0.5t1.5 -3.5l-134 -833q-1 -6 -5 -2l-80 63q-1 1 -1 3l1 5q-46 -64 -87 -64q-39 0 -61 31.5t-22 79.5q0 41 9 100.5t25.5 120.5t44 104t59.5 43q19 0 41 -14t31.5 -24.5t16.5 -20.5l58 365l2 2zM202 211l18 113q-3 9 -7.5 19t-17 23.5t-24.5 13.5
q-23 0 -52 -109q-32 -123 -22 -175q4 -18 14 -18q13 0 27 15t27 39t21.5 42.5t15.5 36.5z" />
    <glyph glyph-name="e" unicode="e" horiz-adv-x="266" 
d="M202 105l16 -57q2 -6 -3 -10q-43 -43 -94 -43q-45 0 -79 37t-34 84q0 62 19.5 158.5t51.5 152.5q27 47 77 47q48 0 77.5 -30t29.5 -99q0 -71 -34 -127t-79 -56q-20 0 -45 13q-5 -40 -5 -59q0 -31 24 -31t62 25q4 3 9 1.5t7 -6.5zM170 392q-31 0 -58 -166q9 -4 14 -4
q25 0 42.5 44.5t16 82t-14.5 43.5z" />
    <glyph glyph-name="f" unicode="f" horiz-adv-x="241" 
d="M269 458q7 -5 4 -13l-14 -52q-1 -5 -6 -7.5t-10 -0.5q-19 7 -31 7q-20 0 -36 -13t-25 -33.5t-13.5 -34.5t-6.5 -26l-1 -5l-28 -184q38 4 68 -14l-5 -86q-37 10 -77 8l-58 -367q-1 -6 -5 -2l-80 63q-1 2 -1 4l92 588l1 8q25 143 124 172q22 7 47 7q37 0 61 -19z" />
    <glyph glyph-name="g" unicode="g" horiz-adv-x="356" 
d="M359 477q2 1 3.5 -0.5t1.5 -3.5l-65 -413q-2 -9 -2 -12l-5 -31q-2 -9 -7 -42.5t-9 -57t-11 -60t-14 -63.5t-16 -55t-20.5 -48t-23.5 -30q-35 -27 -81 -27q-34 0 -63.5 10.5t-41 19.5t-19.5 18q-3 3 -2 7l25 68q1 4 5 5t7 -3q25 -36 67 -36q15 0 28 12t23.5 36.5
t18.5 49.5t15 62.5t11.5 62.5t10 64t7.5 52q-45 -57 -88 -57q-45 0 -74 30t-29 95q0 34 4 75t15.5 90t28.5 88t46 65.5t65 26.5q45 0 93 -42zM229 231l18 115q-34 52 -61 52q-23 0 -52 -110q-32 -122 -22 -174q4 -18 14 -18t23 11t24.5 26t23.5 36t19 35t13 27z" />
    <glyph glyph-name="h" unicode="h" horiz-adv-x="342" 
d="M255 473q43 0 64.5 -30t16.5 -68l-2 -10q-1 -5 -1.5 -9t-1 -8.5t-1.5 -6.5v-3v-2l-2 -7v-3l-53 -336q-1 -6 -6 -2l-79 63q-2 2 -1 3l45 290q1 8 -3.5 14.5t-14.5 6.5q-24 0 -88 -115l-41 -260q-1 -6 -6 -2l-79 63q-2 1 -2 3l114 726q0 1 2 2l97 45q3 0 5 -4l-65 -412l1 7
q2 2 5 6t12.5 13.5t20.5 16.5t28 13t35 6z" />
    <glyph glyph-name="i" unicode="i" horiz-adv-x="153" 
d="M170 680q11 0 18 -8.5t6 -19.5l-11 -67q-1 -6 -6 -8l-81 -38q-6 -2 -11 1.5t-4 10.5l17 109q1 3 2.5 6t3.5 5.5t5 4.5t6 3t7 1h48zM-1 54l59 375l104 48l-76 -487q-1 -2 -2.5 -3t-3.5 1l-79 63q-2 2 -2 3z" />
    <glyph glyph-name="j" unicode="j" horiz-adv-x="157" 
d="M157 680q11 0 18 -8.5t5 -19.5l-10 -67q-1 -6 -6 -8l-81 -38q-6 -2 -11 1.5t-4 10.5l17 109q0 3 1.5 6t4 5.5t5 4.5t6 3t6.5 1h49zM161 477q2 1 3.5 -0.5t1.5 -3.5l-65 -413q-2 -9 -2 -12l-5 -31q-3 -15 -9.5 -63.5t-12.5 -87t-16 -84t-24 -78t-31 -46.5q-34 -27 -81 -27
q-34 0 -63.5 10.5t-41 19.5t-19.5 18q-3 3 -2 7l25 68q1 4 5 4.5t7 -2.5q25 -36 67 -36q23 0 41 29t29.5 79t18.5 96t13 100t9 71q1 0 1 2l52 333q0 2 2 2z" />
    <glyph glyph-name="k" unicode="k" horiz-adv-x="320" 
d="M307 428q7 -6 3 -15l-93 -166l61 -226l8 -30q0 -2 -1.5 -3.5t-3.5 -0.5l-6 2l-26 6l-66 18q-2 0 -3 2l-30 112l-59 -107l-5 -30q-1 -6 -6 -2l-5 4l-21 16l-53 43q-2 2 -2 3l115 726l2 2l97 45q2 1 3.5 -0.5t1.5 -3.5l-88 -552l54 98l56 99q2 5 8 6t10 -3z" />
    <glyph glyph-name="l" unicode="l" horiz-adv-x="155" 
d="M212 827q2 1 4 -0.5t1 -3.5l-86 -552l-39 -251l-5 -30q-1 -6 -6 -2l-5 4l-21 16l-53 43q-2 2 -2 3l114 726q0 1 2 2z" />
    <glyph glyph-name="m" unicode="m" horiz-adv-x="493" 
d="M406 473q43 0 64.5 -30t16.5 -68l-2 -10q-1 -5 -1.5 -9t-1 -8.5t-0.5 -6.5l-1 -3v-2l-2 -7v-3l-53 -336q-1 -6 -6 -2l-79 63q-2 2 -1 3l45 290q1 8 -3.5 14.5t-14.5 6.5q-19 0 -60 -64l-49 -311q-1 -6 -5 -2l-80 63q-1 2 -1 3l46 290q1 8 -4 14.5t-15 6.5q-21 0 -66 -74
l-3 -20l-39 -251l-5 -30q-1 -6 -6 -2l-5 4l-21 16l-53 43q-2 2 -2 3l61 386q0 2 2 2l97 45q1 1 3 -0.5t1 -3.5l-7 -44q38 34 82 34q54 0 74 -46q41 46 94 46z" />
    <glyph glyph-name="n" unicode="n" horiz-adv-x="325" 
d="M238 473q43 0 64.5 -30t16.5 -68l-2 -10q0 -5 -1 -9t-1.5 -8.5t-0.5 -6.5l-1 -3v-2l-1 -7l-1 -3l-53 -336q-1 -6 -5 -2l-80 63q-1 2 -1 3l46 290q1 8 -4 14.5t-15 6.5q-21 0 -66 -74l-3 -20l-39 -251l-5 -30q-1 -6 -6 -2l-5 4l-21 16l-53 43q-2 2 -2 3l61 386q0 2 2 2
l97 45q1 1 3 -0.5t1 -3.5l-7 -44q38 34 82 34z" />
    <glyph glyph-name="o" unicode="o" horiz-adv-x="289" 
d="M188 477q52 -9 76.5 -84.5t7.5 -173.5q-11 -64 -37.5 -115.5t-61 -78.5t-68.5 -20q-52 9 -76.5 84.5t-7.5 173.5t66 160.5t101 53.5zM180 235q11 59 8.5 103t-16.5 46q-10 2 -21 -16t-21.5 -50t-17.5 -71q-10 -59 -7.5 -103t16.5 -46q9 -2 20.5 16t21.5 50t17 71z" />
    <glyph glyph-name="p" unicode="p" horiz-adv-x="330" 
d="M242 486q39 0 61 -31.5t22 -79.5q0 -41 -9 -100.5t-25.5 -121t-44 -104.5t-59.5 -43q-43 0 -87 57l-68 -426q-1 -6 -5 -2l-80 63q-1 2 -1 4l120 755q1 2 2 3l97 44q2 1 3.5 -0.5t1.5 -3.5l-12 -75q45 61 84 61zM162 101q23 0 52 109q32 122 22 175q-4 17 -14 17
q-38 0 -88 -124l-20 -126q21 -51 48 -51z" />
    <glyph glyph-name="q" unicode="q" horiz-adv-x="324" 
d="M332 504q2 1 3.5 0t1.5 -4l-137 -863q-1 -6 -5 -2l-80 63q-1 2 -1 4l57 357q-43 -53 -80 -53q-39 0 -60.5 31.5t-21.5 79.5q0 41 9 100.5t25 121t44 104.5t60 43q40 0 83 -52l3 23q1 2 2 3zM192 196l24 152q-20 43 -45 43q-22 0 -51 -109q-32 -123 -22 -175q4 -18 14 -18
q34 0 80 107z" />
    <glyph glyph-name="r" unicode="r" horiz-adv-x="302" 
d="M333 444q4 -4 2 -9l-27 -78q-2 -4 -6.5 -5.5t-8.5 1.5q-18 14 -33 14q-23 0 -45 -13.5t-37.5 -32.5t-28 -38t-18.5 -32l-6 -13l-39 -248q-1 -2 -2.5 -3t-3.5 1l-79 63q-2 2 -2 3l59 370q0 5 5 7l84 39q5 2 9.5 -1.5t3.5 -8.5l-6 -39q61 48 112 48q43 0 67 -25z" />
    <glyph glyph-name="s" unicode="s" horiz-adv-x="280" 
d="M176 480q31 0 55 -9t37 -23.5t19 -25t9 -20.5q1 -6 -3 -10l-49 -41q-3 -3 -7.5 -2t-6.5 5q-18 36 -49 36t-31 -39q0 -23 14.5 -54t31.5 -56t31 -57t14 -59q0 -23 -6.5 -44t-21 -40t-41 -30t-61.5 -11q-31 0 -55.5 11.5t-38.5 30t-21 32t-11 25.5q-2 7 4 11l62 36
q9 5 13 -4q21 -51 43 -51q18 0 27 13.5t9 32.5q0 18 -13.5 46t-30 52.5t-30 60t-13.5 67.5q0 51 36.5 84t83.5 33z" />
    <glyph glyph-name="t" unicode="t" horiz-adv-x="264" 
d="M239 97q1 -5 -1 -9q-5 -9 -13 -18.5t-22.5 -23.5t-35.5 -22.5t-45 -8.5q-58 0 -86 52t-18 135l92 578q0 1 2 2l96 45q4 0 5 -4l-53 -337q41 6 74 -12l-6 -87q-38 10 -83 8l-33 -210q-4 -21 5.5 -46t31.5 -25q18 0 57 42q4 4 10 2.5t8 -7.5z" />
    <glyph glyph-name="u" unicode="u" horiz-adv-x="337" 
d="M342 487q4 0 5 -4l-34 -212l-39 -251l-5 -30q-1 -6 -6 -2l-5 4l-21 16l-53 43q-2 2 -1 3l1 11q-41 -50 -97 -50q-43 0 -64.5 30t-16.5 68l2 10q0 3 1 7t1 6.5t0.5 5.5t1.5 4v4v2l2 7v2l42 267l104 48l-52 -332q-1 -5 0.5 -10t6.5 -8t11 -3q26 0 84 104l33 213q1 2 2 2z
" />
    <glyph glyph-name="v" unicode="v" horiz-adv-x="320" 
d="M255 482l79 -68l-91 -345q-3 -11 -9 -23t-18 -26.5t-32 -23.5t-44 -8q-47 1 -66.5 38t-23.5 103l-15 285l93 68l21 -403z" />
    <glyph glyph-name="w" unicode="w" horiz-adv-x="497" 
d="M412 423l111 51l-107 -405q-3 -11 -9.5 -23t-18 -26.5t-31.5 -23.5t-45 -8h-1q-12 0 -22 3q-37 11 -53 59q-30 -64 -96 -62q-6 0 -11 1q-40 5 -57.5 41.5t-21.5 98.5l-15 285l93 68l20 -376l1 -27l64 241l-1 3h1l94 43l16 8l-14 -54l8 -152l5 -89l10 38z" />
    <glyph glyph-name="x" unicode="x" horiz-adv-x="326" 
d="M326 386l-118 -166q59 -166 117 -224h-119q-33 34 -70 121l-77 -109l-87 25l128 179q-15 43 -28.5 89t-19.5 70l-6 25l92 69q14 -64 38 -145l97 135z" />
    <glyph glyph-name="y" unicode="y" horiz-adv-x="325" 
d="M327 464q4 0 5 -4l-65 -413q-2 -9 -2 -12l-5 -31q-1 -3 -2 -12q-47 -285 -104 -331q-35 -27 -81 -27q-34 0 -63.5 10.5t-41 19.5t-20.5 18q-2 3 -1 7l24 68q2 4 6 5t7 -3q24 -36 66 -36q17 0 32 14t27 42.5t20.5 56t16.5 69.5t12 66.5t10 62.5q-38 -34 -82 -34
q-43 0 -64.5 30t-16.5 68l2 10q0 1 4 23v4q0 1 1 2l1 7v3l42 266l104 48l-52 -332q-1 -5 1 -9.5t6.5 -8t10.5 -3.5q21 0 66 74l37 235q1 2 2 3z" />
    <glyph glyph-name="z" unicode="z" horiz-adv-x="317" 
d="M327 429q9 -12 8.5 -27.5t-9.5 -27.5l-39 -52l-172 -229l37 6l114 19q1 0 2.5 -1.5t0.5 -3.5l-35 -95q-1 -2 -2 -2l-148 -25q-30 -5 -57 9.5t-39 42.5q-10 25 5 46l224 299l-179 -30q-2 0 -3.5 1.5t-0.5 3.5l35 95q1 2 3 2l152 26q25 4 48.5 -5.5t38.5 -29.5z" />
    <glyph glyph-name="braceleft" unicode="{" horiz-adv-x="281" 
d="M282 839h60l-20 -109h-22q-27 0 -47.5 -16.5t-25.5 -42.5l-25 -137q-13 -65 -71 -110q42 -44 30 -110l-26 -137q-4 -24 11 -41t41 -17h21l-20 -110h-37q-66 0 -105.5 44.5t-27.5 107.5l28 153q12 65 -30 110h1q58 45 70 110l32 175q11 56 57 93t106 37z" />
    <glyph glyph-name="verticalbar" unicode="|" horiz-adv-x="195" 
d="M226 837q2 1 4 -0.5t2 -3.5l-154 -837q-1 -6 -6 -2l-95 64q-2 1 -1 3l133 728q0 2 2 3z" />
    <glyph glyph-name="braceright" unicode="}" horiz-adv-x="283" 
d="M242 534q-12 -65 29 -110h1h-1q-58 -45 -70 -110l-32 -175q-11 -56 -57 -93t-106 -37h-60l20 110h22q27 0 47.5 16.5t25.5 41.5l25 137q12 66 71 110q-42 45 -30 110l25 138q5 23 -10 40.5t-41 17.5h-22l21 109h37q66 0 105.5 -44.5t27.5 -107.5z" />
    <glyph glyph-name="asciitilde" unicode="~" horiz-adv-x="549" 
d="M406 452q24 0 45.5 -6.5t38.5 -20t26.5 -34.5t9.5 -48q0 -70 -48 -109t-109 -39v80q35 0 50 17t15 37q0 40 -43 40q-14 0 -34.5 -15t-44.5 -36.5t-51.5 -43.5t-61.5 -37t-68 -15q-53 0 -93.5 27.5t-40.5 84.5q0 40 21.5 70t59 45.5t85.5 15.5v-76q-33 0 -55.5 -15.5
t-22.5 -37.5q0 -38 41 -38q25 0 62.5 24t71.5 53t75 53t71 24z" />
    <glyph glyph-name="nonbreakingspace" unicode="&#xa0;" horiz-adv-x="214" 
 />
    <glyph glyph-name="exclamdown" unicode="&#xa1;" horiz-adv-x="198" 
d="M198 816q5 0 8 -4t2 -8l-15 -83q-1 -6 -7 -6h-83q-5 0 -8 3.5t-2 7.5l15 84q2 6 8 6h82zM-40 -11l141 644l70 -53l-54 -524z" />
    <glyph glyph-name="cent" unicode="&#xa2;" horiz-adv-x="266" 
d="M178 347q10 7 17 14l38 -54q-31 -28 -68 -45l-41 -257q0 -2 -2 -3t-4 0l-91 73q-2 2 -2 4l32 202q-37 45 -37 121q0 47 22 91t59 66l35 226q1 2 3 3l111 51q2 1 3.5 -0.5t1.5 -3.5l-42 -269q18 -9 31 -23.5t17 -25.5l4 -10l-46 -54q-6 16 -19 30z" />
    <glyph glyph-name="sterling" unicode="&#xa3;" horiz-adv-x="504" 
d="M362 120l68 -101q1 -2 0 -4.5t-3 -2.5h-240h-1l-1 -1q-2 0 -4 1l-91 73q-1 2 -1 4l2 10l3 23l39 250h-83l45 86h52l47 301q0 2 2 3h1q11 13 26 27.5t48 32t64 17.5q39 0 66 -15t37.5 -39t14 -53.5t-0.5 -59t-9.5 -53.5t-10.5 -40l-5 -15l-102 -15l18 62q29 134 -40 134
l-45 -287h85l-45 -87h-54l-38 -240l-1 -9h154q2 0 3 -2z" />
    <glyph glyph-name="yen" unicode="&#xa5;" horiz-adv-x="446" 
d="M462 765q2 -4 0 -9l-140 -308l123 1l-41 -83l-120 -1l-22 -45l-1 -10l135 1l-42 -83l-106 -1l-35 -220q0 -3 -2 -3.5t-4 0.5l-91 73q-2 1 -2 4l23 146h-14l-141 -1q-5 0 -2 4l39 77q0 1 2 1l56 1h73l4 26l-4 29l-118 -1q-5 0 -2 5l38 76q1 2 3 2h55h13l-43 326q0 5 4 9
l83 84q4 4 9.5 3t6.5 -7l34 -410l158 394q2 6 8 7t9 -3z" />
    <glyph glyph-name="section" unicode="&#xa7;" horiz-adv-x="428" 
d="M233 671q0 -26 16 -51t38.5 -47t45.5 -45.5t39 -56.5t16 -71q0 -28 -10.5 -51.5t-27 -39t-36 -26t-39.5 -14.5q39 -47 39 -94q0 -55 -29.5 -96.5t-70 -60t-83.5 -18.5q-60 0 -110 44.5t-50 94.5l88 68q0 -12 3.5 -26.5t11 -32.5t24 -30.5t39.5 -12.5q17 0 39.5 17.5
t22.5 43.5q0 27 -16 52t-38.5 46.5t-45.5 45.5t-39 57t-16 71q0 53 34.5 87t78.5 43q-39 47 -39 94q0 55 29.5 96.5t69.5 60t84 18.5q60 0 110 -44t50 -95l-88 -67q0 11 -3.5 26t-11 33t-24 30t-39.5 12q-17 0 -39.5 -17t-22.5 -44zM206 337q27 0 46.5 10.5t28.5 25.5t9 32
q0 23 -16.5 44.5t-48.5 50.5q-19 0 -35.5 -6t-26.5 -16t-15.5 -21.5t-5.5 -24.5q0 -16 10 -33t22 -30t32 -32z" />
    <glyph glyph-name="copyright" unicode="&#xa9;" horiz-adv-x="461" 
d="M246 547q27 0 53 -25q4 -4 3 -10l-6 -35q-1 -5 -6 -6t-8 3q-11 19 -23 19q-16 0 -30.5 -72.5t-14.5 -109.5q0 -27 40 -13q4 1 7.5 -1.5t2.5 -7.5l-6 -39q-1 -4 -5 -6q-17 -7 -41 -7q-11 0 -22 6t-19 16t-13 24t-5 29q0 40 12.5 103.5t33.5 100.5q18 31 47 31zM277 673
q57 -10 98 -56t57.5 -116t3.5 -146q-21 -116 -96.5 -187.5t-161.5 -56.5q-57 10 -98 56t-57.5 115.5t-3.5 146.5q21 116 96.5 187.5t161.5 56.5zM373 366q17 93 -10 165.5t-81.5 82t-104.5 -49.5t-66.5 -151.5t10.5 -165t82 -82.5q26 -4 53.5 9t50.5 40t40.5 67t25.5 85z
" />
    <glyph glyph-name="ordfeminine" unicode="&#xaa;" horiz-adv-x="190" 
d="M184 793q45 0 32 -91l-27 -202l-44 38q-26 -18 -50 -18q-25 0 -41.5 16t-16.5 52q0 46 21.5 73t52.5 27q26 0 45 -27q6 52 7 65q2 21 -29 16q-10 -2 -15 7q-6 10 3 17q32 27 62 27zM146 576q4 29 6 53q-6 19 -19 19q-24 0 -35 -37q-10 -36 4 -45q2 -2 5 -2q18 0 39 12z
" />
    <glyph glyph-name="guillemotleft" unicode="&#xab;" horiz-adv-x="429" 
d="M69 527h112l-68 -174l68 -173h-112l-69 173zM379 527l-69 -174l69 -173h-113l-69 173l69 174h113z" />
    <glyph glyph-name="softhyphen" unicode="&#xad;" horiz-adv-x="0" 
 />
    <glyph glyph-name="registered" unicode="&#xae;" horiz-adv-x="461" 
d="M277 673q57 -10 98 -56t57.5 -116t3.5 -146q-21 -116 -96.5 -187.5t-161.5 -56.5q-57 10 -98 56t-57.5 115.5t-3.5 146.5q21 116 96.5 187.5t161.5 56.5zM373.5 366q16.5 93 -10.5 165.5t-81.5 82t-104.5 -49.5t-66.5 -151.5t10.5 -165t81.5 -82t104.5 49t66.5 151.5z
M254 547q27 0 43 -21.5t16 -57.5q0 -33 -16.5 -71t-46.5 -55l31 -105l-51 29l-16 66h-2q-10 0 -19 2l-15 -96q0 -2 -2 -1l-34 27v1l41 260v1h1q3 2 11 6q16 7 32 11q15 4 27 4zM239 380q16 13 26.5 36t10.5 50q0 41 -27 41q-13 0 -30 -10l-20 -128h5q4 -1 8 -1q13 0 27 12z
" />
    <glyph glyph-name="degree" unicode="&#xb0;" horiz-adv-x="332" 
d="M192 814.5q47 -8.5 72.5 -58t14.5 -111.5t-52 -100t-87.5 -29.5t-72 58t-14.5 111.5t51.5 100t87.5 29.5zM222.5 652q7.5 42 -1.5 74t-29.5 35.5t-40.5 -23.5t-27.5 -69t2 -74t30 -35.5t40 23.5t27 69z" />
    <glyph glyph-name="twosuperior" unicode="&#xb2;" horiz-adv-x="149" 
d="M178 773q7 -10 7 -24q0 -26 -12 -50h-1l-3 -5l-92 -144h14h42l21 -36h-42h-32h-24h-1l-21 36h1l104 163v1q2 3 4 7t3 8t2 8.5t1.5 8t0 7t-2 6t-4 4t-6.5 1.5q-10 0 -19 -9.5t-13 -19.5l-3 -9l-26 16l2 6t6 12t11 16t17 12.5t23 5.5q29 0 43 -21z" />
    <glyph glyph-name="threesuperior" unicode="&#xb3;" horiz-adv-x="160" 
d="M138 666q1 0 3.5 -1.5t9 -6.5t11.5 -10.5t9 -15t4 -19.5q0 -33 -22 -64.5t-67 -31.5q-14 0 -22 3q-2 1 -3 3l-10 22q-1 3 0.5 5.5t5.5 2.5q13 -1 27 -1q18 0 36 15.5t18 36.5q0 37 -46 48q-3 1 -4 4t1 5q52 54 52 80q0 19 -17 19q-11 0 -30 -28q-3 -5 -8 -1l-15 13
q-4 3 -1 7q26 41 60 41q24 0 34.5 -15t10.5 -36q0 -13 -12.5 -38t-24.5 -37z" />
    <glyph glyph-name="periodcentered" unicode="&#xb7;" horiz-adv-x="138" 
d="M104 335q5 0 7.5 -3.5t0.5 -7.5l-29 -81q-2 -5 -8 -5h-80q-4 0 -6.5 3.5t-0.5 7.5l29 81q2 5 8 5h79z" />
    <glyph glyph-name="onesuperior" unicode="&#xb9;" horiz-adv-x="123" 
d="M144 791q1 0 1.5 -0.5t0.5 -1.5l-6 -39v-2l-32 -201l20 1l-15 -28h-9l-15 -1l-53 -2q-2 0 -1 2l14 26h1l21 1l29 184l-8 -4q-3 -1 -4 2l-11 29q-1 2 2 3l28 13z" />
    <glyph glyph-name="ordmasculine" unicode="&#xba;" horiz-adv-x="168" 
d="M147.5 793q27.5 -5 40 -49t2 -101.5t-37 -94.5t-53.5 -32t-39.5 49t-2.5 101t36.5 94.5t54 32.5zM149 650q8 45 6 78t-12.5 35t-24 -28.5t-21 -75.5t-5.5 -78t12.5 -35t23.5 28.5t21 75.5z" />
    <glyph glyph-name="guillemotright" unicode="&#xbb;" horiz-adv-x="449" 
d="M360 527l68 -174l-68 -173h-113l69 173l-69 174h113zM50 527h112l69 -174l-69 -173h-112l69 173z" />
    <glyph glyph-name="questiondown" unicode="&#xbf;" horiz-adv-x="383" 
d="M199 738q-5 0 -8 3.5t-2 8.5l15 83q1 6 7 6h83q5 0 8 -3.5t2 -8.5l-15 -83q-2 -6 -8 -6h-82zM238 272l95 -45q0 -27 -7.5 -58.5t-24 -63.5t-38.5 -58t-55 -42t-72 -16q-32 0 -58 9.5t-43 25.5t-29.5 35t-19 41.5t-9.5 42t-3 39.5q0 27 10.5 58t27 61t36.5 62.5t40.5 66
t37 67.5t27 72t10.5 75l102 -53q0 -46 -29 -111.5t-63.5 -120t-63.5 -110t-29 -83.5q0 -40 17 -59.5t44 -19.5q38 0 67.5 44t29.5 141z" />
    <glyph glyph-name="Agrave" unicode="&#xc0;" horiz-adv-x="418" 
d="M345 773l93 39l24 10l-48 -357l-20 -147l-16 -118l-27 -208l-110 81l11 74v3l-188 -73l-43 -85l-50 48l-34 33l44 83l323 600zM270 269l45 301l-180 -354zM452 904q9 -10 14 -21.5t-3 -14.5l-27 -4q-5 -1 -10 3l-44 43q-9 8 -7.5 21t10.5 15l15 5q5 1 10 -4z" />
    <glyph glyph-name="Aacute" unicode="&#xc1;" horiz-adv-x="412" 
d="M438 812l24 10l-48 -357l-20 -147l-16 -118l-27 -208l-110 81l11 74v3l-188 -73l-43 -85l-50 48l-34 33l44 83l323 600l41 17zM270 269l45 301l-180 -354zM352 868q-8 3 -3.5 14.5t14.5 21.5l41 43q5 5 11 4l15 -5q9 -2 10 -15t-7 -21l-44 -43q-5 -4 -10 -3z" />
    <glyph glyph-name="Acircumflex" unicode="&#xc2;" horiz-adv-x="430" 
d="M345 773l93 39l24 10l-48 -357l-20 -147l-16 -118l-27 -208l-110 81l11 74v3l-188 -73l-43 -85l-50 48l-34 33l44 83l323 600zM270 269l45 301l-180 -354zM477 877q5 -6 2 -13t-10 -7h-15q-18 0 -30 13l-22 21l-23 -23q-15 -15 -36 -12l-12 2q-7 1 -9 7.5t2 11.5l62 62
q6 6 14.5 6t14.5 -6z" />
    <glyph glyph-name="Atilde" unicode="&#xc3;" horiz-adv-x="447" 
d="M345 773l93 39l24 10l-48 -357l-20 -147l-16 -118l-27 -208l-110 81l11 74v3l-188 -73l-43 -85l-50 48l-34 33l44 83l323 600zM270 269l45 301l-180 -354zM481 922q5 1 9 -1t6 -6t1 -9q-4 -17 -19.5 -25.5t-33.5 -5.5q-8 1 -15 5t-14.5 9t-13.5 8q-22 9 -42 -9
q-6 -5 -21 -22q-7 -9 -16 -6t-11.5 12t3.5 18q38 50 76 51q18 1 42 -15q13 -8 24 -8.5t25 4.5z" />
    <glyph glyph-name="Adieresis" unicode="&#xc4;" horiz-adv-x="429" 
d="M345 773l93 39l24 10l-48 -357l-20 -147l-16 -118l-27 -208l-110 81l11 74v3l-188 -73l-43 -85l-50 48l-34 33l44 83l323 600zM270 269l45 301l-180 -354zM379 871q-15 0 -21.5 12.5t0 25t21.5 12.5t21.5 -12.5t0 -25t-21.5 -12.5zM455.5 924q14.5 0 20.5 -12t0 -24
t-20.5 -12t-20.5 12t0 24t20.5 12z" />
    <glyph glyph-name="Aring" unicode="&#xc5;" horiz-adv-x="413" 
d="M345 773l93 39l24 10l-48 -357l-20 -147l-16 -118l-27 -208l-110 81l11 74v3l-188 -73l-43 -85l-50 48l-34 33l44 83l323 600zM270 269l45 301l-180 -354zM388 854q-26 -1 -39 21.5t-6 47.5q7 23 28 37t45 8q24 -5 38 -27t6 -46q-6 -17 -24.5 -29t-34.5 -5q-5 -6 -13 -7z
M377 921q-5 -7 -2.5 -18.5t13.5 -11.5q4 1 8 -1q20 9 23 14q7 7 5 15.5t-10 14.5q-11 6 -21 2t-16 -15z" />
    <glyph glyph-name="AE" unicode="&#xc6;" horiz-adv-x="653" 
d="M704 819q3 0 4.5 -1.5t0.5 -4.5l-45 -115q-1 -2 -3 -3l-214 -46l-42 -266l129 28q3 1 4.5 -1t0.5 -4l-45 -116q-1 -2 -3 -2l-104 -23l-9 -65l-12 -90h4l238 53q3 0 4.5 -2t0.5 -4l-45 -115q-1 -2 -3 -3l-214 -47l-10 -2q-2 -1 -4 1l-6 5l-24 19l-57 46l-5 4q-2 2 -2 4
l1 2l-3 2l11 74v3l-188 -73l-43 -85l-50 48l-34 33l44 83l323 600l41 17l93 39l24 10l-8 -58l12 3zM270 269l45 301l-180 -354z" />
    <glyph glyph-name="Ccedilla" unicode="&#xc7;" horiz-adv-x="439" 
d="M216 103q21 0 35 12t19.5 30.5t7.5 31t2 22.5l120 43q0 -25 -5.5 -54t-20 -63t-35.5 -61.5t-57 -45.5t-81 -18h-4h-4l-7 -25q34 -1 43 -28.5t-18 -81.5q-11 -20 -28 -32t-33.5 -15t-31.5 -3.5t-25 1.5l-9 3l11 52q8 -16 24.5 -18.5t32 5.5t27.5 23t13 31q0 20 -13 30
t-26 9h-13l12 55q-38 10 -66 35.5t-44 60t-24 73t-8 80.5q0 92 10 173.5t33 156t58 127.5t88 84.5t120 31.5q71 0 108.5 -49.5t37.5 -159.5l-100 -45v8v20t-1.5 28t-5.5 29t-10.5 28t-18 20t-26.5 8q-40 0 -79 -57.5t-64 -154t-25 -201.5q0 -199 81 -199z" />
    <glyph glyph-name="Egrave" unicode="&#xc8;" horiz-adv-x="388" 
d="M440 819q3 0 4.5 -1.5t0.5 -4.5l-45 -115q-1 -2 -3 -3l-214 -46l-42 -266l129 28q3 1 4.5 -1t0.5 -4l-45 -116q-1 -2 -3 -2l-104 -23l-25 -156l8 1l238 53q3 0 4.5 -2t0.5 -4l-45 -115q-1 -2 -3 -3l-214 -47l-10 -2q-2 -1 -4 1l-6 5l-24 19l-58 46l-4 4q-2 2 -2 4l27 170
l19 119l41 265l19 118l117 26zM276 858l-44 46q-10 10 -15 22t3 16l29 5q6 1 11 -4l46 -45q9 -9 8 -23t-11 -15l-16 -6z" />
    <glyph glyph-name="Eacute" unicode="&#xc9;" horiz-adv-x="388" 
d="M440 819q3 0 4.5 -1.5t0.5 -4.5l-45 -115q-1 -2 -3 -3l-214 -46l-42 -266l129 28q3 1 4.5 -1t0.5 -4l-45 -116q-1 -2 -3 -2l-104 -23l-25 -156l8 1l238 53q3 0 4.5 -2t0.5 -4l-45 -115q-1 -2 -3 -3l-214 -47l-10 -2q-2 -1 -4 1l-6 5l-24 19l-58 46l-4 4q-2 2 -2 4l27 170
l19 119l41 265l19 118l117 26zM255 859q-8 3 -3 15t15 23l44 45q5 6 11 5l16 -6q10 -2 11 -16t-8 -22l-47 -45l-10 -4z" />
    <glyph glyph-name="Ecircumflex" unicode="&#xca;" horiz-adv-x="388" 
d="M440 819q5 -1 5 -6l-45 -115q-1 -2 -3 -3l-214 -46l-42 -266l129 28q3 1 4.5 -1t0.5 -4l-45 -116q-1 -2 -3 -2l-104 -23l-25 -156l8 1l238 53q3 0 4.5 -2t0.5 -4l-45 -115q-1 -2 -3 -3l-214 -47l-10 -2q-2 -1 -4 1l-6 5l-24 19l-58 46l-4 4q-2 2 -2 4l27 170l19 119
l41 265l19 118l117 26zM220 857q-6 1 -8 7t2 10l54 54q5 5 12.5 5t12.5 -5l55 -55q4 -4 1.5 -10.5t-8.5 -6.5h-13q-16 0 -26 11l-19 19l-21 -20q-13 -13 -32 -11z" />
    <glyph glyph-name="Edieresis" unicode="&#xcb;" horiz-adv-x="388" 
d="M440 819q5 -1 5 -6l-45 -115q-1 -2 -3 -3l-214 -46l-42 -266l129 28q3 1 4.5 -1t0.5 -4l-45 -116q-1 -2 -3 -2l-104 -23l-25 -156l8 1l238 53q3 0 4.5 -2t0.5 -4l-45 -115q-1 -2 -3 -3l-214 -47l-10 -2q-2 -1 -4 1l-6 5l-24 19l-58 46l-4 4q-2 2 -2 4l27 170l19 119
l41 265l19 118l117 26zM239.5 854q-13.5 0 -19 11t0 21.5t19 10.5t19 -10.5t0 -21.5t-19 -11zM306.5 858q-12.5 0 -18 10.5t0 21t18 10.5t18 -10.5t0 -21t-18 -10.5z" />
    <glyph glyph-name="Igrave" unicode="&#xcc;" horiz-adv-x="171" 
d="M211 856q2 1 4 0t1 -4l-94 -597l-21 -134l-18 -113q0 -2 -2 -3t-4 0l-81 65l-12 10q-2 1 -1 4l17 112l96 606q0 2 2 3zM182 879l-46 48q-11 11 -16 24t3 16l30 5q6 1 12 -4l49 -47q9 -9 8 -24t-12 -16l-16 -6q-7 -1 -12 4z" />
    <glyph glyph-name="Iacute" unicode="&#xcd;" horiz-adv-x="174" 
d="M211 856q2 1 4 0t1 -4l-94 -597l-21 -134l-18 -113q0 -2 -2 -3t-4 0l-81 65l-12 10q-2 1 -1 4l17 112l96 606q0 2 2 3zM214 980q10 -2 11 -16.5t-8 -23.5l-49 -48q-5 -5 -11 -4l-30 5q-9 4 -3.5 16.5t15.5 23.5l46 48q6 6 12 5z" />
    <glyph glyph-name="Icircumflex" unicode="&#xce;" horiz-adv-x="192" 
d="M211 856q2 1 4 0t1 -4l-94 -597l-21 -134l-18 -113q0 -2 -2 -3t-4 0l-81 65l-12 10q-2 1 -1 4l17 112l96 606q0 2 2 3zM241 907q4 -5 1.5 -11.5t-8.5 -6.5h-12q-15 0 -25 12l-18 20l-19 -21q-12 -15 -30 -11l-10 1q-6 1 -7.5 7.5t2.5 10.5l51 57q5 6 11.5 6t11.5 -6z" />
    <glyph glyph-name="Idieresis" unicode="&#xcf;" horiz-adv-x="166" 
d="M211 856q2 1 4 0t1 -4l-94 -597l-21 -134l-18 -113q0 -2 -2 -3t-4 0l-81 65l-12 10q-2 1 -1 4l17 112l96 606q0 2 2 3zM125 888q-14 0 -20 11.5t0 23t20 11.5t19.5 -11.5t0 -23t-19.5 -11.5zM196 893q-14 0 -19.5 11t0 22t19.5 11q10 0 15.5 -7t5.5 -15t-5.5 -15
t-15.5 -7z" />
    <glyph glyph-name="Eth" unicode="&#xd0;" horiz-adv-x="491" 
d="M359 822q69 0 113.5 -67.5t44.5 -197.5q0 -60 -18.5 -134.5t-54 -149t-81.5 -137.5t-107.5 -103t-124.5 -42q-3 -2 -6 0l-6 5l-24 19l-62 50q-2 2 -2 4l45 285h-96v96h111l45 287l1 3q58 40 123 63q54 19 99 19zM150 106q49 0 108 75.5t99 186t40 203.5q0 138 -65 138
q-50 0 -93 -37l-35 -222h101v-96h-116l-5 -32l-34 -217v1z" />
    <glyph glyph-name="Ntilde" unicode="&#xd1;" horiz-adv-x="451" 
d="M501 850l-141 -857v-1h-1l-101 80v1l-97 427l-78 -508l-101 80l112 722l120 56l88 -518l78 462zM303 879q-6 -7 -14 -4.5t-10.5 10.5t2.5 16q34 44 67 45q17 0 37 -13q12 -8 21.5 -8t22.5 4q6 1 10.5 -3.5t3.5 -10.5q-4 -18 -23 -25q-16 -7 -35 4l-26 13q-15 9 -29 -3z
" />
    <glyph glyph-name="Ograve" unicode="&#xd2;" horiz-adv-x="443" 
d="M298.5 841q54.5 -10 91 -75.5t45.5 -163.5t-10 -217q-20 -114 -64 -206.5t-100.5 -140.5t-111 -38.5t-91 75.5t-45 164t9.5 217q20 114 64 206t100.5 140.5t111 38.5zM302 407q25 136 19 237t-39 106q-21 4 -47 -37t-49.5 -115t-39.5 -164q-24 -136 -18.5 -237t38.5 -107
q21 -3 47 38t50 115t39 164zM275 888l-39 38q-7 7 -6 18.5t9 13.5l13 4q5 1 9 -3l37 -38q8 -9 12 -19t-2 -13l-24 -4q-5 -1 -9 3z" />
    <glyph glyph-name="Oacute" unicode="&#xd3;" horiz-adv-x="443" 
d="M298.5 841q54.5 -10 91 -75.5t45.5 -163.5t-10 -217q-20 -114 -64 -206.5t-100.5 -140.5t-111 -38.5t-91 75.5t-45 164t9.5 217q20 114 64 206t100.5 140.5t111 38.5zM302 407q25 136 19 237t-39 106q-21 4 -47 -37t-49.5 -115t-39.5 -164q-24 -136 -18.5 -237t38.5 -107
q21 -3 47 38t50 115t39 164zM270 889q-7 3 -3 13t13 18l36 38q5 5 9 4l14 -5q8 -1 9 -13t-7 -19l-39 -37q-4 -4 -8 -3z" />
    <glyph glyph-name="Ocircumflex" unicode="&#xd4;" horiz-adv-x="443" 
d="M298.5 841q54.5 -10 91 -75.5t45.5 -163.5t-10 -217q-20 -114 -64 -206.5t-100.5 -140.5t-111 -38.5t-91 75.5t-45 164t9.5 217q20 114 64 206t100.5 140.5t111 38.5zM302 407q25 136 19 237t-39 106q-21 4 -47 -37t-49.5 -115t-39.5 -164q-24 -136 -18.5 -237t38.5 -107
q21 -3 47 38t50 115t39 164zM223 873q-6 1 -8 7t2 10l54 55q5 5 12.5 5t12.5 -5l55 -54q5 -5 2.5 -11t-9.5 -6h-14q-15 0 -25 10l-19 19l-21 -20q-6 -7 -14 -10h-28z" />
    <glyph glyph-name="Otilde" unicode="&#xd5;" horiz-adv-x="443" 
d="M298.5 841q54.5 -10 91 -75.5t45.5 -163.5t-10 -217q-20 -114 -64 -206.5t-100.5 -140.5t-111 -38.5t-91 75.5t-45 164t9.5 217q20 114 64 206t100.5 140.5t111 38.5zM302 407q25 136 19 237t-39 106q-21 4 -47 -37t-49.5 -115t-39.5 -164q-24 -136 -18.5 -237t38.5 -107
q21 -3 47 38t50 115t39 164zM208 885q-11 -13 -21 0q-9 11 -1 21q34 44 68 45q16 1 37 -13q11 -7 20.5 -7.5t22.5 3.5q6 2 10.5 -2.5t3.5 -11.5q-4 -15 -17.5 -22.5t-29.5 -4.5q-9 1 -21.5 9t-16.5 10q-19 8 -37 -8q-5 -4 -18 -19z" />
    <glyph glyph-name="Odieresis" unicode="&#xd6;" horiz-adv-x="443" 
d="M298.5 841q54.5 -10 91 -75.5t45.5 -163.5t-10 -217q-20 -114 -64 -206.5t-100.5 -140.5t-111 -38.5t-91 75.5t-45 164t9.5 217q20 114 64 206t100.5 140.5t111 38.5zM302 407q25 136 19 237t-39 106q-21 4 -47 -37t-49.5 -115t-39.5 -164q-24 -136 -18.5 -237t38.5 -107
q21 -3 47 38t50 115t39 164zM242.5 892q-13.5 0 -19 11t0 22t19 11t19 -11t0 -22t-19 -11zM310 896q-13 0 -18.5 11t0 21.5t18.5 10.5q9 0 15 -6.5t6 -14.5t-6 -15t-15 -7z" />
    <glyph glyph-name="multiply" unicode="&#xd7;" horiz-adv-x="571" 
d="M521 630l-157 -203l106 -256h-116l-65 158l-123 -158h-116l199 256l-84 203h115l44 -106l83 106h114z" />
    <glyph glyph-name="Oslash" unicode="&#xd8;" horiz-adv-x="442" 
d="M517 827l-90 -157q29 -127 1 -285q-20 -114 -64 -206.5t-100.5 -140.5t-110.5 -38q-45 8 -79 55l-29 -51h-77l71 123q-46 138 -13 329q20 114 64 206t100.5 140.5t110.5 38.5q60 -10 98 -88l42 74h76zM305 407q7 35 11 70l-182 -317q10 -65 35 -70q21 -3 47 38t50 115
t39 164zM131 287l193 337q-3 120 -39 126q-21 4 -47 -37t-50 -115t-39 -164q-14 -77 -18 -147z" />
    <glyph glyph-name="Ugrave" unicode="&#xd9;" horiz-adv-x="430" 
d="M474 801q2 1 4 -0.5t2 -3.5l-73 -471l-46 -294l-6 -35q-1 -7 -6 -3l-6 5l-25 20l-62 50q-2 1 -1 3l10 70q-22 -25 -45.5 -48.5t-62.5 -50t-66 -26.5q-51 0 -78 35.5t-21 78.5l2 12q0 4 4 27l1 5v2l2 8v3l87 564l121 56l-99 -640q-1 -10 4.5 -17.5t17.5 -7.5q30 0 162 186
l65 417q0 2 2 3zM298 824l-47 49q-11 11 -16 24t3 16l31 5q6 2 11 -4l51 -48q9 -9 8 -24t-12 -17z" />
    <glyph glyph-name="Uacute" unicode="&#xda;" horiz-adv-x="430" 
d="M474 801q2 1 4 -0.5t2 -3.5l-73 -471l-46 -294l-6 -35q-1 -7 -6 -3l-6 5l-25 20l-62 50q-2 1 -1 3l10 70q-22 -25 -45.5 -48.5t-62.5 -50t-66 -26.5q-51 0 -78 35.5t-21 78.5l2 12q0 4 4 27l1 5v2l2 8v3l87 564l121 56l-99 -640q-1 -10 4.5 -17.5t17.5 -7.5q30 0 162 186
l65 417q0 2 2 3zM271 838q-9 4 -3.5 17t16.5 24l47 49q6 6 12 5l17 -6q10 -2 11.5 -17t-8.5 -24l-50 -49l-11 -4z" />
    <glyph glyph-name="Ucircumflex" unicode="&#xdb;" horiz-adv-x="430" 
d="M474 801q2 1 4 -0.5t2 -3.5l-73 -471l-46 -294l-6 -35q-1 -7 -6 -3l-6 5l-25 20l-62 50q-2 1 -1 3l10 70q-22 -25 -45.5 -48.5t-62.5 -50t-66 -26.5q-51 0 -78 35.5t-21 78.5l2 12q0 4 4 27l1 5v2l2 8v3l87 564l121 56l-99 -640q-1 -10 4.5 -17.5t17.5 -7.5q30 0 162 186
l65 417q0 2 2 3zM262 836q-6 1 -8 7.5t2 10.5l58 58q6 6 14 6t13 -6l59 -58q5 -5 2.5 -12t-9.5 -7h-14q-17 0 -29 12l-20 21l-22 -22q-14 -15 -34 -12z" />
    <glyph glyph-name="Udieresis" unicode="&#xdc;" horiz-adv-x="430" 
d="M474 801q2 1 4 -0.5t2 -3.5l-73 -471l-46 -294l-6 -35q-1 -7 -6 -3l-6 5l-25 20l-62 50q-2 1 -1 3l10 70q-22 -25 -45.5 -48.5t-62.5 -50t-66 -26.5q-51 0 -78 35.5t-21 78.5l2 12q0 4 4 27l1 5v2l2 8v3l87 564l121 56l-99 -640q-1 -10 4.5 -17.5t17.5 -7.5q30 0 162 186
l65 417q0 2 2 3zM277.5 825q-14.5 0 -20 11.5t0.5 23.5t20 12t20 -12t0 -23.5t-20.5 -11.5zM350 830q-14 0 -19.5 11t0 22.5t19.5 11.5t20 -11.5t0 -22.5t-20 -11z" />
    <glyph glyph-name="Yacute" unicode="&#xdd;" horiz-adv-x="338" 
d="M487 712q2 -5 0 -10l-200 -387l-1 -3l-60 -116l-11 -22l-87 -167q-4 -10 -13 -5l-80 45q-9 4 -4 13l137 266l-124 402q-2 5 2 9l69 85q4 5 10 4t7 -7l109 -352l175 341q3 5 9 5t8 -5zM264 849q-8 4 -3 16.5t16 24.5l47 48q6 6 12 5l17 -6q10 -2 11.5 -17t-8.5 -24
l-50 -48z" />
    <glyph glyph-name="germandbls" unicode="&#xdf;" horiz-adv-x="537" 
d="M418 445q13 -8 25.5 -17.5t29 -26t28.5 -35.5t20.5 -46t8.5 -57q0 -48 -19 -90t-50 -71t-73 -51.5t-86 -34.5t-91 -17l13 104q57 10 96 35t57.5 57.5t18.5 70.5q0 71 -61 113q-62 -37 -123 -37q-31 0 -56 9l-41 -258l-39 -326h-6q-1 1 -2 1l-92 75q-2 1 -2 3l128 876
q2 2 6.5 6t19 15t30.5 21t41 22t50 20.5t57.5 14.5t64.5 6q159 0 159 -153q0 -50 -31 -113t-81 -116zM182 416q30 0 71.5 21.5t79.5 55.5t64.5 83t26.5 98q0 59 -66 59q-69 0 -154 -75l-37 -239q9 -3 15 -3z" />
    <glyph glyph-name="agrave" unicode="&#xe0;" 
d="M322 468q7 3 13 -1.5t5 -11.5l-71 -449q-1 -8 -8 -10.5t-13 2.5l-68 54l2 15q-7 -11 -17 -23t-32 -28t-41 -16q-22 0 -42 15t-32.5 40.5t-12.5 55.5q0 40 10.5 99.5t29 119.5t47.5 102t61 42q13 0 27 -4.5t24 -11t18.5 -13t12.5 -10.5l5 -5zM209 240l14 86q-23 59 -51 59
q-10 0 -23.5 -29.5t-24 -70.5t-18.5 -84t-7.5 -70.5t9.5 -29.5q11 0 27 16.5t31.5 43t25 44.5t17.5 35zM246 524l-44 42q-8 8 -7 21.5t10 14.5l15 6q6 1 11 -5l41 -43q10 -9 14.5 -20.5t-3.5 -14.5l-27 -5q-5 -1 -10 4z" />
    <glyph glyph-name="aacute" unicode="&#xe1;" 
d="M322 468q7 3 13 -1.5t5 -11.5l-71 -449q-1 -8 -8 -10.5t-13 2.5l-68 54l2 15q-7 -11 -17 -23t-32 -28t-41 -16q-22 0 -42 15t-32.5 40.5t-12.5 55.5q0 40 10.5 99.5t29 119.5t47.5 102t61 42q13 0 27 -4.5t24 -11t18.5 -13t12.5 -10.5l5 -5zM209 240l14 86q-23 59 -51 59
q-10 0 -23.5 -29.5t-24 -70.5t-18.5 -84t-7.5 -70.5t9.5 -29.5q11 0 27 16.5t31.5 43t25 44.5t17.5 35zM172 525q-8 3 -3 14.5t14 20.5l42 43q5 6 10 5l15 -6q9 -1 10.5 -14.5t-7.5 -21.5l-44 -42q-5 -5 -10 -4z" />
    <glyph glyph-name="acircumflex" unicode="&#xe2;" 
d="M322 468q7 3 13 -1.5t5 -11.5l-71 -449q-1 -8 -8 -10.5t-13 2.5l-68 54l2 15q-7 -11 -17 -23t-32 -28t-41 -16q-22 0 -42 15t-32.5 40.5t-12.5 55.5q0 40 10.5 99.5t29 119.5t47.5 102t61 42q13 0 27 -4.5t24 -11t18.5 -13t12.5 -10.5l5 -5zM209 240l14 86q-23 59 -51 59
q-10 0 -23.5 -29.5t-24 -70.5t-18.5 -84t-7.5 -70.5t9.5 -29.5q11 0 27 16.5t31.5 43t25 44.5t17.5 35zM181 530q-7 1 -9 7.5t3 11.5l61 61q6 6 14.5 6t14.5 -6l62 -62q5 -5 2.5 -12t-10.5 -7h-15q-17 0 -30 12l-21 22l-24 -23q-15 -16 -36 -12z" />
    <glyph glyph-name="atilde" unicode="&#xe3;" 
d="M322 468q5 2 9 1t7 -5.5t2 -8.5l-71 -449q-1 -8 -8 -10.5t-13 2.5l-68 54l2 15q-7 -11 -17 -23t-32 -28t-41 -16q-22 0 -42 15t-32.5 40.5t-12.5 55.5q0 40 10.5 99.5t29 119.5t47.5 102t61 42q13 0 27 -4.5t24 -11t18.5 -13t12.5 -10.5l5 -5zM209 240l14 86
q-23 59 -51 59q-10 0 -23.5 -29.5t-24 -70.5t-18.5 -84t-7.5 -70.5t9.5 -29.5q11 0 27 16.5t31.5 43t25 44.5t17.5 35zM159 522q-7 -8 -16 -5t-11.5 12t2.5 18q39 50 76 51q19 0 43 -15q13 -8 23.5 -8.5t25.5 3.5q7 2 12 -3t3 -12q-4 -18 -19 -26t-34 -5q-10 1 -24 10
t-19 11q-21 10 -42 -9q-6 -5 -20 -22z" />
    <glyph glyph-name="adieresis" unicode="&#xe4;" 
d="M322 468q5 2 9 1t7 -5.5t2 -8.5l-71 -449q-1 -8 -8 -10.5t-13 2.5l-68 54l2 15q-7 -11 -17 -23t-32 -28t-41 -16q-22 0 -42 15t-32.5 40.5t-12.5 55.5q0 40 10.5 99.5t29 119.5t47.5 102t61 42q13 0 27 -4.5t24 -11t18.5 -13t12.5 -10.5l5 -5zM209 240l14 86
q-23 59 -51 59q-10 0 -23.5 -29.5t-24 -70.5t-18.5 -84t-7.5 -70.5t9.5 -29.5q11 0 27 16.5t31.5 43t25 44.5t17.5 35zM199 527q-15 0 -21.5 12.5t0 25t21.5 12.5t21.5 -12.5t0 -25t-21.5 -12.5zM276 532q-15 0 -21 12t0 24.5t21 12.5t21 -12.5t0 -24.5t-21 -12z" />
    <glyph glyph-name="aring" unicode="&#xe5;" 
d="M322 468q5 2 9 1t7 -5.5t2 -8.5l-71 -449q-1 -8 -8 -10.5t-13 2.5l-68 54l2 15q-7 -11 -17 -23t-32 -28t-41 -16q-22 0 -42 15t-32.5 40.5t-12.5 55.5q0 40 10.5 99.5t29 119.5t47.5 102t61 42q13 0 27 -4.5t24 -11t18.5 -13t12.5 -10.5l5 -5zM209 240l14 86
q-23 59 -51 59q-10 0 -23.5 -29.5t-24 -70.5t-18.5 -84t-7.5 -70.5t9.5 -29.5q11 0 27 16.5t31.5 43t25 44.5t17.5 35zM208 511q-13 -1 -23.5 5.5t-15.5 16.5t-7 22.5t1 23.5q7 24 28.5 37.5t44.5 8.5q25 -6 39 -28t6 -45q-6 -17 -25 -29t-34 -6q-5 -6 -14 -6zM197 578
q-5 -8 -2 -19.5t13 -10.5q5 0 8 -1q20 9 24 13q6 8 4.5 16.5t-10.5 13.5q-10 6 -20.5 2t-16.5 -14z" />
    <glyph glyph-name="ae" unicode="&#xe6;" horiz-adv-x="453" 
d="M389 105l16 -57q2 -6 -3 -10q-57 -57 -103 -57q-23 0 -44 14q-4 0 -7 3l-68 54l2 15q-7 -11 -17 -23t-32 -28t-41 -16q-22 0 -42 15t-32.5 40.5t-12.5 55.5q0 40 10.5 99.5t29 119.5t47.5 102t61 42q13 0 27 -4.5t24 -11t18.5 -13t12.5 -10.5l4 -5l46 21q25 23 58 23
q48 0 77.5 -30t29.5 -99q0 -71 -34 -127t-80 -56q-18 0 -41 12l-7 -50q-1 -5 -1 -8q0 -31 24 -31t62 25q4 3 9 1.5t7 -6.5zM319 320l-16 -96q7 -2 10 -2q25 0 42.5 44.5t16 82t-14.5 43.5q-19 0 -38 -72zM216 283l7 43q-23 59 -51 59q-10 0 -23.5 -29.5t-24 -70.5t-18.5 -84
t-7.5 -70.5t9.5 -29.5q34 0 99 133q4 25 9 49z" />
    <glyph glyph-name="ccedilla" unicode="&#xe7;" horiz-adv-x="217" 
d="M231 437q7 -6 5 -15l-9 -54q-1 -8 -9 -9.5t-13 5.5q-16 28 -34 28q-25 0 -47.5 -110t-22.5 -166q0 -42 62 -21q6 2 11 -2.5t4 -10.5l-10 -60q-1 -7 -7 -9q-20 -9 -50 -11l-5 -20q31 -1 39.5 -26t-16.5 -75q-10 -18 -26 -29.5t-31 -14t-29 -3t-22 1.5l-9 2l10 48
q8 -14 23 -16t29 5t25 20.5t12 28.5q1 19 -11 28t-24 9h-13l10 46q-27 12 -46 42.5t-19 66.5q0 62 20 158.5t52 152.5q27 47 71 47q40 0 80 -37z" />
    <glyph glyph-name="egrave" unicode="&#xe8;" horiz-adv-x="266" 
d="M202 105l16 -57q2 -6 -3 -10q-43 -43 -94 -43q-45 0 -79 37t-34 84q0 62 19.5 158.5t51.5 152.5q27 47 77 47q48 0 77.5 -30t29.5 -99q0 -71 -34 -127t-79 -56q-20 0 -45 13q-5 -40 -5 -59q0 -31 24 -31t62 25q4 3 9 1.5t7 -6.5zM170 392q-31 0 -58 -166q9 -4 14 -4
q25 0 42.5 44.5t16 82t-14.5 43.5zM180 529l-44 46q-10 10 -15 22t3 15l29 5q6 1 11 -4l46 -45q9 -8 8 -22t-11 -16l-16 -5z" />
    <glyph glyph-name="eacute" unicode="&#xe9;" horiz-adv-x="266" 
d="M202 105l16 -57q2 -6 -3 -10q-43 -43 -94 -43q-45 0 -79 37t-34 84q0 62 19.5 158.5t51.5 152.5q27 47 77 47q48 0 77.5 -30t29.5 -99q0 -71 -34 -127t-79 -56q-20 0 -45 13q-5 -40 -5 -59q0 -31 24 -31t62 25q4 3 9 1.5t7 -6.5zM170 392q-31 0 -58 -166q9 -4 14 -4
q25 0 42.5 44.5t16 82t-14.5 43.5zM127 530q-8 3 -3 15t15 22l44 46q5 5 11 4l16 -5q10 -2 11 -16t-8 -22l-47 -45l-10 -4z" />
    <glyph glyph-name="ecircumflex" unicode="&#xea;" horiz-adv-x="266" 
d="M202 105l16 -57q2 -6 -3 -10q-43 -43 -94 -43q-45 0 -79 37t-34 84q0 62 19.5 158.5t51.5 152.5q27 47 77 47q48 0 77.5 -30t29.5 -99q0 -71 -34 -127t-79 -56q-20 0 -45 13q-5 -40 -5 -59q0 -31 24 -31t62 25q4 3 9 1.5t7 -6.5zM170 392q-31 0 -58 -166q9 -4 14 -4
q25 0 42.5 44.5t16 82t-14.5 43.5zM108 528q-6 1 -8 6.5t2 10.5l54 53q5 6 12.5 6t12.5 -6l55 -54q4 -5 1.5 -11t-8.5 -6h-13q-16 0 -27 11l-19 19l-20 -20q-13 -14 -32 -11z" />
    <glyph glyph-name="edieresis" unicode="&#xeb;" horiz-adv-x="266" 
d="M202 105l16 -57q2 -6 -3 -10q-43 -43 -94 -43q-45 0 -79 37t-34 84q0 62 19.5 158.5t51.5 152.5q27 47 77 47q48 0 77.5 -30t29.5 -99q0 -71 -34 -127t-79 -56q-20 0 -45 13q-5 -40 -5 -59q0 -31 24 -31t62 25q4 3 9 1.5t7 -6.5zM170 392q-31 0 -58 -166q9 -4 14 -4
q25 0 42.5 44.5t16 82t-14.5 43.5zM159 524q-13 0 -18.5 11t0 22t18.5 11t18.5 -11t0 -22t-18.5 -11zM226 529q-13 0 -18 10.5t0 21t18 10.5t18.5 -10.5t0 -21t-18.5 -10.5z" />
    <glyph glyph-name="igrave" unicode="&#xec;" horiz-adv-x="132" 
d="M-1 54l59 375l104 48l-76 -487q-1 -2 -2.5 -3t-3.5 1l-79 63q-2 2 -2 3zM164 562q10 -9 8.5 -24t-11.5 -17l-17 -5q-6 -1 -11 4l-47 48q-10 11 -15 23.5t3 16.5l30 5q6 1 11 -4z" />
    <glyph glyph-name="iacute" unicode="&#xed;" horiz-adv-x="135" 
d="M-1 54l59 375l104 48l-76 -487q-1 -2 -2.5 -3t-3.5 1l-79 63q-2 2 -2 3zM164 606q11 -2 12 -16.5t-8 -23.5l-49 -48q-6 -5 -12 -4l-30 5q-8 4 -3 16.5t16 23.5l46 48q6 6 12 5z" />
    <glyph glyph-name="icircumflex" unicode="&#xee;" horiz-adv-x="153" 
d="M-1 54l59 375l104 48l-76 -487q-1 -2 -2.5 -3t-3.5 1l-79 63q-2 2 -2 3zM191 533q5 -5 2.5 -11.5t-8.5 -6.5h-12q-15 0 -25 12l-18 20l-19 -21q-13 -15 -30 -12l-10 2q-6 1 -7.5 7t2.5 11l50 57q5 6 12 6t12 -6z" />
    <glyph glyph-name="idieresis" unicode="&#xef;" horiz-adv-x="127" 
d="M-1 54l59 375l104 48l-76 -487q-1 -2 -2.5 -3t-3.5 1l-79 63q-2 2 -2 3zM76 529q-15 0 -20.5 11.5t0 23t20.5 11.5q10 0 16 -7t6 -16t-6 -16t-16 -7zM146.5 534q-13.5 0 -19 11t0 22t19 11t19 -11t0 -22t-19 -11z" />
    <glyph glyph-name="ntilde" unicode="&#xf1;" horiz-adv-x="325" 
d="M238 473q43 0 64.5 -30t16.5 -68l-2 -10q0 -4 -0.5 -7.5t-1 -6t-1 -5.5t-0.5 -5l-1 -3v-2l-1 -7l-1 -3l-53 -336q-1 -6 -5 -2l-80 63q-1 2 -1 3l46 290q1 8 -4 14.5t-15 6.5q-21 0 -66 -74l-3 -20l-39 -251l-5 -30q-1 -6 -6 -2l-5 4l-21 16l-53 43q-2 2 -2 3l61 386
q0 2 2 2l97 45q1 1 3 -0.5t1 -3.5l-7 -44q38 34 82 34zM169 535q-6 -7 -14 -4.5t-10.5 10.5t2.5 16q34 44 67 45q16 0 37 -13q12 -8 21.5 -8t21.5 4q7 1 11.5 -3.5t3.5 -10.5q-5 -18 -23 -25q-17 -7 -35 3l-26 14q-15 9 -29 -3z" />
    <glyph glyph-name="ograve" unicode="&#xf2;" horiz-adv-x="289" 
d="M188 477q52 -9 76.5 -84.5t7.5 -173.5q-11 -64 -37.5 -115.5t-61 -78.5t-68.5 -21q-52 10 -76.5 85.5t-7.5 173.5t66 160.5t101 53.5zM180 235q11 59 8.5 103t-17 46.5t-31.5 -38t-27.5 -99.5t-8 -103t16.5 -46q9 -2 20.5 16t21.5 50t17 71zM197 554l-39 37q-7 7 -6 19
t9 13l13 5q5 1 9 -4l37 -38q8 -8 12 -18t-2 -13l-24 -4q-5 -1 -9 3z" />
    <glyph glyph-name="oacute" unicode="&#xf3;" horiz-adv-x="289" 
d="M188 477q52 -9 76.5 -84.5t7.5 -173.5q-11 -64 -37.5 -115.5t-61 -78.5t-68.5 -21q-52 10 -76.5 85.5t-7.5 173.5t66 160.5t101 53.5zM180 235q11 59 8.5 103t-17 46.5t-31.5 -38t-27.5 -99.5t-8 -103t16.5 -46q9 -2 20.5 16t21.5 50t17 71zM160 554q-6 3 -2 13t12 19
l37 38q4 4 9 3l13 -4q8 -2 9 -13.5t-6 -18.5l-39 -38q-4 -4 -9 -3z" />
    <glyph glyph-name="ocircumflex" unicode="&#xf4;" horiz-adv-x="289" 
d="M188 477q52 -9 76.5 -84.5t7.5 -173.5q-11 -64 -37.5 -115.5t-61 -78.5t-68.5 -21q-52 10 -76.5 85.5t-7.5 173.5t66 160.5t101 53.5zM180.5 235q10.5 59 8 103t-17 46.5t-31.5 -38t-27.5 -99.5t-8 -103t16.5 -46.5t31.5 38t28 99.5zM129 539q-6 1 -8 6.5t2 9.5l54 55
q5 6 12.5 6t12.5 -6l56 -54q4 -4 1.5 -10.5t-8.5 -6.5h-14q-15 0 -26 11l-19 19l-20 -21q-6 -6 -15 -9h-28z" />
    <glyph glyph-name="otilde" unicode="&#xf5;" horiz-adv-x="289" 
d="M188 477q52 -9 76.5 -84.5t7.5 -173.5q-11 -64 -37.5 -115.5t-61 -78.5t-68.5 -21q-52 10 -76.5 85.5t-7.5 173.5t66 160.5t101 53.5zM180 235q11 59 8.5 103t-17 46.5t-31.5 -38t-27.5 -99.5t-8 -103t16.5 -46q9 -2 20.5 16t21.5 50t17 71zM117 520q-11 -12 -21 1
q-7 11 -1 21q35 44 68 45q16 0 37 -13q11 -8 20.5 -8t22.5 4q6 1 10.5 -3.5t3.5 -10.5q-4 -15 -17.5 -22.5t-29.5 -4.5q-9 1 -21.5 9t-16.5 10q-19 8 -37 -8q-5 -5 -18 -20z" />
    <glyph glyph-name="odieresis" unicode="&#xf6;" horiz-adv-x="290" 
d="M188 477q52 -9 76.5 -84.5t7.5 -173.5q-11 -64 -37.5 -115.5t-61 -78.5t-68.5 -21q-52 10 -76.5 85.5t-7.5 173.5t66 160.5t101 53.5zM180.5 235q10.5 59 8 103t-17 46.5t-31.5 -38t-27.5 -99.5t-8 -103t16.5 -46.5t31.5 38t28 99.5zM180 557q-13 0 -18.5 11t0 22
t18.5 11q8 0 13.5 -4.5t7 -11t0 -13t-7 -11t-13.5 -4.5zM248 562q-13 0 -18.5 10.5t0 21t18.5 10.5t18 -10.5t0 -21t-18 -10.5z" />
    <glyph glyph-name="divide" unicode="&#xf7;" horiz-adv-x="458" 
d="M220 564q-4 0 -6.5 3.5t-1.5 8.5l31 83q2 6 8 6h82q3 0 5.5 -2t3 -4.5t0.5 -5.5l-31 -83q-2 -6 -8 -6h-83zM235 308q4 0 6.5 -4t1.5 -8l-31 -84q-2 -5 -8 -5h-82q-5 0 -7.5 3.5t-0.5 7.5l30 84q2 6 8 6h83zM398 477q4 0 6.5 -1.5t3 -4t-0.5 -5.5l-33 -84q-2 -5 -8 -5
h-307q-3 0 -5.5 1.5t-3 4t0.5 5.5l32 84q3 5 9 5h306z" />
    <glyph glyph-name="oslash" unicode="&#xf8;" horiz-adv-x="292" 
d="M342 467l-64 -97q15 -70 1 -151q-17 -98 -66 -161t-101 -54q-29 6 -51 35l-24 -36l-61 -3l58 93q-23 75 -6 170q17 98 66 160.5t101 53.5q33 -6 56 -41l21 31h70zM128 98q14 -3 31 36t28 97l-73 -110q5 -22 14 -23zM115 221l80 125q-4 36 -16 38q-14 3 -31.5 -37.5
t-28.5 -99.5z" />
    <glyph glyph-name="ugrave" unicode="&#xf9;" horiz-adv-x="337" 
d="M342 487q2 1 3.5 -0.5t1.5 -3.5l-34 -212l-39 -251l-5 -30q-1 -6 -6 -2l-5 4l-21 16l-53 43q-2 2 -1 3l1 11q-41 -50 -97 -50q-43 0 -64.5 30t-16.5 68l2 10q0 3 1 7t1 6.5t0.5 5.5t1.5 4v4v2l2 7v2l42 267l104 48l-52 -332q-1 -5 0.5 -10t6.5 -8t11 -3q26 0 84 104
l33 213q1 2 2 2zM194 538l-47 49q-11 11 -16 24t3 17l31 5q6 1 11 -4l51 -48q9 -10 8 -25t-12 -17z" />
    <glyph glyph-name="uacute" unicode="&#xfa;" horiz-adv-x="337" 
d="M342 487q2 1 3.5 -0.5t1.5 -3.5l-34 -212l-39 -251l-5 -30q-1 -6 -6 -2l-5 4l-21 16l-53 43q-2 2 -1 3l1 11q-41 -50 -97 -50q-43 0 -64.5 30t-16.5 68l2 10q0 3 1 7t1 6.5t0.5 5.5t1.5 4v4v2l2 7v2l42 267l104 48l-52 -332q-1 -5 0.5 -10t6.5 -8t11 -3q26 0 84 104
l33 213q1 2 2 2zM182 538q-9 4 -3.5 16.5t16.5 24.5l47 49q5 5 12 4l17 -6q10 -1 11.5 -16.5t-8.5 -24.5l-50 -48l-12 -4z" />
    <glyph glyph-name="ucircumflex" unicode="&#xfb;" horiz-adv-x="337" 
d="M342 487q2 1 3.5 -0.5t1.5 -3.5l-34 -212l-39 -251l-5 -30q-1 -6 -6 -2l-5 4l-21 16l-53 43q-2 2 -1 3l1 11q-41 -50 -97 -50q-43 0 -64.5 30t-16.5 68l2 10q0 3 1 7t1 6.5t0.5 5.5t1.5 4v4v2l2 7v2l42 267l104 48l-52 -332q-1 -5 0.5 -10t6.5 -8t11 -3q26 0 84 104
l33 213q1 2 2 2zM158 551q-6 1 -8 7t2 11l58 58q6 6 14 6t13 -6l59 -59q5 -5 2.5 -11.5t-9.5 -6.5h-14q-17 0 -29 12l-20 20l-22 -22q-14 -14 -34 -11z" />
    <glyph glyph-name="udieresis" unicode="&#xfc;" horiz-adv-x="337" 
d="M342 487q2 1 3.5 -0.5t1.5 -3.5l-34 -212l-39 -251l-5 -30q-1 -6 -6 -2l-5 4l-21 16l-53 43q-2 2 -1 3l1 11q-41 -50 -97 -50q-43 0 -64.5 30t-16.5 68l2 10q0 3 1 7t1 6.5t0.5 5.5t1.5 4v4v2l2 7v2l42 267l104 48l-52 -332q-1 -5 0.5 -10t6.5 -8t11 -3q26 0 84 104
l33 213q1 2 2 2zM173.5 539q-14.5 0 -20 12t0.5 24t20 12t20 -12t0 -24t-20.5 -12zM246 544q-14 0 -19.5 11.5t0 23t19.5 11.5t20 -11.5t0 -23t-20 -11.5z" />
    <glyph glyph-name="yacute" unicode="&#xfd;" horiz-adv-x="325" 
d="M327 464q2 1 3.5 0t1.5 -4l-65 -413q-2 -9 -2 -12l-5 -31q-1 -3 -2 -12q-47 -285 -104 -331q-35 -27 -81 -27q-34 0 -63.5 10.5t-41 19.5t-20.5 18q-2 3 -1 7l24 68q2 4 6 5t7 -3q24 -36 66 -36q17 0 32 14t27 42.5t20.5 56t16.5 69.5t12 66.5t10 62.5q-37 -34 -82 -34
q-43 0 -64.5 30t-16.5 68l2 10q0 1 4 23v4q0 1 1 2l1 7v3l42 266l104 48l-52 -332q-1 -8 3.5 -14.5t14.5 -6.5q21 0 66 74l37 235q1 2 2 3zM166 519q-8 4 -2.5 16.5t15.5 23.5l47 49q6 6 12 5l17 -6q10 -2 11.5 -17t-8.5 -24l-50 -48z" />
    <glyph glyph-name="ydieresis" unicode="&#xff;" horiz-adv-x="325" 
d="M327 464q2 1 3.5 0t1.5 -4l-65 -413q-2 -9 -2 -12l-5 -31q-1 -3 -2 -12q-47 -285 -104 -331q-35 -27 -81 -27q-34 0 -63.5 10.5t-41 19.5t-20.5 18q-2 3 -1 7l24 68q2 4 6 5t7 -3q24 -36 66 -36q17 0 32 14t27 42.5t20.5 56t16.5 69.5t12 66.5t10 62.5q-38 -34 -82 -34
q-43 0 -64.5 30t-16.5 68l2 10q0 1 4 23v4q0 1 1 2l1 7v3l42 266l104 48l-52 -332q-1 -8 3.5 -14.5t14.5 -6.5q21 0 66 74l37 235q1 2 2 3zM179.5 514q-14.5 0 -20 11.5t0 23.5t20 12t20.5 -12t0 -23.5t-20.5 -11.5zM251.5 519q-13.5 0 -19.5 11t0 22.5t19.5 11.5
t19.5 -11.5t0 -22.5t-19.5 -11z" />
    <glyph glyph-name="OE" unicode="&#x152;" horiz-adv-x="653" 
d="M704 819q2 0 3.5 -1.5t0.5 -4.5l-45 -115q-1 -2 -3 -3l-213 -46l-11 -65l-31 -201l20 5l109 23q2 1 3.5 -1t0.5 -4l-45 -116q0 -2 -3 -2l-94 -21q-8 -24 -17 -45l-17 -113l7 1l239 53q2 0 3.5 -2t0.5 -4l-45 -115q-1 -2 -3 -3l-213 -47l-10 -2q-3 -1 -4 1l-7 5l-24 19
l-38 31q-60 -56 -118 -46q-55 9 -91.5 75t-45 164t9.5 217q20 114 64 206t100.5 140.5t110.5 38.5q61 -11 99 -89l68 15zM321 564q2 53 -1.5 94t-13 65.5t-24.5 26.5q-16 3 -35 -20.5t-37.5 -66t-35 -102.5t-28.5 -127q-24 -136 -18.5 -237t38.5 -107q25 -4 56 53.5
t56 153.5h1l9 61z" />
    <glyph glyph-name="oe" unicode="&#x153;" horiz-adv-x="431" 
d="M367 105l16 -57q2 -6 -3 -10q-43 -43 -94 -43q-55 0 -90 51q-45 -50 -91 -42q-52 10 -76.5 85.5t-7.5 173.5t66 160.5t101 53.5q35 -6 59 -46q27 43 75 43q47 0 76.5 -30t29.5 -99q0 -71 -34 -127t-79 -56q-20 0 -45 13q-5 -40 -5 -59q0 -31 24 -31t62 25q5 3 9.5 1.5
t6.5 -6.5zM335 392q-31 0 -58 -166q10 -4 14 -4q25 0 42.5 44.5t16 82t-14.5 43.5zM180 235q11 59 8.5 103t-17 46.5t-31.5 -38t-27.5 -99.5t-8 -103t16.5 -46q9 -2 20.5 16t21.5 50t17 71z" />
    <glyph glyph-name="Scaron" unicode="&#x160;" horiz-adv-x="415" 
d="M282 687q-29 0 -54 -24.5t-25 -73.5q0 -32 18.5 -70.5t45 -75t53 -74t45 -78.5t18.5 -78t-11.5 -72t-35 -66.5t-67.5 -51t-103 -19.5q-33 0 -62 11.5t-48.5 29.5t-35.5 40t-25 44t-15 40.5t-9 29.5l-2 11l99 54q0 -57 34 -101t75 -44q34 0 61.5 25t27.5 63
q0 26 -19.5 62.5t-47.5 75.5t-56.5 80.5t-48 90.5t-19.5 93q0 85 61 144.5t138 59.5q37 0 68.5 -11.5t53 -30t38.5 -40.5t27 -44.5t17 -41t10 -29.5l2 -12l-99 -45q0 6 -1.5 14.5t-9 30.5t-18 39t-32 30.5t-48.5 13.5zM275 869l-58 58q-4 4 -2 10.5t8 7.5l12 1q20 3 34 -11
l22 -22l20 21q12 11 29 11h14q7 0 9.5 -6.5t-2.5 -11.5l-59 -58q-5 -6 -13 -6t-14 6z" />
    <glyph glyph-name="scaron" unicode="&#x161;" horiz-adv-x="280" 
d="M176 480q31 0 55 -9t37 -23.5t19 -25t9 -20.5q1 -6 -3 -10l-49 -41q-3 -3 -7.5 -2t-6.5 5q-18 36 -49 36t-31 -39q0 -19 9.5 -42.5t23 -45.5t26.5 -44t22.5 -47t9.5 -47q0 -23 -6.5 -44t-21 -40t-41 -30t-61.5 -11q-31 0 -55.5 11.5t-38.5 30t-21 32t-11 25.5q-2 7 4 11
l62 36q9 5 13 -4q21 -51 43 -51q18 0 27 13.5t9 32.5q0 18 -13.5 46t-30 52.5t-30 60t-13.5 67.5q0 51 36.5 84t83.5 33zM170 549l-58 58q-5 5 -3 11t9 7l11 2q20 3 35 -11l22 -22l20 20q12 12 28 12h14q7 0 10 -6.5t-2 -11.5l-59 -59q-6 -6 -13.5 -6t-13.5 6z" />
    <glyph glyph-name="Ydieresis" unicode="&#x178;" horiz-adv-x="338" 
d="M487 712q2 -5 0 -10l-200 -387l-1 -3l-60 -116l-11 -22l-87 -167q-4 -10 -13 -5l-80 45q-9 4 -4 13l137 266l-124 402q-2 5 2 9l69 85q4 5 10 4t7 -7l109 -352l175 341q3 5 9 5t9 -5zM267 859q-11 0 -17 7t-6 16t6 16.5t17 7.5q14 0 20 -12t0 -23.5t-20 -11.5zM338.5 864
q-13.5 0 -19.5 11t0 22.5t19.5 11.5t19.5 -11.5t0 -22.5t-19.5 -11z" />
    <glyph glyph-name="zcaron" unicode="&#x17e;" horiz-adv-x="317" 
d="M327 429q9 -12 8.5 -27.5t-9.5 -27.5l-39 -52l-172 -229l37 6l114 19q1 0 2.5 -1.5t0.5 -3.5l-35 -95q-1 -2 -2 -2l-148 -25q-30 -5 -57 9.5t-39 42.5q-10 25 5 46l224 299l-179 -30q-2 0 -3.5 1.5t-0.5 3.5l35 95q1 2 3 2l152 26q25 4 48.5 -5.5t38.5 -29.5zM221 543
l-58 58q-5 5 -3 11t9 7l11 2q20 3 35 -11l22 -22l20 20q12 12 28 12h14q7 0 10 -6.5t-2 -11.5l-59 -59q-5 -6 -13 -6t-14 6z" />
    <glyph glyph-name="endash" unicode="&#x2013;" horiz-adv-x="555" 
d="M497 339q4 0 6.5 -4t0.5 -8l-29 -80q-2 -6 -8 -6h-409q-4 0 -6.5 3.5t-0.5 7.5l29 81q2 6 8 6h409z" />
    <glyph glyph-name="emdash" unicode="&#x2014;" horiz-adv-x="776" 
d="M717 339q5 0 7.5 -4t0.5 -8l-29 -80q-2 -6 -8 -6h-630q-4 0 -6.5 3.5t-0.5 7.5l29 81q2 6 8 6h629z" />
    <glyph glyph-name="quoteleft" unicode="&#x2018;" horiz-adv-x="130" 
d="M182 836q4 0 6.5 -3.5t1.5 -7.5l-30 -81q-2 -5 -8 -5h-79q-5 0 -7 3.5t-1 7.5l31 86l8 22q2 6 8.5 5.5t7.5 -6.5l3 -14q1 -7 8 -7h51z" />
    <glyph glyph-name="quoteright" unicode="&#x2019;" horiz-adv-x="132" 
d="M182 836q4 0 6.5 -4t1.5 -8l-32 -86l-8 -21q-2 -6 -8 -5.5t-8 6.5l-2 14q-2 6 -8 6h-51q-5 0 -7 3.5t-1 7.5l29 81q2 6 8 6h80z" />
    <glyph glyph-name="quotesinglbase" unicode="&#x201a;" horiz-adv-x="135" 
d="M65 97q5 0 7.5 -3.5t0.5 -8.5l-31 -86l-8 -21q-2 -6 -8.5 -5.5t-7.5 6.5l-3 14q-1 6 -8 6h-51q-4 0 -6.5 3.5t-1.5 7.5l30 81q2 6 8 6h79z" />
    <glyph glyph-name="quotedblleft" unicode="&#x201c;" horiz-adv-x="346" 
d="M288 836q3 0 5 -1.5t3 -4t0 -5.5l-29 -81q-2 -5 -8 -5h-80q-4 0 -6.5 3.5t-1.5 7.5l32 86l7 22q3 6 9 5.5t7 -6.5l3 -14q2 -7 8 -7h51zM167 836q5 0 7.5 -3.5t0.5 -7.5l-29 -81q-2 -5 -8 -5h-80q-4 0 -6.5 3.5t-0.5 7.5l31 86l8 22q2 6 8 5.5t8 -6.5l2 -14q2 -7 9 -7h50z
" />
    <glyph glyph-name="quotedblright" unicode="&#x201d;" horiz-adv-x="344" 
d="M167 836q5 0 7.5 -4t0.5 -8l-31 -86l-8 -21q-2 -6 -8.5 -5.5t-7.5 6.5l-3 14q-1 6 -8 6h-51q-4 0 -6.5 3.5t-0.5 7.5l29 81q2 6 8 6h79zM286 836q4 0 6.5 -4t1.5 -8l-32 -86l-8 -21q-2 -6 -8 -5.5t-8 6.5l-2 14q-2 6 -8 6h-51q-5 0 -7.5 3.5t-0.5 7.5l29 81q2 6 8 6h80z
" />
    <glyph glyph-name="quotedblbase" unicode="&#x201e;" horiz-adv-x="261" 
d="M191 97q4 0 6.5 -3.5t1.5 -8.5l-32 -86l-7 -21q-3 -6 -9 -5.5t-7 6.5l-3 14q-2 6 -8 6h-51q-4 0 -6.5 3.5t-1.5 7.5l29 81q2 6 8 6h80zM65 97q5 0 7.5 -3.5t0.5 -8.5l-31 -86l-8 -21q-2 -6 -8.5 -5.5t-7.5 6.5l-3 14q-1 6 -8 6h-51q-4 0 -6.5 3.5t-1.5 7.5l30 81q2 6 8 6
h79z" />
    <glyph glyph-name="bullet" unicode="&#x2022;" horiz-adv-x="205" 
d="M172 365q7 0 11 -5.5t1 -12.5l-47 -130q-3 -9 -13 -9h-128q-7 0 -11 6t-2 12l47 130q4 9 13 9h129z" />
    <glyph glyph-name="ellipsis" unicode="&#x2026;" horiz-adv-x="386" 
d="M64 89q2 0 4.5 -1.5t3 -4t-0.5 -5.5l-29 -81q-2 -5 -8 -5h-79q-5 0 -7.5 3.5t-0.5 7.5l29 81q2 5 8 5h80zM189 89q3 0 5.5 -1.5t3 -4t-0.5 -5.5l-29 -81q-2 -5 -8 -5h-80q-4 0 -6.5 3.5t-1.5 7.5l30 81q2 5 8 5h79zM315 89q4 0 6.5 -3.5t1.5 -7.5l-30 -81q-2 -5 -7 -5
h-80q-4 0 -6.5 3.5t-1.5 7.5l30 81q2 5 7 5h80z" />
    <glyph glyph-name="Euro" unicode="&#x20ac;" horiz-adv-x="540" 
d="M441 839q58 0 96.5 -40.5t39.5 -102.5q1 -5 -4 -8l-57 -41q-5 -3 -10 -0.5t-5 7.5q0 14 -2.5 26.5t-8.5 27t-19 23.5t-32 9q-29 0 -59.5 -46t-57.5 -121h104l-45 -109h-92q-12 -46 -20 -92h74l-45 -109h-43q-1 -13 -1 -21q0 -50 6 -82t21 -51.5t41 -19.5q21 0 35.5 14
t19.5 27.5t7 27.5q1 7 8 8l86 16q5 1 8.5 -2t2.5 -8q-2 -28 -12 -56t-29 -55t-52 -43.5t-75 -16.5q-45 0 -79 20t-53 54t-27.5 74t-8.5 85q0 12 1 29h-104l45 109h71q7 46 18 92h-30h-21l45 109h35q18 56 39.5 101t49.5 84t63.5 60t75.5 21z" />
    <glyph glyph-name="trademark" unicode="&#x2122;" horiz-adv-x="472" 
d="M220 744h-1l-73 -18l-37 -232q0 -2 -2 -1l-31 25l-1 1l31 197l-56 -13l15 42l48 11l39 10l80 19l2 -2zM405 778l17 -288l-33 27l-17 166l-67 -193h-1l-33 27l-3 133l-48 -160l-33 27l78 242l41 19l-1 -173l60 154z" />
    </font>
</defs>
</svg>
